<?xml version="1.0" encoding="UTF-8"?>
<svg id="region_illustration" data-name="region illustration" xmlns="http://www.w3.org/2000/svg" viewBox="0 0 120 80">
  <defs>
    <style>
      .cls-1 {
        fill: #231f20;
      }

      .cls-2 {
        fill: #efefef;
      }

      .cls-3 {
        fill: #fff;
      }
    </style>
  </defs>
  <g id="amazon">
    <rect class="cls-1" x="30.44" y="71.4" width="67.63" height="3.97" rx="1.99" ry="1.99"/>
    <g>
      <g>
        <path class="cls-2" d="M64.4,69.69c-2.65-14.66-10.97-25.49-11.05-25.59l-.93.8c.08.11,8.21,10.7,10.8,25.03l1.18-.24Z"/>
        <path class="cls-1" d="M63.21,70.33c-.08,0-.16-.02-.23-.07-.09-.06-.15-.15-.17-.26-2.56-14.14-10.65-24.75-10.73-24.86-.13-.17-.1-.41.06-.55l.93-.8c.08-.07.19-.11.3-.09.11.01.21.07.28.15.08.11,8.45,10.98,11.13,25.77.04.21-.1.42-.32.46l-1.18.24s-.05,0-.08,0ZM52.95,44.96c1.33,1.83,8.16,11.71,10.58,24.5l.4-.08c-2.44-12.94-9.26-22.79-10.65-24.7l-.33.28Z"/>
      </g>
      <g>
        <path class="cls-3" d="M53.61,52.01c-.32-4.12.09-6.38.09-6.38,0,0,2.34-.79,6.02,2.04.52-1.91-1.25-3.61-3.03-3.86.22-.09,2.58-1.05,5.11-1.18-2.83-2.47-6.98-.27-6.98-.27,0,0,1.34-3.73,2.67-5.89-2.4.6-3.89,2.62-4.48,5.16-.58-1.32-1.46-2.5-2.51-3.46-.71-.59-1.55-1.13-2.49-1.22.55.79.95,1.51,1.36,2.25.56,1,1.23,2.29,1.89,3.39-1.98-1.27-4.59-1.5-6.45.05,0,0,.03.12.03.12,2.32.7,5.65,1.62,5.97,1.74-1.44.42-3.83,3.03-2.79,5.65,1.09-1.69,2.34-2.51,3.91-3.56,0,0-.63,3.93,1.69,5.42Z"/>
        <path class="cls-1" d="M53.61,52.41c-.07,0-.15-.02-.22-.06-1.84-1.17-2.01-3.64-1.95-4.95-1.24.85-2.22,1.63-3.1,2.98-.08.13-.22.2-.38.18-.15-.01-.28-.11-.33-.25-.44-1.11-.37-2.32.22-3.51.47-.96,1.19-1.72,1.88-2.2-.35-.1-.76-.22-1.18-.34-1.18-.34-2.64-.76-3.83-1.11-.14-.04-.25-.16-.28-.3q-.03-.16-.03-.21c0-.12.05-.23.14-.31,1.51-1.26,3.67-1.5,5.68-.71-.23-.41-.45-.82-.66-1.21-.19-.36-.38-.7-.55-1.01-.37-.68-.78-1.42-1.34-2.22-.09-.13-.09-.3-.02-.43.08-.13.22-.21.38-.2,1.14.11,2.09.8,2.71,1.31.86.79,1.59,1.7,2.15,2.68.81-2.37,2.37-3.93,4.48-4.45.16-.04.32.02.42.15.1.13.1.31.02.45-.91,1.47-1.83,3.71-2.3,4.94,1.44-.53,4.33-1.22,6.54.71.12.11.17.28.11.43-.05.15-.19.26-.36.27-1.48.08-2.92.45-3.86.75.69.33,1.3.84,1.71,1.47.52.79.67,1.66.44,2.53-.04.13-.13.23-.26.27-.13.04-.27.02-.37-.06-2.8-2.15-4.77-2.11-5.42-2.02-.09.7-.3,2.78-.05,6.02.01.15-.06.3-.19.37-.06.04-.13.06-.21.06ZM51.89,46.23c.07,0,.14.02.2.05.13.09.24.22.22.37,0,.03-.43,2.81.83,4.4-.19-3.5.15-5.41.16-5.5.03-.14.13-.26.27-.31.1-.03,2.35-.75,5.84,1.69,0-.52-.21-.96-.41-1.26-.51-.77-1.44-1.35-2.37-1.48-.18-.02-.32-.17-.34-.34-.02-.18.08-.35.24-.42.09-.04,1.91-.8,4.11-1.1-2.51-1.25-5.61.36-5.65.37-.15.08-.32.06-.45-.05-.12-.11-.17-.28-.11-.44.05-.13,1.03-2.87,2.17-5.01-1.58.76-2.7,2.32-3.21,4.51-.04.17-.18.29-.35.31-.17.01-.33-.08-.4-.24-.55-1.23-1.38-2.38-2.41-3.33-.33-.28-.79-.62-1.31-.86.3.49.56.96.8,1.4.17.31.36.66.56,1.02.42.77.87,1.61,1.32,2.36.1.16.07.36-.06.49-.13.13-.34.15-.49.05-1.52-.97-3.71-1.4-5.45-.36,1.04.31,2.21.64,3.18.92,1.32.38,2.01.58,2.17.64.16.06.27.22.26.39s-.12.32-.29.37c-.69.2-1.75,1.06-2.34,2.26-.25.52-.49,1.25-.39,2.08.99-1.27,2.09-2.01,3.44-2.91.08-.05.18-.08.28-.08Z"/>
      </g>
    </g>
    <g>
      <path class="cls-3" d="M80.37,69.45c3.22-4.41,5.58-6.26,5.58-6.26,0,0,3.01,1.43,4.24,7.72,2.16-1.41,1.86-4.78.31-6.71.3.12,3.47,1.4,6.09,3.66-.69-5.13-6.72-6.88-6.72-6.88,0,0,4.53-2.44,7.71-3.33-2.9-1.68-6.12-1.07-8.89.9.55-1.86.7-3.87.48-5.81-.2-1.26-.57-2.59-1.43-3.57-.13,1.3-.35,2.4-.59,3.52-.3,1.52-.75,3.43-1.03,5.16-.88-3.13-3.28-5.83-6.45-6.05,0,0-.08.15-.08.15,1.71,2.89,4.23,6.96,4.44,7.38-1.79-.95-6.42-.61-7.64,2.98,2.54-.65,4.48-.28,6.95.15,0,0-4.01,3.31-2.97,6.99Z"/>
      <path class="cls-1" d="M90.18,71.31c-.05,0-.11-.01-.16-.03-.12-.05-.21-.16-.24-.29-.98-5.02-3.12-6.84-3.81-7.31-.64.56-2.69,2.45-5.29,6.01-.09.12-.24.19-.39.16-.15-.03-.27-.14-.31-.29-.85-3.01,1.37-5.71,2.5-6.85-2.06-.36-3.8-.58-5.99-.02-.14.04-.29,0-.39-.12-.1-.11-.13-.26-.08-.4.64-1.87,2.07-2.78,3.15-3.21,1.38-.55,2.86-.6,3.98-.37-.28-.47-.65-1.07-1.04-1.72-.88-1.45-1.97-3.24-2.85-4.73-.07-.12-.07-.27,0-.4l.08-.15c.07-.14.22-.23.38-.21,2.98.21,5.18,2.45,6.29,4.93.15-.75.3-1.49.45-2.18.11-.54.22-1.05.32-1.53.22-1.03.44-2.15.58-3.49.02-.16.12-.29.28-.34.15-.05.32,0,.42.12,1.01,1.15,1.35,2.7,1.52,3.77.19,1.7.11,3.39-.23,4.98,2.89-1.72,5.85-1.85,8.45-.35.14.08.22.24.2.4s-.13.29-.29.33c-2.31.65-5.39,2.15-6.83,2.88,1.76.72,5.56,2.73,6.12,6.89.02.17-.06.33-.21.41-.15.08-.33.06-.45-.05-1.68-1.45-3.6-2.49-4.8-3.07.52,1.09.73,2.35.55,3.47-.19,1.17-.76,2.09-1.67,2.68-.07.04-.14.06-.22.06ZM85.94,62.78c.06,0,.12.01.17.04.13.06,3,1.48,4.32,7.36.54-.55.76-1.23.84-1.75.21-1.33-.22-2.89-1.1-3.98-.11-.14-.12-.34-.01-.49.11-.15.3-.2.47-.14.12.05,2.77,1.08,5.3,3-1.27-3.99-6.13-5.45-6.19-5.46-.16-.05-.27-.18-.29-.34-.02-.16.06-.32.21-.39.17-.09,3.78-2.03,6.83-3.06-2.36-.96-5.01-.51-7.58,1.31-.14.1-.33.1-.46,0-.14-.1-.2-.28-.15-.44.52-1.76.68-3.72.47-5.65-.11-.71-.31-1.67-.76-2.52-.13.92-.3,1.74-.46,2.51-.1.48-.2.99-.32,1.53-.24,1.14-.51,2.43-.71,3.6-.03.19-.19.32-.37.33-.18.02-.36-.11-.41-.29-.71-2.53-2.66-5.17-5.49-5.69.81,1.36,1.75,2.91,2.53,4.19.96,1.57,1.5,2.47,1.61,2.68.08.16.05.34-.07.47-.12.12-.31.15-.47.07-.89-.47-2.73-.62-4.38.03-.78.31-1.77.91-2.39,2.04,2.22-.42,4.01-.09,6.23.3l.11.02c.15.03.28.14.32.29.04.15-.01.31-.13.41-.03.03-3.17,2.66-2.99,5.7,2.93-3.86,5-5.51,5.09-5.59.07-.06.16-.09.25-.09Z"/>
    </g>
    <g>
      <path class="cls-3" d="M32.95,68.14c-.31-4.51.16-6.97.16-6.97,0,0,2.56-.84,6.56,2.29.59-2.09-1.33-3.96-3.27-4.25.24-.1,2.83-1.12,5.59-1.23-3.07-2.73-7.63-.37-7.63-.37,0,0,1.5-4.06,2.97-6.41-2.63.63-4.27,2.83-4.94,5.59-.63-1.44-1.57-2.75-2.71-3.81-.77-.65-1.68-1.25-2.71-1.36.59.87,1.03,1.66,1.46,2.47.6,1.1,1.32,2.51,2.03,3.72-2.15-1.41-5-1.69-7.04-.02,0,0,.03.14.03.14,2.53.78,6.16,1.83,6.51,1.96-1.58.44-4.22,3.27-3.11,6.15,1.21-1.84,2.58-2.72,4.3-3.85,0,0-.73,4.29,1.8,5.94Z"/>
      <path class="cls-1" d="M32.95,68.54c-.08,0-.15-.02-.22-.06-2.02-1.32-2.15-4.07-2.07-5.48-1.39.93-2.5,1.78-3.49,3.27-.08.12-.23.2-.38.18-.15-.02-.28-.11-.33-.25-.47-1.21-.37-2.53.27-3.8.53-1.06,1.36-1.9,2.13-2.41-.39-.12-.86-.26-1.36-.4-1.29-.38-2.88-.86-4.18-1.26-.14-.04-.24-.16-.27-.3l-.03-.14c-.03-.15.02-.3.14-.39,1.68-1.37,4.07-1.6,6.27-.67-.26-.48-.52-.96-.76-1.41-.21-.39-.41-.77-.6-1.12-.4-.75-.84-1.56-1.44-2.44-.09-.13-.09-.3-.01-.43.08-.13.23-.21.38-.19,1.23.13,2.26.89,2.93,1.45.95.89,1.75,1.91,2.35,3.01.89-2.61,2.62-4.32,4.94-4.88.16-.04.32.02.42.16s.1.31.01.45c-1.03,1.63-2.08,4.14-2.6,5.45,1.54-.57,4.76-1.35,7.18.81.12.11.17.28.11.43-.05.15-.2.26-.36.27-1.67.07-3.29.48-4.33.81.78.36,1.47.94,1.93,1.65.56.86.71,1.81.45,2.74-.04.13-.13.23-.26.27-.13.04-.27.02-.37-.07-3.09-2.42-5.27-2.37-5.96-2.27-.11.74-.36,3.03-.11,6.61.01.15-.07.3-.2.37-.06.04-.13.06-.2.06ZM31.13,61.84c.07,0,.14.02.2.05.13.09.24.22.21.38,0,.04-.51,3.18.95,4.93-.19-3.9.21-6.02.22-6.11.03-.14.13-.26.27-.3.11-.04,2.58-.8,6.39,1.95.01-.61-.22-1.12-.44-1.47-.55-.86-1.57-1.51-2.6-1.66-.18-.03-.32-.17-.34-.35s.08-.35.24-.42c.1-.04,2.15-.88,4.61-1.17-2.76-1.5-6.28.27-6.32.29-.15.08-.32.05-.45-.06-.12-.11-.17-.28-.11-.44.05-.15,1.19-3.21,2.47-5.55-1.79.8-3.08,2.52-3.67,4.97-.04.17-.18.29-.35.3-.17.01-.33-.08-.4-.24-.59-1.36-1.49-2.63-2.61-3.67-.39-.33-.92-.74-1.54-1,.35.58.65,1.12.92,1.64.19.35.39.73.6,1.12.45.85.94,1.76,1.42,2.58.09.16.07.36-.07.49s-.34.15-.5.05c-1.68-1.1-4.12-1.59-6.06-.41,1.16.36,2.47.74,3.55,1.07,1.43.42,2.18.65,2.36.71.16.06.27.22.26.39,0,.17-.13.32-.29.37-.77.21-1.94,1.15-2.6,2.47-.3.59-.57,1.43-.44,2.38,1.11-1.42,2.34-2.23,3.84-3.21.08-.05.18-.08.28-.08Z"/>
    </g>
    <g>
      <path class="cls-2" d="M67.86,61.93c-.34,0-.68.04-1,.11,0-.04.01-.07.01-.11,0-2.82-2.18-5.1-4.86-5.1-2.42,0-4.4,1.85-4.78,4.27-2.36.35-4.17,2.46-4.17,5.03,0,2.82,2.18,5.1,4.86,5.1,2.41,0,4.4-1.85,4.78-4.27.1-.02.21-.02.31-.04,0,.04-.01.07-.01.11,0,2.82,2.18,5.1,4.86,5.1s4.86-2.28,4.86-5.1-2.18-5.1-4.86-5.1Z"/>
      <path class="cls-1" d="M67.86,72.52c-2.48,0-4.57-1.81-5.12-4.23-.81,1.99-2.67,3.34-4.82,3.34-2.9,0-5.26-2.47-5.26-5.5,0-2.6,1.8-4.86,4.23-5.37.52-2.53,2.63-4.33,5.12-4.33,2.78,0,5.07,2.27,5.25,5.14,3.13-.39,5.86,2.22,5.86,5.46,0,3.03-2.36,5.5-5.26,5.5ZM63.03,66.97l.38.07c0,2.58,2,4.69,4.46,4.69s4.46-2.11,4.46-4.7c0-2.91-2.58-5.21-5.38-4.6-.12.03-.25,0-.34-.08-.09-.08-.15-.2-.15-.32l.39-.04h0s-.38-.07-.38-.07c0-2.58-2-4.69-4.46-4.69-2.19,0-4.03,1.66-4.39,3.94-.03.17-.16.31-.34.33-2.18.33-3.83,2.32-3.83,4.63,0,2.59,2,4.7,4.46,4.7,2.19,0,4.03-1.66,4.39-3.94.03-.17.16-.31.34-.33l.15-.02s.09,0,.13-.02c.12-.03.25,0,.34.08.09.08.15.2.15.32l-.39.04h0Z"/>
    </g>
    <g>
      <g>
        <path class="cls-2" d="M95.26,69.58c0,1.31-.65,2.46-1.64,3.14h-10.84c-1.21-.94-2.09-2.33-2.39-3.93-.19.03-.38.05-.57.05-2.06,0-3.73-1.7-3.73-3.79,0-2.09,1.67-3.79,3.73-3.79,1.09,0,2.06.47,2.74,1.22,1.06-.9,2.41-1.45,3.89-1.45,2.88,0,5.3,2.08,5.98,4.87,1.63.4,2.85,1.89,2.85,3.68Z"/>
        <path class="cls-1" d="M93.62,73.12h-10.84c-.09,0-.17-.03-.24-.08-1.22-.94-2.09-2.29-2.46-3.81-.09,0-.17.01-.26.01-2.28,0-4.13-1.88-4.13-4.19s1.85-4.19,4.13-4.19c1.02,0,2.01.39,2.77,1.08,1.12-.85,2.47-1.31,3.86-1.31,2.93,0,5.49,2.02,6.3,4.95,1.73.54,2.92,2.15,2.92,4,0,1.39-.68,2.69-1.82,3.47-.07.05-.15.07-.23.07ZM82.92,72.32h10.57c.86-.64,1.37-1.65,1.37-2.74,0-1.57-1.05-2.92-2.55-3.29-.14-.04-.26-.15-.29-.29-.65-2.69-2.95-4.57-5.59-4.57-1.34,0-2.59.47-3.63,1.35-.16.14-.41.12-.56-.04-.64-.7-1.5-1.09-2.44-1.09-1.84,0-3.33,1.52-3.33,3.39s1.49,3.39,3.33,3.39c.18,0,.34-.02.51-.05.21-.03.41.11.45.32.28,1.44,1.03,2.71,2.14,3.61Z"/>
      </g>
      <g>
        <path class="cls-2" d="M95.26,69.58s0,.03,0,.04c-.02,1.73-1.42,3.1-3.07,3.1h-9.41c-1.21-.94-2.09-2.33-2.39-3.93-.19.03-.38.05-.57.05-2.06,0-3.73-1.7-3.73-3.79,0-2.09,1.67-3.79,3.73-3.79,1.09,0,2.06.47,2.74,1.22,1.06-.9,2.41-1.45,3.89-1.45,2.88,0,5.3,2.08,5.98,4.87,1.63.4,2.85,1.89,2.85,3.68Z"/>
        <path class="cls-1" d="M92.19,73.12h-9.41c-.09,0-.17-.03-.24-.08-1.22-.94-2.09-2.29-2.46-3.81-.09,0-.17.01-.26.01-2.28,0-4.13-1.88-4.13-4.19s1.85-4.19,4.13-4.19c1.02,0,2.01.39,2.77,1.08,1.12-.85,2.47-1.31,3.86-1.31,2.93,0,5.49,2.02,6.3,4.95,1.73.54,2.92,2.15,2.92,4,0,0,0,.04,0,.05-.02,1.92-1.58,3.49-3.47,3.49ZM82.92,72.32h9.27c1.46,0,2.65-1.21,2.67-2.7l.4-.04h-.4c0-1.57-1.05-2.92-2.55-3.29-.14-.04-.26-.15-.29-.29-.65-2.69-2.95-4.57-5.59-4.57-1.34,0-2.59.47-3.63,1.35-.16.14-.41.12-.56-.04-.64-.7-1.5-1.09-2.44-1.09-1.84,0-3.33,1.52-3.33,3.39s1.49,3.39,3.33,3.39c.18,0,.34-.02.51-.05.21-.03.41.11.45.32.28,1.44,1.03,2.71,2.14,3.61Z"/>
      </g>
    </g>
    <g>
      <g>
        <path class="cls-2" d="M67.09,38.3c-.04.14-.08.28-.11.42h-.07v-.5s.18.08.18.08Z"/>
        <path class="cls-1" d="M66.97,39.12c-.22,0-.47-.18-.47-.4v-.5c0-.14.07-.26.18-.34.11-.07.26-.08.38-.03l.18.08c.19.08.28.29.22.49-.03.1-.06.21-.09.31-.04.18-.22.38-.41.38Z"/>
      </g>
      <g>
        <path class="cls-2" d="M77.73,19.97v3.73c0,3.4-1.53,6.69-4.1,8.76-2.72,2.2-4.49,5.5-4.88,9.07l-3.22,28.52-2.27-.27,3.22-28.52c.1-.86.26-1.72.49-2.55.03-.14.07-.28.11-.42l-.18-.08-1.92-.9c-2.28-1.06-4.13-2.95-5.22-5.3l-4.09-8.89,2.06-1.04,4.09,8.89c.86,1.84,2.3,3.32,4.09,4.15l.99.46v-4.77c0-1.27.07-2.53.22-3.79l-.05.03-3.67-6.47,1.97-1.23,2.33,4.12c.11-.53.24-1.05.38-1.58l.36-1.32,2.21.65-.36,1.32c-.73,2.69-1.09,5.47-1.09,8.27v3.07c.85-1.24,1.87-2.37,3.04-3.31,2.01-1.63,3.21-4.2,3.21-6.87v-3.73h2.29Z"/>
        <path class="cls-1" d="M65.53,70.46s-.03,0-.05,0l-2.27-.27c-.22-.03-.37-.22-.35-.44l3.22-28.52c.1-.88.27-1.76.51-2.61,0-.03.02-.06.02-.09l-1.8-.84c-2.36-1.1-4.28-3.05-5.41-5.49l-4.09-8.89c-.09-.2,0-.43.18-.52l2.06-1.04c.1-.05.21-.06.31-.02.1.04.19.11.23.21l4.09,8.89c.82,1.77,2.21,3.17,3.9,3.95l.42.2v-4.14c0-1.22.06-2.43.19-3.61l-3.64-6.43c-.11-.19-.05-.42.14-.54l1.97-1.23c.09-.06.2-.08.31-.05.11.03.2.1.25.19l1.82,3.22c.05-.2.1-.39.15-.59l.36-1.33c.03-.1.1-.19.19-.24.09-.05.21-.06.31-.03l2.21.65c.21.06.33.28.27.49l-.36,1.32c-.71,2.65-1.08,5.39-1.08,8.16v1.85c.71-.9,1.51-1.7,2.38-2.41,1.92-1.56,3.06-4.01,3.06-6.56v-3.73c0-.22.18-.4.4-.4h2.29c.22,0,.4.18.4.4v3.73c0,3.53-1.59,6.92-4.25,9.08-2.63,2.13-4.35,5.34-4.73,8.81l-3.22,28.52c-.01.11-.07.2-.15.27-.07.06-.16.09-.25.09ZM63.7,69.44l1.48.18,3.18-28.12c.4-3.68,2.23-7.08,5.02-9.34,2.47-2,3.95-5.16,3.95-8.45v-3.33h-1.49v3.33c0,2.78-1.25,5.47-3.36,7.18-1.12.91-2.12,1.99-2.96,3.23-.1.15-.28.21-.45.16-.17-.05-.28-.21-.28-.38v-3.07c0-2.84.37-5.65,1.1-8.37l.26-.95-1.44-.43-.26.93c-.14.52-.26,1.04-.38,1.56-.03.16-.17.29-.33.31-.17.02-.33-.05-.41-.2l-2.12-3.76-1.29.8,3.4,6c.11.08.19.21.18.35-.14,1.22-.21,2.48-.21,3.75v4.77c0,.14-.07.26-.19.34-.12.07-.26.08-.38.02l-.99-.46c-1.86-.86-3.38-2.4-4.28-4.34l-3.92-8.52-1.34.68,3.93,8.54c1.05,2.27,2.83,4.08,5.02,5.1l2.1.98c.19.08.28.29.22.49-.03.1-.06.21-.09.31-.25.9-.41,1.73-.5,2.58l-3.18,28.13Z"/>
      </g>
    </g>
    <g>
      <path class="cls-2" d="M82.16,9.26h-3.96v-.53c0-2.47-1.91-4.48-4.27-4.48h-14.4c-2.36,0-4.27,2.01-4.27,4.48v1.26s0,0,0,0c-.88.56-1.57,1.41-1.96,2.43h-4.65c-2.65,0-4.8,2.26-4.8,5.04v1.51c0,2.78,2.15,5.04,4.8,5.04h10.32c2,0,3.72-1.28,4.44-3.11h18.76c2.66,0,4.82-2.27,4.82-5.06v-1.53c0-2.8-2.16-5.06-4.82-5.06Z"/>
      <path class="cls-1" d="M58.96,24.42h-10.32c-2.87,0-5.2-2.44-5.2-5.44v-1.51c0-3,2.33-5.44,5.2-5.44h4.38c.4-.9,1.04-1.68,1.83-2.24v-1.06c0-2.69,2.1-4.88,4.67-4.88h14.4c2.58,0,4.67,2.19,4.67,4.88v.13h3.56c2.88,0,5.22,2.45,5.22,5.46v1.53c0,3.01-2.34,5.46-5.22,5.46h-18.5c-.86,1.9-2.68,3.11-4.7,3.11ZM48.64,12.83c-2.43,0-4.4,2.08-4.4,4.64v1.51c0,2.56,1.98,4.64,4.4,4.64h10.32c1.78,0,3.38-1.12,4.07-2.86.06-.15.21-.25.37-.25h18.76c2.44,0,4.42-2.09,4.42-4.66v-1.53c0-2.57-1.98-4.66-4.42-4.66h-3.96c-.22,0-.4-.18-.4-.4v-.53c0-2.25-1.74-4.08-3.87-4.08h-14.4c-2.13,0-3.87,1.83-3.87,4.08v1.26c0,.14-.07.27-.18.35-.81.52-1.45,1.31-1.81,2.23-.06.15-.21.26-.37.26h-4.65Z"/>
    </g>
    <g>
      <path class="cls-2" d="M33.12,68.57c-.05.48-.05.95-.01,1.4.13,1.52,1.37,2.67,2.82,2.67h18.08s1.08,0,1.08,0h8.27c1.52,0,2.82-1.26,2.84-2.85,0-.01,0-.02,0-.04,0-.99-.38-1.88-1-2.52-.61-.65-1.46-1.05-2.4-1.05h-2.13c-.83-.98-2.04-1.59-3.38-1.59-1.03,0-1.98.35-2.73.96-.76-.61-1.71-.96-2.73-.96-.83,0-1.6.23-2.26.64-.66-.41-1.44-.64-2.27-.64-.7,0-1.36.16-1.95.46-1.37-1.9-3.62-3.06-6.11-2.82-3.18.31-5.77,3-6.11,6.33Z"/>
      <path class="cls-1" d="M63.36,73.05h-27.43c-1.67,0-3.08-1.33-3.22-3.04-.04-.49-.04-.99.02-1.48.36-3.54,3.08-6.35,6.47-6.69,2.42-.24,4.74.77,6.27,2.72,1.29-.54,2.84-.47,4.09.21,1.56-.85,3.54-.73,4.99.29.81-.56,1.74-.86,2.73-.86,1.35,0,2.64.58,3.56,1.59h1.95c1.02,0,1.97.42,2.69,1.17.71.74,1.11,1.74,1.11,2.8-.02,1.83-1.47,3.29-3.24,3.29ZM39.89,62.61c-.2,0-.41.01-.62.03-3.01.3-5.43,2.81-5.75,5.97h0c-.05.44-.05.89-.01,1.33.11,1.29,1.17,2.3,2.42,2.3h27.43c1.33,0,2.42-1.1,2.44-2.46,0-.88-.31-1.68-.89-2.28-.57-.6-1.31-.92-2.11-.92h-2.13c-.12,0-.23-.05-.3-.14-.78-.92-1.9-1.45-3.08-1.45-.91,0-1.77.3-2.48.87-.15.12-.35.12-.5,0-1.29-1.03-3.14-1.15-4.54-.3-.13.08-.29.08-.42,0-1.15-.7-2.63-.76-3.82-.16-.18.09-.39.04-.5-.12-1.23-1.71-3.11-2.68-5.13-2.68ZM33.12,68.57h.01-.01Z"/>
    </g>
    <g>
      <path class="cls-2" d="M55.83,68.57c-.05.48-.05.95-.01,1.4.13,1.52,1.37,2.67,2.82,2.67h18.08s1.08,0,1.08,0h8.27c1.52,0,2.82-1.26,2.84-2.85,0-.01,0-.02,0-.04,0-.99-.38-1.88-1-2.52-.61-.65-1.46-1.05-2.4-1.05h-2.13c-.83-.98-2.04-1.59-3.38-1.59-1.03,0-1.98.35-2.73.96-.76-.61-1.71-.96-2.73-.96-.83,0-1.6.23-2.26.64-.66-.41-1.44-.64-2.27-.64-.7,0-1.36.16-1.95.46-1.37-1.9-3.62-3.06-6.11-2.82-3.18.31-5.77,3-6.11,6.33Z"/>
      <path class="cls-1" d="M86.06,73.05h-27.43c-1.67,0-3.08-1.33-3.22-3.04-.04-.49-.04-.98.02-1.48h0c.36-3.54,3.08-6.35,6.47-6.69,2.42-.24,4.74.77,6.27,2.72,1.29-.54,2.84-.47,4.09.21,1.56-.85,3.54-.73,4.99.29.81-.56,1.74-.86,2.73-.86,1.35,0,2.64.58,3.56,1.59h1.95c1.02,0,1.97.42,2.69,1.17.71.74,1.11,1.74,1.11,2.8-.02,1.83-1.47,3.29-3.24,3.29ZM56.23,68.62h0c-.05.45-.05.89-.01,1.33.11,1.29,1.17,2.3,2.42,2.3h27.43c1.33,0,2.42-1.1,2.44-2.46,0-.88-.31-1.68-.89-2.28-.57-.6-1.31-.92-2.11-.92h-2.13c-.12,0-.23-.05-.3-.14-.78-.92-1.9-1.45-3.08-1.45-.91,0-1.77.3-2.48.87-.15.12-.35.12-.5,0-1.29-1.03-3.14-1.15-4.54-.3-.13.08-.29.08-.42,0-1.15-.7-2.63-.76-3.82-.16-.18.09-.39.04-.5-.12-1.36-1.88-3.5-2.87-5.74-2.65-3.01.3-5.43,2.81-5.75,5.97Z"/>
    </g>
  </g>
  <g>
    <g>
      <path class="cls-3" d="M92.65,32.84c-.46-.45-1.17-.41-1.58.09-.91,1.09-2.34,1.92-2.93,2.23l-.31-.86c-.02-.05-.04-.1-.07-.15l.61-1.05-1.25.4c-.35-.19-.77-.21-1.15-.03-.48.23-.76.73-.71,1.26l.13,1.31-1.79.62c-.38.13-.81.06-1.13-.19-1.1-.87-2.72-.44-3.25.85l-2.67,6.52c-.11.26.22.47.42.27l1.03-1.07,2.82-1.97.32.07c.58.12,1.19-.06,1.61-.49l.93-.95c.66.16,1.36-.08,1.78-.62l.53-.67.86,1.26.69,4.36c.08.5.8.49.87-.02l.16-1.32,1.71.76c.35.15.66-.27.41-.55l-1.1-1.28,1.95.21c.37.04.54-.43.25-.64l-2.54-1.79c-.11-.08-.2-.18-.26-.3-.11-.22-.1-.49.03-.71.11-.2.13-.43.05-.65l-.06-.17.41-.27.94.37c.62.25,1.32.09,1.79-.41l.54.12c.45.1.92,0,1.3-.28l.62-.45,2.8.93-4.77-4.76Z"/>
      <path class="cls-1" d="M87.97,44.8c-.42,0-.76-.29-.82-.71l-.67-4.27-.5-.74-.19.24c-.47.59-1.22.9-1.96.8l-.78.8c-.51.53-1.25.75-1.97.6l-.15-.03-2.68,1.87-.97,1.02c-.22.23-.56.27-.83.09-.27-.17-.37-.5-.25-.79l2.67-6.52c.3-.73.91-1.27,1.68-1.47.77-.2,1.56-.04,2.19.46.21.17.49.22.75.13l1.49-.52-.1-.99c-.07-.69.3-1.36.93-1.66.43-.21.92-.22,1.35-.04l1.1-.35c.16-.05.33,0,.43.13.1.13.12.31.03.45l-.51.87.14.4c.67-.39,1.71-1.07,2.4-1.91.28-.33.66-.53,1.07-.55.41-.02.8.13,1.1.43h0l4.77,4.76c.13.13.16.34.06.49-.1.16-.29.23-.47.17l-2.61-.87-.45.33c-.47.34-1.06.46-1.62.34l-.34-.07c-.58.49-1.36.62-2.06.35l-.72-.29c.06.27.02.56-.12.82-.07.11-.07.24-.02.35.03.06.07.11.12.14l2.54,1.79c.29.2.4.56.27.88-.12.33-.44.52-.79.48l-.94-.1.44.51c.23.27.25.65.03.93-.21.29-.58.39-.91.25l-1.23-.54-.1.79c-.05.43-.39.73-.82.74h-.01ZM85.99,38.01h.01c.13,0,.25.07.32.17l.86,1.26s.06.1.07.16l.69,4.36.23-1.32c.02-.13.09-.24.2-.3s.24-.07.36-.02l1.71.76-1.15-1.21c-.11-.12-.13-.3-.05-.45.08-.14.23-.23.4-.21l1.95.21-2.57-1.7c-.16-.11-.3-.27-.39-.45-.17-.35-.15-.75.04-1.09.05-.09.06-.21.02-.31l-.06-.17c-.06-.17,0-.37.15-.47l.41-.27c.11-.07.25-.09.37-.04l.94.37c.47.19.99.07,1.36-.32.1-.1.24-.15.38-.11l.54.12c.34.07.69,0,.98-.21l.62-.44c.1-.07.24-.1.36-.05l1.19.4-3.57-3.56c-.14-.14-.31-.2-.49-.2-.19,0-.36.1-.49.26-.95,1.15-2.45,2.01-3.05,2.33-.1.05-.22.06-.33.02-.11-.04-.19-.13-.23-.24l-.31-.86c-.07-.12-.11-.36-.03-.48l.09-.15-.26.08c-.1.03-.22.02-.32-.03-.24-.13-.53-.14-.78-.02-.33.16-.52.5-.48.86l.13,1.31c.02.18-.09.36-.27.42l-1.79.62c-.52.18-1.08.08-1.51-.26-.42-.33-.97-.45-1.49-.31-.52.14-.94.5-1.14,1l-2.38,5.81.5-.52,2.88-2.02c.09-.06.2-.09.31-.06l.32.07c.45.09.92-.05,1.24-.38l.93-.95c.1-.1.24-.14.38-.11.51.12,1.05-.07,1.37-.48l.53-.67c.08-.1.19-.15.31-.15Z"/>
    </g>
    <path class="cls-1" d="M83.68,40.1s-.06,0-.1-.01c-.21-.05-.35-.27-.29-.48l.48-1.96c.05-.21.27-.35.48-.29.21.05.35.27.29.48l-.48,1.96c-.05.18-.21.3-.39.3Z"/>
    <path class="cls-1" d="M80.89,41.15s-.06,0-.1-.01c-.21-.05-.35-.27-.29-.48l.48-1.96c.05-.21.27-.35.48-.29.21.05.35.27.29.48l-.48,1.96c-.05.18-.21.3-.39.3Z"/>
    <path class="cls-1" d="M94.62,37.07c-.1,0-.2-.04-.27-.11l-2.37-2.23c-.16-.15-.17-.4-.02-.57.15-.16.41-.17.57-.02l2.37,2.23c.16.15.17.4.02.56-.08.08-.18.13-.29.13Z"/>
    <path class="cls-1" d="M92.15,37.67c-.12,0-.24-.05-.32-.16l-1.31-1.72c-.13-.18-.1-.43.07-.56.17-.13.43-.1.56.07l1.31,1.72c.13.18.1.43-.07.56-.07.06-.16.08-.24.08Z"/>
    <path class="cls-1" d="M89.59,42.02c-.13,0-.26-.07-.34-.19l-.99-1.56c-.12-.19-.06-.43.12-.55.19-.12.43-.06.55.12l.99,1.56c.12.19.06.43-.12.55-.07.04-.14.06-.21.06Z"/>
    <path class="cls-1" d="M88.56,43.09h-.01c-.22,0-.39-.19-.39-.41l.04-1.11c0-.22.17-.39.41-.39.22,0,.39.19.39.41l-.04,1.11c0,.22-.18.39-.4.39Z"/>
  </g>
  <g>
    <g>
      <path class="cls-3" d="M92.49,19.69c1.25-.27,2.49-1.08,2.98-1.42l-.56-.6s-.06-.07-.09-.11l-1.09.06.83-.84c-.01-.36.15-.7.45-.93.38-.29.9-.31,1.3-.05l.99.64,1.23-1.18c.26-.25.38-.62.31-.98-.24-1.23.77-2.35,2.02-2.24l6.31.55c.25.02.29.37.05.44l-1.28.38-2.73,1.44-.08.28c-.14.52-.54.92-1.05,1.08l-1.14.35c-.15.59-.63,1.05-1.23,1.17l-.75.14.65,1.21,3.2,2.34c.37.27.06.84-.37.68l-1.12-.42-.1,1.68c-.02.34-.49.41-.61.1l-.57-1.41-.63,1.64c-.12.31-.57.26-.61-.07l-.38-2.76c-.02-.12-.06-.23-.13-.33-.13-.18-.35-.28-.58-.27-.2,0-.4-.07-.54-.22l-.11-.12-.39.21-.09.9c-.06.6-.47,1.09-1.07,1.26l-.13.48c-.11.4-.38.73-.76.93l-.61.31-.41,2.62-1.84-5.76c-.18-.55.15-1.1.72-1.23Z"/>
      <path class="cls-1" d="M93.6,27.08c-.17,0-.33-.11-.38-.28l-1.84-5.76c-.12-.37-.08-.76.11-1.09.19-.33.51-.57.9-.65.93-.2,1.87-.73,2.46-1.1l-.21-.23-.89.05c-.16,0-.32-.08-.39-.24-.07-.15-.04-.33.08-.45l.72-.73c.04-.42.26-.81.6-1.07.52-.39,1.22-.41,1.76-.06l.72.47,1-.96c.17-.16.24-.39.2-.61-.14-.71.06-1.43.54-1.97.48-.54,1.18-.81,1.9-.75l6.31.55c.3.03.54.26.57.56.03.3-.15.58-.44.67l-1.28.38-2.51,1.33-.03.12c-.18.65-.67,1.16-1.32,1.36l-.94.29c-.24.63-.8,1.11-1.47,1.24l-.22.04.35.65,3.13,2.29c.33.24.42.65.23,1.01-.19.36-.59.51-.97.37l-.62-.23-.07,1.14c-.02.34-.27.61-.61.67-.34.05-.65-.12-.78-.44l-.19-.47-.27.7c-.12.31-.42.49-.75.46-.33-.04-.59-.28-.63-.62l-.38-2.76c0-.05-.03-.1-.06-.14-.06-.08-.15-.11-.24-.11-.25.02-.49-.07-.68-.2l-.06.62c-.07.68-.5,1.26-1.13,1.53l-.07.28c-.13.51-.48.94-.96,1.18l-.43.22-.38,2.42c-.03.18-.18.32-.36.34-.01,0-.02,0-.03,0ZM94.82,17.15c.14,0,.26.07.34.19l.6.65c.08.08.12.2.11.31-.01.12-.07.22-.17.29-.5.35-1.81,1.2-3.13,1.48h0c-.17.04-.3.13-.38.27-.08.13-.09.29-.04.44l1.32,4.15.15-.94c.02-.13.1-.24.21-.29l.61-.31c.28-.14.47-.38.55-.67l.13-.48c.04-.13.14-.24.27-.28.44-.13.74-.48.78-.92l.09-.9c.01-.13.09-.25.2-.31l.39-.21c.16-.09.36-.06.49.08l.11.12c.06.06.14.1.24.1.35-.02.69.14.91.43.11.15.19.33.21.52l.34,2.44.51-1.34c.06-.15.21-.26.37-.26.19,0,.31.1.37.25l.44,1.07.08-1.32c0-.13.07-.24.18-.31.11-.07.24-.08.36-.04l1.12.42-3.21-2.33s-.09-.08-.12-.13l-.65-1.21c-.06-.11-.06-.25,0-.36.05-.12.16-.2.29-.22l.75-.14c.45-.09.8-.43.91-.87.03-.14.14-.25.27-.29l1.14-.35c.38-.12.68-.42.78-.81l.08-.28c.03-.11.1-.2.2-.25l2.73-1.44.5-.15-5.42-.47c-.47-.04-.92.14-1.23.49-.32.35-.44.82-.35,1.28.1.49-.06,1-.43,1.35l-1.23,1.18c-.13.13-.34.15-.49.05l-.99-.64c-.26-.17-.59-.15-.84.03-.19.14-.3.36-.29.59,0,.11-.04.22-.12.29l-.1.1h.05s.01,0,.02,0ZM99.02,23.58s0,0,0,0h0ZM92.49,19.69h.01-.01ZM107.1,12.65s0,0,0,0h0Z"/>
    </g>
    <path class="cls-1" d="M100.93,16.97s-.06,0-.09-.01l-1.76-.42c-.21-.05-.35-.27-.3-.48.05-.21.27-.35.48-.3l1.76.42c.21.05.35.27.3.48-.04.18-.21.31-.39.31Z"/>
    <path class="cls-1" d="M102.91,15.17s-.06,0-.09-.01l-1.76-.42c-.21-.05-.35-.27-.3-.48.05-.21.27-.35.48-.3l1.76.42c.21.05.35.27.3.48-.04.18-.21.31-.39.31Z"/>
    <path class="cls-1" d="M94.01,24.45c-.17,0-.33-.11-.38-.29l-.8-2.81c-.06-.21.06-.43.27-.49.21-.06.43.06.49.27l.8,2.81c.06.21-.06.43-.27.49-.04.01-.07.02-.11.02Z"/>
    <path class="cls-1" d="M95.5,22.73c-.15,0-.29-.08-.36-.23l-.83-1.75c-.09-.2,0-.44.19-.53.2-.09.44,0,.53.19l.83,1.75c.09.2,0,.44-.19.53-.06.03-.11.04-.17.04Z"/>
    <path class="cls-1" d="M100.03,22.48c-.14,0-.27-.07-.35-.2l-.83-1.43c-.11-.19-.05-.44.14-.55.19-.11.44-.05.55.14l.83,1.43c.11.19.05.44-.14.55-.06.04-.13.05-.2.05Z"/>
    <path class="cls-1" d="M101.31,22.1c-.06,0-.12-.01-.17-.04l-.9-.43c-.2-.09-.28-.33-.19-.53.09-.2.33-.28.53-.19l.9.43c.2.09.28.33.19.53-.07.14-.21.23-.36.23Z"/>
  </g>
</svg>