<?xml version="1.0" encoding="UTF-8"?>
<svg id="effect_illustrations" data-name="effect illustrations" xmlns="http://www.w3.org/2000/svg" viewBox="0 0 120 80">
  <defs>
    <style>
      .cls-1 {
        fill: #231f20;
      }

      .cls-2 {
        fill: #efefef;
      }

      .cls-3 {
        fill: #fff;
      }
    </style>
  </defs>
  <g id="amazon_effect" data-name="amazon effect">
    <rect class="cls-1" x="30.44" y="71.4" width="67.63" height="3.97" rx="1.99" ry="1.99"/>
    <g>
      <path class="cls-3" d="M96,73.41c-.08.11-.16.22-.24.33h-34.56c-.07-.09-.12-.19-.15-.28-.59-2.01-1.17-4.04-1.51-6.12-.56-3.44,1-6.5,2.2-9.62.53-1.38.84-2.84,1.23-4.26.14-.49.22-1,.33-1.5.13-.01.25-.01.38-.02.95,2.29,1.42,4.72,1.76,7.24.19-.32.33-.65.33-.98.02-2.12,0-4.24,0-6.36,0-.42.01-.83.01-1.44.33.23.44.27.49.35.14.24.26.5.38.76.92,2.06.98,4.32,1.13,6.53.13,2.09.04,4.19.11,6.28.02.56.17,1.15.4,1.65.11.24.53.46.81.45.18-.01.49-.42.53-.68.11-.71.08-1.44.15-2.16.07-.67.21-1.34.32-2.02.13,0,.27-.01.4-.02.68,1.86,1.35,3.73,2.03,5.59.13-.02.26-.05.39-.08,0-1.14.2-2.21.59-3.2.4-2.1,1.33-4.1,2.11-6.13.13-.34.25-.69.36-1.04h0c.07-.39.18-.76.32-1.12.19-.7.36-1.41.55-2.1.14-.49.22-1,.33-1.5.13-.01.25-.01.38-.02.16.39.31.78.44,1.18.1.29.19.58.28.87.49,1.67.8,3.41,1.04,5.19.19-.32.33-.65.33-.98.02-2.12.01-4.24.01-6.36,0-.42,0-.83,0-1.44.33.23.44.27.49.35.14.24.26.5.38.76.7,1.56.9,3.24,1.02,4.92.65-1.36,1.5-2.61,2.28-3.91.12-.19.33-.32.73-.69-.04.65-.06,1.01-.09,1.37-.1.94-.32,1.88-.28,2.81.11,2.13.36,4.25.5,6.38.57,1.58,1.14,3.16,1.72,4.74.13-.02.26-.05.39-.08,0-2.22.75-4.17,2.16-5.79.67-.76.87-1.51.78-2.47-.18-2,.44-3.79,1.67-5.37.13-.17.39-.24.58-.36.07.22.2.44.19.65-.03.79-.28,1.62-.16,2.37.39,2.43.9,4.84,1.37,7.26.01.04.11.06.27.14.13-.42.28-.82.36-1.23.21-1.14.36-2.29.59-3.42.5-2.37,1.9-4.29,3.11-6.31.12-.19.33-.32.73-.69-.04.65-.06,1.01-.09,1.37-.1.94-.32,1.88-.28,2.81.12,2.32.4,4.63.54,6.95.23,3.74-.44,7.3-2.64,10.45Z"/>
      <path class="cls-1" d="M95.76,74.14h-34.56c-.12,0-.24-.06-.32-.15-.09-.12-.17-.26-.21-.4-.64-2.17-1.19-4.13-1.53-6.18-.5-3.05.61-5.81,1.69-8.48.18-.45.36-.9.53-1.35.38-.98.65-2.03.91-3.05.1-.39.2-.78.31-1.17.09-.32.16-.65.22-.97.03-.17.07-.34.1-.51.04-.17.18-.3.36-.31l.38-.02c.17,0,.33.09.4.25.63,1.51,1.04,3.06,1.33,4.54,0-.96,0-1.92,0-2.87v-1.61s0-1.44,0-1.44c0-.15.08-.29.21-.35.13-.07.29-.06.41.03.12.08.21.14.28.19.14.09.24.15.32.28.15.26.28.53.4.8.86,1.93,1,4.01,1.12,6.03l.04.64c.08,1.23.08,2.46.08,3.66,0,.88,0,1.75.03,2.63.02.49.15,1.02.36,1.5.05.08.3.23.43.22-.02-.02.13-.24.15-.34.06-.39.08-.79.09-1.21.01-.31.02-.62.05-.93.05-.47.13-.94.22-1.42l.11-.63c.03-.19.2-.34.39-.34.12,0,.25,0,.37-.02.18-.01.34.09.41.26l1.69,4.66c.08-.82.27-1.62.57-2.36.3-1.6.95-3.22,1.58-4.79.18-.44.36-.89.53-1.34.13-.33.24-.67.35-1.02h0c.08-.42.18-.78.33-1.14.08-.29.16-.63.25-.96.09-.37.19-.74.29-1.1.09-.32.16-.65.22-.97.03-.17.07-.34.1-.51.04-.17.18-.3.36-.31l.38-.02c.17,0,.33.09.4.25.16.4.32.8.45,1.21.09.27.18.55.27.84.23.79.43,1.61.61,2.51,0-.98,0-1.95,0-2.93v-1.57s0-1.44,0-1.44c0-.15.08-.29.21-.35.13-.07.29-.06.41.03.12.08.21.14.28.19.14.09.24.15.32.28.15.26.28.53.4.8.55,1.23.8,2.51.94,3.71.33-.57.67-1.13,1.01-1.68.22-.35.44-.7.65-1.05.11-.18.26-.3.45-.47.1-.08.21-.18.35-.31.12-.11.3-.14.44-.07.15.07.24.22.23.39l-.02.33c-.03.45-.05.75-.07,1.04-.03.31-.08.61-.12.92-.09.64-.18,1.25-.16,1.84.06,1.18.17,2.37.27,3.56.08.92.16,1.84.22,2.76.45,1.25.9,2.51,1.36,3.76.19-1.9.93-3.6,2.21-5.07.57-.65.77-1.27.68-2.17-.18-2.02.41-3.93,1.75-5.65.14-.19.35-.28.51-.36.06-.03.12-.06.17-.09.1-.07.23-.08.35-.04s.21.14.24.25c.02.06.04.12.07.17.07.18.15.38.14.62-.01.3-.05.62-.1.93-.07.49-.13.94-.07,1.35.29,1.8.65,3.63,1,5.4l.18.9s.02-.1.03-.15c.09-.48.17-.96.24-1.44.11-.66.21-1.32.35-1.98.43-2.02,1.49-3.73,2.51-5.38.22-.35.44-.7.65-1.06.11-.18.26-.3.45-.47.1-.08.21-.18.35-.31.12-.11.3-.14.44-.07.15.07.24.22.23.39l-.02.35c-.03.45-.04.74-.07,1.03-.03.31-.08.62-.12.92-.09.64-.18,1.24-.16,1.84.06,1.22.17,2.47.28,3.68.1,1.09.19,2.17.26,3.26.26,4.22-.63,7.72-2.71,10.7,0,0,0,0,0,0l-.24.33c-.08.1-.2.16-.32.16ZM96,73.41h.01-.01ZM61.43,73.34h34.12l.12-.16c1.97-2.83,2.81-6.16,2.57-10.19-.07-1.08-.16-2.16-.26-3.24-.11-1.21-.22-2.47-.28-3.71-.03-.68.07-1.35.16-2,.04-.29.09-.58.12-.88,0-.1.02-.2.02-.3-.19.31-.38.62-.58.94-1.03,1.66-2.01,3.24-2.41,5.12-.13.64-.24,1.29-.34,1.94-.08.49-.16.98-.25,1.47-.06.32-.16.63-.27.95l-.11.33c-.03.11-.12.2-.23.25-.11.05-.23.04-.34-.01l-.13-.06c-.11-.05-.29-.12-.35-.34l-.37-1.87c-.35-1.77-.72-3.61-1.01-5.43-.08-.53,0-1.07.06-1.59.04-.29.08-.57.09-.86,0-.02,0-.04,0-.07-.02.01-.04.03-.04.04-1.22,1.57-1.75,3.28-1.59,5.09.1,1.11-.17,1.96-.88,2.77-1.37,1.57-2.06,3.43-2.06,5.53,0,.19-.13.35-.31.39-.14.03-.28.06-.42.09-.19.03-.37-.08-.44-.26-.58-1.58-1.15-3.16-1.72-4.74-.01-.04-.02-.07-.02-.11-.06-.93-.14-1.87-.23-2.8-.11-1.19-.21-2.39-.27-3.59-.03-.68.07-1.35.16-2,.04-.29.09-.58.12-.88,0-.1.02-.2.02-.3-.19.31-.38.62-.58.94-.56.91-1.15,1.84-1.61,2.81-.08.16-.26.26-.44.22-.18-.03-.31-.18-.32-.36-.13-1.85-.35-3.37-.99-4.78-.04-.08-.07-.16-.11-.24v.41s0,1.57,0,1.57c0,1.6,0,3.2-.01,4.79,0,.36-.12.74-.39,1.18-.09.15-.26.22-.42.19-.17-.03-.29-.17-.32-.34-.28-2.06-.6-3.69-1.03-5.13-.1-.31-.18-.58-.27-.85-.06-.18-.12-.36-.19-.54-.06.29-.12.58-.2.86-.1.35-.19.72-.28,1.08-.09.34-.17.68-.26,1.01-.15.39-.25.74-.31,1.08-.12.42-.25.77-.38,1.12-.17.45-.35.9-.53,1.35-.62,1.53-1.25,3.12-1.56,4.71-.39,1.02-.58,2.05-.58,3.12,0,.19-.13.35-.31.39-.14.03-.28.06-.42.09-.19.03-.37-.08-.44-.26l-1.78-4.91c-.07.42-.15.85-.19,1.27-.03.29-.04.58-.05.88-.02.43-.03.87-.1,1.3-.06.38-.47.99-.9,1.02-.42.02-1-.26-1.2-.68-.26-.56-.41-1.2-.44-1.8-.03-.88-.03-1.77-.03-2.66,0-1.19,0-2.41-.08-3.61l-.04-.65c-.12-1.94-.25-3.95-1.05-5.75-.04-.08-.07-.16-.11-.24v.41s0,1.61,0,1.61c0,1.58,0,3.17-.01,4.75,0,.36-.12.74-.39,1.18-.09.15-.26.22-.42.19-.17-.03-.29-.17-.32-.34-.27-1.99-.66-4.29-1.49-6.52-.06.29-.12.58-.2.86-.1.38-.2.77-.3,1.15-.27,1.04-.54,2.11-.94,3.14-.17.45-.36.91-.54,1.36-1.08,2.69-2.1,5.22-1.64,8.05.33,2.01.87,3.94,1.5,6.06Z"/>
    </g>
    <g>
      <path class="cls-3" d="M78.31,53.71c0,.09,0,.19-.02.28-.09-.29-.18-.58-.28-.87.04-.02.08-.04.11-.06.07.22.2.44.19.65Z"/>
      <path class="cls-1" d="M78.29,54.39c-.17,0-.33-.11-.38-.28-.1-.31-.18-.59-.28-.86-.07-.19.02-.4.2-.49.1-.07.27-.1.39-.06.12.04.24.12.28.24.02.06.04.12.07.17.07.18.15.38.14.61,0,.1-.01.21-.02.31-.02.19-.17.34-.36.35-.01,0-.03,0-.04,0Z"/>
    </g>
    <g>
      <path class="cls-2" d="M70.9,70.23c.04.41.05.82.01,1.21-.11,1.31-1.18,2.3-2.43,2.3h-15.58s-.93,0-.93,0h-7.12c-1.31,0-2.43-1.08-2.44-2.46,0-.01,0-.02,0-.03,0-.85.33-1.62.86-2.17.53-.56,1.26-.9,2.07-.9h1.84c.72-.84,1.76-1.37,2.91-1.37.89,0,1.7.31,2.36.83.65-.52,1.47-.83,2.35-.83.71,0,1.38.2,1.95.55.57-.35,1.24-.55,1.95-.55.6,0,1.17.14,1.68.4,1.18-1.64,3.12-2.64,5.26-2.43,2.74.27,4.97,2.58,5.27,5.45Z"/>
      <path class="cls-1" d="M68.48,74.14h-23.63c-1.55,0-2.83-1.28-2.84-2.85,0-.96.34-1.83.97-2.48.63-.66,1.46-1.03,2.36-1.03h1.66c1.4-1.51,3.8-1.78,5.45-.64,1.25-.86,2.96-.96,4.3-.24,1.07-.57,2.4-.64,3.5-.19,1.33-1.67,3.34-2.54,5.43-2.33,2.94.29,5.31,2.73,5.63,5.81h0c.04.43.05.86.01,1.28-.12,1.5-1.37,2.67-2.83,2.67ZM45.33,68.57c-.67,0-1.3.28-1.78.78-.48.51-.75,1.18-.75,1.9.01,1.16.93,2.09,2.04,2.09h23.63c1.05,0,1.94-.85,2.03-1.93.03-.37.03-.76-.01-1.14h0c-.28-2.7-2.34-4.84-4.91-5.1-1.91-.19-3.74.66-4.9,2.26l-.2.28-.31-.15c-1.01-.51-2.27-.46-3.24.14l-.21.13-.21-.13c-1.18-.72-2.76-.62-3.85.25l-.25.2-.25-.2c-1.39-1.11-3.54-.9-4.71.49l-.12.14h-2.02Z"/>
    </g>
    <g>
      <g>
        <g>
          <path class="cls-2" d="M71.49,34.62l-6.54,7.22c-1.69,1.85-3.96,3.03-6.39,3.31l-2.03.23-.72,2.64c-.03.23-.07.45-.11.68l-3,19.42-1.68-.29,3-19.45c.7-3.67-.05-7.51-2.06-10.56-1.8-2.75-2.3-6.3-1.33-9.48l1.1-3.58,1.63.56-1.1,3.58c-.81,2.65-.4,5.61,1.1,7.91,1.07,1.63,1.83,3.46,2.24,5.36l1.13-4.19c.84-2.74,1.31-5.57,1.4-8.41l.05-1.39,1.71.06-.04,1.39c-.03.77-.08,1.53-.16,2.3l4.02-3.62,1.12,1.36-5.52,4.98c-.23,1.3-.54,2.59-.93,3.85l-1.35,5.03,1.35-.16c2.03-.23,3.92-1.21,5.33-2.77l6.54-7.21,1.24,1.24Z"/>
          <path class="cls-1" d="M53.04,68.59l-2.47-.42,3.06-19.84c.68-3.57-.05-7.31-2-10.28-1.87-2.85-2.38-6.52-1.37-9.82l1.22-3.98,2.39.81-1.21,3.95c-.78,2.54-.39,5.38,1.05,7.58.82,1.24,1.46,2.59,1.91,4.03l.74-2.75c.83-2.72,1.3-5.51,1.39-8.32l.07-1.79,2.5.09-.06,1.79c-.02.44-.04.87-.07,1.31l3.58-3.22,1.63,1.98-5.7,5.15c-.23,1.26-.54,2.53-.92,3.76l-1.19,4.44.76-.09c1.93-.22,3.73-1.15,5.08-2.64l6.83-7.52,1.8,1.8-6.79,7.5c-1.76,1.93-4.12,3.15-6.64,3.44l-1.76.2-.64,2.38c-.02.18-.06.42-.11.65l-3.06,19.81ZM51.48,67.51l.9.15,2.94-19.02c.05-.23.08-.45.11-.67l.8-2.96,2.3-.27c2.33-.26,4.5-1.39,6.14-3.18l6.28-6.93-.67-.67-6.26,6.9c-1.48,1.63-3.46,2.66-5.58,2.9l-1.93.22,1.5-5.6c.39-1.26.7-2.54.92-3.81l.02-.13,5.34-4.82-.61-.74-4.47,4.03.1-1.03c.07-.76.13-1.52.16-2.28l.03-.99-.91-.03-.04.99c-.09,2.88-.57,5.74-1.42,8.52l-1.55,5.76-.35-1.6c-.42-1.9-1.15-3.66-2.19-5.23-1.57-2.4-2-5.48-1.15-8.25l.98-3.21-.87-.3-.97,3.19c-.94,3.08-.46,6.5,1.28,9.15,2.06,3.14,2.83,7.1,2.12,10.86l-2.94,19.05Z"/>
        </g>
        <g>
          <path class="cls-2" d="M78.78,23.92l-4.94-.44c-.3-1.12-.97-2.09-1.86-2.75l.11-1.33c.21-2.53-1.58-4.75-3.98-4.97l-15.07-1.34c-2.41-.21-4.53,1.66-4.74,4.19l-.05.62-4.26-.38c-2.68-.24-5.04,1.85-5.27,4.65l-.16,1.91c-.23,2.81,1.75,5.28,4.43,5.52l19.57,1.74c.55,1.95,2.17,3.44,4.22,3.63l11.01.98c2.67.24,5.01-1.84,5.25-4.64l.16-1.89c.23-2.8-1.74-5.26-4.41-5.5Z"/>
          <path class="cls-1" d="M78.21,36.36c-.15,0-.3,0-.45-.02l-11.01-.98c-2.07-.18-3.81-1.61-4.49-3.65l-19.3-1.72c-2.89-.26-5.04-2.93-4.79-5.95l.16-1.91c.12-1.51.82-2.87,1.95-3.82,1.06-.89,2.4-1.32,3.75-1.2l3.86.34.02-.21c.11-1.37.74-2.6,1.77-3.47.96-.81,2.17-1.2,3.41-1.09l15.07,1.34c2.62.23,4.57,2.65,4.35,5.4l-.09,1.12c.81.66,1.42,1.55,1.75,2.56l4.67.42c2.88.26,5.02,2.92,4.77,5.93l-.16,1.89c-.12,1.51-.81,2.86-1.94,3.81-.94.79-2.09,1.21-3.29,1.21ZM43.57,17.89c-1.01,0-1.99.36-2.79,1.03-.97.81-1.56,1.98-1.67,3.27l-.16,1.91c-.21,2.59,1.61,4.87,4.06,5.09l19.85,1.77.07.27c.52,1.86,2.04,3.17,3.87,3.34l11.01.98c1.14.1,2.26-.26,3.15-1.01.96-.81,1.55-1.97,1.66-3.26l.16-1.89c.21-2.57-1.6-4.85-4.05-5.06l-5.22-.47-.07-.27c-.28-1.02-.88-1.92-1.71-2.54l-.18-.13.13-1.56c.19-2.31-1.43-4.34-3.62-4.53l-15.07-1.34c-1.02-.09-2.02.23-2.82.9-.86.73-1.39,1.76-1.48,2.92l-.08,1.02-4.66-.42c-.13-.01-.25-.02-.38-.02Z"/>
        </g>
      </g>
      <g>
        <g>
          <path class="cls-3" d="M49.72,44.54c-.24.49-.4.68-.44.9-.43,2.31-1.08,4.6-.72,7,.17,1.14.44,2.27.63,3.41.07.41.06.84.09,1.28-.18-.02-.28,0-.3-.04-1.28-2.1-2.6-4.18-3.81-6.33-.37-.66-.43-1.52-.67-2.28-.07-.21-.27-.36-.4-.54-.14.18-.36.33-.42.53-.61,1.91-.56,3.8.31,5.62.41.86.49,1.63.13,2.58-.77,2.01-.79,4.1-.01,6.18-.11.07-.23.14-.34.21-1.28-1.51-2.56-3.03-3.84-4.54l-.37.17c.13.67.24,1.34.41,2,.18.7.46,1.37.61,2.08.05.26-.09.75-.27.82-.26.11-.73.05-.92-.14-.39-.39-.73-.89-.94-1.4-.79-1.94-1.44-3.94-2.29-5.85-.91-2.03-1.75-4.13-3.33-5.74-.2-.2-.4-.4-.62-.58-.07-.06-.19-.06-.58-.16.21.57.35.96.49,1.35.74,1.99,1.49,3.97,2.21,5.97.11.31.09.67.03,1.04-1.19-2.24-2.49-4.36-4.17-6.17-.12.05-.23.1-.35.14.07.51.17,1.01.21,1.52.13,1.47.34,2.95.32,4.42-.04,3.34-.43,6.75,1.29,9.79,1.04,1.83,2.29,3.53,3.55,5.21.28.38.97.58,1.48.59,2.6.06,5.19.02,7.79.03,1.21,0,2.43-.07,3.63.08,1.53.19,2.71-.34,3.69-1.51,1.6-1.89,2.5-4.16,3.13-6.56.97-3.72.36-7.28-1.16-10.71-.94-2.13-2-4.2-2.92-6.34-.36-.85-.48-1.81-.72-2.72-.09-.35-.21-.7-.39-1.32Z"/>
          <path class="cls-1" d="M48.68,74.14c-.21,0-.42-.01-.64-.04-.86-.1-1.77-.09-2.65-.08-.31,0-.62,0-.94,0-.84,0-1.69,0-2.53,0-1.76,0-3.51,0-5.27-.03-.63-.01-1.42-.25-1.79-.75-1.3-1.73-2.54-3.44-3.57-5.25-1.53-2.7-1.45-5.68-1.37-8.56.01-.48.03-.95.03-1.43.01-1.04-.1-2.12-.2-3.16-.04-.41-.08-.82-.12-1.23-.03-.34-.08-.68-.14-1.02l-.07-.48c-.03-.18.07-.36.24-.43l.35-.14c.15-.06.33-.03.45.1,1.12,1.2,2.04,2.51,2.83,3.79-.33-.88-.65-1.77-.98-2.65l-1.07-2.91c-.05-.14-.02-.3.08-.41.1-.11.25-.16.4-.12.15.04.25.06.33.08.16.03.28.06.4.16.23.19.44.39.65.6,1.49,1.52,2.35,3.46,3.18,5.33l.23.53c.51,1.14.95,2.32,1.38,3.47.3.8.6,1.6.92,2.39.18.44.49.9.86,1.28.07.06.35.1.48.05-.02-.02.05-.27.03-.37-.08-.38-.2-.75-.33-1.14-.1-.3-.2-.61-.28-.92-.12-.46-.21-.94-.3-1.41l-.12-.61c-.04-.18.06-.37.23-.44l.37-.17c.16-.07.35-.03.47.11l3.2,3.78c-.48-1.85-.38-3.7.31-5.52.31-.8.27-1.46-.11-2.27-.88-1.84-.99-3.83-.33-5.91.07-.23.24-.4.37-.53.04-.05.09-.09.13-.14.08-.09.17-.13.32-.15.12,0,.24.06.31.16.04.05.08.09.12.14.13.14.28.3.35.53.09.29.16.58.22.88.11.49.21.95.42,1.32.91,1.62,1.9,3.23,2.86,4.78l.44.71s-.01-.09-.02-.14c-.08-.48-.18-.96-.27-1.44-.13-.66-.26-1.31-.36-1.98-.31-2.04.09-4,.48-5.91.08-.41.17-.82.24-1.23.04-.2.13-.36.25-.59.06-.11.14-.25.23-.42.07-.15.23-.23.39-.22.16.01.3.13.35.28l.17.56c.09.31.17.54.23.78.08.3.15.61.21.92.13.62.26,1.21.49,1.74.5,1.16,1.05,2.32,1.58,3.45.45.96.91,1.92,1.34,2.89,1.71,3.86,2.1,7.45,1.18,10.97-.75,2.88-1.77,5.01-3.21,6.72-.95,1.13-2.07,1.69-3.41,1.69ZM46.21,73.21c.64,0,1.28.02,1.92.1,1.35.16,2.41-.27,3.34-1.37,1.36-1.61,2.33-3.65,3.05-6.41.87-3.34.5-6.76-1.14-10.45-.43-.96-.88-1.92-1.33-2.87-.54-1.13-1.09-2.3-1.6-3.48-.26-.61-.4-1.26-.54-1.89-.06-.3-.13-.6-.2-.89-.03-.1-.05-.19-.08-.29-.07.36-.14.73-.22,1.09-.39,1.92-.76,3.73-.47,5.63.1.65.23,1.29.35,1.94.1.49.19.97.28,1.46.05.3.07.6.08.92,0,.13.01.27.02.4,0,.12-.04.23-.12.32s-.21.12-.32.11c-.06,0-.1,0-.14-.01-.12,0-.33-.01-.46-.22l-.94-1.53c-.96-1.56-1.96-3.18-2.88-4.81-.27-.48-.39-1.02-.5-1.54-.06-.27-.12-.55-.2-.81,0-.02-.02-.04-.03-.06-.01.02-.03.04-.03.05-.6,1.89-.5,3.68.29,5.33.48,1,.52,1.9.14,2.9-.74,1.94-.74,3.93-.01,5.9.07.18,0,.38-.16.48l-.34.21c-.17.1-.39.07-.52-.08l-3.38-3.99c.08.42.16.85.27,1.26.08.29.17.58.26.87.13.39.26.8.35,1.22.07.34-.07,1.1-.5,1.27-.38.16-1.03.1-1.35-.23-.44-.45-.81-.99-1.03-1.53-.32-.8-.63-1.6-.93-2.41-.42-1.13-.86-2.31-1.36-3.42l-.24-.53c-.8-1.8-1.62-3.67-3.02-5.09-.06-.06-.12-.12-.18-.18l.72,1.93c.55,1.47,1.09,2.94,1.63,4.41.16.44.1.91.05,1.24-.03.17-.16.3-.33.33-.17.03-.34-.06-.42-.21-.94-1.77-2.1-3.78-3.67-5.59.04.29.08.57.11.86.03.4.08.81.12,1.21.11,1.06.22,2.16.21,3.25,0,.48-.02.96-.03,1.44-.08,2.9-.15,5.64,1.27,8.15,1.01,1.77,2.24,3.46,3.52,5.17.17.22.69.42,1.17.43,1.75.04,3.5.03,5.25.03.85,0,1.69,0,2.54,0,.31,0,.61,0,.92,0,.27,0,.55,0,.83,0Z"/>
        </g>
        <g>
          <path class="cls-3" d="M37.92,42.08c-.17,1.4-.35,2.8-.5,4.21-.3,2.87.74,5.33,2.21,7.64.19.3.67.72.83.65.32-.16.62-.57.73-.94.76-2.71.72-5.31-.75-7.86-.66-1.14-.82-2.59-1.28-3.87-.21-.57-.62-1.05-.93-1.58-.16.56-.36,1.73-.3,1.75Z"/>
          <path class="cls-1" d="M40.41,54.99c-.54,0-1.12-.83-1.13-.84-1.84-2.89-2.54-5.33-2.27-7.9.1-.97.22-1.94.34-2.9l.16-1.29c-.03-.57.31-1.82.31-1.83.04-.15.17-.26.33-.29.16-.02.31.05.39.19.1.16.2.31.3.47.25.37.5.74.66,1.18.18.5.32,1.03.45,1.54.22.83.42,1.61.8,2.27,1.41,2.44,1.66,5.03.79,8.16-.14.5-.53.99-.94,1.19-.07.03-.14.05-.22.05ZM40.47,54.19h0,0ZM38.31,41.98s.01.09,0,.14l-.16,1.31c-.12.96-.24,1.92-.34,2.89-.25,2.38.41,4.66,2.15,7.39.1.16.3.34.43.43.17-.14.35-.39.41-.62.81-2.91.59-5.31-.71-7.55-.44-.76-.66-1.63-.88-2.47-.13-.49-.26-1-.43-1.46-.09-.24-.22-.47-.37-.71-.05.28-.09.54-.09.64Z"/>
        </g>
        <g>
          <path class="cls-3" d="M56.71,13.41c-.27,2.55.66,4.73,1.96,6.78.17.27.6.64.74.57.28-.14.55-.51.65-.84.67-2.41.64-4.71-.66-6.97-.58-1.01-.73-2.3-1.14-3.43-.18-.5-.55-.93-.83-1.4-.15.5-.58,4.04-.71,5.28Z"/>
          <path class="cls-1" d="M59.37,21.17c-.51,0-1.03-.76-1.04-.77-1.63-2.57-2.26-4.74-2.02-7.04.12-1.11.56-4.79.72-5.35.04-.15.17-.26.33-.28.16-.02.31.05.39.19.08.14.18.27.27.41.22.33.45.66.59,1.06.16.45.28.91.4,1.37.19.73.37,1.42.71,2.01,1.26,2.18,1.48,4.49.7,7.28-.13.46-.48.9-.86,1.09-.07.03-.14.05-.21.05ZM59.44,20.38h.01-.01ZM57.64,9.2c-.18,1.21-.42,3.22-.53,4.26h0c-.22,2.1.37,4.11,1.9,6.52.08.12.23.27.34.35.14-.12.27-.33.32-.5.72-2.57.52-4.68-.62-6.66-.39-.68-.59-1.45-.79-2.2-.11-.44-.23-.88-.38-1.29-.06-.16-.14-.31-.23-.47ZM56.71,13.41h.01-.01Z"/>
        </g>
        <g>
          <path class="cls-3" d="M60.37,6.56c-.16,1.51.39,2.8,1.16,4.02.1.16.35.38.44.34.17-.08.33-.3.38-.5.4-1.43.38-2.79-.39-4.13-.35-.6-.43-1.36-.68-2.04-.11-.3-.32-.55-.49-.83-.09.3-.35,2.41-.42,3.13Z"/>
          <path class="cls-1" d="M61.94,11.32c-.4,0-.75-.52-.75-.53-.67-1.05-1.41-2.48-1.22-4.27h0c.06-.53.33-2.84.43-3.2.04-.15.17-.26.33-.28.16-.02.31.05.39.19.05.08.1.16.15.24.14.2.28.41.37.66.1.27.17.54.24.82.11.42.21.82.4,1.15.76,1.31.9,2.76.43,4.44-.07.26-.29.6-.59.75-.06.03-.13.05-.19.05ZM62.05,10.54h.01-.01ZM61,4.68c-.09.67-.19,1.48-.23,1.92h0c-.13,1.21.21,2.37,1.1,3.76.01.02.03.04.05.06.02-.03.04-.07.05-.11.41-1.48.3-2.69-.35-3.82-.24-.42-.37-.89-.48-1.35-.04-.15-.08-.31-.13-.46ZM60.37,6.56h.01-.01Z"/>
        </g>
        <g>
          <path class="cls-3" d="M64.97,14.62c-.27,2.55.66,4.73,1.96,6.78.17.27.6.64.74.57.28-.14.55-.51.65-.84.67-2.41.64-4.71-.66-6.97-.58-1.01-.73-2.3-1.14-3.43-.18-.5-.55-.93-.83-1.4-.11.36-.21.72-.32,1.08-.07.24-.11.48-.12.72-.03.71-.17,2.49-.28,3.47Z"/>
          <path class="cls-1" d="M67.63,22.38c-.51,0-1.03-.76-1.04-.77-1.63-2.57-2.26-4.74-2.02-7.04.1-.96.25-2.74.28-3.45.01-.28.06-.56.13-.82l.32-1.08c.04-.15.17-.26.33-.28.16-.02.31.05.39.19.08.14.18.28.27.41.22.33.45.66.59,1.06.16.45.28.91.4,1.37.19.73.37,1.42.71,2.01,1.26,2.18,1.48,4.49.7,7.28-.13.46-.48.9-.86,1.09-.07.03-.14.05-.21.05ZM67.69,21.59h.01-.01ZM65.82,10.28l-.07.25c-.06.2-.09.41-.1.63-.03.73-.18,2.53-.28,3.5h0c-.22,2.1.37,4.11,1.9,6.52.08.12.23.27.34.35.14-.12.27-.33.32-.5.72-2.57.52-4.68-.62-6.66-.39-.68-.59-1.45-.79-2.2-.11-.44-.23-.88-.38-1.29-.07-.2-.18-.39-.31-.59ZM64.97,14.62h.01-.01Z"/>
        </g>
      </g>
    </g>
  </g>
</svg>