<?xml version="1.0" encoding="UTF-8"?>
<svg id="region_illustration" data-name="region illustration" xmlns="http://www.w3.org/2000/svg" viewBox="0 0 120 80">
  <defs>
    <style>
      .cls-1 {
        fill: none;
      }

      .cls-1, .cls-2, .cls-3 {
        stroke: #231f20;
        stroke-linecap: round;
        stroke-linejoin: round;
        stroke-width: .8px;
      }

      .cls-4, .cls-2 {
        fill: #f5f5f3;
      }

      .cls-5 {
        fill: #231f20;
      }

      .cls-3 {
        fill: #e0e0e0;
      }
    </style>
  </defs>
  <g id="amazon">
    <rect class="cls-5" x="26.68" y="71.4" width="67.63" height="3.97" rx="1.99" ry="1.99"/>
    <g>
      <path class="cls-3" d="M60.64,69.69c-2.65-14.66-10.97-25.49-11.05-25.59l-.93.8c.08.11,8.21,10.7,10.8,25.03l1.18-.24Z"/>
      <path class="cls-2" d="M49.85,52.01c-.32-4.12.09-6.38.09-6.38,0,0,2.34-.79,6.02,2.04.52-1.91-1.25-3.61-3.03-3.86.22-.09,2.58-1.05,5.11-1.18-2.83-2.47-6.98-.27-6.98-.27,0,0,1.34-3.73,2.67-5.89-2.4.6-3.89,2.62-4.48,5.16-.58-1.32-1.46-2.5-2.51-3.46-.71-.59-1.55-1.13-2.49-1.22.55.79.95,1.51,1.36,2.25.56,1,1.23,2.29,1.89,3.39-1.98-1.27-4.59-1.5-6.45.05,0,0,.03.12.03.12,2.32.7,5.65,1.62,5.97,1.74-1.44.42-3.83,3.03-2.79,5.65,1.09-1.69,2.34-2.51,3.91-3.56,0,0-.63,3.93,1.69,5.42Z"/>
    </g>
    <path class="cls-2" d="M86.1,60.98s4.53-2.44,7.71-3.33c-2.9-1.68-6.12-1.07-8.88.9.55-1.86.69-3.87.48-5.82-.2-1.26-.57-2.58-1.43-3.56-.14,1.3-.35,2.4-.59,3.52-.3,1.52-.74,3.43-1.03,5.15-.88-3.13-3.28-5.83-6.45-6.05l-.08.15c1.71,2.89,4.23,6.96,4.44,7.38-1.79-.96-6.42-.62-7.64,2.98.38-.1.75-.17,1.1-.22.64-.52,1.45-.83,2.32-.83.99,0,1.88.4,2.54,1.03.12.02.25.04.38.06,1.03-.83,2.31-1.31,3.71-1.31,2.53,0,4.71,1.6,5.66,3.9,1.22.62,2.94,1.61,4.47,2.93-.69-5.14-6.71-6.88-6.71-6.88ZM76.64,68.79c-.05.01-.1.01-.15.02.03.21.07.43.13.64.05-.06.09-.12.13-.18-.04-.16-.08-.32-.11-.48Z"/>
    <path class="cls-2" d="M29.19,66.45c-.31-4.51.16-6.97.16-6.97,0,0,2.56-.84,6.56,2.29.59-2.09-1.33-3.96-3.27-4.25.24-.1,2.83-1.12,5.59-1.23-3.07-2.73-7.63-.37-7.63-.37,0,0,1.5-4.06,2.97-6.41-2.63.63-4.27,2.83-4.94,5.59-.63-1.44-1.57-2.75-2.71-3.81-.77-.65-1.68-1.25-2.71-1.36.59.87,1.03,1.66,1.46,2.47.6,1.1,1.32,2.51,2.03,3.72-2.15-1.41-5-1.69-7.04-.02,0,0,.03.14.03.14,2.53.78,6.16,1.83,6.51,1.96-1.58.44-4.22,3.27-3.11,6.15,1.21-1.84,2.58-2.72,4.3-3.85,0,0-.73,4.29,1.8,5.94Z"/>
    <path class="cls-3" d="M68.97,67.62c0,2.82-2.17,5.1-4.86,5.1h-14.05c-.96,0-1.83-.39-2.46-1.02-.63-.62-1.02-1.49-1.02-2.45,0-1.69,1.2-3.1,2.8-3.41.37-2.15,2.03-3.83,4.1-4.14.38-2.42,2.37-4.27,4.78-4.27,2.69,0,4.86,2.28,4.86,5.09,0,.04-.01.08-.01.12.33-.08.66-.12,1-.12,2.69,0,4.86,2.29,4.86,5.1Z"/>
    <g>
      <path class="cls-3" d="M91.37,70.51c-.21.92-.76,1.7-1.51,2.21h-1.43c1.36,0,2.55-.92,2.94-2.21Z"/>
      <path class="cls-3" d="M91.51,69.58v.04c0,.12-.01.24-.02.35-.01.09-.03.19-.05.28-.02.09-.04.18-.06.26-.39,1.29-1.58,2.21-2.94,2.21h-9.41s-.05-.04-.08-.07h-6.83c-2.18,0-3.95-1.77-3.95-3.95,0-1.09.44-2.08,1.16-2.79.71-.72,1.7-1.16,2.79-1.16h.23c.08-1.08.6-2.04,1.39-2.67.64-.52,1.45-.83,2.32-.83.99,0,1.88.4,2.54,1.03.07.06.14.13.2.2.06-.05.12-.1.18-.14,1.03-.83,2.31-1.31,3.71-1.31,2.53,0,4.71,1.6,5.66,3.9.12.31.23.63.31.97,1.64.41,2.85,1.9,2.85,3.68Z"/>
    </g>
    <g>
      <path class="cls-3" d="M63.33,38.3c-.04.14-.08.28-.11.42h-.07v-.5s.18.08.18.08Z"/>
      <path class="cls-3" d="M73.97,20.91v2.79c0,3.4-1.53,6.69-4.1,8.77-2.71,2.19-4.49,5.5-4.87,9.07l-2.46,21.82-.53,4.68-.23,2.02-1.87-.22h0l-.4-.05.39-3.48v-.04s.01-.01.01-.01l.44-3.87h0s2.38-21.12,2.38-21.12c.1-.86.26-1.72.49-2.55.04-.14.07-.28.12-.42l-.19-.08-1.92-.9c-2.28-1.06-4.13-2.95-5.21-5.3l-3.68-8h2.54l3.2,6.96c.85,1.84,2.3,3.32,4.09,4.15l.98.46v-4.77c0-1.27.07-2.54.22-3.8l-.05.03-3.48-6.14h2.66l1.45,2.57c.11-.53.24-1.06.38-1.58l.27-.99h1.25l1.05.31-.36,1.33c-.73,2.69-1.09,5.47-1.09,8.27v3.06c.84-1.24,1.86-2.37,3.03-3.31,2.01-1.63,3.21-4.2,3.21-6.87v-2.79h2.29Z"/>
    </g>
    <path class="cls-2" d="M83.22,14.32v1.53c0,2.79-2.16,5.06-4.82,5.06h-18.76c-.73,1.82-2.44,3.11-4.44,3.11h-10.32c-2.66,0-4.81-2.26-4.81-5.04v-1.51c0-2.79,2.15-5.04,4.81-5.04h4.65c.39-1.02,1.08-1.86,1.96-2.43h0v-1.27c0-2.47,1.91-4.48,4.27-4.48h14.41c2.36,0,4.27,2.01,4.27,4.48v.53h3.96c2.66,0,4.82,2.26,4.82,5.06Z"/>
    <path class="cls-3" d="M29.37,68.65c-.05.48-.05.95-.01,1.4.13,1.52,1.37,2.67,2.82,2.67h18.08s1.08,0,1.08,0h8.27c1.52,0,2.82-1.26,2.84-2.85,0-.01,0-.02,0-.04,0-.99-.38-1.88-1-2.52-.61-.65-1.46-1.05-2.4-1.05h-2.13c-.83-.98-2.04-1.59-3.38-1.59-1.03,0-1.98.35-2.73.96-.76-.61-1.71-.96-2.73-.96-.83,0-1.6.23-2.26.64-.66-.41-1.44-.64-2.27-.64-.7,0-1.36.16-1.95.46-1.37-1.9-3.62-3.06-6.11-2.82-3.18.31-5.77,3-6.11,6.33Z"/>
    <path class="cls-3" d="M52.07,68.65c-.05.48-.05.95-.01,1.4.13,1.52,1.37,2.67,2.82,2.67h18.08s1.08,0,1.08,0h8.27c1.52,0,2.82-1.26,2.84-2.85,0-.01,0-.02,0-.04,0-.99-.38-1.88-1-2.52-.61-.65-1.46-1.05-2.4-1.05h-2.13c-.83-.98-2.04-1.59-3.38-1.59-1.03,0-1.98.35-2.73.96-.76-.61-1.71-.96-2.73-.96-.83,0-1.6.23-2.26.64-.66-.41-1.44-.64-2.27-.64-.7,0-1.36.16-1.95.46-1.37-1.9-3.62-3.06-6.11-2.82-3.18.31-5.77,3-6.11,6.33Z"/>
  </g>
  <g>
    <g>
      <path class="cls-4" d="M88.9,32.84c-.45-.45-1.17-.41-1.58.09-.91,1.09-2.34,1.92-2.93,2.23l-.31-.86c-.02-.05-.04-.1-.07-.15l.61-1.05-1.25.4c-.35-.19-.77-.21-1.15-.03-.48.23-.76.73-.71,1.26l.13,1.31-1.79.62c-.38.13-.81.06-1.13-.19-1.1-.87-2.72-.44-3.25.85l-2.67,6.52c-.11.26.22.47.42.27l1.03-1.07,2.82-1.97.32.07c.58.12,1.19-.06,1.61-.49l.93-.95c.66.16,1.36-.08,1.78-.62l.53-.67.86,1.26.69,4.36c.08.5.8.49.87-.02l.16-1.32,1.71.76c.35.15.66-.27.41-.55l-1.1-1.28,1.95.21c.37.04.54-.43.24-.64l-2.54-1.79c-.11-.08-.2-.18-.26-.3-.11-.22-.1-.49.03-.71.11-.2.13-.43.05-.65l-.06-.17.41-.27.94.37c.62.25,1.32.09,1.79-.41l.54.12c.45.1.92,0,1.3-.28l.62-.45,2.8.93-4.77-4.76Z"/>
      <path class="cls-1" d="M88.9,32.84c-.45-.45-1.17-.41-1.58.09-.91,1.09-2.34,1.92-2.93,2.23l-.31-.86c-.02-.05-.04-.1-.07-.15l.61-1.05-1.25.4c-.35-.19-.77-.21-1.15-.03-.48.23-.76.73-.71,1.26l.13,1.31-1.79.62c-.38.13-.81.06-1.13-.19-1.1-.87-2.72-.44-3.25.85l-2.67,6.52c-.11.26.22.47.42.27l1.03-1.07,2.82-1.97.32.07c.58.12,1.19-.06,1.61-.49l.93-.95c.66.16,1.36-.08,1.78-.62l.53-.67.86,1.26.69,4.36c.08.5.8.49.87-.02l.16-1.32,1.71.76c.35.15.66-.27.41-.55l-1.1-1.28,1.95.21c.37.04.54-.43.24-.64l-2.54-1.79c-.11-.08-.2-.18-.26-.3-.11-.22-.1-.49.03-.71.11-.2.13-.43.05-.65l-.06-.17.41-.27.94.37c.62.25,1.32.09,1.79-.41l.54.12c.45.1.92,0,1.3-.28l.62-.45,2.8.93-4.77-4.76Z"/>
    </g>
    <line class="cls-1" x1="80.41" y1="37.74" x2="79.93" y2="39.7"/>
    <line class="cls-1" x1="77.62" y1="38.79" x2="77.13" y2="40.75"/>
    <line class="cls-1" x1="90.86" y1="36.67" x2="88.5" y2="34.44"/>
    <line class="cls-1" x1="88.4" y1="37.27" x2="87.08" y2="35.55"/>
  </g>
  <g>
    <g>
      <path class="cls-4" d="M103.41,12.59l-6.31-.55c-1.25-.11-2.26,1.01-2.02,2.24.07.36-.05.73-.31.98l-1.23,1.18-.99-.64c-.4-.26-.92-.24-1.3.05-.29.22-.46.57-.45.93l-.83.84,1.09-.06s.06.08.09.11l.56.6c-.49.34-1.74,1.15-2.98,1.42-.57.12-.9.68-.72,1.23l1.84,5.76.41-2.62.61-.31c.38-.19.65-.53.76-.93l.13-.48c.59-.18,1.01-.67,1.07-1.26l.09-.9.39-.21.11.12c.14.15.33.23.54.22.23-.01.45.1.58.27.07.09.12.2.13.33l.38,2.76c.05.33.5.38.61.07l.63-1.64.57,1.41c.13.31.59.24.61-.1l.1-1.68,1.12.42c.43.16.74-.42.37-.68l-3.2-2.34-.65-1.21.75-.14c.6-.12,1.08-.57,1.23-1.17l1.14-.35c.51-.16.91-.56,1.05-1.08l.08-.28,2.73-1.44,1.28-.38c.24-.07.2-.42-.05-.44Z"/>
      <path class="cls-1" d="M103.41,12.59l-6.31-.55c-1.25-.11-2.26,1.01-2.02,2.24.07.36-.05.73-.31.98l-1.23,1.18-.99-.64c-.4-.26-.92-.24-1.3.05-.29.22-.46.57-.45.93l-.83.84,1.09-.06s.06.08.09.11l.56.6c-.49.34-1.74,1.15-2.98,1.42-.57.12-.9.68-.72,1.23l1.84,5.76.41-2.62.61-.31c.38-.19.65-.53.76-.93l.13-.48c.59-.18,1.01-.67,1.07-1.26l.09-.9.39-.21.11.12c.14.15.33.23.54.22.23-.01.45.1.58.27.07.09.12.2.13.33l.38,2.76c.05.33.5.38.61.07l.63-1.64.57,1.41c.13.31.59.24.61-.1l.1-1.68,1.12.42c.43.16.74-.42.37-.68l-3.2-2.34-.65-1.21.75-.14c.6-.12,1.08-.57,1.23-1.17l1.14-.35c.51-.16.91-.56,1.05-1.08l.08-.28,2.73-1.44,1.28-.38c.24-.07.2-.42-.05-.44Z"/>
    </g>
    <line class="cls-1" x1="95.41" y1="16.15" x2="97.17" y2="16.57"/>
    <line class="cls-1" x1="97.4" y1="14.35" x2="99.16" y2="14.77"/>
    <line class="cls-1" x1="90.25" y1="24.05" x2="89.45" y2="21.25"/>
    <line class="cls-1" x1="91.75" y1="22.33" x2="90.92" y2="20.58"/>
  </g>
</svg>