<?xml version="1.0" encoding="UTF-8"?>
<svg id="region_illustration" data-name="region illustration" xmlns="http://www.w3.org/2000/svg" viewBox="0 0 120 80">
  <defs>
    <style>
      .cls-1 {
        fill: #231f20;
      }

      .cls-2 {
        fill: #efefef;
      }

      .cls-3 {
        fill: #fff;
      }
    </style>
  </defs>
  <g id="current">
    <g>
      <path class="cls-1" d="M50.4,37.93l-10.97-.16s1.04-8.47-1.84-14.23c-.94-1.89-2.84-3.12-4.95-3.2l-10.22-.38c-.94-.03-1.78-.62-2.14-1.49-.25-.6.04-1.3.64-1.54l8.65-3.56c2.41-1.2,4.3.59,4.98.92.03-.84-.27-3.81,1.49-4.88l7.34-5.72c.42-.32,1.02-.25,1.34.16.31.4.5.87.56,1.35.07.55-.02,1.11-.29,1.62l-3.16,6.05c-1.06,2.03-.82,4.5.62,6.28,3.8,4.7,8.76,12.23,7.95,18.75Z"/>
      <path class="cls-1" d="M50.4,38.33h0l-10.97-.16c-.11,0-.22-.05-.3-.14-.07-.09-.11-.2-.1-.31.01-.08.99-8.42-1.8-14.01-.88-1.76-2.65-2.9-4.61-2.97l-10.22-.38c-1.09-.04-2.07-.72-2.5-1.73-.16-.39-.16-.82,0-1.21.16-.39.47-.7.86-.86l8.65-3.56c2.05-1.02,3.79-.03,4.73.57,0-1.3.09-3.53,1.69-4.5l7.3-5.69c.59-.46,1.44-.35,1.9.23.35.45.57.98.64,1.55.08.65-.03,1.29-.33,1.86l-3.16,6.05c-.99,1.89-.76,4.19.58,5.84,4.12,5.09,8.85,12.53,8.03,19.05-.03.2-.2.35-.4.35ZM39.87,37.38l10.17.14c.57-6.16-3.96-13.22-7.9-18.09-1.54-1.9-1.8-4.54-.66-6.72l3.16-6.05c.22-.43.31-.91.25-1.39-.05-.43-.22-.82-.48-1.16-.19-.24-.54-.28-.78-.09l-7.34,5.72c-1.38.84-1.35,3.07-1.34,4.14,0,.18,0,.32,0,.44,0,.14-.08.26-.19.33s-.26.08-.38.02c-.12-.06-.28-.16-.48-.29-.88-.57-2.34-1.53-4.15-.63l-8.67,3.57c-.19.08-.34.23-.42.43-.08.19-.08.4,0,.59.31.73,1.01,1.21,1.79,1.24l10.22.38c2.25.08,4.28,1.39,5.29,3.42,2.55,5.11,2.1,12.18,1.93,14.02Z"/>
    </g>
    <g>
      <path class="cls-2" d="M4.73,32.82c2.5,0,5.88-2.36,5.88-2.36,0,0,2.5,2.36,4.99,2.36,2.49,0,4.99-2.36,4.99-2.36,0,0,2.49,2.36,4.99,2.36,2.49,0,4.98-2.36,4.98-2.36,0,0,2.49,2.36,4.99,2.36s4.99-2.36,4.99-2.36c0,0,2.49,2.36,4.99,2.36,2.49,0,4.98-2.36,4.98-2.36,0,0,2.49,2.36,4.98,2.36,2.49,0,4.98-2.36,4.98-2.36,0,0,2.49,2.36,4.98,2.36s4.98-2.36,4.98-2.36c0,0,2.49,2.36,4.98,2.36,2.49,0,4.98-2.36,4.98-2.36,0,0,2.49,2.36,4.98,2.36,2.49,0,4.98-2.36,4.98-2.36,0,0,2.49,2.36,4.98,2.36,2.49,0,4.98-2.36,4.98-2.36,0,0,2.49,2.36,4.98,2.36,2.49,0,4.98-2.36,4.98-2.36,0,0,2.49,2.36,4.98,2.36v38.3s-110.54,0-110.54,0v-38.3Z"/>
      <path class="cls-1" d="M115.27,71.52H4.73c-.22,0-.4-.18-.4-.4v-38.3c0-.22.18-.4.4-.4,2.34,0,5.62-2.26,5.65-2.29.16-.11.37-.09.5.04.02.02,2.41,2.25,4.72,2.25s4.69-2.23,4.71-2.25c.15-.14.4-.15.55,0,.02.02,2.41,2.25,4.71,2.25s4.69-2.23,4.71-2.25c.15-.15.4-.15.55,0,.02.02,2.41,2.25,4.71,2.25s4.69-2.23,4.71-2.25c.15-.15.4-.15.55,0,.02.02,2.41,2.25,4.71,2.25s4.69-2.23,4.71-2.25c.15-.15.4-.15.55,0,.02.02,2.41,2.25,4.71,2.25s4.69-2.23,4.71-2.25c.15-.15.4-.15.55,0,.02.02,2.41,2.25,4.7,2.25s4.68-2.23,4.71-2.25c.15-.15.4-.15.55,0,.02.02,2.41,2.25,4.7,2.25s4.69-2.23,4.71-2.25c.15-.15.4-.15.55,0,.02.02,2.41,2.25,4.71,2.25s4.69-2.23,4.71-2.25c.15-.15.4-.15.55,0,.02.02,2.41,2.25,4.71,2.25s4.68-2.23,4.71-2.25c.15-.15.4-.15.55,0,.02.02,2.41,2.25,4.71,2.25s4.68-2.23,4.71-2.25c.15-.15.4-.15.55,0,.02.02,2.41,2.25,4.71,2.25.22,0,.4.18.4.4v38.3c0,.22-.18.4-.4.4ZM5.13,70.72h109.74v-37.52c-2.01-.18-3.89-1.62-4.58-2.21-.74.63-2.83,2.22-4.98,2.22s-4.24-1.6-4.98-2.22c-.74.63-2.83,2.22-4.98,2.22s-4.25-1.6-4.98-2.22c-.74.63-2.83,2.22-4.98,2.22s-4.25-1.6-4.98-2.22c-.74.63-2.83,2.22-4.98,2.22s-4.24-1.6-4.98-2.22c-.74.63-2.83,2.22-4.98,2.22s-4.24-1.6-4.98-2.22c-.74.63-2.83,2.22-4.98,2.22s-4.24-1.6-4.98-2.22c-.74.63-2.83,2.22-4.98,2.22s-4.25-1.6-4.99-2.22c-.74.63-2.83,2.22-4.99,2.22s-4.25-1.6-4.99-2.22c-.74.63-2.83,2.22-4.98,2.22s-4.25-1.6-4.99-2.22c-.74.63-2.83,2.22-4.99,2.22s-4.32-1.65-5.03-2.25c-.81.53-3.31,2.06-5.45,2.24v37.51Z"/>
    </g>
    <g>
      <path class="cls-1" d="M4.73,71.12c1.11-1.11,1.97-2.61,3.26-3.64,1.23-.98,3.19-1.03,4.56-1.93,1.32-.87,2.13-2.64,3.57-3.43s3.32-.51,4.8-1.21,2.46-2.34,3.97-2.96,3.37-.15,4.9-.7c1.5-.54,2.67-2.1,4.22-2.59s3.38.11,4.94-.33c1.54-.43,2.81-1.92,4.38-2.31,1.56-.39,3.38.32,4.95-.04,1.57-.35,2.92-1.76,4.5-2.08,1.58-.31,3.37.48,4.95.2,1.59-.28,3-1.64,4.58-1.88s3.35.61,4.94.39,3.06-1.53,4.64-1.72c1.62-.2,3.34.72,4.92.55,1.63-.17,3.12-1.43,4.69-1.57,1.64-.15,3.33.82,4.9.69,1.65-.13,3.18-1.34,4.73-1.44,1.67-.11,3.34.9,4.88.83,1.69-.09,3.25-1.26,4.77-1.32,1.74-.07,3.38.99,4.86.95,1.84-.04,3.44-1.17,4.8-1.19,3.07-.03,2.41,1.06,4.82,1.11v30.99s-110.53,0-110.53,0v-5.37Z"/>
      <path class="cls-1" d="M115.26,76.89H4.73c-.22,0-.4-.18-.4-.4v-5.37c0-.11.04-.21.12-.28.44-.44.84-.94,1.26-1.48.61-.77,1.24-1.56,2.03-2.19.71-.57,1.62-.84,2.5-1.11.73-.22,1.49-.45,2.09-.84.57-.37,1.04-.94,1.55-1.54.6-.71,1.22-1.45,2.05-1.91.78-.43,1.7-.56,2.6-.69.81-.11,1.57-.22,2.23-.53.63-.3,1.18-.81,1.77-1.35.67-.62,1.36-1.26,2.22-1.61.82-.34,1.74-.37,2.63-.4.82-.03,1.6-.06,2.29-.31.67-.24,1.27-.71,1.92-1.2.71-.55,1.45-1.12,2.32-1.39.84-.27,1.76-.23,2.65-.2.83.03,1.61.07,2.31-.13.69-.19,1.33-.63,2.02-1.08.74-.5,1.51-1.01,2.38-1.23.86-.22,1.77-.12,2.65-.04.82.08,1.6.16,2.31,0,.71-.16,1.38-.56,2.09-.98.76-.45,1.55-.92,2.42-1.1.87-.17,1.78-.04,2.65.09.82.12,1.59.23,2.31.11.72-.13,1.41-.5,2.15-.9.77-.42,1.57-.85,2.44-.99.88-.14,1.78.03,2.65.19.81.15,1.58.29,2.29.2.73-.1,1.44-.45,2.19-.83.78-.39,1.59-.79,2.46-.89.89-.11,1.79.09,2.65.28.8.18,1.56.35,2.27.27.75-.08,1.47-.41,2.24-.76.79-.36,1.6-.73,2.46-.81.9-.08,1.8.14,2.66.36.79.2,1.54.39,2.24.33.76-.06,1.54-.39,2.29-.71.79-.34,1.61-.68,2.45-.74.93-.06,1.82.19,2.69.44.78.22,1.51.42,2.19.39.8-.04,1.6-.36,2.37-.66.78-.31,1.6-.63,2.41-.66.98-.03,1.9.25,2.79.52.74.23,1.44.44,2.07.43.92-.02,1.78-.34,2.61-.64.77-.28,1.49-.54,2.2-.55,1.75-.02,2.4.33,2.96.64.45.24.84.46,1.86.47.22,0,.39.18.39.4v30.99c0,.22-.18.4-.4.4ZM5.13,76.09h109.73v-30.21c-.94-.07-1.39-.31-1.84-.55-.53-.29-1.03-.55-2.58-.54-.57,0-1.23.25-1.93.5-.85.31-1.82.66-2.86.69-.77.02-1.52-.22-2.33-.47-.82-.25-1.67-.52-2.52-.49-.68.03-1.39.31-2.15.6-.83.33-1.69.67-2.62.71-.82.04-1.65-.19-2.45-.42-.8-.23-1.64-.46-2.43-.41-.71.04-1.43.35-2.19.67-.81.34-1.65.7-2.54.77-.83.06-1.68-.15-2.5-.36-.8-.2-1.63-.41-2.4-.34-.72.07-1.44.4-2.2.74-.79.36-1.61.74-2.49.83-.84.09-1.7-.1-2.53-.28-.84-.19-1.63-.36-2.39-.27-.73.09-1.44.44-2.2.82-.77.38-1.58.78-2.44.9-.84.12-1.71-.04-2.55-.2-.84-.16-1.64-.31-2.38-.19-.73.12-1.44.5-2.18.9-.76.41-1.54.83-2.39.98-.84.15-1.72.02-2.56-.1-.85-.12-1.64-.24-2.38-.1-.74.15-1.43.56-2.16,1-.73.44-1.49.89-2.33,1.08-.84.19-1.72.1-2.57.02-.85-.08-1.65-.16-2.38.02-.74.18-1.41.64-2.13,1.12-.7.47-1.43.96-2.25,1.19-.82.23-1.71.2-2.56.16-.86-.03-1.66-.07-2.37.16-.73.23-1.38.73-2.07,1.27-.66.51-1.35,1.04-2.13,1.32-.8.29-1.68.32-2.53.35-.86.03-1.67.06-2.36.34-.72.3-1.33.86-1.98,1.46-.61.56-1.23,1.14-1.97,1.49-.77.36-1.63.49-2.46.6-.86.12-1.67.24-2.32.6-.7.39-1.24,1.04-1.82,1.72-.52.62-1.05,1.26-1.72,1.7-.7.46-1.51.7-2.3.94-.84.25-1.64.49-2.23.97-.72.57-1.32,1.33-1.9,2.06-.38.48-.78.98-1.21,1.43v4.81Z"/>
    </g>
    <g>
      <path class="cls-1" d="M4.73,60.42l-.22-.77c5.59-1.64,10.71-3.58,16.12-5.64,15.14-5.75,32.29-12.27,67.04-14.63l.05.8c-34.63,2.35-51.72,8.85-66.81,14.58-5.43,2.06-10.56,4.01-16.18,5.66Z"/>
      <polygon class="cls-1" points="86.24 41.24 87.5 39.79 86.05 38.53 87.2 38.45 88.65 39.72 87.39 41.16 86.24 41.24"/>
    </g>
    <g>
      <path class="cls-1" d="M4.82,53.76l-.17-.78c9.66-2.13,15.93-5.12,21.46-7.77,5.9-2.82,11.47-5.48,19.95-6.57l.1.79c-8.35,1.08-13.62,3.59-19.71,6.5-5.57,2.66-11.89,5.68-21.64,7.83Z"/>
      <polygon class="cls-1" points="44.35 37.94 45.88 39.09 44.73 40.62 45.87 40.46 47.02 38.93 45.49 37.78 44.35 37.94"/>
    </g>
    <g>
      <path class="cls-1" d="M4.73,44.07v-.8c4.05,0,7.59-1.39,11.02-2.73,2.27-.89,4.61-1.81,7.04-2.29l.16.78c-2.36.47-4.57,1.34-6.91,2.25-3.5,1.37-7.12,2.79-11.31,2.79Z"/>
      <polygon class="cls-1" points="21.04 37.68 22.65 38.72 21.6 40.33 22.73 40.09 23.78 38.49 22.17 37.44 21.04 37.68"/>
    </g>
    <g>
      <path class="cls-3" d="M32.26,67.47l-.36-.71c1.44-.74,2.81-1.5,4.14-2.25,10.63-5.95,21.63-12.1,79.22-12.64v.8c-57.38.54-68.29,6.64-78.83,12.54-1.34.75-2.72,1.52-4.17,2.26Z"/>
      <polygon class="cls-3" points="32.83 65.14 32.28 66.98 34.11 67.54 33.1 68.08 31.26 67.52 31.82 65.69 32.83 65.14"/>
    </g>
    <g>
      <path class="cls-3" d="M50.03,68.44l-.28-.75,1.03-.38c11.14-4.15,23.77-8.86,64.27-7.85l-.02.8c-40.34-1.01-52.9,3.68-63.97,7.8l-1.03.38Z"/>
      <polygon class="cls-3" points="50.94 66.26 50.12 67.99 51.85 68.81 50.77 69.2 49.04 68.38 49.86 66.64 50.94 66.26"/>
    </g>
    <g>
      <path class="cls-3" d="M78.93,69.93l-.12-.79c9.46-1.49,16.58-2.02,36.25-1.42l-.02.8c-19.6-.6-26.69-.07-36.1,1.41Z"/>
      <polygon class="cls-3" points="80.27 67.99 79.11 69.52 80.64 70.67 79.5 70.83 77.97 69.68 79.13 68.15 80.27 67.99"/>
    </g>
  </g>
</svg>