<?xml version="1.0" encoding="UTF-8"?>
<svg id="effect_illustrations" data-name="effect illustrations" xmlns="http://www.w3.org/2000/svg" viewBox="0 0 120 80">
  <defs>
    <style>
      .cls-1 {
        fill: #231f20;
      }

      .cls-2 {
        fill: #efefef;
      }

      .cls-3 {
        fill: #fff;
      }
    </style>
  </defs>
  <g>
    <path class="cls-2" d="M51.3,42.29s2.61-.65,4.61.56c2,1.21,2.64,3.81,2.64,3.81,0,0-2.61.65-4.61-.56s-2.64-3.81-2.64-3.81Z"/>
    <path class="cls-1" d="M56.91,47.24c-.94,0-2.12-.16-3.17-.79-2.12-1.28-2.8-3.95-2.83-4.06-.05-.21.08-.43.29-.48.11-.03,2.79-.67,4.91.61,2.12,1.28,2.8,3.95,2.83,4.06.05.21-.08.43-.29.48-.06.01-.77.19-1.74.19ZM51.81,42.6c.26.75.96,2.33,2.33,3.16,1.38.83,3.11.71,3.89.59-.26-.75-.96-2.33-2.33-3.16-1.38-.83-3.11-.71-3.89-.59Z"/>
  </g>
  <g>
    <path class="cls-2" d="M51.93,35.49s2.67-.34,4.52,1.09c1.85,1.43,2.18,4.09,2.18,4.09,0,0-2.67.34-4.52-1.09-1.85-1.43-2.18-4.09-2.18-4.09Z"/>
    <path class="cls-1" d="M57.91,41.11c-.98,0-2.69-.17-4.04-1.21-1.96-1.52-2.32-4.24-2.34-4.36-.03-.22.13-.42.35-.45.12-.01,2.85-.34,4.81,1.17,1.96,1.52,2.32,4.24,2.34,4.36.03.22-.13.42-.35.45-.04,0-.33.04-.77.04ZM52.41,35.86c.17.77.68,2.42,1.95,3.41,1.27.99,3.01,1.06,3.79,1.04-.17-.77-.68-2.42-1.95-3.41-1.27-.98-3-1.06-3.79-1.04Z"/>
  </g>
  <g>
    <path class="cls-2" d="M53.38,29.95s2.67-.28,4.49,1.19,2.1,4.14,2.1,4.14c0,0-2.67.28-4.49-1.19s-2.1-4.14-2.1-4.14Z"/>
    <path class="cls-1" d="M59.43,35.71c-.94,0-2.78-.16-4.19-1.3-1.93-1.56-2.24-4.29-2.25-4.41-.02-.22.14-.42.36-.44.12-.01,2.86-.28,4.79,1.28,1.93,1.56,2.24,4.29,2.25,4.41.02.22-.14.42-.36.44-.03,0-.25.02-.59.02ZM53.85,30.33c.16.77.63,2.44,1.88,3.45,1.25,1.01,2.98,1.14,3.77,1.12-.16-.77-.63-2.44-1.88-3.45-1.25-1.01-2.99-1.13-3.77-1.12Z"/>
  </g>
  <g>
    <path class="cls-2" d="M55.76,23.05s2.67.28,4.15,2.1c1.47,1.82,1.19,4.48,1.19,4.48,0,0-2.67-.28-4.15-2.1-1.47-1.82-1.19-4.48-1.19-4.48Z"/>
    <path class="cls-1" d="M61.1,30.03s-.03,0-.04,0c-.12-.01-2.85-.32-4.41-2.24-1.56-1.92-1.29-4.66-1.28-4.78.02-.22.22-.38.44-.36.12.01,2.85.32,4.41,2.24,1.56,1.92,1.29,4.66,1.28,4.78-.02.21-.2.36-.4.36ZM56.14,23.52c0,.79.11,2.51,1.12,3.76,1.01,1.25,2.68,1.72,3.46,1.88,0-.79-.11-2.51-1.12-3.76-1.01-1.25-2.68-1.72-3.46-1.88Z"/>
  </g>
  <g>
    <path class="cls-2" d="M61.7,29.82s2.15,1.61,4.47,1.28c2.32-.33,3.93-2.47,3.93-2.47,0,0-2.15-1.61-4.47-1.28-2.32.33-3.93,2.47-3.93,2.47Z"/>
    <path class="cls-1" d="M65.52,31.54c-2.16,0-3.98-1.34-4.06-1.41-.08-.06-.14-.16-.16-.26s.01-.21.08-.3c.07-.09,1.74-2.28,4.2-2.63,2.45-.35,4.67,1.29,4.76,1.36.08.06.14.16.16.26s-.01.21-.08.3c-.07.09-1.74,2.28-4.2,2.63-.24.03-.47.05-.7.05ZM62.3,29.73c.68.41,2.22,1.2,3.81.97,1.59-.23,2.85-1.41,3.39-1.99-.68-.41-2.22-1.19-3.81-.97-1.59.23-2.85,1.41-3.39,1.99Z"/>
  </g>
  <g>
    <path class="cls-2" d="M60.49,35.8s2.44,1.13,4.64.33c2.2-.8,3.33-3.24,3.33-3.24,0,0-2.44-1.13-4.64-.33-2.2.8-3.33,3.24-3.33,3.24Z"/>
    <path class="cls-1" d="M63.39,36.81c-1.63,0-2.99-.62-3.07-.65-.2-.09-.29-.33-.19-.53.05-.11,1.23-2.59,3.56-3.45,2.33-.85,4.84.29,4.94.34.2.09.29.33.19.53-.05.11-1.23,2.59-3.56,3.45-.63.23-1.27.31-1.87.31ZM61.06,35.59c.75.26,2.42.71,3.93.16,1.51-.55,2.5-1.97,2.9-2.66-.75-.26-2.42-.71-3.93-.16-1.51.55-2.5,1.97-2.9,2.66Z"/>
  </g>
  <g>
    <path class="cls-2" d="M59.14,41.22s2.46,1.08,4.64.23c2.18-.85,3.26-3.31,3.26-3.31,0,0-2.46-1.08-4.64-.23-2.18.85-3.26,3.31-3.26,3.31Z"/>
    <path class="cls-1" d="M61.92,42.17c-1.57,0-2.86-.56-2.94-.59-.1-.04-.17-.12-.21-.22-.04-.1-.04-.21,0-.31.05-.11,1.17-2.62,3.48-3.52,2.31-.9,4.84.19,4.95.23.1.04.17.12.21.22.04.1.04.21,0,.31-.05.11-1.17,2.62-3.48,3.52-.67.26-1.36.36-2.01.36ZM59.7,41c.75.25,2.43.66,3.93.07,1.5-.58,2.46-2.02,2.84-2.72-.75-.25-2.43-.66-3.93-.07-1.5.58-2.46,2.02-2.84,2.72Z"/>
  </g>
  <g>
    <path class="cls-2" d="M58.43,46.61s2.57.79,4.64-.31c2.07-1.1,2.86-3.66,2.86-3.66,0,0-2.57-.79-4.64.31-2.07,1.1-2.86,3.66-2.86,3.66Z"/>
    <path class="cls-1" d="M60.47,47.29c-1.18,0-2.09-.27-2.16-.29-.1-.03-.19-.1-.24-.19s-.06-.2-.03-.3c.03-.11.86-2.74,3.05-3.9,2.19-1.16,4.83-.38,4.94-.34.1.03.19.1.24.19s.06.2.03.3c-.03.11-.86,2.74-3.05,3.9-.92.49-1.93.63-2.78.63ZM58.97,46.33c.78.16,2.49.37,3.92-.38,1.42-.75,2.2-2.3,2.51-3.03-.78-.16-2.49-.37-3.92.38s-2.2,2.3-2.51,3.03Z"/>
  </g>
  <g>
    <path class="cls-2" d="M88.5,39.43s2.61-.65,4.61.56c2,1.21,2.64,3.81,2.64,3.81,0,0-2.61.65-4.61-.56-2-1.21-2.64-3.81-2.64-3.81Z"/>
    <path class="cls-1" d="M94.1,44.37c-.94,0-2.12-.16-3.17-.79-2.12-1.28-2.8-3.95-2.83-4.06-.05-.21.08-.43.29-.48.11-.03,2.79-.67,4.91.61,2.12,1.28,2.8,3.95,2.83,4.06.05.21-.08.43-.29.48-.06.01-.78.19-1.75.19ZM89.01,39.74c.26.75.96,2.33,2.33,3.16,1.38.83,3.11.71,3.89.59-.26-.75-.96-2.33-2.33-3.16-1.38-.83-3.1-.71-3.89-.59Z"/>
  </g>
  <g>
    <path class="cls-2" d="M89.68,32.07s2.67-.34,4.52,1.09c1.85,1.43,2.18,4.09,2.18,4.09,0,0-2.67.34-4.52-1.09-1.85-1.43-2.18-4.09-2.18-4.09Z"/>
    <path class="cls-1" d="M95.66,37.69c-.98,0-2.69-.17-4.04-1.21-1.96-1.52-2.32-4.24-2.34-4.36-.03-.22.13-.42.35-.45.12-.01,2.85-.34,4.81,1.17,1.96,1.52,2.32,4.24,2.34,4.36.03.22-.13.42-.35.45-.04,0-.33.04-.77.04ZM90.16,32.44c.17.77.68,2.42,1.95,3.41,1.27.98,3,1.06,3.79,1.04-.17-.77-.68-2.42-1.95-3.41-1.27-.98-3-1.06-3.79-1.04Z"/>
  </g>
  <g>
    <path class="cls-2" d="M90.92,26.42s2.67-.28,4.49,1.19c1.82,1.47,2.1,4.14,2.1,4.14,0,0-2.67.28-4.49-1.19-1.82-1.47-2.1-4.14-2.1-4.14Z"/>
    <path class="cls-1" d="M96.96,32.18c-.94,0-2.78-.16-4.19-1.3-1.93-1.56-2.24-4.29-2.25-4.41-.02-.22.14-.42.36-.44.12-.01,2.86-.28,4.79,1.28,1.93,1.56,2.24,4.3,2.25,4.41.02.22-.14.42-.36.44-.03,0-.25.02-.59.02ZM91.38,26.8c.16.77.63,2.44,1.88,3.45,1.25,1.01,2.98,1.13,3.77,1.12-.16-.77-.63-2.44-1.88-3.45-1.25-1.01-2.98-1.15-3.77-1.12Z"/>
  </g>
  <g>
    <path class="cls-2" d="M93.91,18.63s2.67.28,4.15,2.1c1.47,1.82,1.19,4.48,1.19,4.48,0,0-2.67-.28-4.15-2.1-1.47-1.82-1.19-4.48-1.19-4.48Z"/>
    <path class="cls-1" d="M99.24,25.61s-.03,0-.04,0c-.12-.01-2.85-.32-4.41-2.24-1.56-1.92-1.29-4.66-1.28-4.78.02-.22.22-.38.44-.36.12.01,2.85.32,4.41,2.24,1.56,1.92,1.29,4.66,1.28,4.78-.02.21-.2.36-.4.36ZM94.29,19.1c0,.79.11,2.51,1.12,3.76,1.01,1.25,2.68,1.72,3.46,1.88,0-.79-.11-2.51-1.12-3.76-1.01-1.25-2.68-1.72-3.46-1.88Z"/>
  </g>
  <g>
    <path class="cls-2" d="M99.45,25.45s2.15,1.61,4.47,1.28c2.32-.33,3.93-2.47,3.93-2.47,0,0-2.15-1.61-4.47-1.28-2.32.33-3.93,2.47-3.93,2.47Z"/>
    <path class="cls-1" d="M103.28,27.18c-2.16,0-3.98-1.34-4.07-1.41-.08-.06-.14-.16-.16-.26s.01-.21.08-.3c.07-.09,1.74-2.28,4.2-2.63,2.45-.35,4.67,1.29,4.76,1.36.08.06.14.16.16.26s-.01.21-.08.3c-.07.09-1.74,2.28-4.2,2.63-.24.03-.47.05-.7.05ZM100.05,25.37c.68.41,2.22,1.2,3.81.97,1.59-.23,2.85-1.41,3.39-1.99-.68-.41-2.22-1.2-3.81-.97-1.59.23-2.85,1.41-3.39,1.99Z"/>
  </g>
  <g>
    <path class="cls-2" d="M96.36,43.69s2.41,1.19,4.63.43c2.22-.75,3.4-3.16,3.4-3.16,0,0-2.41-1.19-4.63-.43-2.22.75-3.4,3.16-3.4,3.16Z"/>
    <path class="cls-1" d="M99.38,44.77c-1.7,0-3.12-.69-3.2-.72-.1-.05-.17-.13-.2-.23s-.03-.21.02-.31c.05-.1,1.29-2.56,3.63-3.36,2.35-.8,4.83.4,4.93.45.1.05.17.13.2.23s.03.21-.02.31c-.05.1-1.29,2.57-3.63,3.36-.58.2-1.18.27-1.74.27ZM96.93,43.49c.74.28,2.4.77,3.93.25,1.52-.52,2.54-1.92,2.96-2.59-.74-.28-2.4-.77-3.93-.25s-2.54,1.92-2.96,2.59Z"/>
  </g>
  <g>
    <path class="cls-2" d="M97.8,31.77s2.44,1.13,4.64.33c2.2-.8,3.33-3.24,3.33-3.24,0,0-2.44-1.13-4.64-.33-2.2.8-3.33,3.24-3.33,3.24Z"/>
    <path class="cls-1" d="M100.7,32.78c-1.63,0-2.99-.62-3.07-.65-.2-.09-.29-.33-.19-.53.05-.11,1.23-2.6,3.56-3.45,2.33-.85,4.84.29,4.94.34.2.09.29.33.19.53-.05.11-1.23,2.6-3.56,3.45-.63.23-1.27.31-1.87.31ZM98.37,31.56c.75.26,2.42.71,3.93.16,1.51-.55,2.5-1.97,2.9-2.66-.75-.26-2.42-.71-3.93-.16-1.51.55-2.5,1.97-2.9,2.66Z"/>
  </g>
  <g>
    <path class="cls-2" d="M97.17,37.41s2.46,1.08,4.64.23c2.18-.85,3.26-3.31,3.26-3.31,0,0-2.46-1.08-4.64-.23-2.18.85-3.26,3.31-3.26,3.31Z"/>
    <path class="cls-1" d="M99.95,38.37c-1.57,0-2.86-.56-2.94-.59-.1-.04-.17-.12-.21-.22-.04-.1-.04-.21,0-.31.05-.11,1.17-2.62,3.48-3.52,2.31-.9,4.84.19,4.95.23.1.04.17.12.21.22.04.1.04.21,0,.31-.05.11-1.17,2.62-3.48,3.52-.67.26-1.36.36-2.01.36ZM97.73,37.19c.75.25,2.43.66,3.93.07,1.5-.58,2.46-2.02,2.84-2.72-.75-.25-2.43-.66-3.93-.07-1.5.58-2.46,2.02-2.84,2.72Z"/>
  </g>
  <g>
    <path class="cls-2" d="M69.25,42.23s2.61-.65,4.61.56c2,1.21,2.64,3.81,2.64,3.81,0,0-2.61.65-4.61-.56-2-1.21-2.64-3.81-2.64-3.81Z"/>
    <path class="cls-1" d="M74.86,47.18c-.94,0-2.12-.16-3.17-.79-2.12-1.28-2.8-3.95-2.83-4.06-.05-.21.08-.43.29-.48.11-.03,2.79-.67,4.91.61,2.12,1.28,2.8,3.95,2.83,4.06.05.21-.08.43-.29.48-.06.01-.77.19-1.74.19ZM69.77,42.54c.26.75.96,2.33,2.33,3.16,1.38.83,3.11.71,3.89.59-.26-.75-.96-2.33-2.33-3.16-1.38-.83-3.11-.71-3.89-.59Z"/>
  </g>
  <g>
    <path class="cls-2" d="M70.55,35.2s2.67-.34,4.52,1.09c1.85,1.43,2.18,4.09,2.18,4.09,0,0-2.67.34-4.52-1.09-1.85-1.43-2.18-4.09-2.18-4.09Z"/>
    <path class="cls-1" d="M76.53,40.82c-.98,0-2.69-.17-4.04-1.21-1.96-1.52-2.32-4.24-2.34-4.36-.03-.22.13-.42.35-.45.12-.01,2.85-.34,4.81,1.17,1.96,1.52,2.32,4.24,2.34,4.36.03.22-.13.42-.35.45-.04,0-.33.04-.77.04ZM71.03,35.57c.17.77.68,2.42,1.95,3.41,1.27.98,3,1.06,3.79,1.04-.17-.77-.68-2.42-1.95-3.41-1.27-.98-3-1.06-3.79-1.04Z"/>
  </g>
  <g>
    <path class="cls-2" d="M71.61,29.28s2.67-.28,4.49,1.19c1.82,1.47,2.1,4.14,2.1,4.14,0,0-2.67.28-4.49-1.19-1.82-1.47-2.1-4.14-2.1-4.14Z"/>
    <path class="cls-1" d="M77.66,35.03c-.94,0-2.78-.16-4.19-1.3-1.93-1.56-2.24-4.29-2.25-4.41-.02-.22.14-.42.36-.44.12-.01,2.86-.28,4.79,1.28,1.93,1.56,2.24,4.3,2.25,4.41.02.22-.14.42-.36.44-.03,0-.25.02-.59.02ZM72.08,29.66c.16.77.63,2.44,1.88,3.45,1.25,1.01,2.97,1.12,3.77,1.12-.16-.77-.63-2.44-1.88-3.45-1.25-1.01-2.99-1.14-3.77-1.12Z"/>
  </g>
  <g>
    <path class="cls-2" d="M74.49,22.32s2.67.28,4.15,2.1,1.19,4.48,1.19,4.48c0,0-2.67-.28-4.15-2.1s-1.19-4.48-1.19-4.48Z"/>
    <path class="cls-1" d="M79.83,29.3s-.03,0-.04,0c-.12-.01-2.86-.32-4.41-2.24-1.56-1.92-1.29-4.66-1.28-4.78.02-.22.22-.38.44-.36.12.01,2.85.32,4.41,2.24,1.56,1.92,1.29,4.66,1.28,4.78-.02.21-.2.36-.4.36ZM74.87,22.79c0,.79.11,2.51,1.12,3.76,1.01,1.25,2.68,1.72,3.46,1.88,0-.79-.11-2.51-1.12-3.76-1.01-1.25-2.68-1.72-3.46-1.88Z"/>
  </g>
  <g>
    <path class="cls-2" d="M80.37,29.09s2.15,1.61,4.47,1.28c2.32-.33,3.93-2.47,3.93-2.47,0,0-2.15-1.61-4.47-1.28-2.32.33-3.93,2.47-3.93,2.47Z"/>
    <path class="cls-1" d="M84.2,30.81c-2.16,0-3.98-1.34-4.07-1.41-.08-.06-.14-.16-.16-.26s.01-.21.08-.3c.07-.09,1.74-2.28,4.2-2.63,2.46-.34,4.67,1.29,4.76,1.36.08.06.14.16.16.26s-.01.21-.08.3c-.07.09-1.74,2.28-4.2,2.63-.24.03-.47.05-.7.05ZM80.97,29c.68.41,2.22,1.2,3.81.97,1.59-.23,2.85-1.41,3.39-1.99-.68-.41-2.22-1.2-3.81-.97-1.59.23-2.85,1.41-3.39,1.99Z"/>
  </g>
  <g>
    <path class="cls-2" d="M78.39,34.9s2.44,1.13,4.64.33c2.2-.8,3.33-3.24,3.33-3.24,0,0-2.44-1.13-4.64-.33s-3.33,3.24-3.33,3.24Z"/>
    <path class="cls-1" d="M81.29,35.92c-1.63,0-2.99-.62-3.07-.65-.2-.09-.29-.33-.19-.53.05-.11,1.23-2.6,3.56-3.45,2.33-.85,4.84.29,4.94.34.2.09.29.33.19.53-.05.11-1.23,2.6-3.55,3.45-.63.23-1.27.31-1.87.31ZM78.95,34.69c.75.26,2.42.71,3.93.16,1.51-.55,2.5-1.97,2.9-2.66-.75-.26-2.42-.71-3.93-.16-1.51.55-2.5,1.97-2.9,2.66Z"/>
  </g>
  <g>
    <path class="cls-2" d="M77.86,40.49s2.46,1.08,4.64.23c2.18-.85,3.26-3.31,3.26-3.31,0,0-2.46-1.08-4.64-.23-2.18.85-3.26,3.31-3.26,3.31Z"/>
    <path class="cls-1" d="M80.64,41.44c-1.57,0-2.86-.56-2.94-.59-.1-.04-.17-.12-.21-.22-.04-.1-.04-.21,0-.31.05-.11,1.17-2.62,3.48-3.52,2.31-.9,4.84.19,4.95.23.1.04.17.12.21.22.04.1.04.21,0,.31-.05.11-1.17,2.62-3.48,3.52-.67.26-1.36.36-2.01.36ZM78.43,40.27c.75.25,2.43.66,3.93.07,1.5-.58,2.46-2.03,2.84-2.72-.75-.25-2.43-.66-3.93-.07-1.5.58-2.46,2.03-2.84,2.72Z"/>
  </g>
  <g>
    <path class="cls-2" d="M76.94,46.61s2.57.79,4.64-.31,2.86-3.66,2.86-3.66c0,0-2.57-.79-4.64.31-2.07,1.1-2.86,3.66-2.86,3.66Z"/>
    <path class="cls-1" d="M78.98,47.29c-1.18,0-2.09-.27-2.16-.29-.1-.03-.19-.1-.24-.19s-.06-.2-.03-.3c.03-.11.86-2.74,3.05-3.9,2.19-1.16,4.83-.38,4.94-.34.1.03.19.1.24.19s.06.2.03.3c-.03.11-.86,2.74-3.05,3.9-.92.49-1.93.63-2.78.63ZM77.47,46.33c.78.16,2.49.37,3.92-.38,1.42-.75,2.2-2.3,2.51-3.03-.78-.16-2.49-.37-3.92.38-1.42.75-2.2,2.3-2.51,3.03Z"/>
  </g>
  <path class="cls-1" d="M107.85,56.03H21.53s9.16-5.47,9.16-5.47c.25-.15.53.12.4.37l-.21.39c-.81,1.54.76,3.23,2.35,2.54l5.52-3.3c.25-.15.53.12.39.37l-.2.39c-.69,1.29.32,2.7,1.61,2.7.24,0,.5-.05.76-.17h0s5.52-3.29,5.52-3.29c.25-.15.53.12.4.37l-.21.39c-.81,1.54.77,3.23,2.35,2.54l5.52-3.3c.25-.15.53.12.4.37l-.21.39c-.68,1.29.33,2.7,1.61,2.7.24,0,.5-.05.76-.17h0s.64-.37.64-.37l4.88-2.92c.24-.15.53.12.39.37l-.2.39c-.82,1.54.76,3.23,2.34,2.54l5.53-3.3c.24-.15.53.12.39.37l-.2.39c-.69,1.29.32,2.7,1.6,2.7.24,0,.5-.05.76-.17h.01s5.52-3.29,5.52-3.29c.25-.15.53.12.4.37l-.21.39c-.81,1.54.76,3.23,2.35,2.54l5.52-3.3c.25-.15.53.12.4.37l-.21.39c-.69,1.29.33,2.7,1.61,2.7.25,0,.5-.06.76-.17l5.52-3.29c.24-.15.53.12.39.37l-.2.39c-.82,1.54.76,3.23,2.34,2.54l5.52-3.3c.25-.15.53.12.4.37l-.21.39c-.81,1.54.78,3.24,2.37,2.53l1.98,2.18Z"/>
  <g>
    <path class="cls-2" d="M98.49,52.43l-42.52,3.86c-2.52.23-4.87,1.41-6.54,3.31l-6.11,6.91,55.17-.79v-13.28Z"/>
    <path class="cls-1" d="M43.31,66.91c-.16,0-.3-.09-.36-.23-.07-.14-.04-.31.06-.43l6.11-6.91c1.75-1.98,4.17-3.21,6.81-3.45l42.52-3.86c.11,0,.22.03.31.1.08.08.13.18.13.3v13.28c0,.22-.18.4-.39.4l-55.17.79h0ZM98.09,52.87l-42.09,3.82c-2.43.22-4.66,1.35-6.28,3.18l-5.51,6.23,53.88-.77v-12.45Z"/>
  </g>
  <g>
    <path class="cls-1" d="M38.11,39.71c-.07,0-.14-.02-.2-.05l-5.18-3.01c-.19-.11-.26-.36-.14-.55.11-.19.36-.26.55-.14l5.18,3.01c.19.11.26.36.14.55-.07.13-.21.2-.35.2Z"/>
    <path class="cls-1" d="M33.25,38.14c-.18,0-.34-.12-.39-.31-.05-.21.08-.43.29-.48l1.21-.3-.3-1.21c-.05-.21.08-.43.29-.48.22-.05.43.08.48.29l.39,1.6c.03.1,0,.21-.05.3-.05.09-.14.16-.25.18l-1.6.39s-.06.01-.1.01Z"/>
    <path class="cls-1" d="M38.81,39.25h0c-.22,0-.4-.18-.4-.4l.02-5.99c0-.22.18-.4.4-.4h0c.22,0,.4.18.4.4l-.02,5.99c0,.22-.18.4-.4.4Z"/>
    <path class="cls-1" d="M38.88,35.45h0c-.11,0-.21-.05-.28-.12l-1.14-1.19c-.15-.16-.15-.41.01-.57.16-.15.41-.15.57.01l.86.9.9-.86c.16-.15.41-.15.57.01.15.16.15.41-.01.57l-1.19,1.14c-.07.07-.17.11-.28.11Z"/>
    <path class="cls-1" d="M39.56,39.62c-.14,0-.27-.07-.35-.2-.11-.19-.04-.44.15-.55l5.2-2.98c.19-.11.44-.04.55.15.11.19.04.44-.15.55l-5.2,2.98c-.06.04-.13.05-.2.05Z"/>
    <path class="cls-1" d="M44.47,38.24s-.07,0-.11-.02l-1.58-.46c-.1-.03-.19-.1-.24-.19-.05-.09-.06-.2-.03-.3l.46-1.58c.06-.21.28-.34.5-.27.21.06.33.28.27.5l-.35,1.2,1.2.35c.21.06.33.28.27.5-.05.17-.21.29-.38.29Z"/>
    <path class="cls-1" d="M44.79,43.47c-.07,0-.14-.02-.2-.05l-5.18-3.01c-.19-.11-.26-.36-.14-.55.11-.19.36-.26.55-.14l5.18,3.01c.19.11.26.36.14.55-.07.13-.21.2-.35.2Z"/>
    <path class="cls-1" d="M43.26,44.02c-.18,0-.34-.12-.39-.31l-.39-1.6c-.03-.1,0-.21.05-.3.05-.09.14-.16.25-.18l1.6-.39c.22-.05.43.08.48.29.05.21-.08.43-.29.48l-1.21.3.3,1.21c.05.21-.08.43-.29.48-.03,0-.06.01-.1.01Z"/>
    <path class="cls-1" d="M38.89,46.91h0c-.22,0-.4-.18-.4-.4l.02-5.99c0-.22.18-.4.4-.4h0c.22,0,.4.18.4.4l-.02,5.99c0,.22-.18.4-.4.4Z"/>
    <path class="cls-1" d="M39.98,45.91c-.11,0-.21-.04-.29-.12l-.86-.9-.9.86c-.16.15-.41.15-.57-.01-.15-.16-.15-.41.01-.57l1.19-1.14c.16-.15.41-.15.57.01l1.14,1.19c.15.16.15.41-.01.57-.08.07-.18.11-.28.11Z"/>
    <path class="cls-1" d="M32.96,43.53c-.14,0-.27-.07-.35-.2-.11-.19-.04-.44.15-.55l5.2-2.98c.19-.11.44-.04.55.15.11.19.04.44-.15.55l-5.2,2.98c-.06.04-.13.05-.2.05Z"/>
    <path class="cls-1" d="M34.37,43.97s-.07,0-.11-.02c-.21-.06-.33-.28-.27-.5l.35-1.2-1.2-.35c-.21-.06-.33-.28-.27-.5.06-.21.28-.34.5-.27l1.58.46c.1.03.19.1.24.19.05.09.06.2.03.3l-.46,1.58c-.05.17-.21.29-.38.29Z"/>
    <g>
      <polygon class="cls-3" points="35.74 38.12 35.74 41.55 38.71 43.26 41.67 41.55 41.67 38.12 38.71 36.41 35.74 38.12"/>
      <path class="cls-1" d="M38.71,43.66c-.07,0-.14-.02-.2-.05l-2.96-1.71c-.12-.07-.2-.2-.2-.35v-3.42c0-.14.08-.27.2-.35l2.96-1.71c.12-.07.28-.07.4,0l2.96,1.71c.12.07.2.2.2.35v3.42c0,.14-.08.27-.2.35l-2.96,1.71c-.06.04-.13.05-.2.05ZM36.14,41.31l2.56,1.48,2.56-1.48v-2.96l-2.56-1.48-2.56,1.48v2.96Z"/>
    </g>
  </g>
  <g>
    <g>
      <line class="cls-3" x1="44.19" y1="22.08" x2="40.82" y2="20.12"/>
      <path class="cls-1" d="M44.19,22.48c-.07,0-.14-.02-.2-.05l-3.36-1.96c-.19-.11-.26-.36-.14-.55.11-.19.36-.26.55-.14l3.36,1.96c.19.11.26.36.14.55-.07.13-.21.2-.35.2Z"/>
    </g>
    <g>
      <polyline class="cls-3" points="41.82 19.76 42.07 20.8 41.03 21.06"/>
      <path class="cls-1" d="M41.03,21.46c-.18,0-.34-.12-.39-.31-.05-.21.08-.43.29-.48l.65-.16-.16-.65c-.05-.21.08-.43.29-.48.22-.05.43.08.48.29l.25,1.04c.03.1,0,.21-.05.3-.05.09-.14.16-.25.18l-1.04.25s-.06.01-.1.01Z"/>
    </g>
    <g>
      <line class="cls-3" x1="44.64" y1="21.78" x2="44.66" y2="17.88"/>
      <path class="cls-1" d="M44.64,22.18h0c-.22,0-.4-.18-.4-.4v-3.89c.01-.22.19-.4.41-.4h0c.22,0,.4.18.4.4v3.89c-.01.22-.19.4-.41.4Z"/>
    </g>
    <g>
      <polyline class="cls-3" points="45.46 18.57 44.69 19.31 43.95 18.53"/>
      <path class="cls-1" d="M44.69,19.71c-.11,0-.21-.04-.29-.12l-.74-.77c-.15-.16-.15-.41.01-.57.16-.15.41-.15.57.01l.46.48.48-.46c.16-.15.41-.15.57.01.15.16.15.41-.01.57l-.77.74c-.08.07-.18.11-.28.11Z"/>
    </g>
    <g>
      <line class="cls-3" x1="45.13" y1="22.02" x2="48.51" y2="20.08"/>
      <path class="cls-1" d="M45.13,22.42c-.14,0-.27-.07-.35-.2-.11-.19-.04-.44.15-.55l3.38-1.94c.19-.11.44-.04.55.15.11.19.04.44-.15.55l-3.38,1.94c-.06.04-.13.05-.2.05Z"/>
    </g>
    <g>
      <polyline class="cls-3" points="48.32 21.12 47.29 20.82 47.59 19.8"/>
      <path class="cls-1" d="M48.32,21.52s-.07,0-.11-.02l-1.03-.3c-.21-.06-.33-.28-.27-.5l.3-1.03c.06-.21.28-.34.5-.27.21.06.33.28.27.5l-.19.64.64.19c.21.06.33.28.27.5-.05.17-.21.29-.38.29Z"/>
    </g>
    <g>
      <line class="cls-3" x1="45.16" y1="22.56" x2="48.53" y2="24.52"/>
      <path class="cls-1" d="M48.53,24.92c-.07,0-.14-.02-.2-.05l-3.36-1.96c-.19-.11-.26-.36-.14-.55.11-.19.36-.26.55-.14l3.36,1.96c.19.11.26.36.14.55-.07.13-.21.2-.35.2Z"/>
    </g>
    <g>
      <polyline class="cls-3" points="47.53 24.88 47.28 23.84 48.32 23.58"/>
      <path class="cls-1" d="M47.53,25.28c-.18,0-.34-.12-.39-.31l-.25-1.04c-.05-.21.08-.43.29-.48l1.04-.25c.22-.05.43.08.48.29.05.21-.08.43-.29.48l-.65.16.16.65c.05.21-.08.43-.29.48-.03,0-.06.01-.1.01Z"/>
    </g>
    <g>
      <line class="cls-3" x1="44.71" y1="22.86" x2="44.7" y2="26.76"/>
      <path class="cls-1" d="M44.7,27.16h0c-.22,0-.4-.18-.4-.4v-3.89c.01-.22.19-.4.41-.4h0c.22,0,.4.18.4.4v3.89c-.01.22-.19.4-.41.4Z"/>
    </g>
    <g>
      <polyline class="cls-3" points="43.89 26.07 44.66 25.33 45.4 26.11"/>
      <path class="cls-1" d="M45.4,26.51c-.11,0-.21-.04-.29-.12l-.46-.48-.48.46c-.16.15-.41.15-.57-.01-.15-.16-.15-.41.01-.57l.77-.74c.08-.07.17-.11.29-.11.11,0,.21.05.28.12l.74.77c.15.16.15.41-.01.57-.08.07-.18.11-.28.11Z"/>
    </g>
    <g>
      <line class="cls-3" x1="44.22" y1="22.62" x2="40.84" y2="24.56"/>
      <path class="cls-1" d="M40.84,24.96c-.14,0-.27-.07-.35-.2-.11-.19-.04-.44.15-.55l3.38-1.94c.19-.11.44-.04.55.15.11.19.04.44-.15.55l-3.38,1.94c-.06.04-.13.05-.2.05Z"/>
    </g>
    <g>
      <polyline class="cls-3" points="41.03 23.52 42.06 23.82 41.76 24.84"/>
      <path class="cls-1" d="M41.76,25.24s-.07,0-.11-.02c-.21-.06-.33-.28-.27-.5l.19-.64-.64-.19c-.21-.06-.33-.28-.27-.5.06-.21.28-.34.5-.27l1.03.3c.1.03.19.1.24.19.05.09.06.2.03.3l-.3,1.03c-.05.17-.21.29-.38.29Z"/>
    </g>
    <g>
      <polygon class="cls-3" points="42.65 21.31 42.65 23.53 44.58 24.64 46.5 23.53 46.5 21.31 44.58 20.19 42.65 21.31"/>
      <path class="cls-1" d="M44.58,25.04c-.07,0-.14-.02-.2-.05l-1.93-1.11c-.12-.07-.2-.2-.2-.35v-2.22c0-.14.08-.27.2-.35l1.93-1.11c.12-.07.28-.07.4,0l1.92,1.11c.12.07.2.2.2.35v2.22c0,.14-.08.27-.2.35l-1.93,1.11c-.06.04-.13.05-.2.05ZM43.05,23.3l1.53.88,1.52-.88v-1.76l-1.52-.88-1.53.88v1.76Z"/>
    </g>
  </g>
  <g>
    <g>
      <line class="cls-2" x1="74.91" y1="7.68" x2="74.91" y2="16.04"/>
      <path class="cls-1" d="M74.91,16.44c-.22,0-.4-.18-.4-.4V7.68c0-.22.18-.4.4-.4s.4.18.4.4v8.36c0,.22-.18.4-.4.4Z"/>
    </g>
    <g>
      <line class="cls-2" x1="78.53" y1="13.95" x2="71.29" y2="9.77"/>
      <path class="cls-1" d="M78.53,14.35c-.07,0-.14-.02-.2-.05l-7.24-4.18c-.19-.11-.26-.35-.15-.55.11-.19.35-.26.55-.15l7.24,4.18c.19.11.26.35.15.55-.07.13-.21.2-.35.2Z"/>
    </g>
    <g>
      <line class="cls-2" x1="71.29" y1="13.95" x2="78.53" y2="9.77"/>
      <path class="cls-1" d="M71.29,14.35c-.14,0-.27-.07-.35-.2-.11-.19-.04-.44.15-.55l7.24-4.18c.19-.11.44-.04.55.15.11.19.04.44-.15.55l-7.24,4.18c-.06.04-.13.05-.2.05Z"/>
    </g>
    <g>
      <line class="cls-2" x1="74.91" y1="7.68" x2="74.91" y2="16.04"/>
      <path class="cls-1" d="M74.91,16.44c-.22,0-.4-.18-.4-.4V7.68c0-.22.18-.4.4-.4s.4.18.4.4v8.36c0,.22-.18.4-.4.4Z"/>
    </g>
  </g>
  <g>
    <g>
      <line class="cls-2" x1="55.81" y1="13.64" x2="55.81" y2="17.17"/>
      <path class="cls-1" d="M55.81,17.57c-.22,0-.4-.18-.4-.4v-3.53c0-.22.18-.4.4-.4s.4.18.4.4v3.53c0,.22-.18.4-.4.4Z"/>
    </g>
    <g>
      <line class="cls-2" x1="57.33" y1="16.29" x2="54.28" y2="14.52"/>
      <path class="cls-1" d="M57.33,16.69c-.07,0-.14-.02-.2-.05l-3.06-1.76c-.19-.11-.26-.35-.15-.55.11-.19.35-.26.55-.15l3.06,1.76c.19.11.26.35.15.55-.07.13-.21.2-.35.2Z"/>
    </g>
    <g>
      <line class="cls-2" x1="54.28" y1="16.29" x2="57.33" y2="14.52"/>
      <path class="cls-1" d="M54.28,16.69c-.14,0-.27-.07-.35-.2-.11-.19-.04-.44.15-.55l3.06-1.76c.19-.11.44-.04.55.15.11.19.04.44-.15.55l-3.06,1.76c-.06.04-.13.05-.2.05Z"/>
    </g>
    <g>
      <line class="cls-2" x1="55.81" y1="13.64" x2="55.81" y2="17.17"/>
      <path class="cls-1" d="M55.81,17.57c-.22,0-.4-.18-.4-.4v-3.53c0-.22.18-.4.4-.4s.4.18.4.4v3.53c0,.22-.18.4-.4.4Z"/>
    </g>
  </g>
  <g>
    <path class="cls-2" d="M64.5,20.58c-1.54,2.25-1.26,5.12-1.26,5.12,0,0,2.78-.78,4.32-3.03,1.54-2.25,1.26-5.12,1.26-5.12,0,0-2.78.78-4.32,3.03Z"/>
    <path class="cls-1" d="M63.24,26.1c-.08,0-.16-.02-.23-.07-.1-.07-.16-.17-.17-.29-.01-.12-.27-3.04,1.33-5.39,1.61-2.34,4.42-3.16,4.54-3.19.11-.03.24-.01.33.06.1.07.16.17.17.29.01.12.27,3.04-1.33,5.39-1.61,2.34-4.42,3.16-4.54,3.19-.04,0-.07.01-.11.01ZM68.44,18.11c-.84.33-2.55,1.15-3.61,2.7h0c-1.06,1.55-1.21,3.44-1.21,4.34.84-.33,2.55-1.15,3.61-2.7,1.06-1.55,1.21-3.44,1.21-4.34ZM64.5,20.58h.01-.01Z"/>
  </g>
  <g>
    <path class="cls-2" d="M83.56,19.77c-1.68,2.15-1.59,5.03-1.59,5.03,0,0,2.82-.6,4.51-2.75,1.68-2.15,1.59-5.03,1.59-5.03,0,0-2.82.6-4.51,2.75Z"/>
    <path class="cls-1" d="M81.96,25.2c-.09,0-.18-.03-.25-.08-.09-.07-.15-.18-.15-.3,0-.12-.08-3.06,1.68-5.29s4.62-2.86,4.74-2.89c.12-.02.24,0,.33.08.09.07.15.18.15.3,0,.12.08,3.06-1.68,5.29-1.75,2.24-4.62,2.86-4.74,2.89-.03,0-.06,0-.08,0ZM87.65,17.55c-.85.27-2.62.98-3.78,2.46h0c-1.16,1.48-1.43,3.36-1.49,4.25.85-.27,2.62-.98,3.78-2.46,1.16-1.48,1.43-3.36,1.49-4.25ZM83.56,19.77h.01-.01Z"/>
  </g>
  <path class="cls-1" d="M76.46,54.79h0c-.22,0-.4-.18-.4-.4.01-.91.33-22.33,5.61-29.65.13-.18.38-.22.56-.09.18.13.22.38.09.56-5.14,7.12-5.46,28.97-5.46,29.19,0,.22-.18.4-.4.4Z"/>
  <path class="cls-1" d="M57.99,55.24h0c-.22,0-.4-.18-.4-.4.01-.91.33-22.33,5.61-29.65.13-.18.38-.22.56-.09.18.13.22.38.09.56-5.14,7.12-5.46,28.97-5.46,29.19,0,.22-.18.4-.4.4Z"/>
  <path class="cls-2" d="M95.92,50.91h0c-.22,0-.4-.18-.4-.4.01-.91.33-22.33,5.61-29.65.13-.18.38-.22.56-.09.18.13.22.38.09.56-5.14,7.12-5.46,28.97-5.46,29.19,0,.22-.18.4-.4.4Z"/>
  <path class="cls-1" d="M95.92,50.91h0c-.22,0-.4-.18-.4-.4,0-.17.24-16.87,3.74-26,.08-.21.31-.31.52-.23.21.08.31.31.23.52-3.44,9-3.68,25.56-3.69,25.73,0,.22-.18.4-.4.4Z"/>
  <path class="cls-1" d="M99.64,25.05s-.1,0-.14-.03c-.21-.08-.31-.31-.23-.52.57-1.48,1.2-2.71,1.88-3.65.13-.18.38-.22.56-.09.18.13.22.38.09.56-.64.88-1.24,2.05-1.78,3.46-.06.16-.21.26-.37.26Z"/>
  <g>
    <path class="cls-2" d="M103.2,16.5c-1.84,2.02-1.96,4.9-1.96,4.9,0,0,2.86-.39,4.7-2.4,1.84-2.02,1.96-4.9,1.96-4.9,0,0-2.86.39-4.7,2.4Z"/>
    <path class="cls-1" d="M101.24,21.8c-.1,0-.2-.04-.27-.1-.09-.08-.14-.19-.13-.31,0-.12.15-3.05,2.07-5.15h0c1.92-2.1,4.82-2.51,4.94-2.53.12-.02.24.02.32.1.09.08.14.19.13.31,0,.12-.15,3.05-2.07,5.15-1.92,2.1-4.82,2.51-4.94,2.53-.02,0-.04,0-.05,0ZM107.45,14.59c-.87.21-2.68.79-3.95,2.17h0c-1.27,1.39-1.67,3.24-1.8,4.13.87-.21,2.68-.79,3.95-2.17,1.27-1.39,1.67-3.24,1.8-4.13ZM103.2,16.5h.01-.01Z"/>
  </g>
  <g>
    <path class="cls-3" d="M57.56,57.77l40.93-3.24.21-6.86-33,3.8c-1.63.21-3.13.35-4.56.54-4.38.59-8.29,3.07-10.82,6.7h0s1.86-.42,7.24-.94Z"/>
    <path class="cls-1" d="M50.32,59.11c-.13,0-.26-.07-.33-.18-.09-.14-.09-.32,0-.45,2.63-3.77,6.67-6.27,11.1-6.86.74-.1,1.49-.18,2.28-.27.73-.08,1.49-.17,2.28-.27l33-3.8c.12,0,.23.02.32.1s.13.19.13.31l-.21,6.86c0,.2-.17.37-.37.39l-40.93,3.24c-5.28.51-7.17.93-7.19.93-.03,0-.06,0-.09,0ZM98.28,48.12l-32.54,3.75c-.79.1-1.55.19-2.29.27-.78.09-1.53.17-2.26.27-3.88.52-7.46,2.59-9.95,5.73,1.06-.17,3.02-.45,6.27-.76,0,0,0,0,0,0l40.57-3.21.18-6.04Z"/>
  </g>
  <path class="cls-1" d="M104.98,63.55l-.21,4.98H19.06l11.28-8.25c.24-.14.52.12.39.38l-.21.38c-.8,1.52.76,3.2,2.33,2.52l5.49-3.28c.24-.14.52.12.39.38l-.21.38c-.68,1.28.33,2.68,1.6,2.68.25,0,.5-.06.76-.17h0s5.48-3.27,5.48-3.27c.25-.14.53.12.4.38l-.21.38c-.81,1.52.76,3.2,2.33,2.52l5.48-3.28c.25-.14.53.12.4.38l-.21.38c-.68,1.28.32,2.68,1.59,2.68.25,0,.5-.06.76-.17h.01s5.48-3.27,5.48-3.27c.25-.14.53.12.39.38l-.2.38c-.81,1.52.76,3.2,2.33,2.52l5.48-3.28c.25-.14.53.12.39.38l-.2.38c-.68,1.28.32,2.68,1.59,2.68.25,0,.5-.06.76-.17h0s5.48-3.27,5.48-3.27c.24-.14.53.12.39.38l-.2.38c-.81,1.52.76,3.2,2.33,2.52l5.48-3.28c.24-.14.53.12.39.37l-.2.39c-.68,1.28.32,2.68,1.59,2.68.25,0,.5-.06.76-.17h0s5.48-3.27,5.48-3.27c.24-.14.52.12.39.37l-.2.39c-.81,1.52.75,3.2,2.33,2.52l1.88-1.12,3.6-2.16c.24-.15.52.12.39.37l-.2.39c-.81,1.53.77,3.22,2.35,2.51Z"/>
</svg>