<?xml version="1.0" encoding="UTF-8"?>
<svg id="region_illustration" data-name="region illustration" xmlns="http://www.w3.org/2000/svg" viewBox="0 0 120 80">
  <defs>
    <style>
      .cls-1 {
        fill: #f5f5f3;
      }

      .cls-2, .cls-3 {
        fill: #231f20;
      }

      .cls-3, .cls-4 {
        stroke: #231f20;
        stroke-linecap: round;
        stroke-linejoin: round;
        stroke-width: .8px;
      }

      .cls-4 {
        fill: #e0e0e0;
      }
    </style>
  </defs>
  <path class="cls-3" d="M49.61,30.93c-.95.69-2.49,1.59-4.03,1.59-2.49,0-4.98-2.36-4.98-2.36,0,0-.4.38-1.04.83-.2-2.52-.72-5.37-1.91-7.75-.95-1.89-2.84-3.12-4.95-3.2l-10.22-.38c-.94-.03-1.78-.61-2.14-1.48-.25-.6.04-1.3.64-1.55l8.65-3.56c2.41-1.2,4.3.59,4.98.93.03-.84-.27-3.81,1.49-4.88l7.34-5.71c.42-.33,1.02-.25,1.34.16.31.4.5.87.56,1.35.07.55-.02,1.12-.29,1.63l-3.16,6.04c-1.06,2.04-.82,4.5.62,6.29,2.54,3.13,5.59,7.53,7.1,12.05Z"/>
  <path class="cls-4" d="M115.33,32.52v38.3H4.79v-38.3c2.5,0,5.88-2.36,5.88-2.36,0,0,2.5,2.36,4.99,2.36s4.99-2.36,4.99-2.36c0,0,2.5,2.36,4.99,2.36s4.98-2.36,4.98-2.36c0,0,2.5,2.36,4.99,2.36,1.49,0,2.99-.85,3.95-1.53.64-.45,1.04-.83,1.04-.83,0,0,2.49,2.36,4.98,2.36,1.54,0,3.08-.9,4.03-1.59.59-.42.96-.77.96-.77,0,0,2.49,2.36,4.98,2.36s4.98-2.36,4.98-2.36c0,0,2.49,2.36,4.98,2.36s4.98-2.36,4.98-2.36c0,0,2.49,2.36,4.98,2.36s4.98-2.36,4.98-2.36c0,0,2.5,2.36,4.99,2.36s4.98-2.36,4.98-2.36c0,0,2.49,2.36,4.98,2.36s4.99-2.36,4.99-2.36c0,0,2.49,2.36,4.98,2.36s4.98-2.36,4.98-2.36c0,0,2.49,2.36,4.98,2.36Z"/>
  <path class="cls-3" d="M4.79,70.82c1.11-1.11,1.97-2.61,3.26-3.64,1.23-.98,3.19-1.03,4.56-1.93,1.32-.87,2.13-2.64,3.57-3.43s3.32-.51,4.8-1.21,2.46-2.34,3.97-2.96,3.37-.15,4.9-.7c1.5-.54,2.67-2.1,4.22-2.59s3.38.11,4.94-.33c1.54-.43,2.81-1.92,4.38-2.31,1.56-.39,3.38.32,4.95-.04,1.57-.35,2.92-1.76,4.5-2.08,1.58-.31,3.37.48,4.95.2,1.59-.28,3-1.64,4.58-1.88s3.35.61,4.94.39,3.06-1.53,4.64-1.72c1.62-.2,3.34.72,4.92.55,1.63-.17,3.12-1.43,4.69-1.57,1.64-.15,3.33.82,4.9.69,1.65-.13,3.18-1.34,4.73-1.44,1.67-.11,3.34.9,4.88.83,1.69-.09,3.25-1.26,4.77-1.32,1.74-.07,3.38.99,4.86.95,1.84-.04,3.44-1.17,4.8-1.19,3.07-.03,2.41,1.06,4.82,1.11v30.99s-110.53,0-110.53,0v-5.37Z"/>
  <path class="cls-2" d="M88.71,39.41l-1.26,1.45-1.15.08.89-1.02c-34.24,2.38-51.23,8.84-66.22,14.54-5.43,2.06-10.56,4.01-16.18,5.66l-.23-.77c5.6-1.64,10.71-3.58,16.12-5.64,15.05-5.72,32.1-12.2,66.45-14.59l-1.02-.89,1.15-.08,1.45,1.26Z"/>
  <path class="cls-2" d="M47.08,38.63l-1.15,1.53-1.14.16.82-1.09c-8,1.11-13.15,3.57-19.09,6.41-5.58,2.66-11.89,5.67-21.64,7.82l-.17-.78c9.65-2.13,15.93-5.12,21.46-7.77,5.75-2.74,11.18-5.33,19.29-6.48l-1.05-.79,1.14-.16,1.53,1.15Z"/>
  <path class="cls-2" d="M23.84,38.18l-1.05,1.61-1.13.24.77-1.17c-2.14.48-4.18,1.28-6.32,2.12-3.5,1.37-7.12,2.79-11.32,2.79v-.8c4.05,0,7.6-1.39,11.03-2.73,2.06-.81,4.19-1.65,6.39-2.15l-1.11-.71,1.13-.24,1.61,1.04Z"/>
  <path class="cls-1" d="M115.32,51.57v.8c-57.39.54-68.29,6.64-78.84,12.54-1.15.64-2.33,1.3-3.56,1.94l1.25.38-1.01.55-1.84-.56.56-1.83,1.01-.55-.4,1.34c1.25-.65,2.44-1.32,3.6-1.97,10.64-5.95,21.63-12.1,79.23-12.64Z"/>
  <path class="cls-1" d="M115.11,59.15l-.02.8c-40.34-1.01-52.89,3.67-63.97,7.8l-.46.17,1.25.59-1.08.39-1.73-.83.82-1.73,1.08-.39-.57,1.2.41-.15c11.14-4.15,23.78-8.86,64.27-7.85Z"/>
  <path class="cls-1" d="M115.12,67.41l-.03.8c-19.17-.58-26.38-.09-35.49,1.32l1.1.84-1.14.16-1.53-1.16,1.16-1.53,1.14-.16-.8,1.06c9.14-1.42,16.38-1.92,35.59-1.33Z"/>
</svg>