<?xml version="1.0" encoding="UTF-8"?>
<svg id="arrows" xmlns="http://www.w3.org/2000/svg" xmlns:xlink="http://www.w3.org/1999/xlink" viewBox="0 0 121.41 80.8">
  <defs>
    <style>
      .cls-1 {
        fill: none;
      }

      .cls-2 {
        fill: #7e1c44;
      }

      .cls-3 {
        fill: #84264c;
      }

      .cls-4 {
        fill: #7e1b43;
      }

      .cls-5 {
        fill: #862a4f;
      }

      .cls-6 {
        fill: #812048;
      }

      .cls-7 {
        fill: #85294e;
      }

      .cls-8 {
        fill: #7f1d45;
      }

      .cls-9 {
        fill: #862b50;
      }

      .cls-10 {
        fill: #801e46;
      }

      .cls-11 {
        fill: url(#linear-gradient);
      }

      .cls-12 {
        fill: #812148;
      }

      .cls-13 {
        fill: #822249;
      }

      .cls-14 {
        fill: #83254b;
      }

      .cls-15 {
        fill: #84274d;
      }

      .cls-16 {
        fill: #82234a;
      }

      .cls-17 {
        fill: #85284d;
      }

      .cls-18 {
        fill: #801f47;
      }

      .cls-19 {
        fill: #7d1942;
      }

      .cls-20 {
        fill: #83244a;
      }

      .cls-21 {
        fill: #7d1a43;
      }

      .cls-22 {
        clip-path: url(#clippath);
      }
    </style>
    <linearGradient id="linear-gradient" x1="0" y1="43.17" x2="128.48" y2="43.17" gradientUnits="userSpaceOnUse">
      <stop offset="0" stop-color="#e8e5df"/>
      <stop offset=".41" stop-color="#a76a80"/>
      <stop offset=".7" stop-color="#7d1942"/>
    </linearGradient>
    <clipPath id="clippath">
      <polygon class="cls-1" points="81.52 34.43 121.41 34.66 101.67 0 81.52 34.43"/>
    </clipPath>
  </defs>
  <g id="greenland_arrow" data-name="greenland arrow">
    <g>
      <path class="cls-11" d="M20,80.8H0C0,39.31,33.76,5.54,75.26,5.54c8.66,0,17.16,1.46,25.25,4.34l-6.71,18.84c-5.93-2.11-12.17-3.18-18.54-3.18-30.47,0-55.26,24.79-55.26,55.26Z"/>
      <g class="cls-22">
        <rect class="cls-9" x="81.52" y="0" width=".42" height="34.66"/>
        <rect class="cls-5" x="81.95" y="0" width=".44" height="34.66"/>
        <rect class="cls-7" x="82.39" y="0" width=".44" height="34.66"/>
        <rect class="cls-17" x="82.83" y="0" width=".44" height="34.66"/>
        <rect class="cls-15" x="83.28" y="0" width=".44" height="34.66"/>
        <rect class="cls-3" x="83.72" y="0" width=".44" height="34.66"/>
        <rect class="cls-14" x="84.16" y="0" width=".44" height="34.66"/>
        <rect class="cls-20" x="84.6" y="0" width=".44" height="34.66"/>
        <rect class="cls-16" x="85.05" y="0" width=".44" height="34.66"/>
        <rect class="cls-13" x="85.49" y="0" width=".44" height="34.66"/>
        <rect class="cls-12" x="85.93" y="0" width=".44" height="34.66"/>
        <rect class="cls-6" x="86.38" y="0" width=".44" height="34.66"/>
        <rect class="cls-18" x="86.82" y="0" width=".44" height="34.66"/>
        <rect class="cls-10" x="87.26" y="0" width=".44" height="34.66"/>
        <rect class="cls-8" x="87.71" y="0" width=".44" height="34.66"/>
        <rect class="cls-8" x="88.15" y="0" width=".44" height="34.66"/>
        <rect class="cls-2" x="88.59" y="0" width=".44" height="34.66"/>
        <rect class="cls-4" x="89.03" y="0" width=".44" height="34.66"/>
        <rect class="cls-21" x="89.48" y="0" width=".44" height="34.66"/>
        <rect class="cls-19" x="89.92" y="0" width=".44" height="34.66"/>
        <rect class="cls-19" x="90.36" y="0" width="31.04" height="34.66"/>
      </g>
    </g>
  </g>
</svg>