<?xml version="1.0" encoding="UTF-8"?>
<svg xmlns="http://www.w3.org/2000/svg" viewBox="0 0 120 80">
  <defs>
    <style>
      .cls-1 {
        fill: #231f20;
      }

      .cls-2 {
        fill: #fff;
      }
    </style>
  </defs>
  <g id="effect_illustrations" data-name="effect illustrations">
    <g id="east_ant_effect" data-name="east ant effect">
      <g>
        <polygon class="cls-2" points="91.38 59.34 75.37 25.63 62.47 33.65 41.11 27.94 32.71 59.34 91.38 59.34"/>
        <path class="cls-1" d="M91.38,59.74h-58.67c-.12,0-.24-.06-.32-.16-.08-.1-.1-.23-.07-.35l8.4-31.4c.06-.21.28-.34.49-.28l21.19,5.66,12.75-7.92c.1-.06.21-.08.32-.04.11.03.2.11.25.21l16.01,33.71c.06.12.05.27-.02.39-.07.12-.2.19-.34.19ZM33.23,58.94h57.52l-15.55-32.73-12.52,7.78c-.09.06-.21.08-.31.05l-20.97-5.6-8.17,30.51Z"/>
      </g>
      <g>
        <polygon class="cls-2" points="46.91 15.41 69.58 19.24 79.37 25.63 79.37 35 62.05 42.49 41.11 27.94 46.91 15.41"/>
        <path class="cls-1" d="M62.05,42.89c-.08,0-.16-.02-.23-.07l-20.93-14.55c-.16-.11-.22-.32-.13-.5l5.8-12.53c.08-.16.25-.25.43-.23l22.67,3.83c.05,0,.11.03.15.06l9.79,6.39c.11.07.18.2.18.33v9.37c0,.16-.09.3-.24.37l-17.33,7.49c-.05.02-.1.03-.16.03ZM41.62,27.8l20.47,14.23,16.88-7.3v-8.89l-9.54-6.23-22.29-3.76-5.53,11.95Z"/>
      </g>
      <g>
        <line class="cls-2" x1="94.98" y1="37.28" x2="84.99" y2="37.28"/>
        <path class="cls-2" d="M94.98,37.68h-9.99c-.22,0-.4-.18-.4-.4s.18-.4.4-.4h9.99c.22,0,.4.18.4.4s-.18.4-.4.4Z"/>
      </g>
      <g>
        <line class="cls-2" x1="102.22" y1="52.86" x2="88.81" y2="52.86"/>
        <path class="cls-2" d="M102.22,53.26h-13.41c-.22,0-.4-.18-.4-.4s.18-.4.4-.4h13.41c.22,0,.4.18.4.4s-.18.4-.4.4Z"/>
      </g>
      <g>
        <line class="cls-2" x1="88.2" y1="64.34" x2="58.84" y2="64.34"/>
        <path class="cls-2" d="M88.2,64.74h-29.36c-.22,0-.4-.18-.4-.4s.18-.4.4-.4h29.36c.22,0,.4.18.4.4s-.18.4-.4.4Z"/>
      </g>
      <g>
        <line class="cls-2" x1="33.55" y1="41.06" x2="17.66" y2="41.06"/>
        <path class="cls-2" d="M33.55,41.46h-15.9c-.22,0-.4-.18-.4-.4s.18-.4.4-.4h15.9c.22,0,.4.18.4.4s-.18.4-.4.4Z"/>
      </g>
      <g>
        <line class="cls-2" x1="96.43" y1="45.57" x2="107.79" y2="45.57"/>
        <path class="cls-2" d="M107.79,45.97h-11.36c-.22,0-.4-.18-.4-.4s.18-.4.4-.4h11.36c.22,0,.4.18.4.4s-.18.4-.4.4Z"/>
      </g>
      <g>
        <line class="cls-2" x1="41.84" y1="66.5" x2="12.48" y2="66.5"/>
        <path class="cls-2" d="M41.84,66.9H12.48c-.22,0-.4-.18-.4-.4s.18-.4.4-.4h29.36c.22,0,.4.18.4.4s-.18.4-.4.4Z"/>
      </g>
      <g>
        <line class="cls-2" x1="62.05" y1="42.49" x2="62.05" y2="58.52"/>
        <path class="cls-1" d="M62.05,58.92c-.22,0-.4-.18-.4-.4v-16.03c0-.22.18-.4.4-.4s.4.18.4.4v16.03c0,.22-.18.4-.4.4Z"/>
      </g>
      <g>
        <line class="cls-2" x1="72.86" y1="37.81" x2="85.73" y2="59.01"/>
        <path class="cls-1" d="M85.73,59.41c-.14,0-.27-.07-.34-.19l-12.87-21.19c-.11-.19-.05-.43.13-.55.19-.12.43-.05.55.13l12.87,21.19c.11.19.05.43-.13.55-.06.04-.14.06-.21.06Z"/>
      </g>
      <g>
        <line class="cls-2" x1="103.95" y1="69.25" x2="74.59" y2="69.25"/>
        <path class="cls-2" d="M103.95,69.65h-29.36c-.22,0-.4-.18-.4-.4s.18-.4.4-.4h29.36c.22,0,.4.18.4.4s-.18.4-.4.4Z"/>
      </g>
      <g>
        <line class="cls-2" x1="31.04" y1="50.2" x2="19.59" y2="50.2"/>
        <path class="cls-2" d="M31.04,50.6h-11.46c-.22,0-.4-.18-.4-.4s.18-.4.4-.4h11.46c.22,0,.4.18.4.4s-.18.4-.4.4Z"/>
      </g>
      <g>
        <line class="cls-2" x1="99.11" y1="59.34" x2="12.21" y2="59.34"/>
        <path class="cls-2" d="M99.11,59.74H12.21c-.22,0-.4-.18-.4-.4s.18-.4.4-.4h86.9c.22,0,.4.18.4.4s-.18.4-.4.4Z"/>
      </g>
    </g>
  </g>
  <g id="texts">
    <g>
      <path class="cls-1" d="M74.63,31.53h-4.53l-4.82-1.7c-.08.01-.17-.15-.25-.15h-13.86l-.22-.03c-2.61-.42-4.64-2.44-5.07-5.03l-.51-3.04c-.05-.42.53-.57.69-.18l1.13,2.82,1.04-3.67c.11-.38.69-.32.7.08l.19,3.7.85.38c.81.36,1.75.22,2.44-.36l1.37-1.16c1.6-1.35,3.5-2.31,5.53-2.82l4.58-1.13c.51-.13.92-.5,1.11-.98l1.23-3.64h.01c.34-1.03,1.3-1.77,2.44-1.77h.78c.84,0,1.59.41,2.06,1.03l2.54.46-.29,2.29-1.73,1.83v4c0,1.36-.43,2.7-1.22,3.8l-.5.7c-.1.15-.22.46-.33.58l4.63,3.98Z"/>
      <path class="cls-1" d="M74.63,31.93h-4.53s-.09,0-.13-.02l-4.77-1.69c-.13-.02-.22-.09-.28-.15l-14.01-.03c-2.79-.45-4.96-2.6-5.42-5.37l-.51-3.04c-.05-.4.19-.75.57-.85.37-.09.75.1.89.46l.69,1.73.72-2.55c.11-.37.45-.59.83-.54.37.05.64.34.65.71l.18,3.45.63.28c.67.29,1.45.18,2.02-.3l1.37-1.16c1.64-1.38,3.61-2.38,5.69-2.9l4.58-1.13c.37-.09.69-.37.83-.74l1.23-3.62s.03-.06.05-.09c.43-1.17,1.54-1.95,2.79-1.95h.78c.87,0,1.71.39,2.28,1.06l2.39.43c.21.04.35.23.33.44l-.29,2.29c-.01.08-.05.16-.11.22l-1.62,1.72v3.84c0,1.43-.46,2.86-1.3,4.03l-.49.7s-.06.12-.1.19c-.01.03-.03.05-.04.08l4.37,3.76c.13.11.17.29.11.44-.06.16-.21.26-.38.26ZM70.17,31.13h3.38l-3.81-3.28c-.08-.07-.13-.17-.14-.28s.03-.21.1-.29c.03-.04.1-.17.14-.25.05-.11.11-.21.16-.29l.5-.71c.74-1.04,1.15-2.31,1.15-3.57v-4c0-.1.04-.2.11-.27l1.64-1.74.23-1.78-2.17-.39c-.1-.02-.19-.07-.25-.15-.41-.54-1.06-.87-1.74-.87h-.78c-.94,0-1.76.6-2.06,1.49-.01.03-.03.06-.04.09l-1.2,3.55c-.25.63-.76,1.08-1.39,1.24l-4.58,1.13c-1.97.49-3.82,1.44-5.37,2.74l-1.37,1.16c-.81.68-1.9.83-2.86.42l-.85-.38c-.14-.06-.23-.19-.24-.34l-.19-3.7-.96,3.69c-.05.16-.19.28-.36.29-.17.01-.33-.09-.39-.25l-1.13-2.82.59,3c.4,2.42,2.31,4.31,4.74,4.71l.2.02h13.81c.19,0,.32.11.39.17l4.75,1.68ZM65.22,29.43h0,0ZM65.22,29.43h0,0Z"/>
    </g>
  </g>
</svg>