<?xml version="1.0" encoding="UTF-8"?>
<svg id="region_illustration" data-name="region illustration" xmlns="http://www.w3.org/2000/svg" xmlns:xlink="http://www.w3.org/1999/xlink" viewBox="0 0 120 80">
  <defs>
    <style>
      .cls-1, .cls-2 {
        fill: none;
      }

      .cls-3 {
        clip-path: url(#clippath);
      }

      .cls-3, .cls-4, .cls-5, .cls-6 {
        fill: #231f20;
      }

      .cls-7 {
        fill: #efefef;
      }

      .cls-2 {
        stroke: #231f20;
        stroke-width: .91px;
      }

      .cls-8 {
        clip-path: url(#clippath-1);
      }

      .cls-9 {
        clip-path: url(#clippath-3);
      }

      .cls-10 {
        clip-path: url(#clippath-7);
      }

      .cls-11 {
        clip-path: url(#clippath-6);
      }

      .cls-12 {
        clip-path: url(#clippath-8);
      }

      .cls-13 {
        clip-path: url(#clippath-5);
      }

      .cls-14 {
        fill: #fff;
      }

      .cls-5 {
        clip-path: url(#clippath-2);
      }

      .cls-6 {
        clip-path: url(#clippath-4);
      }
    </style>
    <clipPath id="clippath">
      <rect class="cls-7" x="11.87" y="44.52" width="95" height="29.86"/>
    </clipPath>
    <clipPath id="clippath-1">
      <path class="cls-3" d="M106.87,74.78H11.87c-.22,0-.4-.18-.4-.4v-29.86c0-.22.18-.4.4-.4h95c.22,0,.4.18.4.4v29.86c0,.22-.18.4-.4.4ZM12.27,73.98h94.2v-29.06H12.27v29.06Z"/>
    </clipPath>
    <clipPath id="clippath-2">
      <polygon class="cls-7" points="26.94 44.52 45.62 29.19 54.57 32.57 72.99 21.15 84.14 24.78 102.17 16.87 106.87 22.35 106.87 44.52 26.94 44.52"/>
    </clipPath>
    <clipPath id="clippath-3">
      <path class="cls-5" d="M106.87,44.92H26.94c-.17,0-.32-.11-.38-.27s0-.34.12-.44l18.68-15.32c.11-.09.26-.11.39-.07l8.76,3.3,18.25-11.31c.1-.06.22-.08.33-.04l11.01,3.58,17.89-7.85c.16-.07.35-.03.46.11l4.71,5.48c.06.07.1.17.1.26v22.17c0,.22-.18.4-.4.4ZM28.06,44.12h78.41v-21.62l-4.42-5.14-17.76,7.79c-.09.04-.19.04-.28.01l-10.98-3.57-18.26,11.32c-.11.07-.24.08-.35.03l-8.73-3.29-17.63,14.47Z"/>
    </clipPath>
    <clipPath id="clippath-4">
      <polygon class="cls-7" points="92.31 18.43 68.06 31.39 62.61 40.39 47.43 44.52 106.87 44.52 106.87 22.35 102.17 16.87 96.72 19.08 92.31 18.43"/>
    </clipPath>
    <clipPath id="clippath-5">
      <path class="cls-6" d="M106.87,44.92h-59.44c-.2,0-.37-.15-.4-.35s.1-.39.29-.44l15.02-4.08,5.36-8.87c.04-.06.09-.11.15-.15l24.25-12.96c.08-.04.16-.06.25-.04l4.3.63,5.35-2.16c.16-.07.34-.02.45.11l4.71,5.48c.06.07.1.17.1.26v22.17c0,.22-.18.4-.4.4ZM50.43,44.12h56.04v-21.62l-4.42-5.15-5.18,2.1c-.07.03-.14.04-.21.02l-4.28-.63-24.04,12.84-5.39,8.91c-.05.09-.14.15-.24.18l-12.28,3.34ZM62.61,40.39h.01-.01Z"/>
    </clipPath>
    <clipPath id="clippath-6">
      <polygon class="cls-1" points="160.43 58.1 221.27 58.1 232.39 69.83 160.43 69.83 160.43 58.1"/>
    </clipPath>
    <clipPath id="clippath-7">
      <rect class="cls-1" x="148.14" y="35.97" width="32.62" height="32.62"/>
    </clipPath>
    <clipPath id="clippath-8">
      <rect class="cls-1" x="148.14" y="68.58" width="32.62" height="32.62"/>
    </clipPath>
  </defs>
  <g id="boreal">
    <g>
      <g>
        <rect class="cls-14" x="18.93" y="38.94" width="3.89" height="5.57"/>
        <path class="cls-4" d="M22.82,44.92h-3.89c-.22,0-.4-.18-.4-.4v-5.57c0-.22.18-.4.4-.4h3.89c.22,0,.4.18.4.4v5.57c0,.22-.18.4-.4.4ZM19.33,44.12h3.09v-4.77h-3.09v4.77Z"/>
      </g>
      <path class="cls-4" d="M28.75,39.67l1.62,1.34h-13.78s0,.02,0,.02l-.02-.02h-5.2s1.61-1.34,1.61-1.34c.03-.03.06-.06.09-.08.62-.51,1.15-1.1,1.63-1.74l.81-1.06,1.82-2.42-2.38.77-.89.28-2.2.68-.5.16.34-.32,1.46-1.38.14-.13.19-.19c.41-.4.82-.8,1.2-1.23.9-1,1.7-2.09,2.4-3.25l1.04-1.72-.4.28c-.82.55-1.7.98-2.63,1.27-.89.29-1.83.44-2.78.46h0s-.06,0-.09,0l.03-.03,1.58-1.61.57-.57c.4-.4.78-.84,1.11-1.32.03-.03.05-.08.08-.12.1-.14.19-.3.29-.45l1.98-3.26c-1.06,1.06-2.3,1.93-3.68,2.55-.26.12-.52.22-.79.32l-1.39.51,1.33-1.67,1.56-1.97h0s.14-.19.14-.19h0s.06-.08.06-.08c1.06-1.33,1.83-2.89,2.24-4.55l3.53-13.97,3.53,13.97c.41,1.65,1.18,3.21,2.24,4.55l3.02,3.79.1.13-.15-.06-1.25-.46c-1.69-.62-3.21-1.6-4.47-2.87l1.98,3.26c.41.69.91,1.32,1.48,1.88l.47.48.63.65,1,1.02.06.06s-.06,0-.09,0c-.95-.03-1.88-.18-2.78-.46-.93-.3-1.81-.73-2.62-1.27l-.41-.28,1.04,1.72c.99,1.64,2.19,3.16,3.59,4.48l.69.65,1.38,1.3.06.06-.13-.04-1.97-.62-1.49-.46-2.38-.77,2.17,2.87.08.11.38.51c.4.54.84,1.02,1.33,1.48.13.11.25.23.39.34Z"/>
      <g>
        <rect class="cls-7" x="11.87" y="44.52" width="95" height="29.86"/>
        <path class="cls-4" d="M106.87,74.78H11.87c-.22,0-.4-.18-.4-.4v-29.86c0-.22.18-.4.4-.4h95c.22,0,.4.18.4.4v29.86c0,.22-.18.4-.4.4ZM12.27,73.98h94.2v-29.06H12.27v29.06Z"/>
        <g class="cls-8">
          <g>
            <rect class="cls-7" x="11.87" y="44.52" width="100.39" height="29.86"/>
            <path class="cls-4" d="M112.26,74.78H11.87c-.22,0-.4-.18-.4-.4v-29.86c0-.22.18-.4.4-.4h100.39c.22,0,.4.18.4.4v29.86c0,.22-.18.4-.4.4ZM12.27,73.98h99.59v-29.06H12.27v29.06Z"/>
          </g>
          <g>
            <g>
              <polygon class="cls-14" points="45.21 65.63 39.04 65.63 35.95 70.98 39.04 76.33 45.21 76.33 48.3 70.98 45.21 65.63"/>
              <path class="cls-7" d="M45.21,76.73h-6.17c-.14,0-.27-.08-.35-.2l-3.09-5.35c-.07-.12-.07-.28,0-.4l3.09-5.35c.07-.12.2-.2.35-.2h6.17c.14,0,.27.08.35.2l3.09,5.35c.07.12.07.28,0,.4l-3.09,5.35c-.07.12-.2.2-.35.2ZM39.27,75.93h5.71l2.86-4.95-2.86-4.95h-5.71l-2.86,4.95,2.86,4.95Z"/>
            </g>
            <g>
              <polygon class="cls-14" points="45.21 54.94 39.04 54.94 35.95 60.29 39.04 65.63 45.21 65.63 48.3 60.29 45.21 54.94"/>
              <path class="cls-7" d="M45.21,66.03h-6.17c-.14,0-.27-.08-.35-.2l-3.09-5.35c-.07-.12-.07-.28,0-.4l3.09-5.35c.07-.12.2-.2.35-.2h6.17c.14,0,.27.08.35.2l3.09,5.35c.07.12.07.28,0,.4l-3.09,5.35c-.07.12-.2.2-.35.2ZM39.27,65.23h5.71l2.86-4.95-2.86-4.95h-5.71l-2.86,4.95,2.86,4.95Z"/>
            </g>
            <g>
              <polygon class="cls-14" points="35.96 60.29 29.79 60.29 26.7 65.63 29.79 70.98 35.96 70.98 39.05 65.63 35.96 60.29"/>
              <path class="cls-7" d="M35.96,71.38h-6.17c-.14,0-.27-.08-.35-.2l-3.09-5.35c-.07-.12-.07-.28,0-.4l3.09-5.35c.07-.12.2-.2.35-.2h6.17c.14,0,.27.08.35.2l3.09,5.35c.07.12.07.28,0,.4l-3.09,5.35c-.07.12-.2.2-.35.2ZM30.02,70.58h5.71l2.86-4.95-2.86-4.95h-5.71l-2.86,4.95,2.86,4.95Z"/>
            </g>
            <g>
              <polygon class="cls-14" points="35.96 70.98 29.79 70.98 26.7 76.33 29.79 81.67 35.96 81.67 39.05 76.33 35.96 70.98"/>
              <path class="cls-7" d="M35.96,82.07h-6.17c-.14,0-.27-.08-.35-.2l-3.09-5.35c-.07-.12-.07-.28,0-.4l3.09-5.35c.07-.12.2-.2.35-.2h6.17c.14,0,.27.08.35.2l3.09,5.35c.07.12.07.28,0,.4l-3.09,5.35c-.07.12-.2.2-.35.2ZM30.02,81.27h5.71l2.86-4.95-2.86-4.95h-5.71l-2.86,4.95,2.86,4.95Z"/>
            </g>
            <g>
              <polygon class="cls-14" points="63.75 65.63 57.58 65.63 54.49 70.98 57.58 76.33 63.75 76.33 66.84 70.98 63.75 65.63"/>
              <path class="cls-7" d="M63.75,76.73h-6.17c-.14,0-.27-.08-.35-.2l-3.09-5.35c-.07-.12-.07-.28,0-.4l3.09-5.35c.07-.12.2-.2.35-.2h6.17c.14,0,.27.08.35.2l3.09,5.35c.07.12.07.28,0,.4l-3.09,5.35c-.07.12-.2.2-.35.2ZM57.81,75.93h5.71l2.86-4.95-2.86-4.95h-5.71l-2.86,4.95,2.86,4.95Z"/>
            </g>
            <g>
              <polygon class="cls-14" points="63.75 54.94 57.58 54.94 54.49 60.29 57.58 65.63 63.75 65.63 66.84 60.29 63.75 54.94"/>
              <path class="cls-7" d="M63.75,66.03h-6.17c-.14,0-.27-.08-.35-.2l-3.09-5.35c-.07-.12-.07-.28,0-.4l3.09-5.35c.07-.12.2-.2.35-.2h6.17c.14,0,.27.08.35.2l3.09,5.35c.07.12.07.28,0,.4l-3.09,5.35c-.07.12-.2.2-.35.2ZM57.81,65.23h5.71l2.86-4.95-2.86-4.95h-5.71l-2.86,4.95,2.86,4.95Z"/>
            </g>
            <g>
              <polygon class="cls-14" points="54.5 60.29 48.33 60.29 45.24 65.63 48.33 70.98 54.5 70.98 57.59 65.63 54.5 60.29"/>
              <path class="cls-7" d="M54.5,71.38h-6.17c-.14,0-.27-.08-.35-.2l-3.09-5.35c-.07-.12-.07-.28,0-.4l3.09-5.35c.07-.12.2-.2.35-.2h6.17c.14,0,.27.08.35.2l3.09,5.35c.07.12.07.28,0,.4l-3.09,5.35c-.07.12-.2.2-.35.2ZM48.56,70.58h5.71l2.86-4.95-2.86-4.95h-5.71l-2.86,4.95,2.86,4.95Z"/>
            </g>
            <g>
              <polygon class="cls-14" points="54.46 70.98 48.29 70.98 45.2 76.33 48.29 81.67 54.46 81.67 57.55 76.33 54.46 70.98"/>
              <path class="cls-7" d="M54.46,82.07h-6.17c-.14,0-.27-.08-.35-.2l-3.09-5.35c-.07-.12-.07-.28,0-.4l3.09-5.35c.07-.12.2-.2.35-.2h6.17c.14,0,.27.08.35.2l3.09,5.35c.07.12.07.28,0,.4l-3.09,5.35c-.07.12-.2.2-.35.2ZM48.52,81.27h5.71l2.86-4.95-2.86-4.95h-5.71l-2.86,4.95,2.86,4.95Z"/>
            </g>
            <g>
              <polygon class="cls-14" points="8.15 65.63 1.98 65.63 -1.11 70.98 1.98 76.33 8.15 76.33 11.24 70.98 8.15 65.63"/>
              <path class="cls-7" d="M8.15,76.73H1.98c-.14,0-.27-.08-.35-.2l-3.09-5.35c-.07-.12-.07-.28,0-.4l3.09-5.35c.07-.12.2-.2.35-.2h6.17c.14,0,.27.08.35.2l3.09,5.35c.07.12.07.28,0,.4l-3.09,5.35c-.07.12-.2.2-.35.2ZM2.21,75.93h5.71l2.86-4.95-2.86-4.95H2.21l-2.86,4.95,2.86,4.95Z"/>
            </g>
            <g>
              <polygon class="cls-14" points="8.15 54.94 1.98 54.94 -1.11 60.29 1.98 65.63 8.15 65.63 11.24 60.29 8.15 54.94"/>
              <path class="cls-7" d="M8.15,66.03H1.98c-.14,0-.27-.08-.35-.2l-3.09-5.35c-.07-.12-.07-.28,0-.4l3.09-5.35c.07-.12.2-.2.35-.2h6.17c.14,0,.27.08.35.2l3.09,5.35c.07.12.07.28,0,.4l-3.09,5.35c-.07.12-.2.2-.35.2ZM2.21,65.23h5.71l2.86-4.95-2.86-4.95H2.21l-2.86,4.95,2.86,4.95Z"/>
            </g>
            <g>
              <polygon class="cls-14" points="26.69 65.63 20.52 65.63 17.43 70.98 20.52 76.33 26.69 76.33 29.78 70.98 26.69 65.63"/>
              <path class="cls-7" d="M26.69,76.73h-6.17c-.14,0-.27-.08-.35-.2l-3.09-5.35c-.07-.12-.07-.28,0-.4l3.09-5.35c.07-.12.2-.2.35-.2h6.17c.14,0,.27.08.35.2l3.09,5.35c.07.12.07.28,0,.4l-3.09,5.35c-.07.12-.2.2-.35.2ZM20.75,75.93h5.71l2.86-4.95-2.86-4.95h-5.71l-2.86,4.95,2.86,4.95Z"/>
            </g>
            <g>
              <polygon class="cls-14" points="26.69 54.94 20.52 54.94 17.43 60.29 20.52 65.63 26.69 65.63 29.78 60.29 26.69 54.94"/>
              <path class="cls-7" d="M26.69,66.03h-6.17c-.14,0-.27-.08-.35-.2l-3.09-5.35c-.07-.12-.07-.28,0-.4l3.09-5.35c.07-.12.2-.2.35-.2h6.17c.14,0,.27.08.35.2l3.09,5.35c.07.12.07.28,0,.4l-3.09,5.35c-.07.12-.2.2-.35.2ZM20.75,65.23h5.71l2.86-4.95-2.86-4.95h-5.71l-2.86,4.95,2.86,4.95Z"/>
            </g>
            <g>
              <polygon class="cls-14" points="17.44 60.29 11.27 60.29 8.18 65.63 11.27 70.98 17.44 70.98 20.53 65.63 17.44 60.29"/>
              <path class="cls-7" d="M17.44,71.38h-6.17c-.14,0-.27-.08-.35-.2l-3.09-5.35c-.07-.12-.07-.28,0-.4l3.09-5.35c.07-.12.2-.2.35-.2h6.17c.14,0,.27.08.35.2l3.09,5.35c.07.12.07.28,0,.4l-3.09,5.35c-.07.12-.2.2-.35.2ZM11.5,70.58h5.71l2.86-4.95-2.86-4.95h-5.71l-2.86,4.95,2.86,4.95Z"/>
            </g>
            <g>
              <polygon class="cls-14" points="114.04 60.29 107.87 60.29 104.78 65.63 107.87 70.98 114.04 70.98 117.13 65.63 114.04 60.29"/>
              <path class="cls-7" d="M114.04,71.38h-6.17c-.14,0-.27-.08-.35-.2l-3.09-5.35c-.07-.12-.07-.28,0-.4l3.09-5.35c.07-.12.2-.2.35-.2h6.17c.14,0,.27.08.35.2l3.09,5.35c.07.12.07.28,0,.4l-3.09,5.35c-.07.12-.2.2-.35.2ZM108.1,70.58h5.71l2.86-4.95-2.86-4.95h-5.71l-2.86,4.95,2.86,4.95Z"/>
            </g>
            <g>
              <polygon class="cls-14" points="17.4 70.98 11.23 70.98 8.14 76.33 11.23 81.67 17.4 81.67 20.49 76.33 17.4 70.98"/>
              <path class="cls-7" d="M17.4,82.07h-6.17c-.14,0-.27-.08-.35-.2l-3.09-5.35c-.07-.12-.07-.28,0-.4l3.09-5.35c.07-.12.2-.2.35-.2h6.17c.14,0,.27.08.35.2l3.09,5.35c.07.12.07.28,0,.4l-3.09,5.35c-.07.12-.2.2-.35.2ZM11.46,81.27h5.71l2.86-4.95-2.86-4.95h-5.71l-2.86,4.95,2.86,4.95Z"/>
            </g>
            <g>
              <polygon class="cls-14" points="100.81 65.63 94.64 65.63 91.55 70.98 94.64 76.33 100.81 76.33 103.9 70.98 100.81 65.63"/>
              <path class="cls-7" d="M100.81,76.73h-6.17c-.14,0-.27-.08-.35-.2l-3.09-5.35c-.07-.12-.07-.28,0-.4l3.09-5.35c.07-.12.2-.2.35-.2h6.17c.14,0,.27.08.35.2l3.09,5.35c.07.12.07.28,0,.4l-3.09,5.35c-.07.12-.2.2-.35.2ZM94.87,75.93h5.71l2.86-4.95-2.86-4.95h-5.71l-2.86,4.95,2.86,4.95Z"/>
            </g>
            <g>
              <polygon class="cls-14" points="100.81 54.94 94.64 54.94 91.55 60.29 94.64 65.63 100.81 65.63 103.9 60.29 100.81 54.94"/>
              <path class="cls-7" d="M100.81,66.03h-6.17c-.14,0-.27-.08-.35-.2l-3.09-5.35c-.07-.12-.07-.28,0-.4l3.09-5.35c.07-.12.2-.2.35-.2h6.17c.14,0,.27.08.35.2l3.09,5.35c.07.12.07.28,0,.4l-3.09,5.35c-.07.12-.2.2-.35.2ZM94.87,65.23h5.71l2.86-4.95-2.86-4.95h-5.71l-2.86,4.95,2.86,4.95Z"/>
            </g>
            <g>
              <polygon class="cls-14" points="91.56 60.29 85.39 60.29 82.3 65.63 85.39 70.98 91.56 70.98 94.65 65.63 91.56 60.29"/>
              <path class="cls-7" d="M91.56,71.38h-6.17c-.14,0-.27-.08-.35-.2l-3.09-5.35c-.07-.12-.07-.28,0-.4l3.09-5.35c.07-.12.2-.2.35-.2h6.17c.14,0,.27.08.35.2l3.09,5.35c.07.12.07.28,0,.4l-3.09,5.35c-.07.12-.2.2-.35.2ZM85.62,70.58h5.71l2.86-4.95-2.86-4.95h-5.71l-2.86,4.95,2.86,4.95Z"/>
            </g>
            <g>
              <polygon class="cls-14" points="91.56 70.98 85.39 70.98 82.3 76.33 85.39 81.67 91.56 81.67 94.65 76.33 91.56 70.98"/>
              <path class="cls-7" d="M91.56,82.07h-6.17c-.14,0-.27-.08-.35-.2l-3.09-5.35c-.07-.12-.07-.28,0-.4l3.09-5.35c.07-.12.2-.2.35-.2h6.17c.14,0,.27.08.35.2l3.09,5.35c.07.12.07.28,0,.4l-3.09,5.35c-.07.12-.2.2-.35.2ZM85.62,81.27h5.71l2.86-4.95-2.86-4.95h-5.71l-2.86,4.95,2.86,4.95Z"/>
            </g>
            <g>
              <polygon class="cls-14" points="119.35 65.63 113.18 65.63 110.09 70.98 113.18 76.33 119.35 76.33 122.44 70.98 119.35 65.63"/>
              <path class="cls-7" d="M119.35,76.73h-6.17c-.14,0-.27-.08-.35-.2l-3.09-5.35c-.07-.12-.07-.28,0-.4l3.09-5.35c.07-.12.2-.2.35-.2h6.17c.14,0,.27.08.35.2l3.09,5.35c.07.12.07.28,0,.4l-3.09,5.35c-.07.12-.2.2-.35.2ZM113.41,75.93h5.71l2.86-4.95-2.86-4.95h-5.71l-2.86,4.95,2.86,4.95Z"/>
            </g>
            <g>
              <polygon class="cls-14" points="119.35 54.94 113.18 54.94 110.09 60.29 113.18 65.63 119.35 65.63 122.44 60.29 119.35 54.94"/>
              <path class="cls-7" d="M119.35,66.03h-6.17c-.14,0-.27-.08-.35-.2l-3.09-5.35c-.07-.12-.07-.28,0-.4l3.09-5.35c.07-.12.2-.2.35-.2h6.17c.14,0,.27.08.35.2l3.09,5.35c.07.12.07.28,0,.4l-3.09,5.35c-.07.12-.2.2-.35.2ZM113.41,65.23h5.71l2.86-4.95-2.86-4.95h-5.71l-2.86,4.95,2.86,4.95Z"/>
            </g>
            <g>
              <polygon class="cls-14" points="110.1 60.29 103.93 60.29 100.84 65.63 103.93 70.98 110.1 70.98 113.19 65.63 110.1 60.29"/>
              <path class="cls-7" d="M110.1,71.38h-6.17c-.14,0-.27-.08-.35-.2l-3.09-5.35c-.07-.12-.07-.28,0-.4l3.09-5.35c.07-.12.2-.2.35-.2h6.17c.14,0,.27.08.35.2l3.09,5.35c.07.12.07.28,0,.4l-3.09,5.35c-.07.12-.2.2-.35.2ZM104.16,70.58h5.71l2.86-4.95-2.86-4.95h-5.71l-2.86,4.95,2.86,4.95Z"/>
            </g>
            <g>
              <polygon class="cls-14" points="110.06 70.98 103.89 70.98 100.8 76.33 103.89 81.67 110.06 81.67 113.15 76.33 110.06 70.98"/>
              <path class="cls-7" d="M110.06,82.07h-6.17c-.14,0-.27-.08-.35-.2l-3.09-5.35c-.07-.12-.07-.28,0-.4l3.09-5.35c.07-.12.2-.2.35-.2h6.17c.14,0,.27.08.35.2l3.09,5.35c.07.12.07.28,0,.4l-3.09,5.35c-.07.12-.2.2-.35.2ZM104.12,81.27h5.71l2.86-4.95-2.86-4.95h-5.71l-2.86,4.95,2.86,4.95Z"/>
            </g>
            <g>
              <polygon class="cls-14" points="63.75 65.63 57.58 65.63 54.49 70.98 57.58 76.33 63.75 76.33 66.84 70.98 63.75 65.63"/>
              <path class="cls-7" d="M63.75,76.73h-6.17c-.14,0-.27-.08-.35-.2l-3.09-5.35c-.07-.12-.07-.28,0-.4l3.09-5.35c.07-.12.2-.2.35-.2h6.17c.14,0,.27.08.35.2l3.09,5.35c.07.12.07.28,0,.4l-3.09,5.35c-.07.12-.2.2-.35.2ZM57.81,75.93h5.71l2.86-4.95-2.86-4.95h-5.71l-2.86,4.95,2.86,4.95Z"/>
            </g>
            <g>
              <polygon class="cls-14" points="63.75 54.94 57.58 54.94 54.49 60.29 57.58 65.63 63.75 65.63 66.84 60.29 63.75 54.94"/>
              <path class="cls-7" d="M63.75,66.03h-6.17c-.14,0-.27-.08-.35-.2l-3.09-5.35c-.07-.12-.07-.28,0-.4l3.09-5.35c.07-.12.2-.2.35-.2h6.17c.14,0,.27.08.35.2l3.09,5.35c.07.12.07.28,0,.4l-3.09,5.35c-.07.12-.2.2-.35.2ZM57.81,65.23h5.71l2.86-4.95-2.86-4.95h-5.71l-2.86,4.95,2.86,4.95Z"/>
            </g>
            <g>
              <polygon class="cls-14" points="82.29 65.63 76.12 65.63 73.03 70.98 76.12 76.33 82.29 76.33 85.38 70.98 82.29 65.63"/>
              <path class="cls-7" d="M82.29,76.73h-6.17c-.14,0-.27-.08-.35-.2l-3.09-5.35c-.07-.12-.07-.28,0-.4l3.09-5.35c.07-.12.2-.2.35-.2h6.17c.14,0,.27.08.35.2l3.09,5.35c.07.12.07.28,0,.4l-3.09,5.35c-.07.12-.2.2-.35.2ZM76.35,75.93h5.71l2.86-4.95-2.86-4.95h-5.71l-2.86,4.95,2.86,4.95Z"/>
            </g>
            <g>
              <polygon class="cls-14" points="82.29 54.94 76.12 54.94 73.03 60.29 76.12 65.63 82.29 65.63 85.38 60.29 82.29 54.94"/>
              <path class="cls-7" d="M82.29,66.03h-6.17c-.14,0-.27-.08-.35-.2l-3.09-5.35c-.07-.12-.07-.28,0-.4l3.09-5.35c.07-.12.2-.2.35-.2h6.17c.14,0,.27.08.35.2l3.09,5.35c.07.12.07.28,0,.4l-3.09,5.35c-.07.12-.2.2-.35.2ZM76.35,65.23h5.71l2.86-4.95-2.86-4.95h-5.71l-2.86,4.95,2.86,4.95Z"/>
            </g>
            <g>
              <polygon class="cls-14" points="73.04 60.29 66.87 60.29 63.78 65.63 66.87 70.98 73.04 70.98 76.13 65.63 73.04 60.29"/>
              <path class="cls-7" d="M73.04,71.38h-6.17c-.14,0-.27-.08-.35-.2l-3.09-5.35c-.07-.12-.07-.28,0-.4l3.09-5.35c.07-.12.2-.2.35-.2h6.17c.14,0,.27.08.35.2l3.09,5.35c.07.12.07.28,0,.4l-3.09,5.35c-.07.12-.2.2-.35.2ZM67.1,70.58h5.71l2.86-4.95-2.86-4.95h-5.71l-2.86,4.95,2.86,4.95Z"/>
            </g>
            <g>
              <polygon class="cls-14" points="73 70.98 66.83 70.98 63.74 76.33 66.83 81.67 73 81.67 76.09 76.33 73 70.98"/>
              <path class="cls-7" d="M73,82.07h-6.17c-.14,0-.27-.08-.35-.2l-3.09-5.35c-.07-.12-.07-.28,0-.4l3.09-5.35c.07-.12.2-.2.35-.2h6.17c.14,0,.27.08.35.2l3.09,5.35c.07.12.07.28,0,.4l-3.09,5.35c-.07.12-.2.2-.35.2ZM67.06,81.27h5.71l2.86-4.95-2.86-4.95h-5.71l-2.86,4.95,2.86,4.95Z"/>
            </g>
          </g>
        </g>
      </g>
      <g>
        <g>
          <line class="cls-7" x1="88.49" y1="46.09" x2="88.49" y2="54.72"/>
          <path class="cls-4" d="M88.49,55.12c-.22,0-.4-.18-.4-.4v-8.64c0-.22.18-.4.4-.4s.4.18.4.4v8.64c0,.22-.18.4-.4.4Z"/>
        </g>
        <g>
          <line class="cls-7" x1="92.23" y1="52.56" x2="84.75" y2="48.24"/>
          <path class="cls-4" d="M92.23,52.96c-.07,0-.14-.02-.2-.05l-7.48-4.32c-.19-.11-.26-.35-.15-.55.11-.19.35-.26.55-.15l7.48,4.32c.19.11.26.35.15.55-.07.13-.21.2-.35.2Z"/>
        </g>
        <g>
          <line class="cls-7" x1="84.75" y1="52.56" x2="92.23" y2="48.24"/>
          <path class="cls-4" d="M84.75,52.96c-.14,0-.27-.07-.35-.2-.11-.19-.04-.44.15-.55l7.48-4.32c.19-.11.44-.04.55.15.11.19.04.44-.15.55l-7.48,4.32c-.06.04-.13.05-.2.05Z"/>
        </g>
        <g>
          <line class="cls-7" x1="88.49" y1="46.09" x2="88.49" y2="54.72"/>
          <path class="cls-4" d="M88.49,55.12c-.22,0-.4-.18-.4-.4v-8.64c0-.22.18-.4.4-.4s.4.18.4.4v8.64c0,.22-.18.4-.4.4Z"/>
        </g>
      </g>
      <g>
        <g>
          <line class="cls-7" x1="70.27" y1="47.53" x2="70.27" y2="56.17"/>
          <path class="cls-4" d="M70.27,56.57c-.22,0-.4-.18-.4-.4v-8.64c0-.22.18-.4.4-.4s.4.18.4.4v8.64c0,.22-.18.4-.4.4Z"/>
        </g>
        <g>
          <line class="cls-7" x1="74.01" y1="54.01" x2="66.53" y2="49.69"/>
          <path class="cls-4" d="M74.01,54.41c-.07,0-.14-.02-.2-.05l-7.48-4.32c-.19-.11-.26-.35-.15-.55.11-.19.36-.26.55-.15l7.48,4.32c.19.11.26.35.15.55-.07.13-.21.2-.35.2Z"/>
        </g>
        <g>
          <line class="cls-7" x1="66.53" y1="54.01" x2="74.01" y2="49.69"/>
          <path class="cls-4" d="M66.53,54.41c-.14,0-.27-.07-.35-.2-.11-.19-.04-.44.15-.55l7.48-4.32c.19-.11.44-.04.55.15.11.19.04.44-.15.55l-7.48,4.32c-.06.04-.13.05-.2.05Z"/>
        </g>
        <g>
          <line class="cls-7" x1="70.27" y1="47.53" x2="70.27" y2="56.17"/>
          <path class="cls-4" d="M70.27,56.57c-.22,0-.4-.18-.4-.4v-8.64c0-.22.18-.4.4-.4s.4.18.4.4v8.64c0,.22-.18.4-.4.4Z"/>
        </g>
      </g>
      <g>
        <g>
          <line class="cls-7" x1="33.31" y1="46.61" x2="33.31" y2="55.24"/>
          <path class="cls-4" d="M33.31,55.64c-.22,0-.4-.18-.4-.4v-8.64c0-.22.18-.4.4-.4s.4.18.4.4v8.64c0,.22-.18.4-.4.4Z"/>
        </g>
        <g>
          <line class="cls-7" x1="37.05" y1="53.08" x2="29.57" y2="48.77"/>
          <path class="cls-4" d="M37.04,53.48c-.07,0-.14-.02-.2-.05l-7.48-4.32c-.19-.11-.26-.35-.15-.55.11-.19.35-.26.55-.15l7.48,4.32c.19.11.26.35.15.55-.07.13-.21.2-.35.2Z"/>
        </g>
        <g>
          <line class="cls-7" x1="29.57" y1="53.08" x2="37.05" y2="48.77"/>
          <path class="cls-4" d="M29.57,53.48c-.14,0-.27-.07-.35-.2-.11-.19-.04-.44.15-.55l7.48-4.32c.19-.11.44-.04.55.15.11.19.04.44-.15.55l-7.48,4.32c-.06.04-.13.05-.2.05Z"/>
        </g>
        <g>
          <line class="cls-7" x1="33.31" y1="46.61" x2="33.31" y2="55.24"/>
          <path class="cls-4" d="M33.31,55.64c-.22,0-.4-.18-.4-.4v-8.64c0-.22.18-.4.4-.4s.4.18.4.4v8.64c0,.22-.18.4-.4.4Z"/>
        </g>
      </g>
      <g>
        <polygon class="cls-7" points="26.94 44.52 45.62 29.19 54.57 32.57 72.99 21.15 84.14 24.78 102.17 16.87 106.87 22.35 106.87 44.52 26.94 44.52"/>
        <path class="cls-4" d="M106.87,44.92H26.94c-.17,0-.32-.11-.38-.27s0-.34.12-.44l18.68-15.32c.11-.09.26-.11.39-.07l8.76,3.3,18.25-11.31c.1-.06.22-.08.33-.04l11.01,3.58,17.89-7.85c.16-.07.35-.03.46.11l4.71,5.48c.06.07.1.17.1.26v22.17c0,.22-.18.4-.4.4ZM28.06,44.12h78.41v-21.62l-4.42-5.14-17.76,7.79c-.09.04-.19.04-.28.01l-10.98-3.57-18.26,11.32c-.11.07-.24.08-.35.03l-8.73-3.29-17.63,14.47Z"/>
        <g class="cls-9">
          <g>
            <polygon class="cls-14" points="88.49 10.52 86.08 29.97 62.35 36.25 53.79 30.69 63.91 10.78 88.49 10.52"/>
            <path class="cls-7" d="M62.35,36.65c-.08,0-.15-.02-.22-.06l-8.56-5.56c-.17-.11-.23-.33-.14-.52l10.12-19.92c.07-.13.2-.22.35-.22l24.58-.26c.1,0,.23.05.3.13.08.09.11.2.1.32l-2.4,19.45c-.02.16-.14.3-.29.34l-23.73,6.28s-.07.01-.1.01ZM54.31,30.55l8.11,5.26,23.3-6.16,2.31-18.73-23.88.25-9.84,19.38Z"/>
          </g>
        </g>
      </g>
      <g>
        <polygon class="cls-7" points="92.31 18.43 68.06 31.39 62.61 40.39 47.43 44.52 106.87 44.52 106.87 22.35 102.17 16.87 96.72 19.08 92.31 18.43"/>
        <path class="cls-4" d="M106.87,44.92h-59.44c-.2,0-.37-.15-.4-.35s.1-.39.29-.44l15.02-4.08,5.36-8.87c.04-.06.09-.11.15-.15l24.25-12.96c.08-.04.16-.06.25-.04l4.3.63,5.35-2.16c.16-.07.34-.02.45.11l4.71,5.48c.06.07.1.17.1.26v22.17c0,.22-.18.4-.4.4ZM50.43,44.12h56.04v-21.62l-4.42-5.15-5.18,2.1c-.07.03-.14.04-.21.02l-4.28-.63-24.04,12.84-5.39,8.91c-.05.09-.14.15-.24.18l-12.28,3.34ZM62.61,40.39h.01-.01Z"/>
        <g class="cls-13">
          <g>
            <polygon class="cls-14" points="108.4 20.5 91.27 32.95 96.59 17.78 86.7 25.02 66.91 31.92 87.25 9.09 99.76 10 111.12 15.83 108.4 20.5"/>
            <path class="cls-7" d="M91.27,33.35c-.08,0-.17-.03-.24-.08-.14-.1-.2-.29-.14-.45l4.89-13.96-8.85,6.48s-.07.04-.1.06l-19.79,6.9c-.17.06-.36,0-.46-.16s-.09-.35.03-.49l20.34-22.83c.08-.09.2-.14.33-.13l12.51.91c.05,0,.11.02.15.04l11.35,5.84c.1.05.17.14.2.24.03.11.02.22-.04.31l-2.72,4.67s-.07.09-.11.12l-17.13,12.45c-.07.05-.15.08-.24.08ZM96.59,17.38c.08,0,.17.03.24.08.14.1.2.29.14.45l-4.89,13.97,16.02-11.65,2.46-4.23-10.91-5.61-12.23-.89-19.19,21.53,18.28-6.37,9.85-7.21c.07-.05.15-.08.24-.08ZM108.4,20.5h.01-.01Z"/>
          </g>
        </g>
      </g>
    </g>
    <g>
      <line class="cls-7" x1="59.37" y1="47.21" x2="52.2" y2="47.21"/>
      <path class="cls-4" d="M59.37,47.61h-7.17c-.22,0-.4-.18-.4-.4s.18-.4.4-.4h7.17c.22,0,.4.18.4.4s-.18.4-.4.4Z"/>
    </g>
    <g>
      <line class="cls-7" x1="22.67" y1="47.56" x2="19.08" y2="47.56"/>
      <path class="cls-4" d="M22.67,47.96h-3.58c-.22,0-.4-.18-.4-.4s.18-.4.4-.4h3.58c.22,0,.4.18.4.4s-.18.4-.4.4Z"/>
    </g>
    <g>
      <line class="cls-7" x1="23.32" y1="50.4" x2="16.15" y2="50.4"/>
      <path class="cls-4" d="M23.32,50.8h-7.17c-.22,0-.4-.18-.4-.4s.18-.4.4-.4h7.17c.22,0,.4.18.4.4s-.18.4-.4.4Z"/>
    </g>
    <g>
      <line class="cls-7" x1="103.35" y1="49.58" x2="99.76" y2="49.58"/>
      <path class="cls-4" d="M103.35,49.98h-3.58c-.22,0-.4-.18-.4-.4s.18-.4.4-.4h3.58c.22,0,.4.18.4.4s-.18.4-.4.4Z"/>
    </g>
    <g>
      <line class="cls-7" x1="49.78" y1="50.92" x2="42.62" y2="50.92"/>
      <path class="cls-4" d="M49.78,51.32h-7.17c-.22,0-.4-.18-.4-.4s.18-.4.4-.4h7.17c.22,0,.4.18.4.4s-.18.4-.4.4Z"/>
    </g>
  </g>
  <g id="flood">
    <g class="cls-11">
      <g class="cls-10">
        <g>
          <line class="cls-2" x1="115.41" y1="66.95" x2="148.26" y2="66.95"/>
          <line class="cls-2" x1="115.41" y1="60.43" x2="148.26" y2="60.43"/>
          <line class="cls-2" x1="115.41" y1="53.91" x2="148.26" y2="53.91"/>
          <line class="cls-2" x1="115.41" y1="47.38" x2="148.26" y2="47.38"/>
          <line class="cls-2" x1="115.41" y1="40.86" x2="148.26" y2="40.86"/>
          <line class="cls-2" x1="115.41" y1="63.69" x2="148.26" y2="63.69"/>
          <line class="cls-2" x1="115.41" y1="57.17" x2="148.26" y2="57.17"/>
          <line class="cls-2" x1="115.41" y1="50.64" x2="148.26" y2="50.64"/>
          <line class="cls-2" x1="115.41" y1="44.12" x2="148.26" y2="44.12"/>
          <line class="cls-2" x1="115.41" y1="37.6" x2="148.26" y2="37.6"/>
        </g>
      </g>
      <g class="cls-12">
        <g>
          <line class="cls-2" x1="115.41" y1="80" x2="148.26" y2="80"/>
          <line class="cls-2" x1="115.41" y1="73.48" x2="148.26" y2="73.48"/>
          <line class="cls-2" x1="115.41" y1="76.74" x2="148.26" y2="76.74"/>
          <line class="cls-2" x1="115.41" y1="70.21" x2="148.26" y2="70.21"/>
        </g>
      </g>
    </g>
  </g>
</svg>