<?xml version="1.0" encoding="UTF-8"?>
<svg id="effect_text" data-name="effect text" xmlns="http://www.w3.org/2000/svg" xmlns:xlink="http://www.w3.org/1999/xlink" viewBox="0 0 120 80">
  <defs>
    <style>
      .cls-1 {
        clip-path: url(#clippath);
      }

      .cls-1, .cls-2, .cls-3, .cls-4 {
        fill: #231f20;
      }

      .cls-5 {
        fill: #efefef;
      }

      .cls-6 {
        clip-path: url(#clippath-11);
      }

      .cls-7 {
        clip-path: url(#clippath-1);
      }

      .cls-8 {
        clip-path: url(#clippath-3);
      }

      .cls-9 {
        fill: #fff;
      }

      .cls-3 {
        clip-path: url(#clippath-10);
      }

      .cls-4 {
        clip-path: url(#clippath-2);
      }
    </style>
    <clipPath id="clippath">
      <path class="cls-5" d="M19.24,72.56h79.25s0-17.44,0-17.44h-31.32s-13.36,8.42-13.36,8.42c-8,5.04-18.58.76-20.82-8.42h0s-13.74,0-13.74,0v17.44Z"/>
    </clipPath>
    <clipPath id="clippath-1">
      <path class="cls-1" d="M98.48,72.96H19.24c-.22,0-.4-.18-.4-.4v-17.44c0-.22.18-.4.4-.4h13.74c.18,0,.34.13.39.3,1.04,4.25,3.96,7.63,8.02,9.27,4.06,1.64,8.5,1.24,12.2-1.09l13.36-8.42c.06-.04.14-.06.21-.06h31.32c.22,0,.4.18.4.4v17.44c0,.22-.18.4-.4.4ZM19.64,72.16h78.45v-16.64h-30.8l-13.27,8.36c-3.92,2.47-8.63,2.89-12.93,1.15-4.2-1.7-7.25-5.15-8.42-9.51h-13.03v16.64Z"/>
    </clipPath>
    <clipPath id="clippath-2">
      <polygon class="cls-5" points="32.98 55.11 45.24 42.93 54.85 45.15 72.23 34.79 79.52 38.66 98.92 39.74 98.48 55.11 32.98 55.11"/>
    </clipPath>
    <clipPath id="clippath-3">
      <path class="cls-4" d="M98.48,55.51H32.98c-.16,0-.31-.1-.37-.25-.06-.15-.03-.32.09-.44l12.26-12.19c.1-.1.24-.14.37-.11l9.45,2.18,17.23-10.27c.12-.07.27-.08.39,0l7.22,3.82,19.31,1.08c.22.01.38.19.38.41l-.44,15.38c0,.22-.18.39-.4.39ZM33.95,54.71h64.14l.41-14.6-19.01-1.06c-.06,0-.11-.02-.17-.05l-7.1-3.76-17.18,10.24c-.09.05-.19.07-.29.05l-9.39-2.17-11.42,11.35Z"/>
    </clipPath>
    <clipPath id="clippath-10">
      <polygon class="cls-5" points="94.05 50.37 80.22 49.62 67.63 55.11 55.87 55.11 48.9 55.11 98.48 55.11 98.92 39.74 98.92 39.74 96.51 39.99 94.05 50.37"/>
    </clipPath>
    <clipPath id="clippath-11">
      <path class="cls-3" d="M98.48,55.51h-49.58c-.22,0-.4-.18-.4-.4s.18-.4.4-.4h18.65l12.51-5.46c.06-.03.12-.04.18-.03l13.49.74,2.39-10.06c.04-.17.18-.29.35-.31l2.41-.25c.11-.01.23.03.31.1.08.08.13.19.13.3l-.44,15.38c0,.22-.18.39-.4.39ZM69.55,54.71h28.54l.41-14.53-1.67.17-2.4,10.11c-.04.19-.22.33-.41.31l-13.73-.75-10.74,4.69Z"/>
    </clipPath>
  </defs>
  <g id="boreal_effect" data-name="boreal effect">
    <g>
      <rect class="cls-2" x="19.24" y="55.11" width="79.25" height="17.44"/>
      <path class="cls-5" d="M98.48,72.96H19.24c-.22,0-.4-.18-.4-.4v-17.44c0-.22.18-.4.4-.4h79.25c.22,0,.4.18.4.4v17.44c0,.22-.18.4-.4.4ZM19.64,72.16h78.45v-16.64H19.64v16.64Z"/>
    </g>
    <g>
      <g>
        <rect class="cls-9" x="26.56" y="51.16" width="2.35" height="5.44" transform="translate(-13.57 9.54) rotate(-15.73)"/>
        <path class="cls-2" d="M27.34,57.21c-.07,0-.14-.02-.2-.05-.09-.05-.16-.14-.19-.24l-1.47-5.23c-.03-.1-.02-.21.04-.3.05-.09.14-.16.24-.19l2.26-.64c.21-.06.43.06.49.28l1.47,5.23c.06.21-.06.43-.28.49l-2.26.64s-.07.02-.11.02ZM26.36,51.86l1.26,4.46,1.49-.42-1.26-4.46-1.49.42Z"/>
      </g>
      <path class="cls-2" d="M31.7,50.39l1.16.51-8.01,2.26h0s-.01,0-.01,0l-3.02.85.72-1.04s.02-.04.04-.06c.27-.4.49-.83.66-1.28l.3-.75.66-1.71-1.26.84-.47.31-1.17.76-.26.17.14-.24.62-1.04.06-.1.08-.14c.18-.3.34-.6.49-.91.36-.73.65-1.5.86-2.28l.32-1.17-.19.23c-.39.45-.83.85-1.32,1.17-.47.31-.99.56-1.54.72h0s-.03.02-.05.02v-.02s.66-1.2.66-1.2l.23-.43c.17-.3.31-.62.43-.95,0-.02.02-.05.03-.08.04-.1.06-.2.09-.31l.62-2.22c-.44.79-1.02,1.5-1.72,2.08-.13.11-.27.21-.41.32l-.73.53.5-1.19.59-1.4h0s.05-.14.05-.14h0s.02-.06.02-.06c.4-.95.59-1.98.56-3.01l-.23-8.7,4.34,7.55c.51.89,1.21,1.68,2.05,2.28l2.38,1.71.08.06h-.1s-.8-.07-.8-.07c-1.08-.08-2.13-.41-3.07-.94l1.69,1.57c.35.33.75.62,1.17.85l.35.2.47.27.75.43.04.02s-.03,0-.06.01c-.56.14-1.12.21-1.7.19-.59-.02-1.17-.12-1.73-.31l-.29-.09.89.83c.84.79,1.79,1.48,2.82,2.02l.51.26,1.01.53.04.02h-.08s-1.25-.04-1.25-.04l-.94-.03-1.51-.06,1.73,1.31.07.05.3.23c.32.25.65.46,1.02.64.09.04.18.09.28.13Z"/>
    </g>
    <g>
      <path class="cls-5" d="M19.24,72.56h79.25s0-17.44,0-17.44h-31.32s-13.36,8.42-13.36,8.42c-8,5.04-18.58.76-20.82-8.42h0s-13.74,0-13.74,0v17.44Z"/>
      <path class="cls-2" d="M98.48,72.96H19.24c-.22,0-.4-.18-.4-.4v-17.44c0-.22.18-.4.4-.4h13.74c.18,0,.34.13.39.3,1.04,4.25,3.96,7.63,8.02,9.27,4.06,1.64,8.5,1.24,12.2-1.09l13.36-8.42c.06-.04.14-.06.21-.06h31.32c.22,0,.4.18.4.4v17.44c0,.22-.18.4-.4.4ZM19.64,72.16h78.45v-16.64h-30.8l-13.27,8.36c-3.92,2.47-8.63,2.89-12.93,1.15-4.2-1.7-7.25-5.15-8.42-9.51h-13.03v16.64Z"/>
      <g class="cls-7">
        <g>
          <rect class="cls-5" x="19.24" y="55.11" width="83.74" height="24.91"/>
          <path class="cls-2" d="M102.97,80.42H19.24c-.22,0-.4-.18-.4-.4v-24.91c0-.22.18-.4.4-.4h83.74c.22,0,.4.18.4.4v24.91c0,.22-.18.4-.4.4ZM19.64,79.62h82.94v-24.11H19.64v24.11Z"/>
        </g>
        <polygon class="cls-9" points="80.66 62.18 74.35 63.44 75.31 57.69 80.66 62.18"/>
        <polygon class="cls-9" points="71.11 69.18 64.79 70.44 65.75 64.69 71.11 69.18"/>
        <polygon class="cls-9" points="43.87 73.44 38.9 69.35 43.96 66.45 43.87 73.44"/>
        <polygon class="cls-9" points="27.69 66.46 22.72 62.37 27.79 59.47 27.69 66.46"/>
        <polygon class="cls-9" points="89.1 69.71 95.5 70.4 92.87 75.6 89.1 69.71"/>
        <polygon class="cls-9" points="80.8 77.76 87.2 78.45 84.56 83.65 80.8 77.76"/>
        <polygon class="cls-9" points="52.67 64.62 59.07 65.31 56.43 70.51 52.67 64.62"/>
        <polygon class="cls-9" points="24.39 77.08 30.79 77.77 28.15 82.97 24.39 77.08"/>
        <polygon class="cls-9" points="54.07 74.75 60.47 75.44 57.83 80.64 54.07 74.75"/>
        <polygon class="cls-9" points="87.65 60.02 94.05 60.71 91.41 65.91 87.65 60.02"/>
      </g>
    </g>
    <g>
      <polygon class="cls-5" points="32.98 55.11 45.24 42.93 54.85 45.15 72.23 34.79 79.52 38.66 98.92 39.74 98.48 55.11 32.98 55.11"/>
      <path class="cls-2" d="M98.48,55.51H32.98c-.16,0-.31-.1-.37-.25-.06-.15-.03-.32.09-.44l12.26-12.19c.1-.1.24-.14.37-.11l9.45,2.18,17.23-10.27c.12-.07.27-.08.39,0l7.22,3.82,19.31,1.08c.22.01.38.19.38.41l-.44,15.38c0,.22-.18.39-.4.39ZM33.95,54.71h64.14l.41-14.6-19.01-1.06c-.06,0-.11-.02-.17-.05l-7.1-3.76-17.18,10.24c-.09.05-.19.07-.29.05l-9.39-2.17-11.42,11.35Z"/>
      <g class="cls-8">
        <g>
          <polygon class="cls-9" points="99.29 28.86 96.31 52.89 66.99 60.65 56.41 53.79 68.91 29.18 99.29 28.86"/>
          <path class="cls-5" d="M66.99,61.05c-.08,0-.15-.02-.22-.06l-10.58-6.87c-.17-.11-.23-.33-.14-.52l12.5-24.61c.07-.13.2-.22.35-.22l30.37-.32c.1.02.23.05.3.13s.11.2.1.32l-2.97,24.04c-.02.16-.14.3-.29.34l-29.33,7.76s-.07.01-.1.01ZM56.93,53.65l10.13,6.57,28.89-7.64,2.88-23.32-29.67.31-12.23,24.07Z"/>
          <polygon class="cls-5" points="23.24 70.86 33.9 56.18 57.37 56.1 80.13 42 93.91 46.48 116.19 36.71 122 43.48 122 70.86 23.24 70.86"/>
          <path class="cls-2" d="M122,71.26H23.24c-.15,0-.29-.08-.36-.22-.07-.13-.06-.29.03-.42l10.66-14.69c.07-.1.19-.16.32-.17l23.36-.08,22.66-14.04c.1-.06.22-.08.33-.04l13.64,4.44,22.14-9.71c.16-.07.35-.03.46.11l5.82,6.77c.06.07.1.17.1.26v27.39c0,.22-.18.4-.4.4ZM24.02,70.46h97.58v-26.84l-5.53-6.43-22,9.66c-.09.04-.19.04-.28.01l-13.61-4.43-22.6,14c-.06.04-.14.06-.21.06l-23.27.08-10.08,13.89Z"/>
        </g>
        <g>
          <polyline class="cls-5" points="68.91 29.18 99.29 28.86 96.31 52.89 66.99 60.65 56.41 53.79"/>
          <path class="cls-5" d="M66.99,61.05c-.08,0-.15-.02-.22-.06l-10.58-6.87c-.19-.12-.24-.37-.12-.55.12-.19.37-.24.55-.12l10.43,6.77,28.89-7.64,2.88-23.32-29.92.32h0c-.22,0-.4-.18-.4-.4,0-.22.17-.4.4-.4l30.37-.32c.1.02.23.05.3.13s.11.2.1.32l-2.97,24.04c-.02.16-.14.3-.29.34l-29.33,7.76s-.07.01-.1.01Z"/>
        </g>
        <polygon class="cls-2" points="98.92 39.74 97.3 50.47 68.52 55.11 55.87 55.11 72.79 46.53 83.65 44.16 98.92 39.74"/>
      </g>
    </g>
    <g>
      <polygon class="cls-5" points="94.05 50.37 80.22 49.62 67.63 55.11 55.87 55.11 48.9 55.11 98.48 55.11 98.92 39.74 98.92 39.74 96.51 39.99 94.05 50.37"/>
      <path class="cls-2" d="M98.48,55.51h-49.58c-.22,0-.4-.18-.4-.4s.18-.4.4-.4h18.65l12.51-5.46c.06-.03.12-.04.18-.03l13.49.74,2.39-10.06c.04-.17.18-.29.35-.31l2.41-.25c.11-.01.23.03.31.1.08.08.13.19.13.3l-.44,15.38c0,.22-.18.39-.4.39ZM69.55,54.71h28.54l.41-14.53-1.67.17-2.4,10.11c-.04.19-.22.33-.41.31l-13.73-.75-10.74,4.69Z"/>
      <g class="cls-6">
        <g>
          <polygon class="cls-9" points="99.76 35.09 85.47 45.47 89.91 32.81 81.65 38.85 65.15 44.61 82.12 25.56 92.55 26.32 102.02 31.19 99.76 35.09"/>
          <path class="cls-5" d="M85.47,45.87c-.08,0-.17-.03-.24-.08-.14-.1-.2-.29-.14-.45l4.01-11.44-7.21,5.28s-.07.04-.1.06l-16.51,5.75c-.17.06-.36,0-.46-.16-.1-.15-.09-.35.03-.49l16.97-19.04c.08-.09.2-.14.33-.13l10.44.76c.05,0,.11.02.15.04l9.47,4.87c.1.05.17.14.2.24.03.11.02.22-.04.31l-2.27,3.9s-.07.09-.11.12l-14.29,10.39c-.07.05-.15.08-.24.08ZM89.91,32.41c.08,0,.17.03.24.08.14.1.2.29.14.45l-4.01,11.45,13.18-9.58,2.01-3.46-9.02-4.64-10.16-.74-15.81,17.74,14.99-5.22,8.2-6.01c.07-.05.15-.08.24-.08ZM99.76,35.09h.01-.01Z"/>
        </g>
      </g>
    </g>
    <g>
      <line class="cls-5" x1="58.86" y1="57.36" x2="52.88" y2="57.36"/>
      <path class="cls-2" d="M58.86,57.76h-5.98c-.22,0-.4-.18-.4-.4s.18-.4.4-.4h5.98c.22,0,.4.18.4.4s-.18.4-.4.4Z"/>
    </g>
    <g>
      <line class="cls-2" x1="67.17" y1="55.11" x2="33.54" y2="55.11"/>
      <path class="cls-5" d="M67.17,55.51h-33.63c-.22,0-.4-.18-.4-.4s.18-.4.4-.4h33.63c.22,0,.4.18.4.4s-.18.4-.4.4Z"/>
    </g>
    <g>
      <g>
        <g>
          <line class="cls-5" x1="32.29" y1="13.15" x2="32.29" y2="20"/>
          <rect class="cls-2" x="31.89" y="12.75" width=".8" height="7.65"/>
        </g>
        <g>
          <line class="cls-5" x1="35.26" y1="18.29" x2="29.33" y2="14.87"/>
          <rect class="cls-2" x="31.89" y="12.75" width=".8" height="7.65" transform="translate(1.79 36.26) rotate(-60)"/>
        </g>
        <g>
          <line class="cls-5" x1="29.33" y1="18.29" x2="35.26" y2="14.87"/>
          <rect class="cls-2" x="28.47" y="16.18" width="7.65" height=".8" transform="translate(-3.96 18.36) rotate(-29.99)"/>
        </g>
        <g>
          <line class="cls-5" x1="32.29" y1="13.15" x2="32.29" y2="20"/>
          <rect class="cls-2" x="31.89" y="12.75" width=".8" height="7.65"/>
        </g>
      </g>
      <g>
        <g>
          <line class="cls-5" x1="65.51" y1="14.84" x2="65.51" y2="21.68"/>
          <rect class="cls-2" x="65.11" y="14.44" width=".8" height="7.65"/>
        </g>
        <g>
          <line class="cls-5" x1="68.48" y1="19.97" x2="62.55" y2="16.55"/>
          <rect class="cls-2" x="65.11" y="14.44" width=".8" height="7.65" transform="translate(16.94 65.87) rotate(-60)"/>
        </g>
        <g>
          <line class="cls-5" x1="62.55" y1="19.97" x2="68.48" y2="16.55"/>
          <rect class="cls-2" x="61.69" y="17.86" width="7.65" height=".8" transform="translate(-.36 35.19) rotate(-29.99)"/>
        </g>
        <g>
          <line class="cls-5" x1="65.51" y1="14.84" x2="65.51" y2="21.68"/>
          <rect class="cls-2" x="65.11" y="14.44" width=".8" height="7.65"/>
        </g>
      </g>
      <path class="cls-2" d="M45.98,55.45h-.8v-.4c0-2.75,2.54-4.09,5.01-5.38,2.35-1.23,4.58-2.4,4.58-4.67s-2.22-3.44-4.58-4.67c-2.46-1.29-5.01-2.63-5.01-5.38s2.54-4.09,5.01-5.38c2.35-1.23,4.58-2.4,4.58-4.67s-2.22-3.44-4.58-4.67c-2.46-1.29-5.01-2.63-5.01-5.38s2.54-4.09,5.01-5.38c2.35-1.24,4.58-2.4,4.58-4.67v-.4h.8v.4c0,2.76-2.54,4.09-5.01,5.38-2.35,1.24-4.58,2.4-4.58,4.67s2.22,3.44,4.58,4.67c2.46,1.29,5.01,2.63,5.01,5.38s-2.54,4.09-5.01,5.38c-2.35,1.23-4.58,2.4-4.58,4.67s2.22,3.44,4.58,4.67c2.46,1.29,5.01,2.62,5.01,5.38s-2.54,4.09-5.01,5.38c-2.35,1.23-4.58,2.4-4.58,4.67v.4Z"/>
      <path class="cls-2" d="M40.17,55.45h-.8v-.4c0-2.76,2.54-4.1,5.01-5.4,2.35-1.24,4.58-2.41,4.58-4.69s-2.22-3.46-4.58-4.7c-2.46-1.3-5.01-2.64-5.01-5.4s2.54-4.11,5.01-5.4c2.35-1.24,4.58-2.41,4.58-4.7v-.4h.8v.4c0,2.77-2.54,4.11-5.01,5.4-2.35,1.24-4.58,2.41-4.58,4.7s2.22,3.46,4.58,4.7c2.46,1.3,5,2.64,5,5.4s-2.54,4.1-5.01,5.4c-2.35,1.24-4.58,2.41-4.58,4.69v.4Z"/>
      <path class="cls-2" d="M51.64,55.45h-.8v-.4c0-2.76,2.54-4.1,5.01-5.4,2.35-1.24,4.58-2.41,4.58-4.69s-2.22-3.46-4.58-4.7c-2.46-1.3-5.01-2.64-5.01-5.4s2.54-4.11,5.01-5.4c2.35-1.24,4.58-2.41,4.58-4.7v-.4h.8v.4c0,2.77-2.54,4.11-5.01,5.4-2.35,1.24-4.58,2.41-4.58,4.7s2.22,3.46,4.58,4.7c2.46,1.3,5.01,2.64,5.01,5.4s-2.54,4.1-5.01,5.4c-2.35,1.24-4.58,2.41-4.58,4.69v.4Z"/>
      <path class="cls-2" d="M38.51,25.79c-1.18,0-2.14-.96-2.14-2.14s.96-2.14,2.14-2.14,2.14.96,2.14,2.14-.96,2.14-2.14,2.14ZM38.51,22.31c-.74,0-1.34.6-1.34,1.34s.6,1.34,1.34,1.34,1.34-.6,1.34-1.34-.6-1.34-1.34-1.34Z"/>
      <path class="cls-2" d="M41.78,11.84c-1.18,0-2.14-.96-2.14-2.14s.96-2.14,2.14-2.14,2.14.96,2.14,2.14-.96,2.14-2.14,2.14ZM41.78,8.37c-.74,0-1.34.6-1.34,1.34s.6,1.34,1.34,1.34,1.34-.6,1.34-1.34-.6-1.34-1.34-1.34Z"/>
      <path class="cls-2" d="M54.57,16.98c-1.18,0-2.14-.96-2.14-2.14s.96-2.14,2.14-2.14,2.14.96,2.14,2.14-.96,2.14-2.14,2.14ZM54.57,13.5c-.74,0-1.34.6-1.34,1.34s.6,1.34,1.34,1.34,1.34-.6,1.34-1.34-.6-1.34-1.34-1.34Z"/>
    </g>
  </g>
</svg>