<?xml version="1.0" encoding="UTF-8"?>
<svg id="region_illustration" data-name="region illustration" xmlns="http://www.w3.org/2000/svg" viewBox="0 0 120 80">
  <defs>
    <style>
      .cls-1 {
        fill: none;
      }

      .cls-1, .cls-2, .cls-3, .cls-4, .cls-5 {
        stroke: #231f20;
        stroke-linejoin: round;
        stroke-width: .8px;
      }

      .cls-1, .cls-2, .cls-3, .cls-5 {
        stroke-linecap: round;
      }

      .cls-6, .cls-5 {
        fill: #e0e0e0;
      }

      .cls-2 {
        fill: #f5f556;
      }

      .cls-7 {
        fill: #231f20;
      }

      .cls-3, .cls-4 {
        fill: #f5f5f3;
      }

      .cls-4 {
        stroke-linecap: square;
      }
    </style>
  </defs>
  <rect class="cls-5" x="8.11" y="44.64" width="94.89" height="29.85"/>
  <polygon class="cls-3" points="34.15 74.5 32.19 71.11 35.28 65.76 35.29 65.76 41.45 65.76 44.54 71.11 42.58 74.5 34.15 74.5"/>
  <polygon class="cls-3" points="32.21 60.41 26.03 60.41 22.95 65.76 26.03 71.11 32.21 71.11 35.29 65.76 32.21 60.41"/>
  <polyline class="cls-2" points="34.16 74.5 32.2 71.11 32.19 71.11 26.03 71.11 24.07 74.5 34.15 74.5"/>
  <polygon class="cls-3" points="50.75 60.41 44.57 60.41 41.49 65.76 44.57 71.11 50.75 71.11 53.83 65.76 50.75 60.41"/>
  <polyline class="cls-2" points="42.58 74.5 52.66 74.5 50.71 71.11 44.57 71.11 44.54 71.11 44.53 71.11 42.57 74.5"/>
  <polygon class="cls-3" points="26.02 71.11 24.06 74.5 15.63 74.5 13.67 71.11 16.76 65.76 22.93 65.76 26.02 71.11"/>
  <polygon class="cls-3" points="16.77 65.76 13.68 71.11 8.11 71.11 8.11 60.41 13.68 60.41 16.77 65.76"/>
  <polygon class="cls-2" points="15.6 74.5 8.11 74.5 8.11 71.11 13.65 71.11 15.6 74.5"/>
  <polygon class="cls-3" points="100.14 71.11 98.18 74.5 89.75 74.5 87.79 71.11 90.88 65.76 97.05 65.76 100.14 71.11"/>
  <polygon class="cls-3" points="87.81 60.41 81.63 60.41 78.54 65.76 81.63 71.11 87.81 71.11 90.89 65.76 87.81 60.41"/>
  <polyline class="cls-2" points="89.75 74.5 79.67 74.5 81.63 71.11 87.79 71.11 87.8 71.11 89.76 74.5"/>
  <polygon class="cls-3" points="103.11 60.41 103.11 71.11 100.17 71.11 97.08 65.76 100.17 60.41 103.11 60.41"/>
  <polygon class="cls-2" points="103.11 71.11 103.11 74.5 98.18 74.5 100.14 71.11 103.11 71.11"/>
  <polyline class="cls-3" points="61.12 74.5 63.08 71.11 59.99 65.76 53.83 65.76 53.82 65.76 50.73 71.11 52.69 74.5 61.11 74.5"/>
  <polygon class="cls-3" points="79.66 74.5 81.62 71.11 78.53 65.76 72.37 65.76 72.36 65.76 69.27 71.11 71.23 74.5 79.66 74.5"/>
  <polygon class="cls-3" points="69.29 60.41 63.11 60.41 60.03 65.76 63.11 71.11 69.29 71.11 72.37 65.76 69.29 60.41"/>
  <polyline class="cls-2" points="61.12 74.5 71.2 74.5 69.25 71.11 63.11 71.11 63.08 71.11 63.07 71.11 61.11 74.5"/>
  <polygon class="cls-5" points="58.59 36.38 43.68 44.64 23.18 44.64 41.86 29.32 51.88 32.02 58.59 36.38"/>
  <polygon class="cls-5" points="103.11 22.48 103.11 44.64 43.68 44.64 58.59 36.38 63.15 32.05 64.2 31.68 82.94 25.15 87.59 21.75 91.38 18.97 92.41 19.12 92.19 19.73 87.51 33.08 102.72 22.03 103.11 22.48"/>
  <rect class="cls-4" x="15.18" y="40.72" width="3.89" height="3.92"/>
  <path class="cls-7" d="M25,39.8l1.62,1.34h-13.78s0,.02,0,.02l-.02-.02h-5.2s1.61-1.34,1.61-1.34c.03-.03.06-.06.09-.08.62-.51,1.15-1.1,1.63-1.74l.81-1.06,1.82-2.42-2.38.77-.89.28-2.2.68-.5.16.34-.32,1.46-1.38.14-.13.19-.19c.41-.4.82-.8,1.2-1.23.9-1,1.7-2.09,2.4-3.25l1.04-1.72-.4.28c-.82.55-1.7.98-2.63,1.27-.89.29-1.83.44-2.78.46h0s-.06,0-.09,0l.03-.03,1.58-1.61.57-.57c.4-.4.78-.84,1.11-1.32.03-.03.05-.08.08-.12.1-.14.19-.3.29-.45l1.98-3.26c-1.06,1.06-2.3,1.93-3.68,2.55-.26.12-.52.22-.79.32l-1.39.51,1.33-1.67,1.56-1.97h0s.14-.19.14-.19h0s.06-.08.06-.08c1.06-1.33,1.83-2.89,2.24-4.55l3.53-13.97,3.53,13.97c.41,1.65,1.18,3.21,2.24,4.55l3.02,3.79.1.13-.15-.06-1.25-.46c-1.69-.62-3.21-1.6-4.47-2.87l1.98,3.26c.41.69.91,1.32,1.48,1.88l.47.48.63.65,1,1.02.06.06s-.06,0-.09,0c-.95-.03-1.88-.18-2.78-.46-.93-.3-1.81-.73-2.62-1.27l-.41-.28,1.04,1.72c.99,1.64,2.19,3.16,3.59,4.48l.69.65,1.38,1.3.06.06-.13-.04-1.97-.62-1.49-.46-2.38-.77,2.17,2.87.08.11.38.51c.4.54.84,1.02,1.33,1.48.13.11.25.23.39.34Z"/>
  <g>
    <g>
      <line class="cls-6" x1="29.55" y1="46.74" x2="29.55" y2="55.37"/>
      <line class="cls-1" x1="29.55" y1="46.74" x2="29.55" y2="55.37"/>
    </g>
    <g>
      <line class="cls-6" x1="33.29" y1="53.21" x2="25.81" y2="48.89"/>
      <line class="cls-1" x1="33.29" y1="53.21" x2="25.81" y2="48.89"/>
    </g>
    <g>
      <line class="cls-6" x1="25.81" y1="53.21" x2="33.29" y2="48.89"/>
      <line class="cls-1" x1="25.81" y1="53.21" x2="33.29" y2="48.89"/>
    </g>
    <g>
      <line class="cls-6" x1="29.55" y1="46.74" x2="29.55" y2="55.37"/>
      <line class="cls-1" x1="29.55" y1="46.74" x2="29.55" y2="55.37"/>
    </g>
  </g>
  <g>
    <g>
      <line class="cls-6" x1="66.54" y1="48.43" x2="66.54" y2="57.07"/>
      <line class="cls-1" x1="66.54" y1="48.43" x2="66.54" y2="57.07"/>
    </g>
    <g>
      <line class="cls-6" x1="70.28" y1="54.91" x2="62.8" y2="50.59"/>
      <line class="cls-1" x1="70.28" y1="54.91" x2="62.8" y2="50.59"/>
    </g>
    <g>
      <line class="cls-6" x1="62.8" y1="54.91" x2="70.28" y2="50.59"/>
      <line class="cls-1" x1="62.8" y1="54.91" x2="70.28" y2="50.59"/>
    </g>
    <g>
      <line class="cls-6" x1="66.54" y1="48.43" x2="66.54" y2="57.07"/>
      <line class="cls-1" x1="66.54" y1="48.43" x2="66.54" y2="57.07"/>
    </g>
  </g>
  <g>
    <g>
      <line class="cls-6" x1="85.17" y1="48.77" x2="85.17" y2="55.6"/>
      <line class="cls-1" x1="85.17" y1="48.77" x2="85.17" y2="55.6"/>
    </g>
    <g>
      <line class="cls-6" x1="88.13" y1="53.89" x2="82.22" y2="50.48"/>
      <line class="cls-1" x1="88.13" y1="53.89" x2="82.22" y2="50.48"/>
    </g>
    <g>
      <line class="cls-6" x1="82.22" y1="53.89" x2="88.13" y2="50.48"/>
      <line class="cls-1" x1="82.22" y1="53.89" x2="88.13" y2="50.48"/>
    </g>
    <g>
      <line class="cls-6" x1="85.17" y1="48.77" x2="85.17" y2="55.6"/>
      <line class="cls-1" x1="85.17" y1="48.77" x2="85.17" y2="55.6"/>
    </g>
  </g>
  <polygon class="cls-3" points="71.95 22.17 63.15 32.05 58.59 36.38 51.88 32.02 69.23 21.28 71.95 22.17"/>
  <polygon class="cls-5" points="78.07 24.16 64.3 31.52 64.2 31.68 63.15 32.05 71.95 22.17 78.07 24.16"/>
  <line class="cls-1" x1="55.62" y1="47.34" x2="48.45" y2="47.34"/>
  <line class="cls-5" x1="18.91" y1="47.69" x2="15.33" y2="47.69"/>
  <line class="cls-5" x1="19.56" y1="50.53" x2="12.4" y2="50.53"/>
  <line class="cls-1" x1="99.59" y1="49.71" x2="96.01" y2="49.71"/>
  <line class="cls-1" x1="46.03" y1="51.05" x2="38.86" y2="51.05"/>
  <polygon class="cls-3" points="102.72 22.03 87.51 33.08 92.19 19.73 92.41 19.12 92.96 19.2 98.41 17 102.72 22.03"/>
  <polygon class="cls-3" points="91.38 18.97 87.59 21.75 82.94 25.15 64.2 31.68 64.3 31.52 78.07 24.16 83.41 21.3 88.55 18.56 91.38 18.97"/>
</svg>