<?xml version="1.0" encoding="UTF-8"?>
<svg id="region_illustration" data-name="region illustration" xmlns="http://www.w3.org/2000/svg" xmlns:xlink="http://www.w3.org/1999/xlink" viewBox="0 0 120 80">
  <defs>
    <style>
      .cls-1 {
        clip-path: url(#clippath);
      }

      .cls-1, .cls-2 {
        fill: #231f20;
      }

      .cls-3 {
        fill: #efefef;
      }

      .cls-4 {
        clip-path: url(#clippath-1);
      }

      .cls-5 {
        fill: #fff;
      }
    </style>
    <clipPath id="clippath">
      <path class="cls-3" d="M7.07,67.21c-1.31,0,2.21-1.92,3.04-2.94l8.08-9.88c.84-1.02,2.02-1.7,3.32-1.91l22.62-3.62c.13-.02.25-.04.37-.07l12.87-3.01c1.15-.27,2.36-.15,3.44.34l7.61,3.43c1.49.67,3.21.63,4.66-.11l6.3-3.21c2.29-1.17,5.1-.55,6.69,1.47l1.88,2.39c.27.34.58.65.92.92l7.88,6.16c.92.72,1.59,1.72,1.89,2.85l1.63,6.11c.09.34-.17.68-.52.68"/>
    </clipPath>
    <clipPath id="clippath-1">
      <path class="cls-1" d="M7.07,67.61c-.45,0-.61-.2-.66-.37-.15-.47.31-.84,1.68-1.82.67-.48,1.42-1.03,1.72-1.39l8.08-9.88c.9-1.1,2.17-1.83,3.57-2.05l22.62-3.62c.12-.02.23-.04.35-.07l12.87-3.01c1.23-.29,2.55-.16,3.7.36l7.61,3.43c1.39.63,2.96.59,4.32-.1l6.3-3.21c2.46-1.25,5.48-.59,7.18,1.58l1.88,2.39c.25.32.53.6.85.85l7.88,6.16c.98.77,1.7,1.86,2.03,3.07l1.63,6.11c.08.28.02.58-.16.81-.18.23-.45.37-.74.37-.22,0-.4-.18-.4-.4s.18-.4.4-.4c.06,0,.09-.03.11-.05s.04-.06.02-.12l-1.63-6.11c-.28-1.04-.9-1.98-1.75-2.64l-7.88-6.16c-.37-.29-.7-.62-.99-.98l-1.88-2.39c-1.47-1.87-4.07-2.44-6.19-1.36l-6.3,3.21c-1.57.8-3.4.84-5.01.12l-7.61-3.43c-.99-.45-2.13-.56-3.19-.31l-12.87,3.01c-.13.03-.27.06-.4.08l-22.62,3.62c-1.21.19-2.3.82-3.08,1.77l-8.08,9.88c-.36.44-1.13,1-1.87,1.53-.41.29-.92.67-1.2.92.05.07.08.14.08.23,0,.22-.14.4-.36.4Z"/>
    </clipPath>
  </defs>
  <g id="coral">
    <g>
      <g>
        <rect class="cls-2" x="6.35" y="66.9" width="108.24" height="2.77"/>
        <path class="cls-2" d="M114.59,70.07H6.35c-.22,0-.4-.18-.4-.4v-2.77c0-.22.18-.4.4-.4h108.24c.22,0,.4.18.4.4v2.77c0,.22-.18.4-.4.4ZM6.75,69.27h107.44v-1.97H6.75v1.97Z"/>
      </g>
      <g>
        <path class="cls-3" d="M23.51,66.81l-12.01-15.86c-1.01-1.33-2.84-1.73-4.31-.94h0c-1.58.85-2.23,2.78-1.47,4.41l2.02,4.37c.34.73.4,1.56.19,2.33l-1.72,6.19,17.3-.5Z"/>
        <path class="cls-2" d="M6.21,67.71c-.12,0-.24-.06-.31-.15-.08-.1-.1-.23-.07-.35l1.72-6.19c.19-.68.13-1.41-.17-2.05l-2.02-4.37c-.84-1.82-.12-3.98,1.65-4.93,1.66-.89,3.68-.45,4.81,1.05l12.01,15.86c.09.12.11.28.04.41s-.2.22-.35.23l-17.3.5h-.01ZM8.81,50c-.48,0-.97.12-1.42.36-1.39.75-1.96,2.46-1.3,3.89l2.02,4.37c.38.81.45,1.74.21,2.6l-1.58,5.67,15.99-.46-11.54-15.24c-.58-.77-1.47-1.19-2.38-1.19Z"/>
      </g>
      <g>
        <path class="cls-5" d="M55.34,47.56v-6.27s-8.18-8.38-8.18-8.38c-.42-.43-.48-1.1-.13-1.59l.73-1.05c.4-.58,1.21-.72,1.78-.3l2.77,2.03c.97.71,2.3-.22,1.95-1.38l-2.88-9.61c-.24-.81.36-1.62,1.21-1.62h.72c.54,0,1.01.34,1.19.85l2.57,7.45c.43,1.25,2.25,1.07,2.44-.23l2.31-16.33c.09-.62.62-1.08,1.25-1.08h1.12c.76,0,1.35.67,1.25,1.43l-2.12,15.79c-.17,1.29,1.49,1.96,2.26.91l4.23-5.8c.44-.61,1.32-.69,1.88-.18l1.57,1.47c.46.43.53,1.15.16,1.66l-5.75,7.9c-.47.64-.23,1.55.49,1.88l1.12.52c.29.13.62.15.93.05l11.56-3.85c.81-.27,1.66.33,1.66,1.19v2.61c0,.64-.48,1.17-1.11,1.25l-13.18,1.57c-.59.07-1.04.54-1.1,1.12h0c-.07.7.45,1.32,1.15,1.38l8.68.69c.77.06,1.3.79,1.13,1.54l-.11.48c-.14.61-.71,1.03-1.34.97l-11.92-1.08c-.94-.09-1.63.85-1.28,1.72l.74,1.84c.33.83-.28,1.73-1.17,1.73h-7.29c-.69,0-1.26-.56-1.26-1.26Z"/>
        <path class="cls-2" d="M63.89,49.22h-7.29c-.91,0-1.66-.74-1.66-1.66v-6.11l-8.06-8.27c-.55-.57-.63-1.45-.18-2.1l.73-1.05c.26-.37.64-.62,1.09-.69.45-.07.89.03,1.26.3l2.77,2.03c.37.27.76.18,1,0,.24-.17.46-.51.33-.95l-2.88-9.61c-.15-.51-.06-1.04.26-1.47s.8-.67,1.33-.67h.72c.71,0,1.34.45,1.57,1.12l2.57,7.45c.16.47.57.61.89.57.33-.03.7-.24.77-.73l2.31-16.33c.12-.81.82-1.43,1.64-1.43h1.12c.48,0,.93.21,1.25.57s.46.84.4,1.31l-2.12,15.79c-.07.49.23.79.53.91.3.12.72.11,1.01-.29l4.23-5.8c.28-.38.71-.63,1.18-.67.47-.04.94.12,1.29.44l1.57,1.47c.61.57.7,1.51.21,2.19l-5.75,7.9c-.15.21-.2.47-.14.72.07.25.24.45.47.56l1.12.52c.2.09.42.11.63.04l11.56-3.85c.51-.17,1.06-.09,1.49.23s.69.81.69,1.35v2.61c0,.84-.63,1.55-1.46,1.65l-13.18,1.57c-.4.05-.71.36-.75.77-.02.23.05.46.2.64.15.18.36.29.59.31l8.68.69c.48.04.92.28,1.21.67.29.39.39.88.28,1.35l-.11.48c-.19.8-.95,1.35-1.77,1.28l-11.92-1.08c-.3-.03-.59.1-.77.34-.18.24-.22.55-.11.83l.74,1.84c.2.51.14,1.09-.17,1.55-.31.46-.82.73-1.37.73ZM48.8,30.12s-.1,0-.14.01c-.23.04-.43.17-.56.36l-.73,1.05c-.23.34-.19.79.09,1.09l8.18,8.39c.07.07.11.17.11.28v6.27c0,.47.39.86.86.86h7.29c.29,0,.55-.14.71-.38.16-.24.19-.53.09-.8l-.74-1.84c-.22-.54-.14-1.14.21-1.61.35-.47.9-.71,1.48-.66l11.92,1.08c.43.04.82-.25.91-.66l.11-.48c.06-.24,0-.5-.14-.7-.15-.2-.38-.33-.62-.35l-8.68-.69c-.45-.04-.85-.25-1.14-.59-.29-.35-.42-.78-.38-1.23.08-.78.68-1.39,1.45-1.48l13.18-1.57c.43-.05.76-.42.76-.85v-2.61c0-.28-.13-.53-.36-.7s-.51-.21-.77-.12l-11.56,3.85c-.4.13-.83.11-1.22-.07l-1.12-.52c-.45-.21-.78-.61-.91-1.09-.13-.48-.03-.99.26-1.39l5.75-7.9c.25-.35.21-.84-.11-1.13l-1.57-1.47c-.18-.17-.42-.25-.67-.23-.24.02-.47.15-.61.35l-4.23,5.8c-.45.62-1.24.85-1.96.56-.72-.29-1.13-.99-1.03-1.76l2.12-15.79c.03-.25-.04-.49-.2-.68-.16-.19-.4-.29-.65-.29h-1.12c-.42,0-.79.32-.85.74l-2.31,16.33c-.11.77-.71,1.34-1.48,1.42-.78.07-1.47-.37-1.73-1.11l-2.57-7.45c-.12-.35-.45-.58-.81-.58h-.72c-.27,0-.53.13-.69.35-.16.22-.21.5-.13.76l2.88,9.61c.21.69-.04,1.41-.63,1.83-.59.42-1.35.41-1.94-.02l-2.77-2.03c-.15-.11-.32-.17-.51-.17Z"/>
      </g>
      <g>
        <path class="cls-3" d="M84.03,45.25l2.89-6.51c.25-.57.81-.93,1.43-.93h.83c.87,0,1.57.7,1.57,1.57v1.51c0,1.13,1.16,1.89,2.19,1.44l6.88-2.99c.79-.34,1.7.01,2.06.79l.92,2.05c.29.65.11,1.41-.44,1.86l-3.51,2.87c-.6.49-.75,1.34-.36,2.01l1.81,3.11c.4.69.22,1.57-.42,2.05l-4.21,3.14c-.38.28-.61.72-.63,1.2h0c-.06,1.53-2.06,2.08-2.89.79l-8.03-12.46c-.29-.44-.33-1-.12-1.49Z"/>
        <path class="cls-2" d="M93.48,60.32c-.65,0-1.26-.33-1.64-.91l-8.03-12.46c-.36-.56-.41-1.26-.14-1.87l2.89-6.51c.32-.71,1.02-1.17,1.8-1.17h.83c1.09,0,1.97.88,1.97,1.97v1.51c0,.4.19.76.53.98.34.22.74.25,1.11.09l6.88-2.99c.98-.43,2.14.02,2.58,1l.92,2.05c.36.81.14,1.77-.55,2.33l-3.51,2.87c-.45.37-.56.99-.27,1.49l1.81,3.11c.51.87.28,1.97-.52,2.57l-4.21,3.14c-.28.21-.46.54-.47.89-.04.88-.6,1.59-1.45,1.82-.18.05-.36.07-.54.07ZM88.36,38.21c-.46,0-.88.27-1.07.69l-2.89,6.51h0c-.16.36-.13.78.09,1.11l8.03,12.46c.34.53.89.6,1.29.49.4-.11.84-.45.86-1.08.02-.6.31-1.14.79-1.5l4.21-3.14c.48-.36.61-1.01.31-1.53l-1.81-3.11c-.49-.84-.3-1.9.45-2.52l3.51-2.87c.41-.33.54-.9.33-1.38l-.92-2.05c-.26-.58-.95-.85-1.53-.59l-6.88,2.99c-.61.27-1.31.21-1.86-.16-.56-.37-.89-.98-.89-1.65v-1.51c0-.64-.52-1.17-1.17-1.17h-.83ZM84.03,45.25h.01-.01Z"/>
      </g>
      <g>
        <path class="cls-3" d="M92.84,60.73l3.98-10.99c.32-.88,1.29-1.32,2.17-.99l2.13.81c.65.25,1.08.87,1.08,1.56v2.95c0,1.35,1.52,2.14,2.62,1.37h0c1.11-.77,2.62.02,2.62,1.37v4.11c0,.29-.08.58-.22.83l-2.72,4.71c-.3.52-.85.84-1.45.84h-6.64c-.65,0-1.24-.38-1.52-.97l-2-4.34c-.18-.4-.2-.86-.05-1.27Z"/>
        <path class="cls-2" d="M103.05,67.71h-6.64c-.8,0-1.54-.47-1.88-1.2l-2-4.34c-.23-.5-.25-1.06-.07-1.57l3.98-10.99c.19-.53.58-.94,1.08-1.18.51-.23,1.08-.25,1.6-.05l2.13.81c.8.3,1.33,1.08,1.33,1.94v2.95c0,.48.25.9.68,1.13.43.22.92.19,1.31-.08.64-.44,1.46-.49,2.14-.14s1.11,1.06,1.11,1.83v4.11c0,.36-.1.72-.28,1.03l-2.72,4.71c-.37.64-1.06,1.04-1.79,1.04ZM98.39,49.04c-.18,0-.36.04-.53.12-.31.14-.55.4-.67.72l-3.98,10.99h0c-.11.32-.1.66.04.96l2,4.34c.21.45.66.74,1.15.74h6.64c.45,0,.87-.24,1.1-.64l2.72-4.71c.11-.19.17-.41.17-.64v-4.11c0-.48-.25-.9-.68-1.13-.43-.22-.92-.19-1.31.08-.64.44-1.46.49-2.14.14-.69-.36-1.11-1.06-1.11-1.83v-2.95c0-.52-.33-1-.82-1.19l-2.13-.81c-.15-.06-.3-.08-.45-.08ZM92.84,60.73h.01-.01Z"/>
      </g>
      <path class="cls-2" d="M47.77,64.66c-.19,0-.36-.13-.39-.33l-5.12-27.31c-.04-.22.1-.43.32-.47.22-.04.43.1.47.32l5.12,27.31c.04.22-.1.43-.32.47-.02,0-.05,0-.07,0Z"/>
      <path class="cls-2" d="M47.77,64.66c-.21,0-.39-.17-.4-.39l-.96-26.45c0-.22.16-.41.39-.41.22,0,.41.16.41.39l.96,26.45c0,.22-.16.41-.39.41h-.01Z"/>
      <path class="cls-2" d="M47.77,64.66c-.16,0-.32-.1-.38-.27l-8.5-24.12c-.07-.21.04-.44.24-.51.21-.07.44.04.51.24l8.5,24.12c.07.21-.04.44-.24.51-.04.02-.09.02-.13.02Z"/>
      <g>
        <path class="cls-3" d="M7.07,67.21c-1.31,0,2.21-1.92,3.04-2.94l8.08-9.88c.84-1.02,2.02-1.7,3.32-1.91l22.62-3.62c.13-.02.25-.04.37-.07l12.87-3.01c1.15-.27,2.36-.15,3.44.34l7.61,3.43c1.49.67,3.21.63,4.66-.11l6.3-3.21c2.29-1.17,5.1-.55,6.69,1.47l1.88,2.39c.27.34.58.65.92.92l7.88,6.16c.92.72,1.59,1.72,1.89,2.85l1.63,6.11c.09.34-.17.68-.52.68"/>
        <path class="cls-2" d="M7.07,67.61c-.45,0-.61-.2-.66-.37-.15-.47.31-.84,1.68-1.82.67-.48,1.42-1.03,1.72-1.39l8.08-9.88c.9-1.1,2.17-1.83,3.57-2.05l22.62-3.62c.12-.02.23-.04.35-.07l12.87-3.01c1.23-.29,2.55-.16,3.7.36l7.61,3.43c1.39.63,2.96.59,4.32-.1l6.3-3.21c2.46-1.25,5.48-.59,7.18,1.58l1.88,2.39c.25.32.53.6.85.85l7.88,6.16c.98.77,1.7,1.86,2.03,3.07l1.63,6.11c.08.28.02.58-.16.81-.18.23-.45.37-.74.37-.22,0-.4-.18-.4-.4s.18-.4.4-.4c.06,0,.09-.03.11-.05s.04-.06.02-.12l-1.63-6.11c-.28-1.04-.9-1.98-1.75-2.64l-7.88-6.16c-.37-.29-.7-.62-.99-.98l-1.88-2.39c-1.47-1.87-4.07-2.44-6.19-1.36l-6.3,3.21c-1.57.8-3.4.84-5.01.12l-7.61-3.43c-.99-.45-2.13-.56-3.19-.31l-12.87,3.01c-.13.03-.27.06-.4.08l-22.62,3.62c-1.21.19-2.3.82-3.08,1.77l-8.08,9.88c-.36.44-1.13,1-1.87,1.53-.41.29-.92.67-1.2.92.05.07.08.14.08.23,0,.22-.14.4-.36.4Z"/>
        <g class="cls-4">
          <g>
            <g>
              <line class="cls-3" x1="80.85" y1="55.51" x2="85.97" y2="82.82"/>
              <path class="cls-2" d="M85.97,83.22c-.19,0-.36-.13-.39-.33l-5.12-27.31c-.04-.22.1-.43.32-.47.22-.04.43.1.47.32l5.12,27.31c.04.22-.1.43-.32.47-.02,0-.05,0-.07,0Z"/>
            </g>
            <g>
              <line class="cls-3" x1="85.67" y1="55.46" x2="81.14" y2="82.88"/>
              <path class="cls-2" d="M81.14,83.28s-.04,0-.07,0c-.22-.04-.37-.24-.33-.46l4.53-27.41c.04-.22.24-.37.46-.33.22.04.37.24.33.46l-4.53,27.41c-.03.2-.2.33-.39.33Z"/>
            </g>
            <g>
              <line class="cls-3" x1="90.22" y1="57.06" x2="76.59" y2="81.27"/>
              <path class="cls-2" d="M76.59,81.67c-.07,0-.13-.02-.2-.05-.19-.11-.26-.35-.15-.54l13.63-24.21c.11-.19.35-.26.54-.15.19.11.26.35.15.54l-13.63,24.21c-.07.13-.21.2-.35.2Z"/>
            </g>
            <g>
              <line class="cls-3" x1="93.95" y1="60.12" x2="72.86" y2="78.21"/>
              <path class="cls-2" d="M72.86,78.61c-.11,0-.22-.05-.3-.14-.14-.17-.12-.42.04-.56l21.09-18.09c.17-.14.42-.12.56.04.14.17.12.42-.04.56l-21.09,18.09c-.08.06-.17.1-.26.1Z"/>
            </g>
            <g>
              <line class="cls-3" x1="96.41" y1="64.28" x2="70.41" y2="74.06"/>
              <path class="cls-2" d="M70.41,74.46c-.16,0-.31-.1-.37-.26-.08-.21.03-.44.23-.52l26.01-9.78c.21-.08.44.03.52.23.08.21-.03.44-.23.52l-26.01,9.78s-.09.03-.14.03Z"/>
            </g>
            <g>
              <line class="cls-3" x1="97.3" y1="69.02" x2="69.52" y2="69.32"/>
              <path class="cls-2" d="M69.52,69.72c-.22,0-.4-.18-.4-.4,0-.22.17-.4.4-.4l27.78-.3c.22-.03.4.17.4.4,0,.22-.17.4-.4.4l-27.78.3h0Z"/>
            </g>
            <g>
              <line class="cls-3" x1="96.51" y1="73.78" x2="70.3" y2="64.56"/>
              <path class="cls-2" d="M96.51,74.18s-.09,0-.13-.02l-26.21-9.22c-.21-.07-.32-.3-.24-.51s.3-.32.51-.24l26.21,9.22c.21.07.32.3.24.51-.06.16-.21.27-.38.27Z"/>
            </g>
            <g>
              <line class="cls-3" x1="94.15" y1="77.98" x2="72.67" y2="60.35"/>
              <path class="cls-2" d="M94.15,78.38c-.09,0-.18-.03-.25-.09l-21.48-17.63c-.17-.14-.2-.39-.06-.56.14-.17.39-.2.56-.06l21.48,17.63c.17.14.2.39.06.56-.08.1-.19.15-.31.15Z"/>
            </g>
            <g>
              <line class="cls-3" x1="90.48" y1="81.12" x2="76.33" y2="57.21"/>
              <path class="cls-2" d="M90.48,81.52c-.14,0-.27-.07-.34-.2l-14.15-23.91c-.11-.19-.05-.44.14-.55.19-.11.44-.05.55.14l14.15,23.91c.11.19.05.44-.14.55-.06.04-.13.06-.2.06Z"/>
            </g>
            <g>
              <line class="cls-3" x1="85.97" y1="82.82" x2="80.85" y2="55.51"/>
              <path class="cls-2" d="M85.97,83.22c-.19,0-.36-.13-.39-.33l-5.12-27.31c-.04-.22.1-.43.32-.47.22-.04.43.1.47.32l5.12,27.31c.04.22-.1.43-.32.47-.02,0-.05,0-.07,0Z"/>
            </g>
            <g>
              <line class="cls-3" x1="81.14" y1="82.88" x2="85.67" y2="55.46"/>
              <path class="cls-2" d="M81.14,83.28s-.04,0-.07,0c-.22-.04-.37-.24-.33-.46l4.53-27.41c.04-.22.24-.37.46-.33.22.04.37.24.33.46l-4.53,27.41c-.03.2-.2.33-.39.33Z"/>
            </g>
            <g>
              <line class="cls-3" x1="76.59" y1="81.27" x2="90.22" y2="57.06"/>
              <path class="cls-2" d="M76.59,81.67c-.07,0-.13-.02-.2-.05-.19-.11-.26-.35-.15-.54l13.63-24.21c.11-.19.35-.26.54-.15.19.11.26.35.15.54l-13.63,24.21c-.07.13-.21.2-.35.2Z"/>
            </g>
            <g>
              <line class="cls-3" x1="72.86" y1="78.21" x2="93.95" y2="60.12"/>
              <path class="cls-2" d="M72.86,78.61c-.11,0-.22-.05-.3-.14-.14-.17-.12-.42.04-.56l21.09-18.09c.17-.14.42-.12.56.04.14.17.12.42-.04.56l-21.09,18.09c-.08.06-.17.1-.26.1Z"/>
            </g>
            <g>
              <line class="cls-3" x1="70.41" y1="74.06" x2="96.41" y2="64.28"/>
              <path class="cls-2" d="M70.41,74.46c-.16,0-.31-.1-.37-.26-.08-.21.03-.44.23-.52l26.01-9.78c.21-.08.44.03.52.23.08.21-.03.44-.23.52l-26.01,9.78s-.09.03-.14.03Z"/>
            </g>
            <g>
              <line class="cls-3" x1="69.52" y1="69.32" x2="97.3" y2="69.02"/>
              <path class="cls-2" d="M69.52,69.72c-.22,0-.4-.18-.4-.4,0-.22.17-.4.4-.4l27.78-.3c.22-.03.4.17.4.4,0,.22-.17.4-.4.4l-27.78.3h0Z"/>
            </g>
            <g>
              <line class="cls-3" x1="70.3" y1="64.56" x2="96.51" y2="73.78"/>
              <path class="cls-2" d="M96.51,74.18s-.09,0-.13-.02l-26.21-9.22c-.21-.07-.32-.3-.24-.51s.3-.32.51-.24l26.21,9.22c.21.07.32.3.24.51-.06.16-.21.27-.38.27Z"/>
            </g>
            <g>
              <line class="cls-3" x1="72.67" y1="60.35" x2="94.15" y2="77.98"/>
              <path class="cls-2" d="M94.15,78.38c-.09,0-.18-.03-.25-.09l-21.48-17.63c-.17-.14-.2-.39-.06-.56.14-.17.39-.2.56-.06l21.48,17.63c.17.14.2.39.06.56-.08.1-.19.15-.31.15Z"/>
            </g>
            <g>
              <line class="cls-3" x1="76.33" y1="57.21" x2="90.48" y2="81.12"/>
              <path class="cls-2" d="M90.48,81.52c-.14,0-.27-.07-.34-.2l-14.15-23.91c-.11-.19-.05-.44.14-.55.19-.11.44-.05.55.14l14.15,23.91c.11.19.05.44-.14.55-.06.04-.13.06-.2.06Z"/>
            </g>
            <g>
              <line class="cls-3" x1="80.85" y1="55.51" x2="85.97" y2="82.82"/>
              <path class="cls-2" d="M85.97,83.22c-.19,0-.36-.13-.39-.33l-5.12-27.31c-.04-.22.1-.43.32-.47.22-.04.43.1.47.32l5.12,27.31c.04.22-.1.43-.32.47-.02,0-.05,0-.07,0Z"/>
            </g>
          </g>
        </g>
      </g>
      <g>
        <circle class="cls-3" cx="32.68" cy="48.82" r="5.48" transform="translate(-8.12 6.55) rotate(-10.19)"/>
        <path class="cls-2" d="M32.68,54.7c-3.24,0-5.88-2.64-5.88-5.88s2.64-5.88,5.88-5.88,5.88,2.64,5.88,5.88-2.64,5.88-5.88,5.88ZM32.68,43.75c-2.8,0-5.08,2.28-5.08,5.08s2.28,5.08,5.08,5.08,5.08-2.28,5.08-5.08-2.28-5.08-5.08-5.08Z"/>
      </g>
      <g>
        <circle class="cls-3" cx="25.38" cy="46.04" r="5.48" transform="translate(-7.74 5.21) rotate(-10.19)"/>
        <path class="cls-2" d="M25.38,51.92c-3.24,0-5.88-2.64-5.88-5.88s2.64-5.88,5.88-5.88,5.88,2.64,5.88,5.88-2.64,5.88-5.88,5.88ZM25.38,40.97c-2.8,0-5.08,2.28-5.08,5.08s2.28,5.08,5.08,5.08,5.08-2.28,5.08-5.08-2.28-5.08-5.08-5.08Z"/>
      </g>
      <g>
        <circle class="cls-3" cx="18.04" cy="51.52" r="5.48" transform="translate(-8.83 4) rotate(-10.19)"/>
        <path class="cls-2" d="M18.04,57.4c-3.24,0-5.88-2.64-5.88-5.88s2.64-5.88,5.88-5.88,5.88,2.64,5.88,5.88-2.64,5.88-5.88,5.88ZM18.04,46.44c-2.8,0-5.08,2.28-5.08,5.08s2.28,5.08,5.08,5.08,5.08-2.28,5.08-5.08-2.28-5.08-5.08-5.08Z"/>
      </g>
      <g>
        <circle class="cls-3" cx="37.01" cy="56.08" r="5.48" transform="translate(-9.33 7.43) rotate(-10.19)"/>
        <path class="cls-2" d="M37.01,61.96c-3.24,0-5.88-2.64-5.88-5.88s2.64-5.88,5.88-5.88,5.88,2.64,5.88,5.88-2.64,5.88-5.88,5.88ZM37.01,51.01c-2.8,0-5.08,2.28-5.08,5.08s2.28,5.08,5.08,5.08,5.08-2.28,5.08-5.08-2.28-5.08-5.08-5.08Z"/>
      </g>
      <g>
        <circle class="cls-3" cx="27.2" cy="56.08" r="5.48" transform="translate(-9.49 5.69) rotate(-10.19)"/>
        <path class="cls-2" d="M27.2,61.96c-3.24,0-5.88-2.64-5.88-5.88s2.64-5.88,5.88-5.88,5.88,2.64,5.88,5.88-2.64,5.88-5.88,5.88ZM27.2,51.01c-2.8,0-5.08,2.28-5.08,5.08s2.28,5.08,5.08,5.08,5.08-2.28,5.08-5.08-2.28-5.08-5.08-5.08Z"/>
      </g>
      <path class="cls-2" d="M103.78,67.71H6.21c-.22,0-.4-.18-.4-.4s.18-.4.4-.4h97.58c.22,0,.4.18.4.4s-.18.4-.4.4Z"/>
      <g>
        <g>
          <path class="cls-5" d="M21.26,29.52l-.31,1.92c-.03.2.14.38.35.35,1.6-.24,2.67-1.16,3.23-2.28h0"/>
          <path class="cls-2" d="M21.25,32.2c-.19,0-.37-.07-.5-.21-.16-.16-.23-.39-.2-.61l.31-1.92c.04-.22.24-.37.46-.33.22.04.37.24.33.46l-.29,1.79c1.27-.23,2.26-.95,2.8-2.04.1-.2.34-.29.54-.19.2.1.28.33.19.53-.69,1.39-1.94,2.27-3.54,2.52-.03,0-.07,0-.1,0Z"/>
        </g>
        <g>
          <path class="cls-5" d="M15.21,26.57l-.14,1.52c-.1,1.06.78,1.95,1.84,1.86l5.06-.43-6.76-2.95Z"/>
          <path class="cls-2" d="M16.77,30.35c-.56,0-1.1-.22-1.49-.62-.44-.44-.66-1.06-.6-1.68l.14-1.52c.01-.13.08-.24.19-.31.11-.07.25-.07.36-.02l6.76,2.95c.17.07.26.25.23.43s-.18.32-.36.33l-5.06.43c-.06,0-.12,0-.18,0ZM15.55,27.15l-.09.97c-.04.39.1.77.37,1.04.27.28.65.41,1.04.38l3.49-.29-4.81-2.1Z"/>
        </g>
        <g>
          <path class="cls-5" d="M15.19,24l-.13-1.46c-.09-1.06.78-1.95,1.84-1.89l5.01.29-6.72,3.05Z"/>
          <path class="cls-2" d="M15.19,24.4c-.07,0-.14-.02-.2-.05-.11-.07-.19-.18-.2-.31l-.13-1.46c-.05-.62.16-1.23.6-1.68.43-.45,1.04-.68,1.66-.64l5.01.29c.18.01.34.15.37.33.03.18-.06.36-.23.44l-6.72,3.05c-.05.02-.11.04-.17.04ZM16.8,21.05c-.36,0-.71.15-.96.41-.27.28-.41.66-.37,1.05l.08.89,4.73-2.15-3.39-.2s-.05,0-.08,0Z"/>
        </g>
        <g>
          <path class="cls-5" d="M8.07,28.9l5.78-1.96c.85-.23,1.77-.06,2.48.48h0c1.82,1.38,4.04,2.12,6.31,2.1h.19c3.26-.03,6.37-1.34,8.66-3.65l.13-.13c.12-.12.13-.32.02-.46l-.06-.07c-1.18-1.37-2.63-2.44-4.24-3.16-1.73-.78-3.65-1.17-5.6-1.09-1.89.08-3.72.72-5.3,1.77-.79.52-1.78.63-2.66.27l-5.77-2.1,2.68,3.98-2.62,4.02Z"/>
          <path class="cls-2" d="M22.57,29.92c-2.33,0-4.62-.77-6.48-2.18-.61-.46-1.41-.62-2.14-.42l-5.75,1.96c-.16.05-.34,0-.44-.13-.1-.13-.11-.32-.02-.46l2.47-3.8-2.53-3.76c-.1-.14-.09-.33.02-.47.11-.14.29-.19.45-.13l5.77,2.1c.77.31,1.62.22,2.3-.23,1.68-1.12,3.58-1.75,5.5-1.83,1.98-.08,3.98.3,5.78,1.12,1.69.76,3.16,1.86,4.38,3.27.31.36.3.8.03,1.07l-.13.13c-2.38,2.4-5.56,3.74-8.94,3.77h-.18s-.05,0-.08,0ZM14.6,26.44c.71,0,1.4.23,1.97.66,1.74,1.32,3.9,2.02,6.08,2.02h.18c3.17-.03,6.15-1.28,8.38-3.53l.13-.13c-1.2-1.3-2.58-2.33-4.17-3.05-1.69-.76-3.56-1.13-5.42-1.05-1.78.07-3.54.66-5.09,1.7-.9.6-2.03.72-3.03.31l-4.6-1.67,1.99,2.96c.09.13.09.31,0,.44l-1.99,3.05,4.68-1.59c.29-.08.59-.12.88-.12Z"/>
        </g>
        <path class="cls-2" d="M26.81,25.19c0,.53.44.96.97.95.53,0,.96-.44.95-.97,0-.53-.44-.96-.97-.95-.53,0-.96.44-.95.97"/>
        <g>
          <path class="cls-5" d="M24.05,24.74l-4.94-.13c-.85.39-.77,1.62.12,1.9l.19.06,4.62-1.84Z"/>
          <path class="cls-2" d="M19.42,26.97s-.08,0-.12-.02l-.19-.06c-.56-.18-.95-.67-.99-1.26-.04-.59.28-1.13.82-1.38.06-.03.12-.03.18-.04l4.94.13c.19,0,.35.14.38.33.03.19-.07.37-.25.44l-4.62,1.84s-.1.03-.15.03ZM19.2,25.01c-.29.18-.29.47-.28.56,0,.1.06.43.43.55l.06.02,2.67-1.06-2.88-.07Z"/>
        </g>
      </g>
      <g>
        <g>
          <path class="cls-5" d="M99.34,27.51l-.31,1.92c-.03.2.14.38.35.35,1.6-.24,2.67-1.16,3.23-2.28h0"/>
          <path class="cls-2" d="M99.33,30.19c-.19,0-.37-.07-.5-.21-.16-.16-.23-.39-.2-.61l.31-1.92c.04-.22.24-.36.46-.33.22.04.37.24.33.46l-.29,1.79c1.27-.23,2.26-.95,2.8-2.04l.72.34c-.69,1.38-1.94,2.27-3.54,2.51-.03,0-.07,0-.1,0Z"/>
        </g>
        <g>
          <path class="cls-5" d="M93.29,24.56l-.14,1.52c-.1,1.06.78,1.95,1.84,1.86l5.06-.43-6.76-2.95Z"/>
          <path class="cls-2" d="M94.85,28.34c-.56,0-1.1-.22-1.49-.62-.44-.44-.66-1.06-.6-1.68l.14-1.52c.01-.13.08-.24.19-.31.11-.07.25-.07.36-.02l6.76,2.95c.17.07.26.25.23.43s-.18.32-.36.33l-5.06.43c-.06,0-.12,0-.18,0ZM93.64,25.14l-.09.97c-.04.39.1.77.37,1.04.27.28.65.41,1.04.38l3.49-.29-4.81-2.1Z"/>
        </g>
        <g>
          <path class="cls-5" d="M93.27,21.99l-.13-1.46c-.09-1.06.78-1.95,1.84-1.89l5.01.29-6.72,3.05Z"/>
          <path class="cls-2" d="M93.27,22.39c-.07,0-.14-.02-.2-.05-.11-.07-.19-.18-.2-.31l-.13-1.46c-.05-.62.16-1.23.6-1.68.43-.45,1.04-.68,1.66-.64l5.01.29c.18.01.34.15.37.33.03.18-.06.36-.23.44l-6.72,3.05c-.05.02-.11.04-.17.04ZM94.88,19.04c-.36,0-.71.15-.96.41-.27.28-.41.66-.38,1.05l.08.89,4.73-2.15-3.39-.2s-.05,0-.08,0Z"/>
        </g>
        <g>
          <path class="cls-5" d="M86.16,26.89l5.78-1.96c.85-.23,1.77-.06,2.48.48h0c1.82,1.38,4.04,2.12,6.31,2.1h.19c3.26-.03,6.37-1.34,8.66-3.65l.13-.13c.12-.12.13-.32.02-.46l-.06-.07c-1.18-1.37-2.63-2.44-4.24-3.16-1.73-.78-3.65-1.17-5.6-1.09-1.89.08-3.72.72-5.3,1.77-.79.52-1.78.63-2.66.27l-5.77-2.1,2.68,3.98-2.62,4.02Z"/>
          <path class="cls-2" d="M100.66,27.9c-2.33,0-4.62-.77-6.48-2.18-.61-.46-1.41-.62-2.14-.42l-5.75,1.96c-.16.05-.34,0-.44-.13-.1-.13-.11-.32-.02-.46l2.47-3.8-2.53-3.76c-.1-.14-.09-.33.02-.47.11-.14.29-.19.45-.13l5.77,2.1c.77.31,1.62.22,2.3-.23,1.68-1.12,3.58-1.75,5.5-1.83,1.98-.09,3.98.3,5.78,1.12,1.69.76,3.16,1.86,4.38,3.27.31.36.3.8.03,1.07l-.13.13c-2.38,2.4-5.56,3.74-8.94,3.77h-.18s-.05,0-.08,0ZM92.69,24.43c.71,0,1.4.23,1.97.66,1.74,1.32,3.9,2.02,6.08,2.02h.18c3.17-.02,6.15-1.28,8.38-3.53l.13-.13c-1.2-1.3-2.59-2.33-4.17-3.05-1.69-.76-3.56-1.13-5.42-1.05-1.78.07-3.54.66-5.09,1.7-.9.6-2.03.71-3.03.31l-4.6-1.68,1.99,2.96c.09.13.09.31,0,.44l-1.99,3.05,4.68-1.59c.29-.08.59-.12.88-.12Z"/>
        </g>
        <path class="cls-2" d="M104.89,23.18c0,.53.44.96.97.95.53,0,.96-.44.95-.97,0-.53-.44-.96-.97-.95-.53,0-.96.44-.95.97"/>
        <g>
          <path class="cls-5" d="M102.13,22.73l-4.94-.13c-.85.39-.77,1.62.12,1.9l.19.06,4.62-1.84Z"/>
          <path class="cls-2" d="M97.51,24.96s-.08,0-.12-.02l-.19-.06c-.57-.18-.95-.68-.99-1.27-.04-.59.28-1.13.82-1.38.06-.03.12-.04.18-.04l4.94.13c.19,0,.35.14.38.33.03.19-.07.37-.25.44l-4.62,1.84s-.1.03-.15.03ZM97.28,23c-.29.18-.29.47-.28.56,0,.1.06.43.43.55l.06.02,2.68-1.06-2.88-.07Z"/>
        </g>
      </g>
    </g>
  </g>
</svg>