<?xml version="1.0" encoding="UTF-8"?>
<svg id="effect_illustrations" data-name="effect illustrations" xmlns="http://www.w3.org/2000/svg" xmlns:xlink="http://www.w3.org/1999/xlink" viewBox="0 0 120 80">
  <defs>
    <style>
      .cls-1 {
        fill: none;
      }

      .cls-2 {
        fill: #231f20;
      }

      .cls-3 {
        fill: #efefef;
      }

      .cls-4 {
        fill: #fff;
      }

      .cls-5 {
        clip-path: url(#clippath);
      }
    </style>
    <clipPath id="clippath">
      <rect class="cls-1" x="66.43" y="49.51" width="35.4" height="18.31"/>
    </clipPath>
  </defs>
  <g id="coral_effect" data-name="coral effect">
    <g>
      <g>
        <g>
          <path class="cls-3" d="M101.79,67.82v-10.12c0-4.08-1.92-7.93-5.18-10.38l-3.3-2.48c-4.49-3.38-10.64-3.49-15.25-.27l-6.08,4.24c-2.85,1.99-6.37,2.74-9.78,2.08l-4.05-.78c-4.34-.83-8.83.37-12.18,3.26l-4.69,4.06c-1.83,1.58-4.12,2.54-6.53,2.74l-11.9.99c-.28.02-.54.05-.77.08-4.1.54-3.71,6.58.42,6.58h79.28Z"/>
          <path class="cls-2" d="M101.79,68.22H22.51c-2.38,0-3.59-1.79-3.7-3.45-.11-1.67.85-3.61,3.22-3.93.24-.03.5-.06.79-.08l11.9-.99c2.34-.19,4.52-1.11,6.3-2.65l4.69-4.06c3.46-2.99,8.02-4.21,12.51-3.35l4.05.78c3.28.63,6.74-.11,9.48-2.02l6.08-4.24c4.76-3.32,11.08-3.21,15.72.28l3.3,2.48c3.35,2.52,5.34,6.52,5.34,10.7v10.12c0,.22-.18.4-.4.4ZM55.4,50.24c-3.34,0-6.58,1.19-9.16,3.43l-4.69,4.06c-1.91,1.65-4.24,2.63-6.76,2.84l-11.9.99c-.28.02-.53.05-.75.08-1.87.25-2.62,1.73-2.53,3.08.09,1.35,1.02,2.71,2.9,2.71h78.88v-9.72c0-3.94-1.88-7.7-5.02-10.06l-3.3-2.48c-4.36-3.28-10.3-3.39-14.78-.26l-6.08,4.24c-2.92,2.04-6.59,2.82-10.09,2.15l-4.05-.78c-.89-.17-1.79-.25-2.67-.25Z"/>
        </g>
        <g>
          <path class="cls-2" d="M56.47,50.29c-.17,0-.32-.1-.38-.27l-2.76-8.02-14.89-13.79c-.16-.15-.17-.4-.02-.57.15-.16.4-.17.57-.02l14.96,13.86s.08.1.11.16l2.8,8.11c.07.21-.04.44-.25.51-.04.02-.09.02-.13.02Z"/>
          <g>
            <line class="cls-3" x1="46.94" y1="35.54" x2="48.27" y2="16.22"/>
            <path class="cls-2" d="M46.94,35.94s-.02,0-.03,0c-.22-.02-.39-.21-.37-.43l1.34-19.31c.02-.22.21-.39.43-.37.22.02.39.21.37.43l-1.34,19.31c-.01.21-.19.37-.4.37Z"/>
          </g>
          <g>
            <line class="cls-3" x1="40.52" y1="17.48" x2="47.76" y2="23.6"/>
            <path class="cls-2" d="M47.76,24c-.09,0-.18-.03-.26-.09l-7.24-6.13c-.17-.14-.19-.4-.05-.56.14-.17.4-.19.56-.05l7.24,6.13c.17.14.19.4.05.56-.08.09-.19.14-.31.14Z"/>
          </g>
          <g>
            <line class="cls-3" x1="50.17" y1="38.53" x2="56.47" y2="29.54"/>
            <path class="cls-2" d="M50.17,38.93c-.08,0-.16-.02-.23-.07-.18-.13-.22-.38-.1-.56l6.3-9c.13-.18.38-.22.56-.1.18.13.22.38.1.56l-6.3,9c-.08.11-.2.17-.33.17Z"/>
          </g>
          <g>
            <line class="cls-3" x1="54.67" y1="44.67" x2="39.13" y2="35.69"/>
            <path class="cls-2" d="M54.67,45.07c-.07,0-.14-.02-.2-.05l-15.54-8.98c-.19-.11-.26-.35-.15-.55.11-.19.35-.26.55-.15l15.54,8.98c.19.11.26.35.15.55-.07.13-.21.2-.35.2Z"/>
          </g>
        </g>
        <g>
          <line class="cls-3" x1="43.16" y1="55.54" x2="27.93" y2="39.01"/>
          <path class="cls-2" d="M43.16,55.93c-.11,0-.22-.04-.29-.13l-15.23-16.52c-.15-.16-.14-.42.02-.56.16-.15.42-.14.57.02l15.23,16.52c.15.16.14.42-.02.56-.08.07-.17.11-.27.11Z"/>
        </g>
        <g>
          <line class="cls-3" x1="33.8" y1="31.58" x2="36" y2="47.18"/>
          <path class="cls-2" d="M36,47.58c-.2,0-.37-.14-.4-.34l-2.2-15.6c-.03-.22.12-.42.34-.45.22-.04.42.12.45.34l2.2,15.6c.03.22-.12.42-.34.45-.02,0-.04,0-.06,0Z"/>
        </g>
        <g>
          <g>
            <path class="cls-4" d="M95.43,21.34c.26-.07.54-.12.81-.13l7.22-.5-4.79-3.01.9-5.59-5.29,4.88c-.19.16-.39.29-.61.4l1.75,3.95Z"/>
            <path class="cls-2" d="M95.43,21.74c-.15,0-.3-.09-.37-.24l-1.75-3.95c-.09-.19,0-.42.18-.52.19-.1.37-.21.54-.35l5.27-4.86c.13-.12.31-.14.46-.06.15.08.23.25.21.42l-.86,5.33,4.57,2.87c.15.09.22.27.18.44s-.19.29-.36.3l-7.22.5c-.26,0-.5.05-.73.11-.04.01-.07.02-.11.02ZM94.19,17.56l1.47,3.31c.19-.04.38-.06.57-.06l5.98-.41-3.75-2.36c-.14-.09-.21-.24-.18-.4l.71-4.44-4.44,4.09c-.12.1-.24.19-.37.27Z"/>
          </g>
          <g>
            <path class="cls-4" d="M74.63,23.16c-1.97,1.6-5.12,4.99-6.04,7.4l-.08.2c-.07.19.01.41.2.5l.1.05c1.93.91,4,1.37,6.08,1.38.67,0,3.12-.29,3.79-.38l-4.06-9.15Z"/>
            <path class="cls-2" d="M74.91,33.09h-.02c-2.18-.02-4.28-.49-6.25-1.42l-.1-.05c-.38-.18-.55-.62-.41-1l.08-.2c.96-2.53,4.25-6.01,6.16-7.57.1-.08.22-.11.35-.08.12.03.22.11.27.23l4.06,9.15c.05.12.04.25-.02.36-.06.11-.17.18-.3.2-.64.08-3.09.38-3.83.38ZM74.48,23.81c-1.87,1.62-4.67,4.67-5.52,6.89l-.08.2.1.04c1.87.88,3.85,1.33,5.92,1.34.5,0,2.19-.18,3.21-.31l-3.63-8.18Z"/>
          </g>
          <path class="cls-2" d="M76.66,28.14c-.15,0-.3-.09-.37-.24-.09-.2,0-.44.2-.53l18.06-8.01c.2-.09.44,0,.53.2.09.2,0,.44-.2.53l-18.06,8.01c-.05.02-.11.03-.16.03Z"/>
          <path class="cls-2" d="M93.75,23.42c-.15,0-.3-.09-.37-.24l-2.13-4.8c-.09-.2,0-.44.2-.53.2-.09.44,0,.53.2l2.13,4.8c.09.2,0,.44-.2.53-.05.02-.11.03-.16.03Z"/>
          <path class="cls-2" d="M91.66,25.08c-.15,0-.3-.09-.37-.24l-3.28-7.4c-.09-.2,0-.44.2-.53.2-.09.44,0,.53.2l3.28,7.4c.09.2,0,.44-.2.53-.05.02-.11.03-.16.03Z"/>
          <path class="cls-2" d="M89.26,27.65c-.15,0-.3-.09-.37-.24l-4.15-9.35c-.09-.2,0-.44.2-.53.2-.09.44,0,.53.2l4.15,9.35c.09.2,0,.44-.2.53-.05.02-.11.03-.16.03Z"/>
          <path class="cls-2" d="M86.53,29.55c-.15,0-.3-.09-.37-.24l-4.51-10.16c-.09-.2,0-.44.2-.53.2-.09.44,0,.53.2l4.51,10.16c.09.2,0,.44-.2.53-.05.02-.11.03-.16.03Z"/>
          <path class="cls-2" d="M86.84,30.24c-.15,0-.3-.09-.37-.24l-4.51-10.16c-.09-.2,0-.44.2-.53.2-.09.44,0,.53.2l4.51,10.16c.09.2,0,.44-.2.53-.05.02-.11.03-.16.03Z"/>
          <path class="cls-2" d="M83.36,30.41c-.15,0-.3-.09-.37-.24l-3.89-8.77c-.09-.2,0-.44.2-.53s.44,0,.53.2l3.89,8.77c.09.2,0,.44-.2.53-.05.02-.11.03-.16.03Z"/>
          <path class="cls-2" d="M80.17,30.77c-.15,0-.3-.09-.37-.24l-3.2-7.21c-.09-.2,0-.44.2-.53s.44,0,.53.2l3.2,7.21c.09.2,0,.44-.2.53-.05.02-.11.03-.16.03Z"/>
          <path class="cls-2" d="M83.42,30.55c-.15,0-.3-.09-.37-.24l-4.21-9.48c-.09-.2,0-.44.2-.53.2-.09.44,0,.53.2l4.21,9.48c.09.2,0,.44-.2.53-.05.02-.11.03-.16.03Z"/>
        </g>
        <g>
          <g>
            <line class="cls-4" x1="75.29" y1="30" x2="72.89" y2="29.07"/>
            <path class="cls-2" d="M75.29,30.4s-.1,0-.14-.03l-2.4-.93c-.21-.08-.31-.31-.23-.52.08-.21.31-.31.52-.23l2.4.93c.21.08.31.31.23.52-.06.16-.21.26-.37.26Z"/>
          </g>
          <g>
            <line class="cls-4" x1="73.63" y1="30.74" x2="74.55" y2="28.33"/>
            <path class="cls-2" d="M73.63,31.14s-.1,0-.14-.03c-.21-.08-.31-.31-.23-.52l.93-2.4c.08-.21.31-.31.52-.23.21.08.31.31.23.52l-.93,2.4c-.06.16-.21.26-.37.26Z"/>
          </g>
        </g>
      </g>
      <g>
        <circle class="cls-3" cx="30.08" cy="20.84" r="1.99" transform="translate(-2.99 5.18) rotate(-9.38)"/>
        <path class="cls-2" d="M30.08,23.23c-1.32,0-2.39-1.07-2.39-2.39s1.07-2.39,2.39-2.39,2.39,1.07,2.39,2.39-1.07,2.39-2.39,2.39ZM30.08,19.26c-.87,0-1.59.71-1.59,1.59s.71,1.59,1.59,1.59,1.59-.71,1.59-1.59-.71-1.59-1.59-1.59Z"/>
      </g>
      <g>
        <g>
          <line class="cls-3" x1="60.62" y1="36.86" x2="64.51" y2="40.09"/>
          <path class="cls-2" d="M64.51,40.49c-.09,0-.18-.03-.25-.09l-3.9-3.22c-.17-.14-.19-.39-.05-.56.14-.17.39-.2.56-.05l3.9,3.22c.17.14.19.39.05.56-.08.1-.19.15-.31.15Z"/>
        </g>
        <g>
          <line class="cls-3" x1="64.18" y1="36.53" x2="60.95" y2="40.42"/>
          <path class="cls-2" d="M60.95,40.82c-.09,0-.18-.03-.25-.09-.17-.14-.19-.39-.05-.56l3.22-3.9c.14-.17.39-.19.56-.05.17.14.19.39.05.56l-3.22,3.9c-.08.1-.19.15-.31.15Z"/>
        </g>
      </g>
      <g>
        <g>
          <line class="cls-3" x1="52.03" y1="12.51" x2="55.93" y2="15.73"/>
          <path class="cls-2" d="M55.93,16.13c-.09,0-.18-.03-.25-.09l-3.9-3.22c-.17-.14-.19-.39-.05-.56.14-.17.39-.2.56-.05l3.9,3.22c.17.14.19.39.05.56-.08.1-.19.15-.31.15Z"/>
        </g>
        <g>
          <line class="cls-3" x1="55.59" y1="12.17" x2="52.37" y2="16.07"/>
          <path class="cls-2" d="M52.37,16.47c-.09,0-.18-.03-.25-.09-.17-.14-.19-.39-.05-.56l3.22-3.9c.14-.17.39-.2.56-.05.17.14.19.39.05.56l-3.22,3.9c-.08.1-.19.15-.31.15Z"/>
        </g>
      </g>
      <g>
        <g>
          <line class="cls-3" x1="16.53" y1="30.23" x2="20.43" y2="33.46"/>
          <path class="cls-2" d="M20.43,33.86c-.09,0-.18-.03-.25-.09l-3.9-3.22c-.17-.14-.19-.39-.05-.56.14-.17.39-.19.56-.05l3.9,3.22c.17.14.19.39.05.56-.08.1-.19.15-.31.15Z"/>
        </g>
        <g>
          <line class="cls-3" x1="20.09" y1="29.9" x2="16.87" y2="33.79"/>
          <path class="cls-2" d="M16.87,34.19c-.09,0-.18-.03-.25-.09-.17-.14-.19-.39-.05-.56l3.22-3.9c.14-.17.39-.2.56-.05.17.14.19.39.05.56l-3.22,3.9c-.08.1-.19.15-.31.15Z"/>
        </g>
      </g>
      <g class="cls-5">
        <circle class="cls-4" cx="82.89" cy="67.55" r="9.05"/>
        <g>
          <g>
            <line class="cls-3" x1="79.9" y1="53.13" x2="85.85" y2="84.91"/>
            <path class="cls-2" d="M85.85,85.31c-.19,0-.36-.13-.39-.33l-5.96-31.78c-.04-.22.1-.43.32-.47.22-.04.43.1.47.32l5.96,31.78c.04.22-.1.43-.32.47-.02,0-.05,0-.07,0Z"/>
          </g>
          <g>
            <line class="cls-3" x1="85.51" y1="53.07" x2="80.24" y2="84.97"/>
            <path class="cls-2" d="M80.24,85.37s-.04,0-.07,0c-.22-.04-.37-.24-.33-.46l5.27-31.9c.04-.22.24-.37.46-.33.22.04.37.24.33.46l-5.27,31.9c-.03.2-.2.33-.39.33Z"/>
          </g>
          <g>
            <line class="cls-3" x1="90.81" y1="54.93" x2="74.94" y2="83.1"/>
            <path class="cls-2" d="M74.94,83.5c-.07,0-.13-.02-.2-.05-.19-.11-.26-.35-.15-.54l15.86-28.17c.11-.19.35-.26.54-.15.19.11.26.35.15.54l-15.86,28.17c-.07.13-.21.2-.35.2Z"/>
          </g>
          <g>
            <line class="cls-3" x1="95.15" y1="58.5" x2="70.61" y2="79.54"/>
            <path class="cls-2" d="M70.61,79.94c-.11,0-.22-.05-.3-.14-.14-.17-.12-.42.04-.56l24.54-21.05c.17-.14.42-.12.56.04.14.17.12.42-.04.56l-24.54,21.05c-.08.06-.17.1-.26.1Z"/>
          </g>
          <g>
            <line class="cls-3" x1="98.01" y1="63.33" x2="67.75" y2="74.71"/>
            <path class="cls-2" d="M67.75,75.11c-.16,0-.31-.1-.37-.26-.08-.21.03-.44.23-.52l30.26-11.38c.21-.08.44.03.52.23.08.21-.03.44-.23.52l-30.26,11.38s-.09.03-.14.03Z"/>
          </g>
          <g>
            <line class="cls-3" x1="99.04" y1="68.85" x2="66.71" y2="69.19"/>
            <path class="cls-2" d="M66.71,69.59c-.22,0-.4-.18-.4-.4,0-.22.17-.4.4-.4l32.33-.35c.22-.02.4.17.4.4,0,.22-.17.4-.4.4l-32.33.35h0Z"/>
          </g>
          <g>
            <line class="cls-3" x1="98.12" y1="74.38" x2="67.63" y2="63.66"/>
            <path class="cls-2" d="M98.12,74.78s-.09,0-.13-.02l-30.5-10.73c-.21-.07-.32-.3-.24-.51s.3-.32.51-.24l30.5,10.73c.21.07.32.3.24.51-.06.16-.21.27-.38.27Z"/>
          </g>
          <g>
            <line class="cls-3" x1="95.37" y1="79.28" x2="70.38" y2="58.76"/>
            <path class="cls-2" d="M95.37,79.68c-.09,0-.18-.03-.25-.09l-24.99-20.51c-.17-.14-.2-.39-.06-.56.14-.17.39-.2.56-.06l24.99,20.51c.17.14.2.39.06.56-.08.1-.19.15-.31.15Z"/>
          </g>
          <g>
            <line class="cls-3" x1="91.11" y1="82.93" x2="74.64" y2="55.11"/>
            <path class="cls-2" d="M91.11,83.33c-.14,0-.27-.07-.34-.2l-16.47-27.82c-.11-.19-.05-.44.14-.55s.44-.05.55.14l16.47,27.82c.11.19.05.44-.14.55-.06.04-.13.06-.2.06Z"/>
          </g>
          <g>
            <line class="cls-3" x1="85.85" y1="84.91" x2="79.9" y2="53.13"/>
            <path class="cls-2" d="M85.85,85.31c-.19,0-.36-.13-.39-.33l-5.96-31.78c-.04-.22.1-.43.32-.47.22-.04.43.1.47.32l5.96,31.78c.04.22-.1.43-.32.47-.02,0-.05,0-.07,0Z"/>
          </g>
          <g>
            <line class="cls-3" x1="80.24" y1="84.97" x2="85.51" y2="53.07"/>
            <path class="cls-2" d="M80.24,85.37s-.04,0-.07,0c-.22-.04-.37-.24-.33-.46l5.27-31.9c.04-.22.24-.37.46-.33.22.04.37.24.33.46l-5.27,31.9c-.03.2-.2.33-.39.33Z"/>
          </g>
          <g>
            <line class="cls-3" x1="74.94" y1="83.1" x2="90.81" y2="54.93"/>
            <path class="cls-2" d="M74.94,83.5c-.07,0-.13-.02-.2-.05-.19-.11-.26-.35-.15-.54l15.86-28.17c.11-.19.35-.26.54-.15.19.11.26.35.15.54l-15.86,28.17c-.07.13-.21.2-.35.2Z"/>
          </g>
          <g>
            <line class="cls-3" x1="70.61" y1="79.54" x2="95.15" y2="58.5"/>
            <path class="cls-2" d="M70.61,79.94c-.11,0-.22-.05-.3-.14-.14-.17-.12-.42.04-.56l24.54-21.05c.17-.14.42-.12.56.04.14.17.12.42-.04.56l-24.54,21.05c-.08.06-.17.1-.26.1Z"/>
          </g>
          <g>
            <line class="cls-3" x1="67.75" y1="74.71" x2="98.01" y2="63.33"/>
            <path class="cls-2" d="M67.75,75.11c-.16,0-.31-.1-.37-.26-.08-.21.03-.44.23-.52l30.26-11.38c.21-.08.44.03.52.23.08.21-.03.44-.23.52l-30.26,11.38s-.09.03-.14.03Z"/>
          </g>
          <g>
            <line class="cls-3" x1="66.71" y1="69.19" x2="99.04" y2="68.85"/>
            <path class="cls-2" d="M66.71,69.59c-.22,0-.4-.18-.4-.4,0-.22.17-.4.4-.4l32.33-.35c.22-.02.4.17.4.4,0,.22-.17.4-.4.4l-32.33.35h0Z"/>
          </g>
          <g>
            <line class="cls-3" x1="67.63" y1="63.66" x2="98.12" y2="74.38"/>
            <path class="cls-2" d="M98.12,74.78s-.09,0-.13-.02l-30.5-10.73c-.21-.07-.32-.3-.24-.51s.3-.32.51-.24l30.5,10.73c.21.07.32.3.24.51-.06.16-.21.27-.38.27Z"/>
          </g>
          <g>
            <line class="cls-3" x1="70.38" y1="58.76" x2="95.37" y2="79.28"/>
            <path class="cls-2" d="M95.37,79.68c-.09,0-.18-.03-.25-.09l-24.99-20.51c-.17-.14-.2-.39-.06-.56.14-.17.39-.2.56-.06l24.99,20.51c.17.14.2.39.06.56-.08.1-.19.15-.31.15Z"/>
          </g>
          <g>
            <line class="cls-3" x1="74.64" y1="55.11" x2="91.11" y2="82.93"/>
            <path class="cls-2" d="M91.11,83.33c-.14,0-.27-.07-.34-.2l-16.47-27.82c-.11-.19-.05-.44.14-.55s.44-.05.55.14l16.47,27.82c.11.19.05.44-.14.55-.06.04-.13.06-.2.06Z"/>
          </g>
          <g>
            <line class="cls-3" x1="79.9" y1="53.13" x2="85.85" y2="84.91"/>
            <path class="cls-2" d="M85.85,85.31c-.19,0-.36-.13-.39-.33l-5.96-31.78c-.04-.22.1-.43.32-.47.22-.04.43.1.47.32l5.96,31.78c.04.22-.1.43-.32.47-.02,0-.05,0-.07,0Z"/>
          </g>
        </g>
      </g>
      <path class="cls-2" d="M31.81,68.22h-7.97c-.22,0-.4-.18-.4-.4s.18-.4.4-.4h7.97c.22,0,.4.18.4.4s-.18.4-.4.4Z"/>
    </g>
    <line class="cls-3" x1="71.99" y1="48.8" x2="52.22" y2="67.36"/>
  </g>
</svg>