<?xml version="1.0" encoding="UTF-8"?>
<svg id="region_illustration" data-name="region illustration" xmlns="http://www.w3.org/2000/svg" viewBox="0 0 120 80">
  <defs>
    <style>
      .cls-1, .cls-2 {
        fill: none;
      }

      .cls-2, .cls-3, .cls-4, .cls-5 {
        stroke: #231f20;
        stroke-linecap: round;
        stroke-linejoin: round;
        stroke-width: .8px;
      }

      .cls-6, .cls-4 {
        fill: #231f20;
      }

      .cls-3 {
        fill: #f5f5f3;
      }

      .cls-5 {
        fill: #e0e0e0;
      }
    </style>
  </defs>
  <path class="cls-3" d="M84.76,33.41v2.62c0,.63-.47,1.17-1.11,1.25l-13.17,1.57c-.59.07-1.05.54-1.11,1.12,0,.04,0,.09,0,.13,0,.65.5,1.2,1.17,1.25l8.67.7c.77.06,1.3.79,1.13,1.54l-.11.47c-.14.61-.72,1.03-1.34.97l-11.93-1.08c-.93-.09-1.63.85-1.28,1.72l.74,1.84c.13.32.11.64,0,.93l-4.24-1.91c-1.08-.49-2.29-.61-3.45-.34l-2.02.47v-4.95l-8.18-8.39c-.42-.43-.48-1.1-.13-1.59l.72-1.05c.41-.58,1.21-.72,1.78-.3l2.78,2.03c.97.72,2.29-.22,1.95-1.37l-2.89-9.62c-.24-.8.36-1.62,1.21-1.62h.72c.53,0,1.01.34,1.19.85l2.56,7.45c.44,1.25,2.26,1.07,2.44-.24l2.31-16.33c.09-.62.62-1.08,1.25-1.08h1.12c.76,0,1.34.67,1.24,1.42l-2.11,15.79c-.18,1.3,1.49,1.97,2.26.91l4.23-5.79c.44-.61,1.32-.7,1.87-.18l1.57,1.46c.47.44.54,1.15.16,1.66l-5.74,7.9c-.47.64-.23,1.55.49,1.89l1.12.51c.29.14.62.16.92.05l11.57-3.85c.81-.27,1.65.34,1.65,1.19Z"/>
  <path class="cls-5" d="M39.51,49.24c0,.34-.03.68-.1,1l-6.42,1.03-3.77.61c-.08-.15-.15-.29-.21-.44-.3-.67-.46-1.42-.46-2.2,0-.59.09-1.16.27-1.7.48-1.45,1.55-2.64,2.93-3.27.69-.32,1.47-.5,2.28-.5,3.03,0,5.48,2.45,5.48,5.47Z"/>
  <circle class="cls-5" cx="26.73" cy="46.46" r="5.48" transform="translate(-7.79 5.46) rotate(-10.19)"/>
  <path class="cls-5" d="M24.87,51.94c0,.22,0,.43-.04.64l-1.97.32c-.19.03-.37.07-.55.12-1.08.29-2.06.92-2.77,1.79l-1.89,2.31c-.22-.06-.43-.15-.63-.25-1.57-.75-2.73-2.23-3.03-4-.05-.3-.08-.61-.08-.93,0-3.03,2.46-5.48,5.48-5.48.66,0,1.29.12,1.88.34,1.13.4,2.08,1.17,2.72,2.16.5.77.81,1.67.86,2.64.02.11.02.23.02.34Z"/>
  <line class="cls-2" x1="46.21" y1="49.12" x2="44.01" y2="37.37"/>
  <line class="cls-2" x1="48.54" y1="48.57" x2="48.16" y2="38.23"/>
  <line class="cls-2" x1="43.79" y1="49.54" x2="40.62" y2="40.56"/>
  <path class="cls-5" d="M21.75,67.73H7.56l1.72-6.2c.22-.77.15-1.6-.19-2.33l-2.01-4.36c-.22-.46-.32-.95-.32-1.43,0-1.21.66-2.37,1.79-2.98,1.47-.79,3.3-.39,4.31.94l1.13,1.5,3.03,4,.4.53-5.96,7.29c-.62.77-2.78,2.46-3.24,3.04h13.53Z"/>
  <path class="cls-5" d="M100.22,47.33c-.51.42-.7,1.11-.48,1.72.02.1.07.2.12.29l1.82,3.1c.4.69.22,1.58-.42,2.05l-3.65,2.72-1.54-1.21-5.85-4.57c-.34-.27-.65-.58-.92-.92l-1.88-2.39c-.58-.74-1.32-1.29-2.15-1.63-.04-.27,0-.56.11-.82l2.9-6.51c.25-.57.81-.93,1.43-.93h.83c.87,0,1.57.7,1.57,1.56v1.52c0,1.13,1.16,1.89,2.2,1.44l6.88-2.99c.79-.35,1.7.01,2.06.79l.92,2.05c.29.65.11,1.41-.44,1.86l-3.51,2.87Z"/>
  <path class="cls-5" d="M101.1,67.73H8.22c.46-.58,2.62-2.27,3.24-3.04l5.96-7.29.23-.28,1.89-2.31c.71-.87,1.69-1.5,2.77-1.79.18-.05.36-.09.55-.12l1.97-.32,4.39-.7,3.77-.61,6.42-1.03,4.38-.7,1.69-.27c.13-.02.25-.04.37-.07l.36-.08,2.33-.55,8.16-1.91,2.02-.47c1.16-.27,2.37-.15,3.45.34l4.24,1.91,3.37,1.52c1.49.67,3.21.63,4.66-.11l6.3-3.2c1.45-.74,3.11-.76,4.53-.16.83.34,1.57.89,2.15,1.63l1.88,2.39c.27.34.58.65.92.92l5.85,4.57,1.54,1.21.49.38c.92.72,1.58,1.72,1.89,2.85l1.63,6.11c.09.34-.17,1.18-.52,1.18Z"/>
  <path class="cls-5" d="M108.79,57.23v4.12c0,.29-.07.58-.22.83l-2.72,4.71c-.09.17-.22.73-.36.84-.3.26-.68,0-1.08,0h-6.64c-.41,0-.8.26-1.1,0-.02-.02-.05.02-.07,0h4.5c.35,0,.61-.84.52-1.18l-1.63-6.11c-.31-1.13-.97-2.13-1.89-2.85l-.49-.38-1.54-1.21,2.11-5.84c.24-.68.88-1.11,1.56-1.11.2,0,.4.04.6.11l2.13.82c.65.24,1.08.86,1.08,1.56v2.95c0,1.35,1.51,2.14,2.62,1.37.3-.21.63-.3.95-.3.87,0,1.67.68,1.67,1.67Z"/>
  <path class="cls-5" d="M80.25,67.73H8.42c-.32,0-.35.19-.2,0h72.03Z"/>
  <polygon class="cls-4" points="84.09 67.73 83.68 67.73 83.68 67.73 83.67 67.73 83.67 67.73 83.23 67.73 84.09 67.73"/>
  <line class="cls-2" x1="7.56" y1="67.73" x2="105.13" y2="67.73"/>
  <path class="cls-3" d="M25.88,29.92h0c-.56,1.14-1.63,2.05-3.24,2.3-.2.03-.37-.15-.34-.36l.3-1.86.69-.06h.62s.27-.01.27-.01h1.7Z"/>
  <path class="cls-3" d="M22.61,29.94v.06s-4.35.36-4.35.36c-1.06.09-1.94-.8-1.84-1.85l.11-1.18c.41.07.81.25,1.15.5h.01c1.61,1.23,3.54,1.95,5.55,2.08l.05.03h-.68Z"/>
  <polygon class="cls-3" points="23.29 29.94 22.6 30 22.61 29.94 23.29 29.94"/>
  <polygon class="cls-3" points="23.29 29.94 22.6 30 22.61 29.94 23.29 29.94"/>
  <path class="cls-3" d="M23.26,21.37h-.02s-.15.01-.15.01c-1.9.08-3.72.71-5.3,1.76-.4.27-.86.43-1.32.47l-.06-.65c-.09-1.06.78-1.95,1.84-1.89l5.01.3Z"/>
  <path class="cls-3" d="M32.99,25.7l-.06-.07c-1.19-1.37-2.64-2.44-4.24-3.17-1.7-.76-3.55-1.15-5.45-1.08h-.15c-1.9.08-3.72.71-5.3,1.76-.4.27-.86.43-1.32.47-.45.04-.91-.02-1.34-.19l-5.77-2.1,2.68,3.98-2.62,4.02,5.78-1.96c.44-.12.9-.14,1.33-.03.41.07.81.25,1.15.5h.01c1.61,1.23,3.54,1.95,5.55,2.08.22.01.45.02.67.02h.27c3.26-.02,6.37-1.33,8.66-3.65l.13-.13c.13-.12.13-.32.02-.45ZM20.77,26.99l-.19-.06c-.89-.28-.97-1.51-.12-1.9l4.94.13-4.63,1.83Z"/>
  <path class="cls-3" d="M25.4,25.16l-4.63,1.83-.19-.06c-.89-.28-.97-1.51-.12-1.9l4.94.13Z"/>
  <path class="cls-6" d="M28.16,25.61c0,.53.44.96.97.95.53,0,.96-.44.95-.97,0-.53-.44-.96-.97-.95-.53,0-.96.44-.95.97"/>
  <path class="cls-3" d="M25.4,25.16l-4.63,1.83-.19-.06c-.89-.28-.97-1.51-.12-1.9l4.94.13Z"/>
  <path class="cls-3" d="M100.73,26.89h0c-.56,1.14-1.63,2.05-3.24,2.3-.2.03-.37-.15-.34-.36l.3-1.86.69-.06h.62s.27-.01.27-.01h1.7Z"/>
  <path class="cls-3" d="M97.46,26.91v.06s-4.35.36-4.35.36c-1.06.09-1.94-.8-1.84-1.85l.11-1.18c.41.07.81.25,1.15.5h.01c1.61,1.23,3.54,1.95,5.55,2.08l.05.03h-.68Z"/>
  <polygon class="cls-3" points="98.14 26.91 97.45 26.97 97.46 26.91 98.14 26.91"/>
  <polygon class="cls-3" points="98.14 26.91 97.45 26.97 97.46 26.91 98.14 26.91"/>
  <path class="cls-3" d="M98.11,18.34h-.02s-.15.01-.15.01c-1.9.08-3.72.71-5.3,1.76-.4.27-.86.43-1.32.47l-.06-.65c-.09-1.06.78-1.95,1.84-1.89l5.01.3Z"/>
  <path class="cls-3" d="M107.84,22.67l-.06-.07c-1.19-1.37-2.64-2.44-4.24-3.17-1.7-.76-3.55-1.15-5.45-1.08h-.15c-1.9.08-3.72.71-5.3,1.76-.4.27-.86.43-1.32.47-.45.04-.91-.02-1.34-.19l-5.77-2.1,2.68,3.98-2.62,4.02,5.78-1.96c.44-.12.9-.14,1.33-.03.41.07.81.25,1.15.5h.01c1.61,1.23,3.54,1.95,5.55,2.08.22.01.45.02.67.02h.27c3.26-.02,6.37-1.33,8.66-3.65l.13-.13c.13-.12.13-.32.02-.45ZM95.62,23.96l-.19-.06c-.89-.28-.97-1.51-.12-1.9l4.94.13-4.63,1.83Z"/>
  <path class="cls-3" d="M100.25,22.13l-4.63,1.83-.19-.06c-.89-.28-.97-1.51-.12-1.9l4.94.13Z"/>
  <path class="cls-6" d="M103.01,22.57c0,.53.44.96.97.95.53,0,.96-.44.95-.97,0-.53-.44-.96-.97-.95-.53,0-.96.44-.95.97"/>
  <path class="cls-3" d="M100.25,22.13l-4.63,1.83-.19-.06c-.89-.28-.97-1.51-.12-1.9l4.94.13Z"/>
  <circle class="cls-5" cx="37.66" cy="53.02" r="5.48" transform="translate(-8.78 7.5) rotate(-10.19)"/>
  <circle class="cls-5" cx="27.85" cy="53.02" r="5.48" transform="translate(-8.94 5.76) rotate(-10.19)"/>
  <g>
    <g>
      <polyline class="cls-1" points="83.68 67.73 83.68 67.73 83.68 67.73 83.68 67.73 83.65 67.73 81.12 53.82"/>
      <polyline class="cls-2" points="83.68 67.73 83.68 67.73 83.68 67.73 83.68 67.73 83.65 67.73 81.12 53.82"/>
    </g>
    <g>
      <polyline class="cls-1" points="83.67 67.73 83.68 67.73 83.68 67.73 83.68 67.73 83.7 67.73 85.94 53.77"/>
      <polyline class="cls-2" points="83.67 67.73 83.68 67.73 83.68 67.73 83.68 67.73 83.7 67.73 85.94 53.77"/>
    </g>
    <g>
      <polyline class="cls-1" points="83.67 67.73 83.68 67.73 83.68 67.73 83.68 67.73 83.76 67.73 90.49 55.37"/>
      <polyline class="cls-2" points="83.67 67.73 83.68 67.73 83.68 67.73 83.68 67.73 83.76 67.73 90.49 55.37"/>
    </g>
    <g>
      <polyline class="cls-1" points="83.67 67.73 83.68 67.73 83.68 67.73 83.86 67.73 94.22 58.43"/>
      <polyline class="cls-2" points="83.67 67.73 83.68 67.73 83.68 67.73 83.86 67.73 94.22 58.43"/>
    </g>
    <g>
      <polyline class="cls-1" points="83.67 67.73 83.68 67.73 83.68 67.73 84.09 67.73 96.68 62.58"/>
      <polyline class="cls-2" points="83.67 67.73 83.68 67.73 83.68 67.73 84.09 67.73 96.68 62.58"/>
    </g>
    <polyline class="cls-2" points="83.68 67.73 83.68 67.73 83.67 67.73 69.79 67.73"/>
    <g>
      <polyline class="cls-1" points="70.57 62.86 83.23 67.73 83.67 67.73 83.67 67.73 83.68 67.73"/>
      <polyline class="cls-2" points="70.57 62.86 83.23 67.73 83.67 67.73 83.67 67.73 83.68 67.73"/>
    </g>
    <g>
      <polyline class="cls-1" points="72.94 58.66 83.49 67.73 83.67 67.73 83.68 67.73 83.68 67.73"/>
      <polyline class="cls-2" points="72.94 58.66 83.49 67.73 83.67 67.73 83.68 67.73 83.68 67.73"/>
    </g>
    <g>
      <polyline class="cls-1" points="76.6 55.52 83.58 67.73 83.67 67.73 83.67 67.73 83.68 67.73 83.68 67.73"/>
      <polyline class="cls-2" points="76.6 55.52 83.58 67.73 83.67 67.73 83.67 67.73 83.68 67.73 83.68 67.73"/>
    </g>
    <g>
      <polyline class="cls-1" points="81.12 53.82 83.65 67.73 83.68 67.73 83.68 67.73 83.68 67.73 83.68 67.73"/>
      <polyline class="cls-2" points="81.12 53.82 83.65 67.73 83.68 67.73 83.68 67.73 83.68 67.73 83.68 67.73"/>
    </g>
    <g>
      <polyline class="cls-1" points="85.94 53.77 83.7 67.73 83.68 67.73 83.68 67.73 83.68 67.73 83.67 67.73"/>
      <polyline class="cls-2" points="85.94 53.77 83.7 67.73 83.68 67.73 83.68 67.73 83.68 67.73 83.67 67.73"/>
    </g>
    <g>
      <polyline class="cls-1" points="90.49 55.37 83.76 67.73 83.68 67.73 83.68 67.73 83.68 67.73 83.67 67.73"/>
      <polyline class="cls-2" points="90.49 55.37 83.76 67.73 83.68 67.73 83.68 67.73 83.68 67.73 83.67 67.73"/>
    </g>
    <g>
      <polyline class="cls-1" points="94.22 58.43 83.86 67.73 83.68 67.73 83.68 67.73 83.67 67.73"/>
      <polyline class="cls-2" points="94.22 58.43 83.86 67.73 83.68 67.73 83.68 67.73 83.67 67.73"/>
    </g>
    <g>
      <polyline class="cls-1" points="96.68 62.58 84.09 67.73 83.68 67.73 83.68 67.73 83.67 67.73"/>
      <polyline class="cls-2" points="96.68 62.58 84.09 67.73 83.68 67.73 83.68 67.73 83.67 67.73"/>
    </g>
    <polyline class="cls-2" points="69.79 67.73 83.67 67.73 83.68 67.73 83.68 67.73"/>
    <g>
      <polyline class="cls-1" points="83.68 67.73 83.67 67.73 83.67 67.73 83.23 67.73 70.57 62.86"/>
      <polyline class="cls-2" points="83.68 67.73 83.67 67.73 83.67 67.73 83.23 67.73 70.57 62.86"/>
    </g>
    <g>
      <polyline class="cls-1" points="83.68 67.73 83.68 67.73 83.67 67.73 83.49 67.73 72.94 58.66"/>
      <polyline class="cls-2" points="83.68 67.73 83.68 67.73 83.67 67.73 83.49 67.73 72.94 58.66"/>
    </g>
    <g>
      <polyline class="cls-1" points="83.68 67.73 83.68 67.73 83.67 67.73 83.67 67.73 83.58 67.73 76.6 55.52"/>
      <polyline class="cls-2" points="83.68 67.73 83.68 67.73 83.67 67.73 83.67 67.73 83.58 67.73 76.6 55.52"/>
    </g>
    <g>
      <polyline class="cls-1" points="83.68 67.73 83.68 67.73 83.68 67.73 83.68 67.73 83.65 67.73 81.12 53.82"/>
      <polyline class="cls-2" points="83.68 67.73 83.68 67.73 83.68 67.73 83.68 67.73 83.65 67.73 81.12 53.82"/>
    </g>
  </g>
  <rect class="cls-4" x="7.71" y="67.32" width="108.24" height="2.77"/>
</svg>