<?xml version="1.0" encoding="UTF-8"?>
<svg id="region_illustration" data-name="region illustration" xmlns="http://www.w3.org/2000/svg" viewBox="0 0 120 80">
  <defs>
    <style>
      .cls-1 {
        fill: #231f20;
      }

      .cls-2 {
        fill: #efefef;
      }

      .cls-3 {
        fill: #fff;
      }
    </style>
  </defs>
  <g id="west_antr" data-name="west antr">
    <g>
      <polygon class="cls-3" points="41.28 27.33 56.6 22.28 83.08 27.35 95.82 73.26 11.98 73.26 41.28 27.33"/>
      <path class="cls-1" d="M95.82,73.66H11.98c-.15,0-.28-.08-.35-.21-.07-.13-.07-.28.01-.41l29.3-45.93c.05-.08.12-.14.21-.16l15.31-5.06c.06-.02.13-.02.2-.01l26.49,5.08c.15.03.27.14.31.29l12.73,45.9c.03.12,0,.25-.07.35-.08.1-.19.16-.32.16ZM12.71,72.86h82.58l-12.53-45.16-26.14-5.01-15.08,4.98-28.83,45.19Z"/>
    </g>
    <g>
      <polygon class="cls-2" points="25.55 30.21 49.74 32.81 78.31 29.54 89.41 73.26 68.23 73.26 62.61 59.62 13.44 59.62 25.55 30.21"/>
      <path class="cls-1" d="M89.41,73.66h-21.18c-.16,0-.31-.1-.37-.25l-5.51-13.39H13.44c-.13,0-.26-.07-.33-.18-.07-.11-.09-.25-.04-.38l12.11-29.41c.07-.16.24-.27.41-.25l24.18,2.59,28.48-3.27c.2-.02.38.1.43.3l11.1,43.72c.03.12,0,.25-.07.34-.08.1-.19.15-.32.15ZM68.5,72.86h20.4l-10.89-42.88-28.22,3.23-23.97-2.56-11.77,28.58h48.57c.16,0,.31.1.37.25l5.51,13.39Z"/>
    </g>
    <g>
      <g>
        <path class="cls-2" d="M48.32,30.69l3.41.58c.16.03.28.17.28.33h0c0,.19-.15.34-.34.34h-2.66c-.38,0-.69-.31-.69-.69v-.56Z"/>
        <path class="cls-1" d="M51.67,32.35h-2.66c-.6,0-1.09-.49-1.09-1.09v-.56c0-.12.05-.23.14-.31.09-.08.21-.11.32-.09l3.41.58c.36.06.62.37.62.73,0,.41-.33.74-.74.74ZM51.67,31.55h0ZM48.72,31.17v.09c0,.16.13.29.29.29h1.94l-2.23-.38Z"/>
      </g>
      <g>
        <path class="cls-3" d="M53.05,21.46v6.14c0,1.85-1.42,3.44-3.27,3.52-1.97.09-3.6-1.48-3.6-3.43v-6.35c0-2.47,2-4.47,4.47-4.47h0c1.5,1.04,2.4,2.75,2.4,4.57Z"/>
        <path class="cls-1" d="M49.61,31.53c-.99,0-1.92-.37-2.65-1.06-.77-.73-1.19-1.72-1.19-2.77v-6.35c0-2.68,2.18-4.87,4.87-4.87.08,0,.16.02.23.07,1.61,1.11,2.57,2.95,2.57,4.9v6.15c0,2.11-1.6,3.83-3.65,3.92-.06,0-.12,0-.18,0ZM50.52,17.29c-2.18.07-3.94,1.86-3.94,4.06v6.35c0,.84.33,1.62.94,2.19.61.58,1.4.87,2.24.84,1.62-.08,2.89-1.45,2.89-3.12v-6.15c0-1.65-.79-3.2-2.12-4.17Z"/>
      </g>
      <g>
        <path class="cls-1" d="M49.85,23.29c-.48,1.29-.72,2.65-.72,4.02,0,.64.05,1.28.16,1.92l.32,1.9c-1.9,0-3.43-1.54-3.43-3.43v-6.35c0-2.47,2-4.46,4.47-4.46h.06c.19,2.17-.1,4.36-.86,6.4Z"/>
        <path class="cls-1" d="M49.61,31.53c-2.11,0-3.83-1.72-3.83-3.83v-6.35c0-2.68,2.18-4.86,4.87-4.86.21,0,.44.16.46.36.19,2.22-.11,4.49-.88,6.58h0c-.46,1.25-.7,2.55-.7,3.88,0,.62.05,1.24.16,1.85l.32,1.9c.02.12-.01.23-.09.33-.08.09-.19.14-.31.14ZM50.34,17.3c-2.13.18-3.76,1.93-3.76,4.05v6.35c0,1.51,1.11,2.77,2.55,3l-.24-1.4c-.11-.66-.17-1.33-.17-1.99,0-1.43.25-2.83.75-4.16.69-1.86.98-3.87.86-5.85ZM49.85,23.29h.01-.01Z"/>
      </g>
      <g>
        <path class="cls-1" d="M49.53,21.2l.46,2.04c.28,1.21.22,2.48-.15,3.66l-.14.45c-.1.31-.39.53-.72.53h0c-.49,0-.85-.46-.73-.94h0c.3-1.18.28-2.41-.04-3.58l-.54-1.96"/>
        <path class="cls-1" d="M48.98,28.27c-.36,0-.69-.16-.91-.45-.22-.28-.3-.65-.21-.99.28-1.11.27-2.27-.04-3.37l-.54-1.96c-.06-.21.07-.43.28-.49.21-.06.43.07.49.28l.54,1.96c.34,1.23.36,2.54.04,3.78-.03.11,0,.22.06.31.16.21.54.14.62-.11l.14-.45c.35-1.12.41-2.31.14-3.45l-.46-2.04c-.05-.22.09-.43.3-.48.22-.05.43.09.48.3l.46,2.04c.29,1.28.24,2.62-.16,3.87l-.14.45c-.15.48-.6.81-1.1.81Z"/>
      </g>
      <g>
        <path class="cls-1" d="M51.19,14.59h0c-.78,0-1.49.44-1.84,1.13l-.88,1.73h2.71c.79,0,1.43-.64,1.43-1.43h0c0-.79-.63-1.43-1.42-1.43Z"/>
        <path class="cls-1" d="M51.18,17.84h-2.71c-.14,0-.27-.07-.34-.19-.07-.12-.08-.27-.02-.39l.88-1.73c.42-.83,1.27-1.35,2.2-1.35,1,0,1.82.81,1.82,1.82s-.82,1.84-1.83,1.84ZM49.13,17.04h2.06c.57,0,1.03-.46,1.03-1.03s-.46-1.03-1.02-1.03c-.63,0-1.2.35-1.48.91l-.58,1.14Z"/>
      </g>
      <g>
        <circle class="cls-2" cx="51.48" cy="15.73" r=".29"/>
        <path class="cls-1" d="M51.48,16.41c-.38,0-.69-.31-.69-.69s.31-.69.69-.69.69.31.69.69-.31.69-.69.69ZM51.48,15.61c-.06,0-.11.05-.11.11,0,.13.23.13.23,0,0-.06-.05-.11-.11-.11Z"/>
      </g>
      <g>
        <path class="cls-2" d="M52.61,15.44l1.5.21c.15.02.18.23.03.29l-1.67.66.13-1.16Z"/>
        <path class="cls-1" d="M52.48,17c-.09,0-.17-.03-.24-.08-.11-.08-.17-.22-.16-.36l.13-1.16c.01-.11.07-.21.15-.27s.19-.1.3-.08l1.5.21c.25.03.44.23.47.48.03.25-.11.48-.34.58l-1.67.66s-.1.03-.15.03ZM52.96,15.9v.09s.16-.07.16-.07l-.16-.02Z"/>
      </g>
      <g>
        <path class="cls-2" d="M45.97,30.83l1.62-1.46-1.11-1.23-.86,2.46c-.07.21.18.38.35.23Z"/>
        <path class="cls-1" d="M45.83,31.28c-.12,0-.24-.03-.34-.1-.24-.16-.33-.45-.24-.71l.86-2.46c.05-.13.16-.23.3-.26.14-.03.28.02.38.12l1.11,1.23c.07.08.11.18.1.29,0,.11-.05.21-.13.28l-1.62,1.46h0c-.12.11-.26.16-.41.16ZM45.97,30.83h.01-.01ZM45.71,30.53s0,0,0,0h0ZM46.64,28.9l-.4,1.14.79-.71-.39-.43Z"/>
      </g>
    </g>
    <g>
      <g>
        <path class="cls-2" d="M28.55,29.7l3.41.58c.16.03.28.17.28.33h0c0,.19-.15.34-.34.34h-2.66c-.38,0-.69-.31-.69-.69v-.56Z"/>
        <path class="cls-1" d="M31.9,31.36h-2.66c-.6,0-1.09-.49-1.09-1.09v-.56c0-.12.05-.23.14-.31.09-.08.21-.11.32-.09l3.41.58c.36.06.62.37.62.73,0,.41-.33.74-.74.74ZM28.95,30.18v.09c0,.16.13.29.29.29h1.95l-2.24-.38Z"/>
      </g>
      <g>
        <path class="cls-3" d="M33.27,20.47v6.14c0,1.85-1.42,3.44-3.27,3.52-1.97.09-3.6-1.48-3.6-3.43v-6.35c0-2.47,2-4.47,4.47-4.47h0c1.5,1.04,2.4,2.75,2.4,4.57Z"/>
        <path class="cls-1" d="M29.84,30.54c-.99,0-1.92-.37-2.64-1.06-.77-.73-1.19-1.72-1.19-2.77v-6.35c0-2.68,2.18-4.87,4.87-4.87.08,0,.16.02.23.07,1.61,1.11,2.57,2.95,2.57,4.9v6.14c0,2.11-1.6,3.83-3.65,3.92-.06,0-.12,0-.18,0ZM30.75,16.29c-2.18.07-3.94,1.86-3.94,4.06v6.35c0,.84.33,1.62.94,2.19.61.58,1.4.87,2.24.84,1.62-.08,2.89-1.45,2.89-3.12v-6.14c0-1.65-.79-3.2-2.12-4.17Z"/>
      </g>
      <g>
        <path class="cls-1" d="M30.08,22.3c-.48,1.29-.72,2.65-.72,4.02,0,.64.05,1.28.16,1.92l.32,1.9c-1.9,0-3.43-1.54-3.43-3.43v-6.35c0-2.47,2-4.46,4.47-4.46h.06c.19,2.17-.1,4.36-.86,6.4Z"/>
        <path class="cls-1" d="M29.84,30.54c-2.11,0-3.83-1.72-3.83-3.83v-6.35c0-2.68,2.18-4.86,4.87-4.86.21,0,.44.16.46.36.19,2.22-.11,4.49-.88,6.58h0c-.46,1.25-.7,2.55-.7,3.88,0,.62.05,1.24.16,1.85l.32,1.9c.02.12-.01.23-.09.33-.08.09-.19.14-.31.14ZM30.57,16.31c-2.13.18-3.76,1.93-3.76,4.05v6.35c0,1.51,1.11,2.77,2.55,3l-.24-1.4c-.11-.66-.17-1.33-.17-1.99,0-1.43.25-2.83.75-4.16.69-1.86.98-3.87.86-5.85ZM30.08,22.3h.01-.01Z"/>
      </g>
      <g>
        <path class="cls-1" d="M29.76,20.2l.46,2.04c.28,1.21.22,2.48-.15,3.66l-.14.45c-.1.31-.39.53-.72.53h0c-.49,0-.85-.46-.73-.94h0c.3-1.18.28-2.41-.04-3.58l-.54-1.96"/>
        <path class="cls-1" d="M29.2,27.28c-.36,0-.69-.16-.91-.45-.22-.28-.3-.65-.21-.99.28-1.11.27-2.27-.04-3.37l-.54-1.96c-.06-.21.07-.43.28-.49.21-.06.43.06.49.28l.54,1.96c.34,1.23.36,2.54.04,3.78-.03.11,0,.22.06.31.16.21.54.14.62-.11l.14-.45c.36-1.12.41-2.31.15-3.45l-.46-2.04c-.05-.22.09-.43.3-.48.22-.05.43.09.48.3l.46,2.04c.29,1.28.24,2.62-.16,3.87l-.14.45c-.15.48-.6.81-1.1.81Z"/>
      </g>
      <g>
        <path class="cls-1" d="M31.42,13.59h0c-.78,0-1.49.44-1.84,1.13l-.88,1.73h2.71c.79,0,1.43-.64,1.43-1.43h0c0-.79-.63-1.43-1.42-1.43Z"/>
        <path class="cls-1" d="M31.41,16.85h-2.71c-.14,0-.27-.07-.34-.19-.07-.12-.08-.27-.02-.39l.88-1.73c.42-.83,1.27-1.35,2.2-1.35,1,0,1.82.81,1.82,1.82s-.82,1.84-1.83,1.84ZM29.35,16.05h2.06c.57,0,1.03-.46,1.03-1.03s-.46-1.03-1.02-1.03c-.63,0-1.2.35-1.48.91l-.58,1.14Z"/>
      </g>
      <g>
        <circle class="cls-2" cx="31.71" cy="14.74" r=".29"/>
        <path class="cls-1" d="M31.71,15.42c-.38,0-.69-.31-.69-.69s.31-.69.69-.69.69.31.69.69-.31.69-.69.69ZM31.71,14.62c-.06,0-.11.05-.11.11,0,.13.23.13.23,0,0-.06-.05-.11-.11-.11Z"/>
      </g>
      <g>
        <path class="cls-2" d="M32.84,14.45l1.5.21c.15.02.18.23.03.29l-1.67.66.13-1.16Z"/>
        <path class="cls-1" d="M32.71,16.01c-.09,0-.17-.03-.24-.08-.11-.08-.17-.22-.16-.36l.13-1.16c.01-.11.07-.21.15-.27s.19-.1.3-.08l1.5.21c.25.03.44.23.47.48.03.25-.11.48-.34.58l-1.67.66s-.1.03-.15.03ZM33.19,14.9v.09s.15-.06.15-.06l-.15-.02Z"/>
      </g>
      <g>
        <path class="cls-2" d="M26.2,29.83l1.62-1.46-1.11-1.23-.86,2.46c-.07.21.18.38.35.23Z"/>
        <path class="cls-1" d="M26.06,30.29c-.12,0-.24-.03-.34-.1-.24-.16-.33-.45-.24-.71l.86-2.46c.05-.13.16-.23.3-.26.14-.03.28.02.38.12l1.11,1.23c.07.08.11.18.1.29,0,.11-.05.21-.13.28l-1.62,1.46c-.12.11-.26.16-.41.16ZM26.87,27.91l-.4,1.14.79-.71-.39-.43Z"/>
      </g>
    </g>
    <g>
      <rect class="cls-1" x=".26" y="72.36" width="119.49" height="3.51"/>
      <path class="cls-1" d="M119.74,76.26H.26c-.22,0-.4-.18-.4-.4v-3.51c0-.11.04-.21.12-.28.08-.08.18-.12.28-.12h119.49c.22,0,.4.18.4.4v3.51c0,.22-.18.4-.4.4ZM.66,75.46h118.69v-2.71H.66s0,2.71,0,2.71Z"/>
    </g>
    <g>
      <g>
        <path class="cls-2" d="M56.97,57.63l3.41.58c.16.03.28.17.28.33h0c0,.19-.15.34-.34.34h-2.66c-.38,0-.69-.31-.69-.69v-.56Z"/>
        <path class="cls-1" d="M60.32,59.29h-2.66c-.6,0-1.09-.49-1.09-1.09v-.56c0-.12.05-.23.14-.31.09-.08.21-.11.32-.09l3.41.58c.36.06.62.37.62.73,0,.41-.33.74-.74.74ZM57.37,58.11v.09c0,.16.13.29.29.29h1.94l-2.23-.38Z"/>
      </g>
      <g>
        <g>
          <path class="cls-3" d="M61.69,48.4v6.14c0,1.85-1.42,3.44-3.27,3.52-1.97.09-3.6-1.48-3.6-3.43v-6.35c0-2.47,2-4.47,4.47-4.47h0c1.5,1.04,2.4,2.75,2.4,4.57Z"/>
          <path class="cls-1" d="M58.26,58.47c-.99,0-1.92-.37-2.65-1.06-.77-.73-1.19-1.72-1.19-2.77v-6.35c0-2.68,2.18-4.86,4.87-4.86.08,0,.16.02.23.07,1.61,1.11,2.57,2.95,2.57,4.9v6.15c0,2.11-1.6,3.83-3.65,3.92-.06,0-.12,0-.18,0ZM59.17,44.23c-2.18.07-3.94,1.86-3.94,4.06v6.35c0,.84.33,1.62.94,2.19.61.58,1.4.87,2.24.84,1.62-.08,2.89-1.45,2.89-3.12v-6.15c0-1.65-.79-3.2-2.12-4.17ZM62.09,48.4h.01-.01Z"/>
        </g>
        <g>
          <path class="cls-1" d="M58.5,50.23c-.48,1.29-.72,2.65-.72,4.02,0,.64.05,1.28.16,1.92l.32,1.9c-1.9,0-3.43-1.54-3.43-3.43v-6.35c0-2.47,2-4.46,4.47-4.46h.06c.19,2.17-.1,4.36-.86,6.4Z"/>
          <path class="cls-1" d="M58.26,58.47c-2.11,0-3.83-1.72-3.83-3.83v-6.35c0-2.68,2.18-4.86,4.87-4.86.21,0,.44.16.46.36.19,2.22-.11,4.49-.88,6.58h0c-.46,1.25-.7,2.55-.7,3.88,0,.62.05,1.24.16,1.85l.32,1.9c.02.12-.01.23-.09.33-.08.09-.19.14-.31.14ZM58.98,44.24c-2.13.18-3.76,1.93-3.76,4.05v6.35c0,1.51,1.11,2.77,2.55,3l-.24-1.4c-.11-.66-.17-1.33-.17-1.99,0-1.43.25-2.83.75-4.16.69-1.86.98-3.87.86-5.85ZM58.5,50.23h.01-.01Z"/>
        </g>
        <g>
          <path class="cls-1" d="M58.17,48.14l.46,2.04c.28,1.21.22,2.48-.15,3.66l-.14.45c-.1.31-.39.53-.72.53h0c-.49,0-.85-.46-.73-.94h0c.3-1.18.28-2.41-.04-3.58l-.54-1.96"/>
          <path class="cls-1" d="M57.62,55.21c-.36,0-.69-.16-.91-.45s-.3-.65-.21-.99c.28-1.11.27-2.27-.04-3.37l-.54-1.96c-.06-.21.07-.43.28-.49.21-.06.43.06.49.28l.54,1.96c.34,1.23.36,2.54.04,3.78-.03.11,0,.22.06.31.16.21.54.14.62-.11l.14-.45c.35-1.12.41-2.31.14-3.45l-.46-2.04c-.05-.22.09-.43.3-.48.22-.05.43.09.48.3l.46,2.04c.29,1.28.24,2.62-.16,3.87l-.14.45c-.15.48-.6.81-1.1.81Z"/>
        </g>
        <g>
          <path class="cls-1" d="M59.84,41.53h0c-.78,0-1.49.44-1.84,1.13l-.88,1.73h2.71c.79,0,1.43-.64,1.43-1.43h0c0-.79-.63-1.43-1.42-1.43Z"/>
          <path class="cls-1" d="M59.83,44.78h-2.71c-.14,0-.27-.07-.34-.19-.07-.12-.08-.27-.02-.39l.88-1.73c.42-.83,1.26-1.35,2.2-1.35,1,0,1.82.81,1.82,1.82s-.82,1.84-1.83,1.84ZM57.77,43.98h2.06c.57,0,1.03-.46,1.03-1.03s-.46-1.03-1.02-1.03c-.63,0-1.2.35-1.48.91l-.58,1.14Z"/>
        </g>
        <g>
          <circle class="cls-2" cx="60.13" cy="42.67" r=".29"/>
          <path class="cls-1" d="M60.13,43.35c-.38,0-.69-.31-.69-.69s.31-.69.69-.69.69.31.69.69-.31.69-.69.69ZM60.13,42.55c-.06,0-.11.05-.11.11,0,.13.23.13.23,0,0-.06-.05-.11-.11-.11Z"/>
        </g>
        <g>
          <path class="cls-2" d="M61.25,42.38l1.5.21c.15.02.18.23.03.29l-1.67.66.13-1.16Z"/>
          <path class="cls-1" d="M61.13,43.94c-.09,0-.17-.03-.24-.08-.11-.08-.17-.22-.16-.36l.13-1.16c.01-.11.07-.21.15-.27.09-.07.19-.1.3-.08l1.5.21c.25.03.44.23.47.48.03.25-.11.48-.34.58l-1.67.66s-.1.03-.15.03ZM61.61,42.84v.09s.16-.07.16-.07l-.16-.02Z"/>
        </g>
        <g>
          <path class="cls-2" d="M54.62,57.77l1.62-1.46-1.11-1.23-.86,2.46c-.07.21.18.38.35.23Z"/>
          <path class="cls-1" d="M54.48,58.22c-.12,0-.24-.03-.34-.1-.24-.16-.33-.45-.24-.71l.86-2.46c.05-.13.16-.23.3-.26.14-.03.28.02.38.12l1.11,1.23c.07.08.11.18.1.29,0,.11-.05.21-.13.28l-1.62,1.46h0c-.12.11-.26.16-.41.16ZM54.62,57.77h.01-.01ZM54.35,57.47s0,0,0,0h0ZM55.29,55.84l-.4,1.14.79-.71-.39-.43Z"/>
        </g>
      </g>
    </g>
    <g>
      <polygon class="cls-2" points="1.34 73.26 89.41 73.26 85.32 59.36 38.75 53.9 1.34 59.52 1.34 73.26"/>
      <path class="cls-1" d="M89.41,73.66H1.34c-.22,0-.4-.18-.4-.4v-13.74c0-.2.14-.37.34-.4l37.41-5.62s.07,0,.11,0l46.57,5.46c.16.02.29.13.34.28l4.08,13.9c.04.12.01.25-.06.35-.08.1-.19.16-.32.16ZM1.74,72.86h87.13l-3.86-13.13-46.26-5.42L1.74,59.86v12.99Z"/>
    </g>
    <g>
      <polygon class="cls-2" points="1.34 73.26 89.41 73.26 86.95 63.58 21.71 68.72 1.34 66.63 1.34 73.26"/>
      <path class="cls-1" d="M89.41,73.66H1.34c-.22,0-.4-.18-.4-.4v-6.63c0-.11.05-.22.13-.3.08-.08.2-.11.31-.1l20.37,2.09,65.17-5.14c.19-.01.37.11.42.3l2.46,9.68c.03.12,0,.25-.07.34-.08.1-.19.15-.32.15ZM1.74,72.86h87.15l-2.25-8.85-64.9,5.11-20-2.04v5.78Z"/>
    </g>
    <g>
      <line class="cls-2" x1="4.32" y1="66.94" x2="4.32" y2="73.26"/>
      <path class="cls-1" d="M4.32,73.66c-.22,0-.4-.18-.4-.4v-6.32c0-.22.18-.4.4-.4s.4.18.4.4v6.32c0,.22-.18.4-.4.4Z"/>
    </g>
    <g>
      <line class="cls-2" x1="47.14" y1="66.94" x2="47.14" y2="73.26"/>
      <path class="cls-1" d="M47.14,73.66c-.22,0-.4-.18-.4-.4v-6.32c0-.22.18-.4.4-.4s.4.18.4.4v6.32c0,.22-.18.4-.4.4Z"/>
    </g>
    <g>
      <line class="cls-2" x1="21.03" y1="68.72" x2="21.03" y2="73.26"/>
      <path class="cls-1" d="M21.03,73.66c-.22,0-.4-.18-.4-.4v-4.54c0-.22.18-.4.4-.4s.4.18.4.4v4.54c0,.22-.18.4-.4.4Z"/>
    </g>
    <g>
      <line class="cls-2" x1="34.72" y1="67.76" x2="34.72" y2="73.26"/>
      <path class="cls-1" d="M34.72,73.66c-.22,0-.4-.18-.4-.4v-5.5c0-.22.18-.4.4-.4s.4.18.4.4v5.5c0,.22-.18.4-.4.4Z"/>
    </g>
    <g>
      <g>
        <path class="cls-2" d="M30,56.37l3.41.58c.16.03.28.17.28.33h0c0,.19-.15.34-.34.34h-2.66c-.38,0-.69-.31-.69-.69v-.56Z"/>
        <path class="cls-1" d="M33.35,58.02h-2.66c-.6,0-1.09-.49-1.09-1.09v-.56c0-.12.05-.23.14-.31.09-.08.21-.11.32-.09l3.41.58c.36.06.62.37.62.73,0,.41-.33.74-.74.74ZM30.4,56.84v.09c0,.16.13.29.29.29h1.95l-2.24-.38Z"/>
      </g>
      <g>
        <path class="cls-3" d="M34.73,47.13v6.14c0,1.85-1.42,3.44-3.27,3.52-1.97.09-3.6-1.48-3.6-3.43v-6.35c0-2.47,2-4.47,4.47-4.47h0c1.5,1.04,2.4,2.75,2.4,4.57Z"/>
        <path class="cls-1" d="M31.29,57.21c-.99,0-1.92-.37-2.65-1.06-.76-.73-1.19-1.72-1.19-2.77v-6.35c0-2.68,2.18-4.86,4.87-4.86.08,0,.16.02.23.07,1.61,1.11,2.57,2.95,2.57,4.9v6.15c0,2.11-1.6,3.83-3.65,3.92-.06,0-.12,0-.18,0ZM32.2,42.96c-2.18.07-3.94,1.86-3.94,4.06v6.35c0,.84.33,1.62.94,2.19.61.58,1.4.87,2.24.84,1.62-.08,2.89-1.45,2.89-3.12v-6.15c0-1.65-.79-3.2-2.12-4.17Z"/>
      </g>
      <g>
        <path class="cls-1" d="M31.53,48.96c-.48,1.29-.72,2.65-.72,4.02,0,.64.05,1.28.16,1.92l.32,1.9c-1.9,0-3.43-1.54-3.43-3.43v-6.35c0-2.47,2-4.46,4.47-4.46h.06c.19,2.17-.1,4.36-.86,6.4Z"/>
        <path class="cls-1" d="M31.3,57.21c-2.11,0-3.83-1.72-3.83-3.83v-6.35c0-2.68,2.18-4.86,4.87-4.86.21,0,.44.16.46.36.19,2.22-.11,4.49-.88,6.58h0c-.46,1.25-.7,2.55-.7,3.88,0,.62.05,1.24.16,1.86l.32,1.9c.02.12-.01.23-.09.33-.08.09-.19.14-.31.14ZM32.02,42.97c-2.13.18-3.76,1.93-3.76,4.05v6.35c0,1.51,1.11,2.77,2.55,3l-.24-1.4c-.11-.66-.17-1.33-.17-1.99,0-1.43.25-2.83.75-4.16.69-1.86.98-3.87.86-5.85ZM31.53,48.96h.01-.01Z"/>
      </g>
      <g>
        <path class="cls-1" d="M31.21,46.87l.46,2.04c.28,1.21.22,2.48-.15,3.66l-.14.45c-.1.31-.39.53-.72.53h0c-.49,0-.85-.46-.73-.94h0c.3-1.18.28-2.41-.04-3.58l-.54-1.96"/>
        <path class="cls-1" d="M30.66,53.94c-.36,0-.69-.16-.91-.45-.22-.28-.3-.65-.21-.99.28-1.11.27-2.27-.04-3.37l-.54-1.96c-.06-.21.07-.43.28-.49.21-.06.43.07.49.28l.54,1.96c.34,1.23.36,2.54.04,3.78-.03.11,0,.22.06.31.16.21.54.14.62-.11l.14-.45c.35-1.12.41-2.31.14-3.45l-.46-2.04c-.05-.22.09-.43.3-.48.21-.05.43.09.48.3l.46,2.04c.29,1.28.24,2.62-.16,3.87l-.14.45c-.15.48-.6.81-1.1.81Z"/>
      </g>
      <g>
        <path class="cls-1" d="M32.87,40.26h0c-.78,0-1.49.44-1.84,1.13l-.88,1.73h2.71c.79,0,1.43-.64,1.43-1.43h0c0-.79-.63-1.43-1.42-1.43Z"/>
        <path class="cls-1" d="M32.86,43.51h-2.71c-.14,0-.27-.07-.34-.19-.07-.12-.08-.27-.02-.39l.88-1.73c.42-.83,1.27-1.35,2.2-1.35,1,0,1.82.81,1.82,1.82s-.82,1.84-1.83,1.84ZM30.81,42.71h2.06c.57,0,1.03-.46,1.03-1.03s-.46-1.03-1.02-1.03c-.63,0-1.2.35-1.48.91l-.58,1.14Z"/>
      </g>
      <g>
        <circle class="cls-2" cx="33.16" cy="41.4" r=".29"/>
        <path class="cls-1" d="M33.16,42.09c-.38,0-.69-.31-.69-.69s.31-.69.69-.69.69.31.69.69-.31.69-.69.69ZM33.16,41.29c-.06,0-.11.05-.11.11,0,.13.23.13.23,0,0-.06-.05-.11-.11-.11Z"/>
      </g>
      <g>
        <path class="cls-2" d="M34.29,41.12l1.5.21c.15.02.18.23.03.29l-1.67.66.13-1.16Z"/>
        <path class="cls-1" d="M34.16,42.67c-.09,0-.17-.03-.24-.08-.11-.08-.17-.22-.16-.36l.13-1.16c.01-.11.07-.21.15-.27.09-.07.19-.1.3-.08l1.5.21c.25.03.44.23.47.48.03.25-.11.48-.34.58l-1.67.66s-.1.03-.15.03ZM34.64,41.57v.09s.16-.07.16-.07l-.16-.02Z"/>
      </g>
      <g>
        <path class="cls-2" d="M27.66,56.5l1.62-1.46-1.11-1.23-.86,2.46c-.07.21.18.38.35.23Z"/>
        <path class="cls-1" d="M27.51,56.96c-.12,0-.24-.03-.34-.1-.24-.16-.33-.45-.24-.71l.86-2.46c.05-.13.16-.23.3-.26.14-.03.28.02.38.12l1.11,1.23c.07.08.11.18.1.29,0,.11-.05.21-.13.28l-1.62,1.46h0c-.12.11-.26.16-.41.16ZM27.66,56.5h.01-.01ZM27.39,56.2s0,0,0,0h0ZM28.32,54.58l-.4,1.14.79-.71-.39-.43Z"/>
      </g>
    </g>
  </g>
</svg>