<?xml version="1.0" encoding="UTF-8"?>
<svg id="effect_text" data-name="effect text" xmlns="http://www.w3.org/2000/svg" xmlns:xlink="http://www.w3.org/1999/xlink" viewBox="0 0 120 80">
  <defs>
    <style>
      .cls-1 {
        fill: none;
      }

      .cls-2 {
        fill: #231f20;
      }

      .cls-3 {
        fill: #efefef;
      }

      .cls-4 {
        fill: #fff;
      }

      .cls-5 {
        clip-path: url(#clippath);
      }
    </style>
    <clipPath id="clippath">
      <rect class="cls-1" x="59.92" y="33.12" width="51.02" height="31.45"/>
    </clipPath>
  </defs>
  <g id="west_ant_effect" data-name="west ant effect">
    <g>
      <g>
        <polygon class="cls-3" points="60.03 64.92 60.26 64.9 15.61 64.9 17.3 54.19 17.73 51.51 18.75 45.01 22.49 21.41 47.73 16.56 62.32 21.39 68.12 30.46 69.2 32.17 72.56 37.44 79.62 48.48 82.86 53.57 86.71 59.62 90.25 65.15 60.03 64.92"/>
        <path class="cls-2" d="M90.25,65.55h0l-30.22-.23s-.09,0-.13-.02H15.61c-.12,0-.23-.05-.3-.14-.08-.09-.11-.21-.09-.32l6.87-43.49c.03-.17.15-.3.32-.33l25.24-4.85c.07-.01.14,0,.2.01l14.6,4.82c.09.03.16.09.21.16l27.93,43.77c.08.12.08.28.01.41-.07.13-.2.21-.35.21ZM60.41,64.53l29.11.22-27.45-43.03-14.36-4.75-24.86,4.77-6.76,42.75h44.18c.05,0,.1,0,.14.03Z"/>
      </g>
      <g>
        <path class="cls-3" d="M55.28,64.9h-22.74l.17-.64h0s1.8-7.09,1.8-7.09c0-.01.01-.01.01-.02h0s.26-1.05.26-1.05l2.15-8.47,1.8-7.08,5.29,7.79,11.27,16.57Z"/>
        <path class="cls-2" d="M55.28,65.3h-22.74c-.12,0-.24-.06-.32-.15-.08-.1-.1-.23-.07-.35l.16-.61s0-.03,0-.04l1.8-7.08s0-.03.01-.04l4.21-16.58c.04-.15.16-.27.32-.3.15-.03.31.04.4.17l16.56,24.36c.08.12.09.28.02.41s-.21.21-.35.21ZM33.06,64.5h21.47l-15.63-23-3.99,15.73c0,.07-.02.11-.05.15l-1.79,7.12Z"/>
      </g>
      <g>
        <g>
          <path class="cls-3" d="M85.73,26.42l-1.76,2.79c-.08.13-.25.19-.4.13h0c-.17-.07-.24-.26-.17-.42l.97-2.34c.14-.34.53-.5.86-.36l.49.21Z"/>
          <path class="cls-2" d="M83.7,29.76c-.09,0-.19-.02-.28-.06-.37-.15-.54-.58-.39-.95l.97-2.34c.11-.26.31-.46.57-.57.26-.11.55-.11.81,0l.49.21c.11.05.19.14.23.25s.02.23-.04.33l-1.76,2.79c-.14.22-.37.34-.61.34ZM84.98,26.56s-.07,0-.1.02c-.06.03-.11.08-.14.14l-.75,1.8,1.15-1.91-.07-.03s-.07-.02-.1-.02Z"/>
        </g>
        <g>
          <path class="cls-3" d="M87.3,27.43l-1.76,2.79c-.08.13-.25.19-.4.13h0c-.17-.07-.24-.26-.17-.42l.97-2.34c.14-.34.53-.5.86-.36l.49.21Z"/>
          <path class="cls-2" d="M85.27,30.77c-.09,0-.19-.02-.28-.06-.37-.15-.54-.58-.39-.95l.97-2.34c.22-.54.85-.8,1.38-.57l.49.21c.11.05.19.14.23.25s.02.23-.04.33l-1.76,2.79c-.14.22-.37.34-.61.34ZM86.56,27.58c-.1,0-.2.06-.24.16l-.75,1.8,1.15-1.91-.07-.03s-.07-.02-.1-.02Z"/>
        </g>
        <g>
          <path class="cls-4" d="M94.22,25.22l-4.61,3.61c-1.39,1.08-3.42.95-4.56-.39-1.23-1.43-1-3.57.47-4.71l4.77-3.72c1.85-1.45,4.53-1.12,5.97.73h0c.1,1.74-.66,3.41-2.03,4.49Z"/>
          <path class="cls-2" d="M87.5,29.96c-1.03,0-2.05-.43-2.76-1.26-.66-.77-.97-1.75-.87-2.76.1-1.01.6-1.91,1.39-2.53l4.77-3.72c2.02-1.58,4.95-1.22,6.53.8.05.06.08.14.08.22.11,1.87-.7,3.67-2.18,4.83h0l-4.61,3.6c-.7.55-1.53.82-2.35.82ZM92.89,19.5c-.83,0-1.67.27-2.37.82l-4.77,3.72c-.62.49-1.01,1.19-1.09,1.98-.08.79.16,1.56.68,2.16,1,1.16,2.76,1.31,4.01.33l4.61-3.6c1.24-.96,1.93-2.46,1.88-4.02-.76-.91-1.86-1.38-2.96-1.38ZM94.22,25.22h.01-.01Z"/>
        </g>
        <g>
          <path class="cls-2" d="M98.1,18.73h0c-.7-.05-1.39.33-1.79.98l-.99,1.62,2.44.16c.71.05,1.36-.53,1.45-1.3h0c.09-.77-.41-1.42-1.11-1.47Z"/>
          <path class="cls-2" d="M97.85,21.9s-.07,0-.11,0l-2.44-.16c-.14,0-.26-.09-.33-.21-.06-.12-.06-.27.01-.39l.99-1.62c.48-.78,1.3-1.24,2.15-1.17h0c.43.03.82.23,1.1.57.3.36.44.85.38,1.33-.11.94-.89,1.66-1.77,1.66ZM96.02,20.98l1.78.12c.49.03.96-.39,1.02-.94.03-.28-.04-.55-.2-.74-.14-.17-.33-.27-.54-.28-.55-.04-1.1.27-1.42.79l-.64,1.05Z"/>
        </g>
        <ellipse class="cls-3" cx="97.9" cy="20.12" rx=".5" ry=".45" transform="translate(43.11 103.71) rotate(-68.36)"/>
        <g>
          <path class="cls-3" d="M99.28,19.64l1.33.29c.13.03.13.23,0,.28l-1.58.54.25-1.11Z"/>
          <path class="cls-2" d="M99.03,21.16c-.1,0-.19-.04-.27-.1-.11-.1-.16-.24-.12-.38l.25-1.11c.05-.22.26-.35.48-.3l1.33.29c.23.05.4.25.41.49.01.25-.14.48-.37.56l-1.58.54s-.09.02-.13.02ZM99.58,20.12v.03s.04-.02.04-.02h-.04Z"/>
        </g>
        <g>
          <path class="cls-2" d="M96.28,20.78c-1.51,1.41-3.33,2.48-5.31,3.11-1.25.4-2.41,1.02-3.44,1.82-.48.38-.93.8-1.34,1.25l-1.25,1.37c-.62-.8-.81-1.78-.62-2.68l-1.28-.24c-.21-.04-.24-.32-.04-.39l1.89-.64c.17-.24.38-.45.62-.64l4.76-3.73c1.85-1.44,4.52-1.12,5.97.74l.04.05Z"/>
          <path class="cls-2" d="M84.94,28.72h-.02c-.12,0-.23-.06-.3-.15-.58-.75-.85-1.68-.76-2.61l-.9-.17c-.27-.05-.48-.26-.5-.54-.02-.28.14-.53.4-.62l1.77-.6c.17-.21.37-.42.62-.62l4.77-3.73c2.03-1.57,4.96-1.21,6.54.8.13.16.15.44,0,.59-1.55,1.45-3.44,2.56-5.46,3.2-1.2.39-2.31.98-3.32,1.75-.46.37-.9.78-1.29,1.2l-1.25,1.36c-.08.08-.18.13-.3.13ZM83.85,25.14l.55.1c.11.02.2.08.26.17.06.09.08.2.06.31-.14.67-.04,1.36.28,1.95l.9-.98c.42-.46.89-.89,1.39-1.29,1.09-.84,2.29-1.47,3.57-1.88,1.79-.57,3.47-1.52,4.88-2.77-1.34-1.46-3.61-1.67-5.21-.43l-4.76,3.73c-.22.18-.4.36-.54.56-.05.07-.12.12-.2.15l-1.17.4ZM83.1,25.01h0s0,0,0,0Z"/>
        </g>
        <g>
          <path class="cls-2" d="M91.86,21.75l-2.32-1.31c-1.38-.78-2.54-1.93-3.36-3.33l-.31-.53c-.22-.37-.18-.85.09-1.17h0c.41-.49,1.15-.44,1.5.09h0c.87,1.32,2.06,2.37,3.44,3.07l2.31,1.16"/>
          <path class="cls-2" d="M91.86,22.15c-.07,0-.13-.02-.2-.05l-2.32-1.31c-1.44-.81-2.66-2.02-3.51-3.48l-.31-.53c-.3-.52-.25-1.17.13-1.63.27-.33.67-.5,1.09-.48.43.02.81.25,1.05.61.83,1.25,1.97,2.27,3.28,2.93l2.31,1.16c.2.1.28.34.18.54-.1.2-.34.28-.54.18l-2.31-1.16c-1.44-.73-2.68-1.83-3.59-3.2-.1-.15-.26-.24-.43-.25-.17-.01-.32.06-.43.19-.16.19-.18.49-.05.71l.31.53c.78,1.34,1.89,2.44,3.21,3.19l2.32,1.31c.19.11.26.35.15.54-.07.13-.21.2-.35.2Z"/>
        </g>
      </g>
      <g class="cls-5">
        <g>
          <polygon class="cls-3" points="59.92 56.01 97.85 83.51 104.96 54.05 84.85 42.52 59.92 56.01"/>
          <path class="cls-2" d="M97.85,83.91c-.08,0-.17-.03-.23-.08l-37.93-27.5c-.11-.08-.17-.21-.16-.35s.09-.26.21-.33l24.93-13.48c.12-.07.27-.06.39,0l20.11,11.53c.15.09.23.27.19.44l-7.11,29.46c-.03.13-.13.24-.25.28-.04.02-.09.02-.14.02ZM60.67,56.06l36.94,26.78,6.9-28.59-19.66-11.27-24.18,13.08Z"/>
        </g>
      </g>
      <path class="cls-2" d="M82.87,64.97c-.09,0-.17-.03-.25-.08-.17-.14-.21-.39-.07-.56l12.32-15.85c.14-.17.39-.21.56-.07.17.14.21.39.07.56l-12.32,15.85c-.08.1-.2.15-.32.15Z"/>
      <path class="cls-2" d="M72.51,64.06c-.1,0-.21-.04-.29-.12-.15-.16-.15-.41,0-.57l18.19-17.73c.16-.15.41-.15.57,0,.15.16.15.41,0,.57l-18.19,17.73c-.08.08-.18.11-.28.11Z"/>
      <path class="cls-2" d="M64.26,59.55c-.13,0-.25-.06-.33-.17-.13-.18-.08-.43.1-.56l22.42-15.59c.18-.13.43-.08.56.1.13.18.08.43-.1.56l-22.42,15.59c-.07.05-.15.07-.23.07Z"/>
      <path class="cls-2" d="M40.96,65.3c-.2,0-.38-.16-.4-.36l-2.24-24.36c-.02-.22.14-.42.36-.44.22-.02.41.14.43.36l2.24,24.36c.02.22-.14.42-.36.44-.01,0-.02,0-.04,0Z"/>
      <path class="cls-2" d="M45.05,65.3c-.21,0-.39-.16-.4-.38l-1.04-16.57c-.01-.22.15-.41.37-.42.22,0,.41.15.42.37l1.04,16.57c.01.22-.15.41-.37.42,0,0-.02,0-.03,0Z"/>
    </g>
    <g>
      <circle class="cls-4" cx="108.47" cy="46.6" r="2.02" transform="translate(4.44 102.4) rotate(-51.46)"/>
      <path class="cls-2" d="M108.47,49.02c-1.34,0-2.42-1.09-2.42-2.42s1.09-2.42,2.42-2.42c1.34,0,2.42,1.09,2.42,2.42s-1.09,2.42-2.42,2.42ZM108.47,44.97c-.89,0-1.62.73-1.62,1.62s.73,1.62,1.62,1.62,1.62-.73,1.62-1.62-.73-1.62-1.62-1.62Z"/>
    </g>
    <g>
      <circle class="cls-4" cx="107.47" cy="35.31" r="2.02" transform="translate(12.89 97.37) rotate(-51.46)"/>
      <path class="cls-2" d="M107.47,37.73c-1.34,0-2.42-1.09-2.42-2.42s1.09-2.42,2.42-2.42,2.42,1.09,2.42,2.42-1.09,2.42-2.42,2.42ZM107.47,33.69c-.89,0-1.62.73-1.62,1.62s.73,1.62,1.62,1.62,1.62-.73,1.62-1.62-.73-1.62-1.62-1.62Z"/>
    </g>
    <g>
      <circle class="cls-4" cx="93.21" cy="37.98" r="2.02" transform="translate(5.43 87.22) rotate(-51.46)"/>
      <path class="cls-2" d="M93.21,40.41c-1.34,0-2.42-1.09-2.42-2.42s1.09-2.42,2.42-2.42,2.42,1.09,2.42,2.42-1.09,2.42-2.42,2.42ZM93.21,36.36c-.89,0-1.62.73-1.62,1.62s.73,1.62,1.62,1.62,1.62-.73,1.62-1.62-.73-1.62-1.62-1.62Z"/>
    </g>
    <g>
      <polygon class="cls-3" points="65.17 34.64 68.9 39.99 77.28 34.13 71.43 25.75 65.17 34.64"/>
      <path class="cls-2" d="M68.9,40.39c-.13,0-.25-.06-.33-.17l-3.73-5.34c-.1-.14-.1-.32,0-.46l6.26-8.89c.07-.11.2-.17.33-.17h0c.13,0,.25.06.33.17l5.85,8.38c.06.09.08.19.07.3s-.08.2-.16.26l-8.38,5.85c-.07.05-.15.07-.23.07ZM65.65,34.64l3.34,4.79,7.73-5.4-5.3-7.59-5.77,8.19Z"/>
    </g>
    <path class="cls-2" d="M66.08,36.36c-.09,0-.18-.03-.25-.09-.17-.14-.2-.39-.05-.56l6.74-8.2c.14-.17.39-.19.56-.06.17.14.2.39.05.56l-6.74,8.2c-.08.1-.19.15-.31.15Z"/>
    <g>
      <path class="cls-4" d="M53.2,44.33c-.49.5-1.07,1.13-1.7,1.84-1.63,1.88-3.58,4.48-5.18,7.57-.29.58-.58,1.18-.85,1.8h0s-.01.03-.01.04c-1.13,2.57-1.98,5.46-2.16,8.53h0c-.03.26-.04.52-.04.78H9.46c3.62-8.5,9.61-19.91,17.03-23.94.38-.2.77-.38,1.17-.56.69-.29,1.38.44,1.02,1.09-.87,1.58-2.16,4.14-3.42,7.29-.28.68-.56,1.39-.82,2.12-.16.46,0,.86.3,1.1.42.35,1.11.36,1.47-.23,3.83-6.19,9.19-11.63,16.55-13.25.76-.16,1.27.74.74,1.31-2.27,2.44-6.39,7.39-9.1,13.47-.49,1.1,1.06,1.95,1.74.94,2.9-4.32,6.87-8.17,12.23-10.16.91-.34,1.87-.64,2.86-.85.41-.09.84-.19,1.26-.25.76-.13,1.23.78.7,1.33Z"/>
      <path class="cls-2" d="M43.25,65.3H9.46c-.13,0-.26-.07-.33-.18-.07-.11-.09-.25-.03-.38,3.74-8.77,9.75-20.08,17.2-24.13.4-.21.79-.4,1.2-.57.48-.21,1.02-.09,1.37.3.34.38.4.9.16,1.34-.68,1.22-2.02,3.78-3.4,7.25-.28.67-.56,1.39-.82,2.11-.12.35.06.56.18.65.15.12.34.18.51.15.15-.03.28-.12.37-.27,4.63-7.48,10.28-12,16.8-13.43.52-.11,1.03.12,1.29.58.26.46.19,1.01-.17,1.4-2.21,2.38-6.32,7.28-9.02,13.36-.21.46.17.7.25.75.22.12.56.15.79-.19,3.38-5.04,7.56-8.51,12.42-10.31.98-.37,1.97-.66,2.92-.86.42-.09.85-.19,1.28-.26.51-.09,1,.15,1.25.62.25.47.17,1.01-.2,1.38h0c-.58.6-1.15,1.21-1.68,1.83-1.41,1.63-3.45,4.25-5.13,7.49-.28.56-.57,1.15-.83,1.75,0,.01,0,.02-.01.04,0,0,0,.02-.01.03-1.25,2.85-1.96,5.67-2.13,8.39-.03.27-.04.51-.04.76,0,.22-.18.4-.4.4ZM10.07,64.5h32.79c0-.14.02-.27.03-.41.17-2.81.91-5.72,2.19-8.65,0-.01,0-.03.01-.04.27-.63.56-1.24.86-1.83,1.72-3.31,3.8-5.99,5.24-7.65.54-.63,1.12-1.25,1.71-1.86,0,0,0,0,0,0,.18-.19.09-.39.06-.45-.03-.06-.15-.25-.41-.2-.42.07-.84.16-1.24.25-.92.2-1.86.48-2.81.83-4.7,1.74-8.75,5.11-12.04,10.01-.49.73-1.3.74-1.84.44-.65-.36-.9-1.09-.6-1.77,2.75-6.19,6.93-11.17,9.17-13.58.18-.2.09-.4.06-.46-.03-.06-.16-.25-.42-.19-6.3,1.38-11.78,5.78-16.29,13.07-.21.34-.54.57-.92.64-.4.07-.82-.05-1.15-.31-.46-.36-.63-.96-.43-1.54.27-.74.55-1.46.83-2.15,1.4-3.5,2.76-6.1,3.44-7.33.11-.2,0-.36-.05-.42-.09-.1-.27-.19-.46-.1-.39.17-.76.35-1.14.54-7.09,3.85-12.9,14.61-16.6,23.18ZM45.46,55.58h.01-.01Z"/>
    </g>
  </g>
</svg>