<?xml version="1.0" encoding="UTF-8"?>
<svg id="region_illustration" data-name="region illustration" xmlns="http://www.w3.org/2000/svg" viewBox="0 0 120 80">
  <defs>
    <style>
      .cls-1, .cls-2 {
        fill: #f5f5f3;
      }

      .cls-2, .cls-3, .cls-4 {
        stroke: #231f20;
        stroke-linecap: round;
        stroke-linejoin: round;
        stroke-width: .8px;
      }

      .cls-3 {
        fill: #231f20;
      }

      .cls-4 {
        fill: #e0e0e0;
      }
    </style>
  </defs>
  <path class="cls-2" d="M96.7,23.26l-26.49-5.08-15.31,5.06-2.73,4.28-10.02,23.83-5.55,13.18-1.95,4.64,73.15.04-11.1-45.95ZM48.33,69.17v-5.57l12.42-.97v6.54h-12.42Z"/>
  <polygon class="cls-4" points="98.94 55.27 52.37 49.81 36.42 52.21 27.9 53.49 39.17 26.12 52.17 27.52 63.35 28.72 91.92 25.44 98.94 55.27"/>
  <g>
    <path class="cls-4" d="M44.23,25.96c-.19.05-.4.08-.61.09h-.16l-.04-.23.81.14Z"/>
    <g>
      <path class="cls-2" d="M40.16,23.55h0c-.02-.07-.04-.15-.06-.24.02.08.04.16.07.24Z"/>
      <path class="cls-2" d="M46.89,16.38v6.14c0,1.64-1.12,3.08-2.66,3.44-.19.05-.4.08-.61.09h-.16l-.04-.23-.28-1.67c-.08-.46-.13-.92-.15-1.38.26-.06.47-.25.55-.51l.14-.45c.38-1.18.43-2.45.16-3.66l-.05-.22c.62-1.79.89-3.68.79-5.57,0-.17-.01-.34-.03-.51.21.15.41.31.6.5.45.41.82.9,1.1,1.44.42.79.64,1.68.64,2.59Z"/>
    </g>
    <path class="cls-3" d="M47.96,10.57l-1.51-.21-.03.28c-.13-.65-.7-1.14-1.38-1.14-.78,0-1.49.44-1.85,1.13l-.87,1.73c-1.37.76-2.3,2.23-2.3,3.91v6.35c0,.24.02.47.07.69.02.08.04.16.07.24h0s-.68,1.96-.68,1.96c-.07.21.18.38.35.23l1.01-.91c.07.07.13.14.2.21.23.24.5.44.79.6.11.06.22.11.34.16v.37c0,.39.31.69.7.69h2.66c.18,0,.34-.15.34-.33,0-.17-.12-.31-.29-.34l-1.34-.23c-.19.05-.4.08-.61.09h-.16l-.04-.23-.28-1.67c-.08-.46-.13-.92-.15-1.38.26-.06.47-.25.55-.51l.14-.45c.38-1.18.43-2.45.16-3.66l-.05-.22c.62-1.79.89-3.68.79-5.57,0-.17-.01-.34-.03-.51-.02-.02-.04-.04-.06-.05h.06v.05c.21.15.41.31.6.5.52-.04.97-.37,1.17-.83l1.67-.67c.14-.05.12-.26-.03-.28ZM45.33,10.93c-.16,0-.29-.13-.29-.28,0-.16.13-.29.29-.29.15,0,.28.13.28.29,0,.15-.13.28-.28.28Z"/>
    <path class="cls-3" d="M44.55,11.8v.05s-.04-.04-.06-.05h.06Z"/>
    <path class="cls-3" d="M44.55,11.8v.05s-.04-.04-.06-.05h.06Z"/>
    <path class="cls-3" d="M45.15,12.35s-.09.01-.13.01h-.44c0-.17-.01-.34-.03-.51.21.15.41.31.6.5Z"/>
    <path class="cls-3" d="M45.61,10.65c0,.15-.13.28-.28.28-.16,0-.29-.13-.29-.28,0-.16.13-.29.29-.29.15,0,.28.13.28.29Z"/>
    <path class="cls-1" d="M45.61,10.65c0,.15-.13.28-.28.28-.16,0-.29-.13-.29-.28,0-.16.13-.29.29-.29.15,0,.28.13.28.29Z"/>
  </g>
  <g>
    <path class="cls-4" d="M72.89,53.89c-.19.05-.4.08-.61.09h-.16l-.04-.23.81.14Z"/>
    <g>
      <path class="cls-2" d="M68.82,51.48h0c-.02-.07-.04-.15-.06-.24.02.08.04.16.07.24Z"/>
      <path class="cls-2" d="M75.55,44.31v6.14c0,1.64-1.12,3.08-2.66,3.44-.19.05-.4.08-.61.09h-.16l-.04-.23-.28-1.67c-.08-.46-.13-.92-.15-1.38.26-.06.47-.25.55-.51l.14-.45c.38-1.18.43-2.45.16-3.66l-.05-.22c.62-1.79.89-3.68.79-5.57,0-.17-.01-.34-.03-.51.21.15.41.31.6.5.45.41.82.9,1.1,1.44.42.79.64,1.68.64,2.59Z"/>
    </g>
    <path class="cls-3" d="M76.62,38.5l-1.51-.21-.03.28c-.13-.65-.7-1.14-1.38-1.14-.78,0-1.49.44-1.85,1.13l-.87,1.73c-1.37.76-2.3,2.23-2.3,3.91v6.35c0,.24.02.47.07.69.02.08.04.16.07.24h0s-.68,1.96-.68,1.96c-.07.21.18.38.35.23l1.01-.91c.07.07.13.14.2.21.23.24.5.44.79.6.11.06.22.11.34.16v.37c0,.39.31.69.7.69h2.66c.18,0,.34-.15.34-.33,0-.17-.12-.31-.29-.34l-1.34-.23c-.19.05-.4.08-.61.09h-.16l-.04-.23-.28-1.67c-.08-.46-.13-.92-.15-1.38.26-.06.47-.25.55-.51l.14-.45c.38-1.18.43-2.45.16-3.66l-.05-.22c.62-1.79.89-3.68.79-5.57,0-.17-.01-.34-.03-.51-.02-.02-.04-.04-.06-.05h.06v.05c.21.15.41.31.6.5.52-.04.97-.37,1.17-.83l1.67-.67c.14-.05.12-.26-.03-.28ZM73.99,38.86c-.16,0-.29-.13-.29-.28,0-.16.13-.29.29-.29.15,0,.28.13.28.29,0,.15-.13.28-.28.28Z"/>
    <path class="cls-3" d="M73.21,39.73v.05s-.04-.04-.06-.05h.06Z"/>
    <path class="cls-3" d="M73.21,39.73v.05s-.04-.04-.06-.05h.06Z"/>
    <path class="cls-3" d="M73.81,40.28s-.09.01-.13.01h-.44c0-.17-.01-.34-.03-.51.21.15.41.31.6.5Z"/>
    <path class="cls-3" d="M74.27,38.58c0,.15-.13.28-.28.28-.16,0-.29-.13-.29-.28,0-.16.13-.29.29-.29.15,0,.28.13.28.29Z"/>
    <path class="cls-1" d="M74.27,38.58c0,.15-.13.28-.28.28-.16,0-.29-.13-.29-.28,0-.16.13-.29.29-.29.15,0,.28.13.28.29Z"/>
  </g>
  <g>
    <path class="cls-4" d="M43.04,50.59c-.19.05-.4.08-.61.09h-.16l-.04-.23.81.14Z"/>
    <g>
      <path class="cls-2" d="M38.97,48.18h0c-.02-.07-.04-.15-.06-.24.02.08.04.16.07.24Z"/>
      <path class="cls-2" d="M45.7,41.01v6.14c0,1.64-1.12,3.08-2.66,3.44-.19.05-.4.08-.61.09h-.16l-.04-.23-.28-1.67c-.08-.46-.13-.92-.15-1.38.26-.06.47-.25.55-.51l.14-.45c.38-1.18.43-2.45.16-3.66l-.05-.22c.62-1.79.89-3.68.79-5.57,0-.17-.01-.34-.03-.51.21.15.41.31.6.5.45.41.82.9,1.1,1.44.42.79.64,1.68.64,2.59Z"/>
    </g>
    <path class="cls-3" d="M46.77,35.2l-1.51-.21-.03.28c-.13-.65-.7-1.14-1.38-1.14-.78,0-1.49.44-1.85,1.13l-.87,1.73c-1.37.76-2.3,2.23-2.3,3.91v6.35c0,.24.02.47.07.69.02.08.04.16.07.24h0s-.68,1.96-.68,1.96c-.07.21.18.38.35.23l1.01-.91c.07.07.13.14.2.21.23.24.5.44.79.6.11.06.22.11.34.16v.37c0,.39.31.69.7.69h2.66c.18,0,.34-.15.34-.33,0-.17-.12-.31-.29-.34l-1.34-.23c-.19.05-.4.08-.61.09h-.16l-.04-.23-.28-1.67c-.08-.46-.13-.92-.15-1.38.26-.06.47-.25.55-.51l.14-.45c.38-1.18.43-2.45.16-3.66l-.05-.22c.62-1.79.89-3.68.79-5.57,0-.17-.01-.34-.03-.51-.02-.02-.04-.04-.06-.05h.06v.05c.21.15.41.31.6.5.52-.04.97-.37,1.17-.83l1.67-.67c.14-.05.12-.26-.03-.28ZM44.14,35.56c-.16,0-.29-.13-.29-.28,0-.16.13-.29.29-.29.15,0,.28.13.28.29,0,.15-.13.28-.28.28Z"/>
    <path class="cls-3" d="M43.36,36.43v.05s-.04-.04-.06-.05h.06Z"/>
    <path class="cls-3" d="M43.36,36.43v.05s-.04-.04-.06-.05h.06Z"/>
    <path class="cls-3" d="M43.96,36.98s-.09.01-.13.01h-.44c0-.17-.01-.34-.03-.51.21.15.41.31.6.5Z"/>
    <path class="cls-3" d="M44.42,35.28c0,.15-.13.28-.28.28-.16,0-.29-.13-.29-.28,0-.16.13-.29.29-.29.15,0,.28.13.28.29Z"/>
    <path class="cls-1" d="M44.42,35.28c0,.15-.13.28-.28.28-.16,0-.29-.13-.29-.28,0-.16.13-.29.29-.29.15,0,.28.13.28.29Z"/>
  </g>
  <polygon class="cls-4" points="100.19 59.52 78.57 61.22 60.75 62.63 48.33 63.6 36.6 64.53 35.33 64.63 34.65 64.56 28.92 63.97 17.93 62.85 14.96 62.54 20.06 55.6 27.9 53.49 36.42 52.21 42.15 51.35 52.37 49.81 68.73 51.73 71.8 52.09 74.94 52.46 98.94 55.27 100.19 59.52"/>
  <polygon class="cls-4" points="103.04 69.21 81.47 69.17 78.57 61.22 100.19 59.52 103.04 69.21"/>
  <polygon class="cls-4" points="17.93 62.85 17.93 69.17 14.96 69.17 14.96 62.54 17.93 62.85"/>
  <polygon class="cls-4" points="34.65 64.56 34.65 69.17 17.93 69.17 17.93 62.85 28.92 63.97 34.65 64.56"/>
  <polygon class="cls-4" points="48.33 63.6 48.33 69.17 34.65 69.17 34.65 64.56 35.33 64.63 36.6 64.53 48.33 63.6"/>
  <polygon class="cls-4" points="60.75 62.63 60.75 69.17 48.33 69.17 48.33 63.6 60.75 62.63"/>
  <polygon class="cls-4" points="81.47 69.17 60.75 69.17 60.75 62.63 78.57 61.22 81.47 69.17"/>
  <g>
    <path class="cls-4" d="M63.34,27.87c-.19.05-.4.08-.61.09h-.16l-.04-.23.81.14Z"/>
    <g>
      <path class="cls-2" d="M59.27,25.46h0c-.02-.07-.04-.15-.06-.24.02.08.04.16.07.24Z"/>
      <path class="cls-2" d="M66,18.29v6.14c0,1.64-1.12,3.08-2.66,3.44-.19.05-.4.08-.61.09h-.16l-.04-.23-.28-1.67c-.08-.46-.13-.92-.15-1.38.26-.06.47-.25.55-.51l.14-.45c.38-1.18.43-2.45.16-3.66l-.05-.22c.62-1.79.89-3.68.79-5.57,0-.17-.01-.34-.03-.51.21.15.41.31.6.5.45.41.82.9,1.1,1.44.42.79.64,1.68.64,2.59Z"/>
    </g>
    <path class="cls-3" d="M67.07,12.48l-1.51-.21-.03.28c-.13-.65-.7-1.14-1.38-1.14-.78,0-1.49.44-1.85,1.13l-.87,1.73c-1.37.76-2.3,2.23-2.3,3.91v6.35c0,.24.02.47.07.69.02.08.04.16.07.24h0s-.68,1.96-.68,1.96c-.07.21.18.38.35.23l1.01-.91c.07.07.13.14.2.21.23.24.5.44.79.6.11.06.22.11.34.16v.37c0,.39.31.69.7.69h2.66c.18,0,.34-.15.34-.33,0-.17-.12-.31-.29-.34l-1.34-.23c-.19.05-.4.08-.61.09h-.16l-.04-.23-.28-1.67c-.08-.46-.13-.92-.15-1.38.26-.06.47-.25.55-.51l.14-.45c.38-1.18.43-2.45.16-3.66l-.05-.22c.62-1.79.89-3.68.79-5.57,0-.17-.01-.34-.03-.51-.02-.02-.04-.04-.06-.05h.06v.05c.21.15.41.31.6.5.52-.04.97-.37,1.17-.83l1.67-.67c.14-.05.12-.26-.03-.28ZM64.44,12.84c-.16,0-.29-.13-.29-.28,0-.16.13-.29.29-.29.15,0,.28.13.28.29,0,.15-.13.28-.28.28Z"/>
    <path class="cls-3" d="M63.66,13.71v.05s-.04-.04-.06-.05h.06Z"/>
    <path class="cls-3" d="M63.66,13.71v.05s-.04-.04-.06-.05h.06Z"/>
    <path class="cls-3" d="M64.26,14.26s-.09.01-.13.01h-.44c0-.17-.01-.34-.03-.51.21.15.41.31.6.5Z"/>
    <path class="cls-3" d="M64.72,12.56c0,.15-.13.28-.28.28-.16,0-.29-.13-.29-.28,0-.16.13-.29.29-.29.15,0,.28.13.28.29Z"/>
    <path class="cls-1" d="M64.72,12.56c0,.15-.13.28-.28.28-.16,0-.29-.13-.29-.28,0-.16.13-.29.29-.29.15,0,.28.13.28.29Z"/>
  </g>
  <rect class="cls-3" x="9.9" y="68.12" width="106.07" height="3.5"/>
</svg>