<?xml version="1.0" encoding="UTF-8"?>
<svg id="region_illustration" data-name="region illustration" xmlns="http://www.w3.org/2000/svg" viewBox="0 0 106.81 76.7">
  <defs>
    <style>
      .cls-1 {
        fill: #231f20;
      }
    </style>
  </defs>
  <path class="cls-1" d="M106.41,69.59h-13.48l-17.04-26.67c-.07-.12-.2-.18-.34-.18h-8.56l-5.37-27.3c-.02-.11-.08-.2-.17-.26l-5.38-3.48L50.33.22c-.1-.19-.32-.27-.52-.19l-5.15,2.25c-.11.05-.19.14-.22.25l-8.21,27.38-5.87-8.2c-.07-.1-.2-.17-.33-.17h-6.75c-.17,0-.32.11-.38.27l-9.33,27.68-2.99,11.64h-4.41s0,.01,0,.01c-.07,0-.13.02-.19.06-.01,0-.03.02-.04.03-.02.01-.04.02-.06.04L.1,67.64c-.09.1-.13.24-.09.37s.13.24.26.28l1.73.55.06,4.74v2.71c0,.22.18.4.4.4h103.94c.22,0,.4-.18.4-.4v-6.3c0-.22-.18-.4-.4-.4ZM36.53,31.7l.15-.48.15-.48L45.16,2.94l4.51-1.97c-.1.08-.17.21-.15.35l2.41,25.02c.02.21.19.36.4.36.01,0,.03,0,.04,0,.22-.02.38-.22.36-.44l-2.32-24.13,5.01,10.02c.03.06.08.12.14.16l.08.05s-.01.09,0,.14l2.41,15.8c.03.2.2.34.39.34.02,0,.04,0,.06,0,.22-.03.37-.24.34-.46l-2.33-15.27,4.38,2.83,5.31,26.98.08.4.08.4.96,4.88-2.14-.74-1.62-4.13-.16-.4-.16-.4-3.33-8.52c-.06-.15-.21-.25-.37-.25h-8.15c-.14,0-.26.07-.34.19l-5.54,8.72-.23.36-.23.36-.28.44-10.09-.17-1.06-2.46,2.91-9.7ZM44.52,44.83l-5.63,8.87-.26.41-.22.35-.04.06-.24.38-.28.44-.28.44-.28.44-.28.44-.28.44-.28.44-.07.1-.12.06-2.65,1.3-12,5.91-.24.12,2.2-3.1.39-.55,2.2-3.1c.05-.07.07-.15.07-.23v-2.25s0-.43,0-.43v-.43s0-.98,0-.98l2.34-2.76c.05-.06.09-.14.09-.23l.29-3.7.06-.74.06-.74.06-.74.04-.46h.23s.6.01.6.01h.6s.6.02.6.02h.6s0,.01,0,.01h.41s.19,0,.19,0h.22s.38.01.38.01h.6s.51.02.51.02h.09s.35,0,.35,0h.44s9.24.16,9.24.16h.26ZM23.57,22.35h6.26l6.11,8.54-2.81,9.38-1.44-3.36c-.06-.15-.21-.24-.37-.24h-6.11c-.18,0-.34.12-.39.29l-1.95,6.96-5.9,3.57-2.32,1.27,8.91-26.41ZM2.29,68.1l-.88-.28h0s-.3-.1-.3-.1l5.07-5.58.23-.25.17.25.23.34.3.45.06.09s-.05.03-.07.05l-.02.02-.88.91-3.26,3.4-.38.4-.27.28ZM7.94,73.09h-.41s-1.17-.01-1.17-.01v-.37s0-.4,0-.4v-1.91s0-.4,0-.4v-.38s1.72.01,1.72.01v.37s0,.4,0,.4v.56s0,1.35,0,1.35v.25s0,.15,0,.15v.38s-.14,0-.14,0ZM12.77,73.16h-2.95s-.42,0-.42,0h-.42s-.11,0-.11,0v-.46s0-.4,0-.4v-1.25s0,0,0,0v-.66s0-.4,0-.4v-.4s0-.14,0-.14v-.23c0-.17-.11-.31-.26-.37-.04-.02-.09-.03-.14-.03l-2.52-.02c-.1,0-.21.04-.29.12-.08.08-.12.18-.12.28v.39s0,.4,0,.4v.4s0,1.91,0,1.91v.4s0,.4,0,.4v.07h-2.69s0-.07,0-.07v-.4s-.04-2.71-.04-2.71v-.4s-.02-.88-.02-.88l.48-.5.38-.4.38-.4,3.58-3.73,1.81,1.92.32.34.32.34h0s.65.69.65.69l.32.34.07.08.25.26.13.14.26.27c.08.08.18.12.29.12h.29s.41,0,.41,0h0v1.4s0,.4,0,.4v.4s0,1.91,0,1.91v.4s0,.4,0,.4v.06ZM14.98,73.16h-.51s-.51,0-.51,0h-.38s0-.05,0-.05v-.4s0-.4,0-.4v-1.91s0-.4,0-.4v-.4s0-1.23,0-1.23h4.26s.51,0,.51,0h0v.63s0,.61,0,.61v.4s0,.4,0,.4v1.91s0,.4,0,.4v.4s0,.05,0,.05h-3.36ZM18.61,67.38h-5.29s-.41.01-.41.01h-.13s-.29,0-.29,0h-.25s-.13-.14-.13-.14l-.11-.12-.36-.38-.32-.34-.32-.34-.67-.71h0s-.32-.34-.32-.34l-.32-.34-2.13-2.25v-.02s-.38-.38-.38-.38l-.08-.08h.38s.85,0,.85,0h2.05s.41,0,.41,0h.41s0,0,0,0h.97s.42,0,.42,0h.42s.58,0,.58,0l.08.08.44.47.31.33,4.25,4.48.07.08h-.14ZM53.87,73.18H19.15v-.48s0-.4,0-.4v-1.91s0-.4,0-.4v-.4s0-1.42,0-1.42h.53c.16,0,.3-.1.37-.24.06-.15.03-.32-.08-.43l-.23-.25-.28-.29-.28-.29-4.55-4.81s-.02-.06-.03-.08c-.04-.06-.1-.1-.16-.13l-.37-.39c-.08-.08-.18-.12-.29-.12h-.53s-.42,0-.42,0h-.42s-.99,0-.99,0l2.89-11.27,3.08-1.69,6.05-3.66c.09-.05.15-.14.18-.23l.89-3.18.17-.59.16-.59.17-.59.16-.59.17-.59.16-.59.03-.11h5.54l.43,1,.84,1.97.44,1.02.25.57.16.38.08.2.54,1.25h-.16s-.6-.01-.6-.01h-.15s-.42,0-.42,0h-.04s-.38,0-.38,0h-.22s-.6-.01-.6-.01h-.6s-.6-.02-.6-.02h-.6s-.6-.02-.6-.02c-.19-.02-.34.12-.38.29,0,.03-.02.05-.02.08l-.05.64-.06.74-.06.74-.35,4.5-2.35,2.77c-.06.07-.09.16-.09.26v1.44s0,.43,0,.43v.43s0,1.81,0,1.81l-5.62,7.94s0,.03-.01.04c-.08.15-.08.32.03.45.02.02.05.04.07.05.07.05.15.09.23.09.06,0,.12-.01.18-.04l.11-.06,16.41-8.08s.07-.06.11-.1c.02-.02.04-.03.06-.05l.23-.37.28-.44.28-.44.28-.44.28-.44.28-.44.27-.43.04.05,3.98,4.64,3.98,4.64,3.98,4.64.41.47.34.4.34.4,1.64,1.91.34.4.34.4.07.08h-.52ZM72.99,73.18h-17.54l-.07-.08-.34-.4-.34-.4-1.64-1.91-.34-.4-.34-.4-13-15.15,6.22-9.79c.05-.07.06-.16.05-.24,0-.05-.01-.11-.04-.16,0,0-.01,0-.01-.01l.2-.31.23-.36,5.59-8.81h7.65l3.12,7.98.16.4.16.4,1.8,4.6c.04.11.13.19.24.23l2.75.96.44.15.44.15,7.49,2.6,7.89,17.37.18.4.18.4.87,1.91.18.4.18.4.04.08h-12.37ZM86.24,73.18l-.04-.08-.18-.4-.18-.4-.87-1.91-.18-.4-.18-.4-8.11-17.86c-.05-.1-.13-.18-.23-.21l-8.09-2.81-1.02-5.18h8.18l16.65,26.06.26.4.26.4,1.22,1.91.26.4.26.4.05.08h-8.04ZM95.4,73.11h-.23s.23,0,.23,0h0Z"/>
</svg>