<?xml version="1.0" encoding="UTF-8"?>
<svg id="effect_illustrations" data-name="effect illustrations" xmlns="http://www.w3.org/2000/svg" xmlns:xlink="http://www.w3.org/1999/xlink" viewBox="0 0 120 80">
  <defs>
    <style>
      .cls-1 {
        fill: none;
      }

      .cls-2 {
        fill: #231f20;
      }

      .cls-3 {
        fill: #efefef;
      }

      .cls-4 {
        fill: #fff;
      }

      .cls-5 {
        clip-path: url(#clippath);
      }
    </style>
    <clipPath id="clippath">
      <path class="cls-1" d="M20.11,44.18s10.1,8.96,24.8,12.21c14.7,3.26,21.65-3.28,21.65-3.28V15.79s-44.54,0-44.54,0l-1.92,28.39Z"/>
    </clipPath>
  </defs>
  <g id="glacier_effect" data-name="glacier effect">
    <g>
      <path class="cls-3" d="M43.01,58.99l14.12-11.05,6.98-6.82,11.76-23.63c1.2-2.41,3.72-3.86,6.4-3.69l1.9.12,1.64-3.15c.75-1.44,2.83-1.38,3.5.09l4.16,9.16,13.95,38.96H43.01Z"/>
      <path class="cls-2" d="M107.43,59.39H43.01c-.17,0-.32-.11-.38-.27s0-.34.13-.45l14.12-11.05,6.9-6.74,11.72-23.57c1.27-2.56,3.94-4.09,6.79-3.91l1.64.1,1.52-2.92c.42-.8,1.24-1.27,2.14-1.26.9.02,1.7.55,2.07,1.37l4.16,9.16,13.97,38.99c.04.12.03.26-.05.37s-.2.17-.33.17ZM44.17,58.59h62.68l-13.76-38.42-4.15-9.13c-.25-.55-.76-.89-1.37-.91-.61-.02-1.13.29-1.41.83l-1.64,3.15c-.07.14-.22.23-.38.21l-1.9-.12c-2.53-.16-4.89,1.2-6.02,3.47l-11.75,23.63s-.05.08-.08.11l-6.98,6.82-13.24,10.36Z"/>
    </g>
    <polygon class="cls-1" points="26.33 50.29 44.8 56.52 60.74 55.94 57.53 33.12 32.08 28.37 26.33 50.29"/>
    <g>
      <path class="cls-4" d="M80.09,30.74c-2.21,0-4.24,1.22-5.25,3.19-3.28,6.39-12.12,20.09-27.31,19.2-6.25-.37-18.41-9.44-25.72-15.34-.1-3.21-2.73-5.78-5.97-5.78s-5.98,2.68-5.98,5.98c0,2.3,1.31,4.3,3.21,5.3-.9.91-1.46,2.15-1.46,3.53,0,1.69.84,3.18,2.13,4.09-1.46,1.09-2.41,2.83-2.41,4.79,0,3.3,2.68,5.98,5.98,5.98.04,0,.07,0,.11,0-.93.67-1.55,1.76-1.55,3,0,2.05,1.66,3.71,3.71,3.71.75,0,1.45-.23,2.03-.61,5.27,1.11,22.14,3.93,41.6-.39,23.55-5.23,28.49-36.63,28.49-36.63h-11.63Z"/>
      <path class="cls-2" d="M41.57,70.08c-9.55,0-16.86-1.27-19.86-1.9-.64.38-1.36.59-2.11.59-2.26,0-4.11-1.84-4.11-4.11,0-.98.36-1.92.98-2.65-3.12-.42-5.53-3.09-5.53-6.32,0-1.85.78-3.57,2.16-4.78-1.19-1.03-1.89-2.52-1.89-4.1,0-1.26.43-2.47,1.23-3.43-1.85-1.16-2.99-3.19-2.99-5.4,0-3.52,2.86-6.38,6.38-6.38s6.16,2.61,6.36,5.98c6.88,5.55,19.18,14.78,25.35,15.14,15.07.88,23.85-12.98,26.93-18.98,1.08-2.1,3.22-3.4,5.6-3.4h11.63c.12,0,.23.05.3.14.08.09.11.21.09.32-.05.32-5.26,31.73-28.8,36.96-7.85,1.74-15.31,2.32-21.75,2.32ZM21.63,67.36s.06,0,.08,0c4.78,1.01,21.89,3.95,41.43-.39,21.46-4.77,27.36-31.95,28.1-35.84h-11.15c-2.08,0-3.95,1.14-4.89,2.97-3.15,6.14-12.17,20.32-27.69,19.41-6.11-.36-17.48-8.59-25.95-15.43-.09-.07-.14-.18-.15-.3-.1-3.03-2.55-5.4-5.57-5.4s-5.58,2.5-5.58,5.58c0,2.08,1.15,3.98,3,4.94.11.06.19.17.21.29s-.02.25-.11.34c-.86.87-1.34,2.03-1.34,3.25,0,1.49.73,2.9,1.96,3.77.1.07.17.19.17.32s-.06.25-.16.33c-1.43,1.07-2.25,2.69-2.25,4.47,0,3.08,2.5,5.58,5.58,5.58.17,0,.38.11.44.27s.05.34-.09.44c-.86.62-1.38,1.62-1.38,2.68,0,1.82,1.48,3.31,3.31,3.31.64,0,1.27-.19,1.81-.55.07-.04.14-.07.22-.07Z"/>
    </g>
    <g class="cls-5">
      <g>
        <g>
          <polygon class="cls-3" points="33.59 39.91 46.55 51.03 54.69 46.15 45.7 38.44 33.59 39.91"/>
          <path class="cls-2" d="M46.55,51.43c-.09,0-.19-.03-.26-.1l-12.96-11.12c-.12-.1-.17-.27-.12-.42.05-.15.18-.26.33-.28l12.11-1.47c.11-.01.22.02.31.09l8.99,7.71c.1.08.15.21.14.34-.01.13-.08.24-.19.31l-8.14,4.88c-.06.04-.13.06-.21.06ZM34.54,40.2l12.05,10.34,7.42-4.45-8.43-7.23-11.03,1.34Z"/>
        </g>
        <g>
          <rect class="cls-3" x="43.42" y="53.85" width="8.73" height="8.7" transform="translate(-27.5 56.58) rotate(-49.38)"/>
          <path class="cls-2" d="M48.24,64.74c-.09,0-.18-.03-.26-.1l-6.6-5.66c-.08-.07-.13-.17-.14-.27,0-.11.03-.21.1-.29l5.69-6.63c.14-.17.4-.19.56-.04l6.6,5.66c.17.14.19.4.04.56l-5.69,6.63c-.08.09-.19.14-.3.14ZM42.2,58.63l6,5.14,5.17-6.02-6-5.14-5.17,6.02Z"/>
        </g>
        <g>
          <polyline class="cls-3" points="47.11 39.64 47.45 50.94 47.48 51.82 47.5 51.85 41.64 58.68 28.97 47.81 34.01 41.79"/>
          <path class="cls-2" d="M41.64,59.08c-.1,0-.19-.03-.26-.1l-12.67-10.87c-.17-.14-.19-.39-.05-.56l5.04-6.02c.14-.17.39-.19.56-.05.17.14.19.39.05.56l-4.79,5.71,12.07,10.35,5.48-6.38-.37-12.08c0-.22.17-.41.39-.41.22-.02.41.17.41.39l.37,12.1s.01.05.01.07c0,.11-.01.22-.08.3l-5.86,6.83c-.07.08-.17.13-.27.14-.01,0-.02,0-.03,0Z"/>
        </g>
        <polyline class="cls-1" points="35.52 46.74 47.63 45.27 47.76 45.38"/>
        <g>
          <polygon class="cls-3" points="54.58 45.07 55.21 58.46 46.21 50.73 45.59 37.36 54.58 45.07"/>
          <path class="cls-2" d="M55.21,58.86c-.09,0-.19-.03-.26-.1l-9-7.72c-.08-.07-.13-.18-.14-.29l-.61-13.37c0-.16.08-.31.22-.38.14-.07.31-.05.44.06l8.99,7.71c.08.07.13.17.14.29l.63,13.39c0,.16-.08.31-.22.38-.06.03-.12.04-.18.04ZM46.6,50.54l8.17,7.01-.58-12.29-8.15-6.99.56,12.28Z"/>
        </g>
        <g>
          <polygon class="cls-3" points="33.2 51.22 36.16 53.81 40.5 48.77 37.54 46.18 33.2 51.22"/>
          <path class="cls-2" d="M36.16,54.21c-.1,0-.19-.03-.26-.1l-2.96-2.59c-.17-.14-.18-.4-.04-.56l4.34-5.05c.07-.08.17-.13.28-.14.1,0,.21.03.29.1l2.96,2.59c.17.14.18.4.04.56l-4.34,5.05c-.07.08-.17.13-.28.14,0,0-.02,0-.03,0ZM33.76,51.18l2.36,2.06,3.82-4.44-2.36-2.06-3.82,4.44Z"/>
        </g>
      </g>
    </g>
    <path class="cls-2" d="M52.85,57.72c-2.36,0-5.04-.27-8.03-.93-14.64-3.24-24.88-12.21-24.98-12.3-.17-.15-.18-.4-.03-.56.15-.17.4-.18.56-.03.1.09,10.2,8.93,24.62,12.12,14.3,3.17,21.22-3.12,21.29-3.18.16-.15.41-.14.57.02.15.16.14.41-.02.56-.23.22-4.71,4.31-13.98,4.31Z"/>
    <g>
      <path class="cls-3" d="M43.01,69.7l31.85-11.05,6.98-6.82,11.76-23.63c1.2-2.41,3.72-3.86,6.4-3.69l1.9.12,1.64-3.15c.75-1.44,2.83-1.38,3.5.09l4.16,9.16.08,38.96H43.01Z"/>
      <path class="cls-2" d="M111.28,70.1H43.01c-.2,0-.36-.14-.39-.33s.08-.38.26-.44l31.76-11.02,6.86-6.71,11.72-23.56c1.27-2.56,3.93-4.09,6.79-3.91l1.64.1,1.52-2.92c.42-.8,1.25-1.28,2.14-1.26.9.02,1.7.55,2.07,1.37l4.16,9.16c.02.05.04.11.04.16l.08,38.96c0,.11-.04.21-.12.28-.08.08-.18.12-.28.12ZM45.39,69.3h65.49l-.08-38.47-4.13-9.08c-.25-.55-.76-.89-1.37-.91-.6-.01-1.13.29-1.41.83l-1.64,3.15c-.07.14-.22.22-.38.21l-1.9-.12c-2.53-.16-4.89,1.2-6.02,3.47l-11.76,23.63s-.05.08-.08.11l-6.98,6.82s-.09.07-.15.09l-29.6,10.27Z"/>
    </g>
    <path class="cls-2" d="M40.61,64.66c-3.85,0-6.28-.35-6.34-.35-.22-.03-.37-.24-.34-.45.03-.22.24-.37.45-.34.13.02,13.42,1.9,27.25-3.31,13.7-5.16,16.07-14.21,16.09-14.3.05-.21.27-.35.48-.29.21.05.35.27.29.48-.09.39-2.46,9.54-16.59,14.86-8.11,3.05-16.04,3.7-21.31,3.7Z"/>
    <g>
      <line class="cls-3" x1="81.4" y1="30.74" x2="77.62" y2="37.98"/>
      <path class="cls-2" d="M77.62,38.38c-.06,0-.13-.01-.18-.05-.2-.1-.27-.34-.17-.54l3.78-7.24c.1-.2.34-.27.54-.17.2.1.27.34.17.54l-3.78,7.24c-.07.14-.21.21-.35.21Z"/>
    </g>
    <g>
      <line class="cls-3" x1="74.58" y1="42.38" x2="70.8" y2="49.62"/>
      <path class="cls-2" d="M70.8,50.02c-.06,0-.13-.01-.18-.05-.2-.1-.27-.34-.17-.54l3.78-7.24c.1-.2.34-.27.54-.17.2.1.27.34.17.54l-3.78,7.24c-.07.14-.21.21-.35.21Z"/>
    </g>
    <g>
      <line class="cls-3" x1="86.73" y1="30.74" x2="81.15" y2="41.44"/>
      <path class="cls-2" d="M81.15,41.84c-.06,0-.13-.01-.18-.05-.2-.1-.27-.34-.17-.54l5.58-10.69c.1-.2.34-.27.54-.17.2.1.27.34.17.54l-5.58,10.69c-.07.14-.21.21-.35.21Z"/>
    </g>
    <g>
      <line class="cls-3" x1="35.09" y1="57.77" x2="21.66" y2="55.27"/>
      <path class="cls-2" d="M35.09,58.17s-.05,0-.07,0l-13.43-2.5c-.22-.04-.36-.25-.32-.47.04-.22.25-.36.47-.32l13.43,2.5c.22.04.36.25.32.47-.04.19-.2.33-.39.33Z"/>
    </g>
    <g>
      <polyline class="cls-3" points="45.59 37.36 32.3 39 34.01 41.79 45.21 40.72"/>
      <path class="cls-2" d="M34.01,42.19c-.14,0-.27-.07-.34-.19l-1.72-2.8c-.07-.12-.08-.26-.02-.38s.18-.21.31-.22l13.3-1.64c.22-.03.42.13.45.35.03.22-.13.42-.35.45l-12.68,1.56,1.26,2.06,10.94-1.05c.22-.02.42.14.44.36.02.22-.14.42-.36.44l-11.19,1.07s-.03,0-.04,0Z"/>
    </g>
  </g>
</svg>