<?xml version="1.0" encoding="UTF-8"?>
<svg id="region_illustration" data-name="region illustration" xmlns="http://www.w3.org/2000/svg" xmlns:xlink="http://www.w3.org/1999/xlink" viewBox="0 0 120 80">
  <defs>
    <style>
      .cls-1 {
        fill: none;
      }

      .cls-2, .cls-3 {
        fill: #231f20;
      }

      .cls-4 {
        fill: #efefef;
      }

      .cls-5 {
        clip-path: url(#clippath-2);
      }

      .cls-6 {
        fill: #fff;
      }

      .cls-3 {
        clip-path: url(#clippath-1);
      }

      .cls-7 {
        clip-path: url(#clippath);
      }
    </style>
    <clipPath id="clippath">
      <polygon class="cls-1" points="14.35 75.45 20.55 51.25 23.77 49.48 29.82 45.82 31.81 38.71 37.92 38.71 45.31 55.96 62.04 75.45 14.35 75.45"/>
    </clipPath>
    <clipPath id="clippath-1">
      <rect class="cls-4" x="154.49" y="44.52" width="95" height="29.86"/>
    </clipPath>
    <clipPath id="clippath-2">
      <path class="cls-3" d="M249.5,74.78h-95c-.22,0-.4-.18-.4-.4v-29.86c0-.22.18-.4.4-.4h95c.22,0,.4.18.4.4v29.86c0,.22-.18.4-.4.4ZM154.89,73.98h94.2v-29.06h-94.2v29.06Z"/>
    </clipPath>
  </defs>
  <g id="galcier">
    <g>
      <rect class="cls-2" x="9.07" y="71.65" width="103.94" height="2.71"/>
      <path class="cls-2" d="M113.01,74.76H9.07c-.22,0-.4-.18-.4-.4v-2.71c0-.22.18-.4.4-.4h103.94c.22,0,.4.18.4.4v2.71c0,.22-.18.4-.4.4ZM9.47,73.96h103.14v-1.91H9.47v1.91Z"/>
    </g>
    <g>
      <polygon class="cls-4" points="62.44 44.79 82.15 44.79 101.73 75.45 77.85 75.45 62.44 44.79"/>
      <path class="cls-2" d="M101.73,75.85h-23.88c-.15,0-.29-.08-.36-.22l-15.41-30.66c-.06-.12-.06-.27.02-.39.07-.12.2-.19.34-.19h19.7c.14,0,.26.07.34.18l19.58,30.66c.08.12.08.28.01.41-.07.13-.2.21-.35.21ZM78.1,75.05h22.91l-19.07-29.86h-18.84l15,29.86Z"/>
    </g>
    <g>
      <polygon class="cls-4" points="14.35 75.45 20.55 51.25 20.55 51.25 29.88 23.6 36.63 23.6 56.89 51.9 66.86 53.5 79.3 75.45 14.35 75.45"/>
      <path class="cls-2" d="M79.3,75.85H14.35c-.12,0-.24-.06-.32-.15-.08-.1-.1-.22-.07-.34l6.2-24.19,9.33-27.68c.05-.16.21-.27.38-.27h6.75c.13,0,.25.06.33.17l20.16,28.16,9.8,1.58c.12.02.22.09.28.2l12.44,21.94c.07.12.07.28,0,.4-.07.12-.2.2-.35.2ZM14.87,75.05h63.75l-12-21.18-9.78-1.58c-.11-.02-.2-.08-.26-.16l-20.14-28.13h-6.26l-9.23,27.38-6.07,23.67Z"/>
    </g>
    <g>
      <polygon class="cls-4" points="79.3 75.45 67.83 17.17 62.36 13.63 56.57 2.05 51.43 4.3 35.99 55.76 19.59 62.19 15.82 75.45 79.3 75.45"/>
      <path class="cls-2" d="M79.3,75.85H15.82c-.13,0-.24-.06-.32-.16-.08-.1-.1-.23-.07-.35l3.77-13.26c.03-.12.12-.22.24-.26l16.22-6.36L51.04,4.19c.03-.11.12-.2.22-.25l5.15-2.25c.2-.08.42,0,.52.19l5.74,11.48,5.38,3.48c.09.06.15.15.18.26l11.47,58.28c.02.12,0,.24-.08.33-.08.09-.19.15-.31.15ZM16.35,75.05h62.46l-11.34-57.64-5.32-3.45c-.06-.04-.11-.09-.14-.16l-5.62-11.24-4.63,2.02-15.38,51.28c-.04.12-.12.21-.24.26l-16.22,6.36-3.57,12.56Z"/>
    </g>
    <g>
      <polygon class="cls-4" points="92.67 75.45 82.73 53.55 71.45 49.64 66.12 36.01 57.98 36.01 43.26 59.19 30.1 63.58 20.55 75.45 92.67 75.45"/>
      <path class="cls-2" d="M92.67,75.85H20.55c-.15,0-.29-.09-.36-.23-.07-.14-.05-.3.05-.42l9.54-11.87c.05-.06.11-.1.19-.13l13.02-4.34,14.65-23.06c.07-.12.2-.19.34-.19h8.15c.16,0,.31.1.37.25l5.26,13.46,11.1,3.86c.1.04.19.11.23.21l9.94,21.89c.06.12.05.27-.03.38-.07.11-.2.18-.34.18ZM21.39,75.05h70.66l-9.61-21.17-11.12-3.86c-.11-.04-.2-.12-.24-.23l-5.23-13.37h-7.65l-14.61,23c-.05.08-.12.14-.21.17l-13.05,4.35-8.95,11.12Z"/>
    </g>
    <g>
      <g class="cls-7">
        <polygon class="cls-4" points="62.04 38.72 62.03 38.71 62.04 38.71 62.04 38.72"/>
        <polygon class="cls-4" points="62.04 39.54 61.44 38.71 62.03 38.71 62.04 38.72 62.04 39.54"/>
        <polygon class="cls-4" points="62.04 40.35 60.84 38.71 61.44 38.71 62.04 39.54 62.04 40.35"/>
        <polygon class="cls-4" points="62.04 41.16 60.25 38.71 60.84 38.71 62.04 40.35 62.04 41.16"/>
        <polygon class="cls-4" points="62.04 41.98 59.65 38.71 60.25 38.71 62.04 41.16 62.04 41.98"/>
        <polygon class="cls-4" points="62.04 42.79 59.06 38.71 59.65 38.71 62.04 41.98 62.04 42.79"/>
        <polygon class="cls-4" points="62.04 43.61 58.46 38.71 59.06 38.71 62.04 42.79 62.04 43.61"/>
        <polygon class="cls-4" points="62.04 44.42 57.87 38.71 58.46 38.71 62.04 43.61 62.04 44.42"/>
        <polygon class="cls-4" points="62.04 45.23 57.28 38.71 57.87 38.71 62.04 44.42 62.04 45.23"/>
        <polygon class="cls-4" points="62.04 46.05 56.68 38.71 57.28 38.71 62.04 45.23 62.04 46.05"/>
        <polygon class="cls-4" points="62.04 46.86 56.09 38.71 56.68 38.71 62.04 46.05 62.04 46.86"/>
        <polygon class="cls-4" points="62.04 47.68 55.49 38.71 56.09 38.71 62.04 46.86 62.04 47.68"/>
        <polygon class="cls-4" points="62.04 48.49 54.9 38.71 55.49 38.71 62.04 47.68 62.04 48.49"/>
        <polygon class="cls-4" points="62.04 49.31 54.3 38.71 54.9 38.71 62.04 48.49 62.04 49.31"/>
        <polygon class="cls-4" points="62.04 50.12 53.71 38.71 54.3 38.71 62.04 49.31 62.04 50.12"/>
        <polygon class="cls-4" points="62.04 50.93 53.11 38.71 53.71 38.71 62.04 50.12 62.04 50.93"/>
        <polygon class="cls-4" points="62.04 51.75 52.52 38.71 53.11 38.71 62.04 50.93 62.04 51.75"/>
        <polygon class="cls-4" points="62.04 52.56 51.93 38.71 52.52 38.71 62.04 51.75 62.04 52.56"/>
        <polygon class="cls-4" points="62.04 53.38 51.33 38.71 51.93 38.71 62.04 52.56 62.04 53.38"/>
        <polygon class="cls-4" points="62.04 54.19 50.74 38.71 51.33 38.71 62.04 53.38 62.04 54.19"/>
        <polygon class="cls-4" points="62.04 55.01 50.14 38.71 50.74 38.71 62.04 54.19 62.04 55.01"/>
        <polygon class="cls-4" points="62.04 55.82 49.55 38.71 50.14 38.71 62.04 55.01 62.04 55.82"/>
        <polygon class="cls-4" points="62.04 56.63 48.95 38.71 49.55 38.71 62.04 55.82 62.04 56.63"/>
        <polygon class="cls-4" points="62.04 57.45 48.36 38.71 48.95 38.71 62.04 56.63 62.04 57.45"/>
        <polygon class="cls-4" points="62.04 58.26 47.76 38.71 48.36 38.71 62.04 57.45 62.04 58.26"/>
        <polygon class="cls-4" points="62.04 59.08 47.17 38.71 47.76 38.71 62.04 58.26 62.04 59.08"/>
        <polygon class="cls-4" points="62.04 59.89 46.57 38.71 47.17 38.71 62.04 59.08 62.04 59.89"/>
        <polygon class="cls-4" points="62.04 60.7 45.98 38.71 46.57 38.71 62.04 59.89 62.04 60.7"/>
        <polygon class="cls-4" points="62.04 61.52 45.39 38.71 45.98 38.71 62.04 60.7 62.04 61.52"/>
        <polygon class="cls-4" points="62.04 62.33 44.79 38.71 45.39 38.71 62.04 61.52 62.04 62.33"/>
        <polygon class="cls-4" points="62.04 63.15 44.2 38.71 44.79 38.71 62.04 62.33 62.04 63.15"/>
        <polygon class="cls-4" points="62.04 63.96 43.6 38.71 44.2 38.71 62.04 63.15 62.04 63.96"/>
        <polygon class="cls-4" points="62.04 64.78 43.01 38.71 43.6 38.71 62.04 63.96 62.04 64.78"/>
        <polygon class="cls-4" points="62.04 65.59 42.41 38.71 43.01 38.71 62.04 64.78 62.04 65.59"/>
        <polygon class="cls-4" points="62.04 66.4 41.82 38.71 42.41 38.71 62.04 65.59 62.04 66.4"/>
        <polygon class="cls-4" points="62.04 67.22 41.22 38.71 41.82 38.71 62.04 66.4 62.04 67.22"/>
        <polygon class="cls-4" points="62.04 68.03 40.63 38.71 41.22 38.71 62.04 67.22 62.04 68.03"/>
        <polygon class="cls-4" points="62.04 68.85 40.04 38.71 40.63 38.71 62.04 68.03 62.04 68.85"/>
        <polygon class="cls-4" points="62.04 69.66 39.44 38.71 40.04 38.71 62.04 68.85 62.04 69.66"/>
        <polygon class="cls-4" points="62.04 70.47 38.85 38.71 39.44 38.71 62.04 69.66 62.04 70.47"/>
        <polygon class="cls-4" points="62.04 71.29 38.25 38.71 38.85 38.71 62.04 70.47 62.04 71.29"/>
        <polygon class="cls-4" points="62.04 72.1 37.66 38.71 38.25 38.71 62.04 71.29 62.04 72.1"/>
        <polygon class="cls-4" points="62.04 72.92 37.06 38.71 37.66 38.71 62.04 72.1 62.04 72.92"/>
        <polygon class="cls-4" points="62.04 73.73 36.47 38.71 37.06 38.71 62.04 72.92 62.04 73.73"/>
        <polygon class="cls-4" points="62.04 74.55 35.87 38.71 36.47 38.71 62.04 73.73 62.04 74.55"/>
        <polygon class="cls-4" points="62.04 75.36 35.28 38.71 35.87 38.71 62.04 74.55 62.04 75.36"/>
        <polygon class="cls-4" points="61.51 75.45 34.69 38.71 35.28 38.71 62.04 75.36 62.04 75.45 61.51 75.45"/>
        <polygon class="cls-4" points="60.91 75.45 34.09 38.71 34.69 38.71 61.51 75.45 60.91 75.45"/>
        <polygon class="cls-4" points="60.32 75.45 33.5 38.71 34.09 38.71 60.91 75.45 60.32 75.45"/>
        <polygon class="cls-4" points="59.72 75.45 32.9 38.71 33.5 38.71 60.32 75.45 59.72 75.45"/>
        <polygon class="cls-4" points="59.13 75.45 32.31 38.71 32.9 38.71 59.72 75.45 59.13 75.45"/>
        <polygon class="cls-4" points="58.53 75.45 31.71 38.71 32.31 38.71 59.13 75.45 58.53 75.45"/>
        <polygon class="cls-4" points="57.94 75.45 31.12 38.71 31.71 38.71 58.53 75.45 57.94 75.45"/>
        <polygon class="cls-4" points="57.35 75.45 30.52 38.71 31.12 38.71 57.94 75.45 57.35 75.45"/>
        <polygon class="cls-4" points="56.75 75.45 29.93 38.71 30.52 38.71 57.35 75.45 56.75 75.45"/>
        <polygon class="cls-4" points="56.16 75.45 29.33 38.71 29.93 38.71 56.75 75.45 56.16 75.45"/>
        <polygon class="cls-4" points="55.56 75.45 28.74 38.71 29.33 38.71 56.16 75.45 55.56 75.45"/>
        <polygon class="cls-4" points="54.97 75.45 28.24 38.84 28.42 38.71 28.74 38.71 55.56 75.45 54.97 75.45"/>
        <polygon class="cls-4" points="14.35 48.98 28.24 38.84 54.97 75.45 14.35 75.45 14.35 48.98"/>
      </g>
      <path class="cls-2" d="M62.04,75.85H14.35c-.12,0-.24-.06-.32-.15-.08-.1-.1-.22-.07-.34l6.2-24.19c.03-.11.1-.2.19-.25l3.22-1.77,5.9-3.57,1.95-6.96c.05-.17.21-.29.39-.29h6.11c.16,0,.3.1.37.24l7.37,17.19,16.69,19.44c.1.12.13.29.06.43-.07.14-.21.23-.36.23ZM14.87,75.05h46.3l-16.16-18.83s-.05-.07-.06-.1l-7.29-17h-5.54l-1.91,6.82c-.03.1-.09.18-.18.23l-6.05,3.66-3.08,1.69-6.03,23.53Z"/>
    </g>
    <g>
      <polygon class="cls-6" points="51.84 46.1 35.42 45.82 34.89 52.56 32.45 55.43 32.45 59.66 26.76 67.71 43.28 59.57 51.84 46.1"/>
      <path class="cls-2" d="M26.76,68.11c-.11,0-.23-.05-.3-.14-.12-.14-.13-.34-.02-.49l5.62-7.94v-4.1c0-.09.04-.19.1-.26l2.35-2.77.52-6.61c.02-.21.18-.39.41-.37l16.42.27c.14,0,.28.08.35.21.07.13.06.28-.01.4l-8.56,13.47c-.04.06-.09.11-.16.14l-16.53,8.14c-.06.03-.12.04-.18.04ZM32.85,55.58v4.08c0,.08-.03.16-.08.23l-4.78,6.76,15.01-7.4,8.11-12.77-15.33-.26-.5,6.36c0,.08-.04.16-.09.23l-2.34,2.76Z"/>
    </g>
    <g>
      <line class="cls-4" x1="62.61" y1="14.1" x2="65.02" y2="29.9"/>
      <path class="cls-2" d="M65.02,30.3c-.19,0-.36-.14-.4-.34l-2.41-15.8c-.03-.22.12-.42.34-.46.22-.03.42.12.46.34l2.41,15.8c.03.22-.12.42-.34.46-.02,0-.04,0-.06,0Z"/>
    </g>
    <g>
      <line class="cls-4" x1="56.51" y1="2.93" x2="58.92" y2="27.95"/>
      <path class="cls-2" d="M58.92,28.35c-.2,0-.38-.15-.4-.36l-2.41-25.02c-.02-.22.14-.42.36-.44.22-.02.42.14.44.36l2.41,25.02c.02.22-.14.42-.36.44-.01,0-.03,0-.04,0Z"/>
    </g>
    <g>
      <g>
        <polygon class="cls-4" points="8 69.47 18.95 69.44 20.86 63.67 13.27 63.68 8 69.47"/>
        <path class="cls-2" d="M8,69.87c-.16,0-.3-.09-.37-.24-.06-.15-.04-.31.07-.43l5.27-5.78c.08-.08.18-.13.29-.13l7.59-.02h0c.13,0,.25.06.32.17.08.1.1.24.06.36l-1.91,5.78c-.05.16-.21.27-.38.27l-10.95.02h0ZM13.45,64.08l-4.54,4.98,9.75-.02,1.65-4.97h-6.86Z"/>
      </g>
      <g>
        <rect class="cls-4" x="19.76" y="69.61" width="5.58" height="5.6" transform="translate(-.15 .05) rotate(-.12)"/>
        <path class="cls-2" d="M19.77,75.61c-.22,0-.4-.18-.4-.4v-5.6c-.01-.11.03-.21.1-.28s.18-.12.28-.12h5.58s0-.01,0-.01c.22,0,.4.18.4.4v5.6c.01.11-.03.21-.1.28s-.18.12-.28.12h-5.58s0,.01,0,.01ZM20.16,70.01v4.8s4.79,0,4.79,0v-4.8s-4.79,0-4.79,0Z"/>
      </g>
      <g>
        <polyline class="cls-4" points="14.46 63.68 19.35 69.03 19.73 69.44 19.76 69.44 19.77 75.21 9.07 75.24 9 70.2"/>
        <path class="cls-2" d="M9.07,75.64c-.22,0-.4-.18-.4-.39l-.07-5.03c0-.22.17-.4.39-.41.25-.01.4.17.41.39l.06,4.64,9.91-.02v-5.19s-5.21-5.67-5.21-5.67c-.15-.16-.14-.42.02-.56.16-.15.42-.14.57.02l5.23,5.72c.1.07.17.19.17.32v5.77c.01.11-.03.21-.1.28s-.18.12-.28.12l-10.7.02h0Z"/>
      </g>
      <g>
        <polygon class="cls-6" points="20.36 63.19 26.27 69.43 18.66 69.45 12.77 63.21 20.36 63.19"/>
        <path class="cls-2" d="M18.66,69.84c-.11,0-.22-.05-.29-.12l-5.89-6.24c-.11-.12-.14-.29-.08-.43.06-.15.21-.24.37-.24l7.59-.02h0c.11,0,.21.04.29.12l5.91,6.24c.11.12.14.29.08.43-.06.15-.21.24-.37.24l-7.6.02h0ZM13.7,63.6l5.14,5.44h6.5s-5.15-5.45-5.15-5.45h-6.49Z"/>
      </g>
      <g>
        <polygon class="cls-4" points="12.55 75.12 15.07 75.15 15.06 70.88 12.54 70.86 12.55 75.12"/>
        <path class="cls-2" d="M15.07,75.55h0l-2.52-.02c-.22,0-.4-.18-.4-.4v-4.27c0-.11.04-.21.11-.28s.18-.11.29-.12l2.52.02c.22,0,.4.18.4.4v4.27c0,.11-.04.21-.11.28-.07.07-.18.12-.28.12ZM12.95,74.73h1.72s0-3.45,0-3.45h-1.72s0,3.45,0,3.45Z"/>
      </g>
    </g>
    <g>
      <polyline class="cls-6" points="12.77 63.21 6.99 69.56 9 70.2 13.99 65"/>
      <path class="cls-2" d="M9,70.6s-.08,0-.12-.02l-2-.64c-.13-.04-.23-.15-.26-.28-.04-.13,0-.27.09-.37l5.77-6.36c.15-.16.4-.18.57-.03s.18.4.03.56l-5.36,5.9,1.17.38,4.82-5.02c.15-.16.41-.17.57-.01.16.15.16.41.01.57l-4.99,5.2c-.08.08-.18.12-.29.12Z"/>
    </g>
    <g>
      <rect class="cls-2" x="9.07" y="75.24" width="103.94" height="2.71"/>
      <path class="cls-2" d="M113.01,78.35H9.07c-.22,0-.4-.18-.4-.4v-2.71c0-.22.18-.4.4-.4h103.94c.22,0,.4.18.4.4v2.71c0,.22-.18.4-.4.4ZM9.47,77.55h103.14v-1.91H9.47v1.91Z"/>
    </g>
  </g>
  <g id="boreal">
    <g>
      <rect class="cls-4" x="154.49" y="44.52" width="95" height="29.86"/>
      <path class="cls-2" d="M249.5,74.78h-95c-.22,0-.4-.18-.4-.4v-29.86c0-.22.18-.4.4-.4h95c.22,0,.4.18.4.4v29.86c0,.22-.18.4-.4.4ZM154.89,73.98h94.2v-29.06h-94.2v29.06Z"/>
      <g class="cls-5">
        <g>
          <g>
            <polygon class="cls-6" points="119.52 35.04 112.87 35.04 109.55 40.8 112.87 46.55 119.52 46.55 122.84 40.8 119.52 35.04"/>
            <path class="cls-4" d="M119.52,46.95h-6.65c-.14,0-.27-.08-.35-.2l-3.32-5.76c-.07-.12-.07-.28,0-.4l3.32-5.76c.07-.12.2-.2.35-.2h6.65c.14,0,.27.08.35.2l3.32,5.76c.07.12.07.28,0,.4l-3.32,5.76c-.07.12-.2.2-.35.2ZM113.1,46.15h6.19l3.09-5.36-3.09-5.36h-6.19l-3.09,5.36,3.09,5.36Z"/>
          </g>
          <g>
            <polygon class="cls-6" points="119.51 46.54 112.86 46.54 109.54 52.3 112.86 58.06 119.51 58.06 122.83 52.3 119.51 46.54"/>
            <path class="cls-4" d="M119.51,58.46h-6.65c-.14,0-.27-.08-.35-.2l-3.32-5.76c-.07-.12-.07-.28,0-.4l3.32-5.76c.07-.12.2-.2.35-.2h6.65c.14,0,.27.08.35.2l3.32,5.76c.07.12.07.28,0,.4l-3.32,5.76c-.07.12-.2.2-.35.2ZM113.09,57.66h6.19l3.09-5.36-3.09-5.36h-6.19l-3.09,5.36,3.09,5.36Z"/>
          </g>
        </g>
      </g>
    </g>
  </g>
</svg>