<?xml version="1.0" encoding="UTF-8"?>
<svg id="region_illustration" data-name="region illustration" xmlns="http://www.w3.org/2000/svg" xmlns:xlink="http://www.w3.org/1999/xlink" viewBox="0 0 120 80">
  <defs>
    <style>
      .cls-1 {
        fill: none;
      }

      .cls-1, .cls-2, .cls-3, .cls-4, .cls-5 {
        stroke: #231f20;
        stroke-linecap: round;
        stroke-linejoin: round;
        stroke-width: .8px;
      }

      .cls-2 {
        fill: #f5f5f3;
      }

      .cls-3 {
        fill: url(#linear-gradient);
      }

      .cls-4 {
        fill: #231f20;
      }

      .cls-5 {
        fill: #e0e0e0;
      }
    </style>
    <linearGradient id="linear-gradient" x1="21.49" y1="63.76" x2="21.42" y2="63.81" gradientUnits="userSpaceOnUse">
      <stop offset="0" stop-color="#e0e0e0"/>
      <stop offset=".8" stop-color="#e0e0e0"/>
    </linearGradient>
  </defs>
  <rect class="cls-4" x="6.31" y="71.77" width="103.94" height="6.3" rx="3.15" ry="3.15"/>
  <polygon class="cls-5" points="102.31 75.57 93.24 75.57 83.3 53.68 75 50.8 73.84 44.92 82.72 44.92 102.31 75.57"/>
  <polygon class="cls-5" points="21.44 63.8 21.43 63.84 21.39 63.8 21.44 63.8"/>
  <polygon class="cls-5" points="37.21 23.73 43.55 32.58 40.36 43.21 38.49 38.84 32.38 38.84 30.39 45.95 24.34 49.61 21.13 51.38 30.45 23.73 37.21 23.73"/>
  <polygon class="cls-5" points="21.44 63.8 21.43 63.84 21.39 63.8 21.44 63.8"/>
  <polygon class="cls-5" points="75 50.8 72.02 49.77 70.13 44.92 66.7 36.14 58.55 36.14 52.7 45.36 52.15 46.22 41.58 46.04 39.52 46.01 40.36 43.21 43.55 32.58 52 4.43 57.14 2.18 62.93 13.76 68.4 17.29 73.84 44.92 75 50.8"/>
  <path class="cls-5" d="M46.04,56.26l-2.18,3.43-16.5,8.14h-.03s5.69-8.04,5.69-8.04v-2.52s0-1.71,0-1.71l2.43-2.87.53-6.74,3.53.06.84-2.8-1.87-4.37h-6.11l-1.99,7.11-6.05,3.66-3.21,1.77-6.21,24.19h47.69l-16.57-19.31ZM21.43,63.84l-.04-.04h.05v.04Z"/>
  <polygon class="cls-3" points="21.44 63.8 21.43 63.84 21.39 63.8 21.44 63.8"/>
  <polygon class="cls-2" points="46.04 56.26 43.86 59.69 27.36 67.83 27.33 67.84 33.02 59.79 33.03 57.27 33.03 55.56 35.46 52.69 35.99 45.95 39.52 46.01 41.58 46.04 52.15 46.22 46.04 56.26"/>
  <polygon class="cls-5" points="93.24 75.57 62.61 75.57 46.04 56.26 52.15 46.22 52.7 45.36 58.55 36.14 66.7 36.14 70.13 44.92 72.02 49.77 75 50.8 83.3 53.68 93.24 75.57"/>
  <line class="cls-1" x1="63.19" y1="14.23" x2="65.6" y2="30.03"/>
  <line class="cls-1" x1="57.08" y1="3.06" x2="59.49" y2="28.08"/>
  <polygon class="cls-5" points="21.44 63.8 21.43 63.84 21.39 63.8 21.44 63.8"/>
  <g>
    <polygon class="cls-2" points="26.84 69.56 20.33 69.57 19.24 69.57 14.92 64.99 14.45 64.5 13.82 63.83 13.34 63.33 20.94 63.32 21.39 63.8 21.43 63.84 26.84 69.56"/>
    <polygon class="cls-5" points="25.91 69.56 25.92 75.36 20.34 75.36 20.33 69.57 25.91 69.56"/>
    <polygon class="cls-5" points="20.34 75.36 9.64 75.36 9.57 70.33 10.27 69.6 14.78 64.86 19.24 69.57 20.33 69.57 20.33 69.74 20.34 75.36"/>
    <polygon class="cls-5" points="13.12 75.36 15.64 75.36 15.64 71.01 13.12 70.99 13.12 75.36"/>
    <polygon class="cls-2" points="14.78 64.86 10.27 69.6 9.57 70.33 7.89 69.33 13.34 63.33 14.78 64.86"/>
  </g>
</svg>