<?xml version="1.0" encoding="UTF-8"?>
<svg id="region_illustration" data-name="region illustration" xmlns="http://www.w3.org/2000/svg" viewBox="0 0 120 80">
  <defs>
    <style>
      .cls-1 {
        fill: none;
        stroke: #f5f5f3;
      }

      .cls-1, .cls-2, .cls-3 {
        stroke-linecap: round;
        stroke-linejoin: round;
        stroke-width: .8px;
      }

      .cls-4 {
        fill: #231f20;
      }

      .cls-2 {
        fill: #f5f5f3;
      }

      .cls-2, .cls-3 {
        stroke: #231f20;
      }

      .cls-3 {
        fill: #e0e0e0;
      }
    </style>
  </defs>
  <rect class="cls-4" x="4.94" y="57.46" width="105.3" height="10.4"/>
  <path class="cls-3" d="M80.58,34.84v3.57c-.88-.26-1.79-.39-2.72-.39-.08,0-.17,0-.25.01v-3.19h2.97Z"/>
  <polygon class="cls-3" points="81.3 32.91 79.87 34.84 77.62 34.84 76.19 32.91 81.3 32.91"/>
  <polygon class="cls-2" points="83.55 34.84 77.62 34.84 76.19 32.91 82.12 32.91 83.55 34.84"/>
  <path class="cls-3" d="M77.61,34.84v3.19c-1.29.03-2.54.31-3.68.8v-3.99l1.44-1.93h.82l1.42,1.93Z"/>
  <path class="cls-3" d="M83.55,34.84v5.01c-.91-.66-1.91-1.14-2.97-1.44-.88-.26-1.79-.39-2.72-.39-.08,0-.17,0-.25.01v-3.19h5.94Z"/>
  <path class="cls-3" d="M65.7,45.61c-.27.06-.53.09-.8.09-.69.03-1.36-.08-2.01-.33-.32-.12-.64-.24-.96-.34-1.2-.4-2.43-.67-3.68-.82v-2.16l1.43-1.92h4.2l.53,1.61.11.31.38,1.15.8,2.41Z"/>
  <path class="cls-3" d="M63.88,40.13h-4.2l-1.43,1.92v2.16c-2.46-.31-4.99-.14-7.51.52-2.88.74-5.52,2.25-7.75,4.22l-.1.1s-.02.01-.02.01l-1.26,1.07-16.29,1.32c-2.29.18-4.44,1.12-6.12,2.68l-3.6,3.33-2.7,2.5,1.06-2.5,1.57-3.71,7.27-6.22c.35.08.72.13,1.08.13,1.83,0,3.5-1,4.36-2.61l1.28-2.35,2.62,1.04c.22.09.46.13.71.13.58,0,1.13-.25,1.51-.72l2.92-3.64c.36.41.88.64,1.45.64.66,0,1.27-.33,1.63-.88l3.32-5.15,1.28-1.57.67,1.9c.28.76,1.02,1.27,1.83,1.27.56,0,1.09-.24,1.45-.67l4.91-5.66,1.58.95c.3.18.65.28,1,.28.58,0,1.11-.25,1.48-.68l4.04,4.34h0s1.95,5.85,1.95,5.85Z"/>
  <path class="cls-3" d="M64.9,42.05v3.65c-.69.03-1.36-.08-2.01-.33-.32-.12-.64-.24-.96-.34v-2.98h2.97Z"/>
  <polygon class="cls-3" points="65.61 40.13 64.41 41.74 64.18 42.05 61.93 42.05 60.5 40.13 65.61 40.13"/>
  <polygon class="cls-2" points="67.86 42.05 61.93 42.05 60.5 40.13 66.43 40.13 67.86 42.05"/>
  <path class="cls-3" d="M61.93,42.05v2.98c-1.2-.4-2.43-.67-3.68-.82v-2.16l1.43-1.92h.82l1.43,1.92Z"/>
  <path class="cls-3" d="M67.86,42.05v2.6c-.29.23-.6.43-.94.58-.4.18-.81.31-1.22.38-.27.06-.53.09-.8.09-.69.03-1.36-.08-2.01-.33-.32-.12-.64-.24-.96-.34v-2.98h5.93Z"/>
  <path class="cls-3" d="M103.95,60.6H12.72l.18-.64,2.7-2.5,3.6-3.33c1.68-1.56,3.83-2.5,6.12-2.68l16.29-1.32-2.01,1.72c-1.04.88-.44,2.58.93,2.6l.8.02c.93.21,1.91.32,2.91.32,1.33,0,2.72-.19,4.12-.57.44-.11.9-.17,1.44-.17.01,0,6.39.15,6.39.15h.15c1.51,0,2.96-.45,4.19-1.32.88-.62,1.91-.95,2.99-.95.33,0,.66.03.98.09l3.58.7.08.02c.45.09.91.13,1.37.13,1.59,0,3.16-.52,4.42-1.49l2.93-2.24c.9-.68,2.03-1.06,3.25-1.06l16.01.32c1.84,0,3.62-.54,5.15-1.58l1.84-1.24c.18-.12.34-.26.49-.42l.26,12.3.07,3.14Z"/>
  <path class="cls-1" d="M33.01,64.08c-4.68,0-4.68-1.14-9.35-1.14s-4.68,1.14-9.36,1.14-4.68-1.14-9.36-1.14"/>
  <path class="cls-1" d="M66.57,63.79c-2.16,0-2.16-.57-4.32-.57s-2.16.57-4.32.57-2.16-.57-4.32-.57"/>
  <path class="cls-1" d="M102.62,63.79c-3.31,0-3.31-.57-6.62-.57s-3.31.57-6.63.57-3.31-.57-6.63-.57"/>
  <path class="cls-2" d="M61.93,34.29h0s-4.04-4.35-4.04-4.35c-.37.43-.9.68-1.48.68-.35,0-.7-.1-1-.28l-1.58-.95-4.91,5.66c-.36.43-.89.67-1.45.67-.81,0-1.55-.51-1.83-1.27l-.67-1.9-1.28,1.57-3.32,5.15c-.36.55-.97.88-1.63.88-.57,0-1.09-.23-1.45-.64l-2.92,3.64c-.38.47-.93.72-1.51.72-.25,0-.49-.04-.71-.13l-2.62-1.04-1.28,2.35c-.86,1.61-2.53,2.61-4.36,2.61-.36,0-.73-.05-1.08-.13l-7.27,6.22v-.02s7.24-19.72,7.24-19.72c.31-.75,1.31-.89,1.82-.26l.2.23c.46.57,1.36.51,1.75-.12l7.85-12.8c.42-.7,1.44-.69,1.85.02l3.17,5.55c.4.7,1.39.73,1.83.06l9.21-13.94c.52-.79,1.74-.57,1.95.36l1.92,8.53c.17.79,1.12,1.11,1.74.59l1.09-.91c.58-.48,1.47-.23,1.71.49l3.07,12.48Z"/>
  <path class="cls-2" d="M103.81,35.68c-1.66-3.3-5.03-5.32-8.74-5.24-3.4.08-6.47,2.1-8.18,5.04l-2.74,4.72s-.07.04-.1.02c-.16-.13-.33-.26-.5-.37-.91-.66-1.91-1.14-2.97-1.44-.88-.26-1.79-.39-2.72-.39-.08,0-.17,0-.25.01-1.29.03-2.54.31-3.68.8-1.81.78-3.37,2.1-4.46,3.84l-.28.46c-.36.58-.8,1.1-1.33,1.52-.29.23-.6.43-.94.58-.4.18-.81.31-1.22.38-.27.06-.53.09-.8.09-.69.03-1.36-.08-2.01-.33-.32-.12-.64-.24-.96-.34-1.2-.4-2.43-.67-3.68-.82-2.46-.31-4.99-.14-7.51.52-2.88.74-5.52,2.25-7.75,4.22l-.1.1s-.02.01-.02.01l-1.26,1.07-2.01,1.72c-1.04.88-.44,2.58.93,2.6l.8.02c.93.21,1.91.32,2.91.32,1.33,0,2.72-.19,4.12-.57.44-.11.9-.17,1.44-.17.01,0,6.39.15,6.39.15h.15c1.51,0,2.96-.45,4.19-1.32.88-.62,1.91-.95,2.99-.95.33,0,.66.03.98.09l3.58.7.08.02c.45.09.91.13,1.37.13,1.59,0,3.16-.52,4.42-1.49l2.93-2.24c.9-.68,2.03-1.06,3.25-1.06l16.01.32c1.84,0,3.62-.54,5.15-1.58l1.84-1.24c.18-.12.34-.26.49-.42.64-.62,1.02-1.49,1.02-2.42v-3.57c0-1.2-.29-2.4-.83-3.49Z"/>
</svg>