<?xml version="1.0" encoding="UTF-8"?>
<svg id="region_illustration" data-name="region illustration" xmlns="http://www.w3.org/2000/svg" viewBox="0 0 120 80">
  <defs>
    <style>
      .cls-1 {
        fill: none;
      }

      .cls-2 {
        fill: #231f20;
      }

      .cls-3 {
        fill: #efefef;
      }

      .cls-4 {
        fill: #fff;
      }
    </style>
  </defs>
  <g id="greenland-2" data-name="greenland">
    <g>
      <rect class="cls-2" x="10.07" y="57.34" width="103.93" height="8.95"/>
      <path class="cls-2" d="M114,66.68H10.07c-.22,0-.4-.18-.4-.4v-8.95c0-.22.18-.4.4-.4h103.93c.22,0,.4.18.4.4v8.95c0,.22-.18.4-.4.4ZM10.47,65.88h103.13v-8.15H10.47v8.15Z"/>
    </g>
    <g>
      <g>
        <rect class="cls-3" x="81.37" y="34.71" width="2.97" height="5.93"/>
        <path class="cls-2" d="M84.34,41.04h-2.97c-.22,0-.4-.18-.4-.4v-5.93c0-.22.18-.4.4-.4h2.97c.22,0,.4.18.4.4v5.93c0,.22-.18.4-.4.4ZM81.77,40.24h2.17v-5.13h-2.17v5.13Z"/>
      </g>
      <g>
        <polygon class="cls-3" points="85.06 32.78 83.62 34.71 81.37 34.71 79.94 32.78 85.06 32.78"/>
        <path class="cls-2" d="M83.62,35.11h-2.25c-.13,0-.25-.06-.32-.16l-1.43-1.92c-.09-.12-.1-.28-.04-.42.07-.14.21-.22.36-.22h5.11c.15,0,.29.08.36.22s.05.3-.04.42l-1.43,1.92c-.08.1-.19.16-.32.16ZM81.57,34.31h1.85l.84-1.12h-3.52l.83,1.12Z"/>
      </g>
      <g>
        <polygon class="cls-4" points="87.3 34.71 81.37 34.71 79.94 32.78 85.87 32.78 87.3 34.71"/>
        <path class="cls-2" d="M87.3,35.11h-5.93c-.13,0-.25-.06-.32-.16l-1.43-1.92c-.09-.12-.1-.28-.04-.42.07-.14.21-.22.36-.22h5.93c.13,0,.25.06.32.16l1.43,1.92c.09.12.1.28.04.42s-.21.22-.36.22ZM81.57,34.31h4.93l-.84-1.12h-4.93l.83,1.12Z"/>
      </g>
      <g>
        <polygon class="cls-3" points="81.37 34.71 81.37 40.64 77.69 40.64 77.69 34.71 79.12 32.78 79.94 32.78 81.37 34.71"/>
        <path class="cls-2" d="M81.37,41.04h-3.68c-.22,0-.4-.18-.4-.4v-5.93c0-.09.03-.17.08-.24l1.43-1.92c.08-.1.19-.16.32-.16h.82s0,0,0,0c.13,0,.25.06.32.16l1.43,1.92c.05.07.08.15.08.24v5.93c0,.22-.18.4-.4.4ZM78.09,40.24h2.88v-5.4l-1.23-1.66h-.42s-1.23,1.66-1.23,1.66v5.4Z"/>
      </g>
      <g>
        <rect class="cls-3" x="81.37" y="34.71" width="5.93" height="5.93"/>
        <path class="cls-2" d="M87.3,41.04h-5.93c-.22,0-.4-.18-.4-.4v-5.93c0-.22.18-.4.4-.4h5.93c.22,0,.4.18.4.4v5.93c0,.22-.18.4-.4.4ZM81.77,40.24h5.13v-5.13h-5.13v5.13Z"/>
      </g>
    </g>
    <g>
      <path class="cls-3" d="M63.12,26.47l-2.27,2.67c-.28.33-.77.42-1.14.19l-1.68-1.02c-.37-.23-.85-.16-1.14.18l-4.99,5.76c-.45.52-1.29.35-1.53-.29l-.75-2.11c-.24-.66-1.1-.81-1.55-.27l-1.39,1.71s-.04.05-.06.07l-3.36,5.21c-.34.53-1.11.55-1.48.05-.18-.25-.46-.37-.73-.37s-.52.11-.7.33l-3.03,3.79c-.25.3-.66.42-1.03.27l-2.87-1.13c-.25-.09-.54-.07-.78.06l-1.55,2.86c-.83,1.55-2.6,2.35-4.31,1.96l-4.05-.9,4.78-11.26,2.12,2.59,9.44-15.4,4.91,8.59,11.15-16.88,2.7,12,3.79-3.17,1.51,4.52Z"/>
      <path class="cls-2" d="M27.63,46.89c-.31,0-.63-.03-.94-.1l-4.05-.9c-.12-.03-.21-.1-.27-.21s-.06-.23-.01-.34l4.78-11.26c.05-.13.17-.22.31-.24.14-.02.28.03.37.14l1.76,2.15,9.14-14.92c.07-.12.2-.18.35-.19.14,0,.27.08.34.2l4.59,8.02,10.79-16.34c.09-.13.25-.2.41-.17.16.03.28.15.32.31l2.56,11.36,3.29-2.75c.1-.08.24-.11.37-.08.13.04.23.13.27.26l1.51,4.52c.04.13.02.28-.08.39l-2.27,2.67c-.41.48-1.12.6-1.66.27l-1.68-1.02c-.21-.13-.47-.09-.63.1l-4.99,5.76c-.3.35-.75.51-1.2.42-.46-.08-.84-.4-1-.84l-.75-2.11c-.09-.25-.3-.31-.39-.33-.18-.03-.36.03-.48.18l-1.39,1.71s-.08.09-.09.1l-3.31,5.15c-.23.36-.62.58-1.05.59-.43,0-.83-.18-1.09-.52-.19-.27-.6-.27-.79-.03l-3.03,3.79c-.37.45-.97.6-1.49.39l-2.86-1.13c-.1-.04-.23-.04-.34,0l-1.48,2.74c-.76,1.41-2.24,2.27-3.81,2.27ZM23.29,45.2l3.58.8c1.54.35,3.13-.38,3.87-1.76l1.55-2.86c.04-.07.09-.12.16-.16.34-.19.75-.22,1.12-.09l2.87,1.13c.2.08.43.02.57-.15l3.03-3.78c.51-.63,1.6-.6,2.06.06.09.12.25.21.42.19.17,0,.32-.09.41-.23l3.36-5.21s.11-.13.12-.14l1.36-1.68c.31-.37.77-.54,1.23-.46.47.08.84.4,1,.84l.75,2.11c.06.17.21.29.39.32.08.02.29.03.46-.16l4.99-5.76c.42-.48,1.11-.59,1.65-.26l1.68,1.02c.2.13.47.08.63-.1l2.13-2.5-1.25-3.75-3.34,2.79c-.11.09-.25.12-.38.07-.13-.04-.23-.16-.26-.29l-2.49-11.08-10.63,16.1c-.08.12-.21.18-.35.18-.14,0-.27-.08-.33-.2l-4.58-8-9.08,14.82c-.07.11-.18.18-.31.19-.13.01-.25-.04-.34-.15l-1.7-2.07-4.33,10.21Z"/>
    </g>
    <g>
      <path class="cls-3" d="M74.25,59.82H16.66s6.07-14.33,6.07-14.33l4.05.9c1.71.38,3.48-.42,4.31-1.96l1.55-2.86c.24-.13.53-.16.78-.06l2.87,1.13c.36.15.78.03,1.03-.27l3.03-3.79c.18-.22.44-.33.7-.33s.55.12.73.37c.37.5,1.14.48,1.48-.05l3.36-5.21s.04-.05.06-.07l1.39-1.71c.45-.54,1.31-.39,1.55.27l.75,2.11c.24.64,1.08.81,1.53.29l4.99-5.76c.29-.33.77-.41,1.14-.18l1.68,1.02c.37.23.86.15,1.14-.19l2.27-2.67,11.13,33.35Z"/>
      <path class="cls-2" d="M16.66,60.23c-.13,0-.26-.07-.33-.18-.07-.11-.09-.25-.03-.38l6.07-14.34c.08-.18.27-.28.46-.23l4.05.9c1.54.35,3.13-.38,3.87-1.76l1.55-2.86c.04-.07.09-.12.16-.16.34-.19.75-.22,1.12-.09l2.87,1.13c.2.08.43.02.57-.15l3.03-3.78c.51-.63,1.6-.6,2.06.06.09.12.25.2.42.19.17,0,.32-.09.41-.23l3.36-5.21s.11-.13.12-.14l1.36-1.68c.31-.37.77-.54,1.23-.46.47.08.84.4,1,.84l.75,2.11c.06.17.21.29.39.32.08.02.29.03.46-.16l4.99-5.76c.42-.48,1.11-.59,1.65-.26l1.68,1.02c.2.13.47.08.63-.1l2.27-2.67c.09-.11.24-.16.38-.13.14.03.26.13.3.27l11.13,33.35c.04.12.02.26-.05.36-.08.1-.2.17-.32.17H16.66ZM22.97,45.95l-5.71,13.48h56.43s-10.73-32.16-10.73-32.16l-1.81,2.13c-.41.48-1.12.6-1.66.27l-1.68-1.02c-.21-.13-.47-.09-.63.1l-4.99,5.76c-.3.35-.75.51-1.2.42-.46-.08-.84-.4-1-.84l-.75-2.11c-.09-.25-.3-.31-.39-.33-.18-.03-.36.04-.48.18l-1.39,1.71s-.08.09-.09.1l-3.31,5.15c-.23.36-.62.58-1.05.59-.43.02-.83-.18-1.09-.52-.19-.27-.6-.27-.79-.03l-3.03,3.79c-.37.45-.97.6-1.49.39l-2.86-1.13c-.1-.04-.23-.04-.34,0l-1.48,2.74c-.91,1.7-2.86,2.58-4.75,2.16l-3.72-.83Z"/>
    </g>
    <g>
      <g>
        <rect class="cls-3" x="65.69" y="41.93" width="2.97" height="5.93"/>
        <path class="cls-2" d="M68.65,48.26h-2.97c-.22,0-.4-.18-.4-.4v-5.93c0-.22.18-.4.4-.4h2.97c.11,0,.21.04.28.12.08.07.12.18.12.28v5.93c0,.22-.18.4-.4.4ZM66.09,47.46h2.17v-5.13h-2.17v5.13Z"/>
      </g>
      <g>
        <polygon class="cls-3" points="69.37 40 67.94 41.93 65.69 41.93 64.26 40 69.37 40"/>
        <path class="cls-2" d="M65.69,42.33c-.13,0-.25-.06-.32-.16l-1.43-1.92c-.09-.12-.1-.28-.04-.42.07-.14.21-.22.36-.22h5.11c.15,0,.29.09.36.22.07.14.05.3-.04.42l-1.43,1.92c-.08.1-.19.16-.32.16h-2.25ZM65.05,40.4l.83,1.12h1.85s.84-1.12.84-1.12h-3.52Z"/>
      </g>
      <g>
        <polygon class="cls-4" points="71.62 41.93 65.69 41.93 64.26 40 70.19 40 71.62 41.93"/>
        <path class="cls-2" d="M65.69,42.33c-.13,0-.25-.06-.32-.16l-1.43-1.92c-.09-.12-.1-.28-.04-.42.07-.14.21-.22.36-.22h5.93c.13,0,.25.06.32.16l1.43,1.92c.09.12.1.28.04.42-.07.13-.21.22-.36.22h-5.93ZM65.05,40.4l.83,1.12h4.93s-.84-1.12-.84-1.12h-4.93Z"/>
      </g>
      <g>
        <polygon class="cls-3" points="65.69 41.93 65.69 47.86 62.01 47.86 62.01 41.93 63.44 40 64.26 40 65.69 41.93"/>
        <path class="cls-2" d="M65.69,48.26h-3.68c-.22,0-.4-.18-.4-.4v-5.93c0-.09.03-.17.08-.24l1.43-1.92c.08-.1.19-.16.32-.16h.82c.13,0,.25.06.32.16l1.43,1.92c.05.07.08.15.08.24v5.93c0,.22-.18.4-.4.4ZM62.41,47.46h2.88v-5.4l-1.23-1.66h-.42l-1.23,1.66v5.4Z"/>
      </g>
      <g>
        <rect class="cls-3" x="65.69" y="41.93" width="5.93" height="5.93"/>
        <path class="cls-2" d="M71.62,48.26h-5.93c-.22,0-.4-.18-.4-.4v-5.93c0-.22.18-.4.4-.4h5.93c.11,0,.21.04.28.12.08.07.12.18.12.28v5.93c0,.22-.18.4-.4.4ZM66.09,47.46h5.13v-5.13h-5.13v5.13Z"/>
      </g>
    </g>
    <g>
      <path class="cls-3" d="M107.36,43.88l.47,22.39H14.79s1.86-6.44,1.86-6.44l6.3-5.82c1.68-1.56,3.83-2.5,6.12-2.68l18.06-1.46c.1-.09.21-.19.31-.27l-2.14,3.74c2.17.49,4.4.33,6.54-.24.56-.15,1.15-.22,1.74-.21l6.35.16h.15c1.29,0,2.54-.39,3.59-1.13,1.38-.98,3.1-1.35,4.77-1.03l3.65.72c1.74.33,3.55-.08,4.97-1.16l2.93-2.24c1.12-.85,2.5-1.3,3.9-1.28l15.79.32c1.7.04,3.36-.46,4.77-1.4l2.89-1.95Z"/>
      <path class="cls-2" d="M14.79,66.68c-.13,0-.24-.06-.32-.16-.08-.1-.1-.23-.06-.35l1.86-6.45c.02-.07.06-.13.11-.18l6.3-5.82c1.74-1.61,4-2.6,6.36-2.78l17.93-1.45c.08-.07.15-.14.23-.19.15-.12.36-.12.51,0,.15.12.18.34.09.5l-1.86,3.26c1.82.32,3.77.2,5.81-.34.61-.16,1.23-.23,1.85-.22l6.49.16c1.21,0,2.38-.37,3.36-1.06,1.47-1.04,3.31-1.43,5.07-1.09l3.66.72c1.64.31,3.33-.08,4.65-1.09l2.93-2.24c1.18-.9,2.66-1.37,4.15-1.36l15.79.32c1.61.04,3.18-.42,4.53-1.33l2.89-1.95c.12-.08.28-.09.41-.02.13.07.21.2.22.35l.47,22.39c0,.11-.04.21-.11.29-.08.08-.18.12-.29.12H14.79ZM17.01,60.05l-1.69,5.84h92.1s-.45-21.26-.45-21.26l-2.28,1.54c-1.49,1-3.22,1.51-5,1.47l-15.79-.32c-1.31-.01-2.61.41-3.65,1.2l-2.93,2.24c-1.5,1.14-3.43,1.59-5.29,1.24l-3.66-.72c-1.54-.3-3.17.05-4.46.96-1.12.79-2.44,1.21-3.82,1.21h-.15l-6.36-.16c-.55,0-1.1.06-1.63.19-2.37.63-4.63.71-6.73.24-.12-.03-.23-.11-.28-.23s-.04-.25.02-.36l1.61-2.82-17.47,1.42c-2.18.17-4.27,1.08-5.88,2.57l-6.22,5.75Z"/>
    </g>
    <g>
      <path class="cls-3" d="M107.36,39.04v4.84s-2.89,1.95-2.89,1.95c-1.4.94-3.06,1.44-4.77,1.4l-15.79-.32c-1.4-.02-2.78.43-3.9,1.28l-2.93,2.24c-1.42,1.08-3.23,1.49-4.97,1.16l-3.65-.72c-1.66-.32-3.38.05-4.77,1.03-1.05.74-2.3,1.13-3.59,1.13h-.15s-6.35-.16-6.35-.16c-.59-.01-1.18.06-1.74.21-2.14.57-4.37.73-6.54.24l2.14-3.74c3.42-3.02,7.78-4.62,12.2-4.62,2.22,0,4.47.41,6.62,1.24.73.28,1.47.42,2.21.42,2.08,0,4.09-1.06,5.24-2.91l.38-.62c2.99-4.79,9.63-5.59,13.66-1.64.07.07.17.1.26.1.11,0,.24-.06.31-.18l3.38-5.81c3.38-5.81,11.88-5.56,14.91.46.47.93.72,1.97.72,3.02Z"/>
      <path class="cls-2" d="M48,54.02c-.95,0-1.88-.1-2.77-.3-.12-.03-.23-.11-.28-.23s-.04-.25.02-.36l2.14-3.74s.05-.07.08-.1c3.44-3.04,7.87-4.72,12.46-4.72,2.32,0,4.6.42,6.77,1.26,2.55.98,5.55-.06,6.97-2.33l.38-.62c1.49-2.39,3.95-3.95,6.74-4.28,2.79-.33,5.54.6,7.54,2.57l3.33-5.8c1.67-2.86,4.64-4.51,7.95-4.41,3.31.1,6.18,1.93,7.67,4.89.5.99.76,2.1.76,3.2v4.84c0,.13-.07.26-.18.33l-2.89,1.95c-1.49,1-3.22,1.51-5,1.47l-15.79-.32c-1.31-.01-2.61.41-3.65,1.2l-2.93,2.24c-1.5,1.14-3.43,1.59-5.29,1.24l-3.66-.72c-1.54-.3-3.17.05-4.46.96-1.12.79-2.44,1.21-3.82,1.21h-.15l-6.36-.16c-.55,0-1.1.06-1.63.19-1.36.36-2.68.54-3.96.54ZM45.94,53.05c1.82.32,3.77.2,5.81-.34.61-.16,1.23-.23,1.85-.22l6.49.16c1.21,0,2.38-.37,3.36-1.06,1.47-1.04,3.31-1.43,5.07-1.09l3.66.72c1.64.31,3.33-.08,4.65-1.09l2.93-2.24c1.18-.9,2.66-1.37,4.15-1.36l15.79.32c1.61.04,3.18-.42,4.53-1.33l2.71-1.83v-4.63c0-.98-.23-1.96-.67-2.84-1.36-2.69-3.96-4.35-6.97-4.45-3.02-.08-5.72,1.41-7.23,4.01l-3.38,5.81c-.27.43-.88.47-1.2.15-1.83-1.79-4.34-2.64-6.88-2.34-2.55.3-4.8,1.73-6.16,3.91l-.38.62c-1.19,1.91-3.33,3.1-5.58,3.1-.8,0-1.59-.15-2.36-.44-2.08-.8-4.26-1.21-6.48-1.21-4.38,0-8.6,1.59-11.88,4.48l-1.83,3.2ZM107.36,43.88h.01-.01Z"/>
    </g>
    <g>
      <path class="cls-4" d="M27.64,47.53c-.36,0-.73-.04-1.09-.12l-7.27,6.21,7.24-19.74c.32-.75,1.31-.89,1.82-.26l.19.24c.47.57,1.36.51,1.75-.12l7.85-12.81c.43-.7,1.45-.68,1.85.03l3.17,5.55c.4.7,1.39.73,1.83.06l9.21-13.94c.52-.79,1.74-.57,1.95.36l1.92,8.53c.18.79,1.12,1.11,1.74.59l1.09-.91c.58-.49,1.47-.23,1.71.49l3.07,12.49-4.05-4.35c-.36.43-.9.68-1.47.68-.35,0-.7-.1-1-.28l-1.58-.95-4.91,5.67c-.36.42-.89.67-1.45.67-.81,0-1.55-.51-1.83-1.27l-.67-1.89-1.27,1.57-3.32,5.15c-.36.56-.97.89-1.63.89-.56,0-1.08-.23-1.45-.65l-2.92,3.65c-.38.46-.93.72-1.51.72-.25,0-.49-.05-.71-.14l-2.62-1.03-1.27,2.35c-.86,1.6-2.53,2.6-4.36,2.6Z"/>
      <path class="cls-2" d="M19.29,54.02c-.08,0-.16-.02-.23-.07-.15-.1-.21-.3-.15-.47l7.24-19.74c.21-.5.64-.83,1.16-.9.52-.07,1.02.12,1.35.53l.19.23c.14.17.35.27.57.25.22-.02.41-.13.53-.32l7.85-12.81c.28-.45.77-.7,1.28-.7.53,0,1,.29,1.26.74l3.17,5.55c.12.21.33.33.57.34.24.01.45-.1.59-.3l9.21-13.94c.33-.5.91-.75,1.5-.64.59.11,1.04.54,1.17,1.13l1.92,8.53c.05.24.21.42.44.49.23.08.47.03.65-.12l1.09-.91c.38-.31.88-.42,1.35-.29.47.13.84.49,1,.95l3.08,12.52c.04.18-.04.36-.2.45-.16.09-.36.05-.48-.08l-3.77-4.05c-.73.59-1.84.67-2.67.17l-1.29-.78-4.69,5.42c-.44.51-1.08.8-1.75.8-.98,0-1.86-.62-2.21-1.53l-.44-1.23-.82,1.01-3.3,5.11c-.43.67-1.17,1.07-1.97,1.07-.51,0-1-.17-1.4-.46l-2.65,3.31c-.65.79-1.76,1.08-2.69.71l-2.29-.9-1.1,2.04c-1.09,2.02-3.42,3.14-5.69,2.72l-7.12,6.09c-.07.06-.17.1-.26.1ZM27.52,33.62s-.07,0-.1,0c-.24.03-.43.19-.53.41l-6.71,18.29,6.1-5.22c.1-.08.22-.12.35-.09,1.97.44,4.06-.51,5.01-2.28l1.27-2.35c.1-.18.31-.26.5-.18l2.62,1.03c.62.25,1.34.05,1.77-.47l2.91-3.64c.07-.09.18-.15.3-.15.12,0,.23.05.31.13.64.72,1.92.62,2.45-.19l3.32-5.15,1.3-1.6c.09-.11.24-.17.38-.14.14.02.26.12.31.26l.67,1.89c.22.6.81,1.01,1.45,1.01.44,0,.86-.19,1.15-.53l4.92-5.67c.13-.15.34-.18.51-.08l1.58.95c.63.39,1.5.24,1.96-.31.07-.09.18-.14.3-.14.11,0,.22.04.3.13l3,3.23-2.7-10.99c-.06-.18-.23-.34-.45-.41-.22-.06-.44-.01-.62.13l-1.09.91c-.4.33-.93.43-1.42.27-.49-.17-.85-.57-.97-1.07l-1.92-8.53c-.06-.27-.26-.47-.54-.52-.28-.05-.53.06-.69.29l-9.21,13.94c-.28.43-.77.67-1.28.66-.52-.02-.98-.29-1.23-.74l-3.17-5.55c-.12-.21-.34-.34-.58-.34-.24,0-.46.12-.59.32l-7.85,12.81c-.25.41-.68.67-1.16.7-.48.04-.94-.16-1.24-.54l-.19-.23c-.13-.16-.32-.25-.52-.25Z"/>
    </g>
    <g>
      <path class="cls-4" d="M47.99,54.66c-1,0-1.98-.11-2.91-.32l-.8-.02c-1.36-.03-1.97-1.72-.93-2.6l3.28-2.78s0-.01.01-.02l.11-.1c2.23-1.97,4.86-3.48,7.75-4.22,4.15-1.08,8.32-.84,12.15.64,1.29.5,2.69.46,4.03-.14.96-.43,1.72-1.21,2.27-2.1l.28-.45c1.82-2.91,4.96-4.65,8.39-4.65,2.27,0,4.44.77,6.19,2.19.03.03.08.02.1-.02l2.74-4.72c1.71-2.94,4.78-4.96,8.18-5.04,3.71-.09,7.08,1.94,8.74,5.24.54,1.08.83,2.29.83,3.49v3.57c0,1.14-.56,2.2-1.5,2.83l-1.84,1.24c-1.53,1.04-3.31,1.58-5.15,1.58,0,0-16.01-.32-16.01-.32-1.22,0-2.35.38-3.25,1.07l-2.92,2.24c-1.27.96-2.83,1.49-4.42,1.49-.46,0-.92-.04-1.38-.13l-3.66-.72c-.32-.06-.65-.09-.98-.09-1.08,0-2.11.33-2.99.95-1.23.87-2.68,1.32-4.19,1.32h-.15s-6.39-.16-6.39-.16c-.55,0-1,.06-1.45.17-1.4.37-2.79.56-4.12.56Z"/>
      <path class="cls-2" d="M47.99,55.06c-1.03,0-2.03-.11-3-.33h-.72c-.79-.02-1.47-.51-1.73-1.25-.27-.74-.05-1.55.55-2.06l3.25-2.76s.02-.03.04-.04l.11-.09c2.36-2.09,5.1-3.58,7.91-4.31,4.19-1.09,8.48-.86,12.39.65,1.21.47,2.5.42,3.72-.13.81-.37,1.54-1.04,2.1-1.95l.28-.45c1.89-3.03,5.16-4.84,8.73-4.84,2.24,0,4.36.71,6.14,2.04l2.55-4.38c1.83-3.15,5.1-5.16,8.52-5.24,3.87-.09,7.36,2,9.1,5.46.57,1.14.87,2.41.87,3.67v3.57c0,1.27-.63,2.45-1.68,3.16l-1.84,1.24c-1.6,1.08-3.46,1.65-5.37,1.65l-16.02-.32c-1.11,0-2.16.34-3,.98l-2.92,2.24c-1.72,1.31-4,1.84-6.12,1.43l-3.66-.72c-1.25-.24-2.6.04-3.66.79-1.3.91-2.82,1.4-4.42,1.4h-.15s-6.35-.15-6.4-.15c-.49,0-.91.05-1.34.16-1.43.38-2.85.58-4.22.58ZM46.93,49.2s-.03.03-.04.04l-3.28,2.78c-.42.36-.44.85-.32,1.18s.45.71,1,.72l.8.02c2.31.5,4.54.4,6.92-.23.49-.13.98-.19,1.55-.19t6.4.15h.14c1.43,0,2.8-.43,3.96-1.25,1.24-.87,2.81-1.21,4.27-.92l3.66.72c1.89.36,3.94-.11,5.48-1.28l2.92-2.24c.99-.75,2.2-1.15,3.5-1.15t16.02.32c1.75,0,3.45-.52,4.92-1.51l1.84-1.24c.83-.56,1.33-1.5,1.33-2.5v-3.57c0-1.14-.27-2.28-.79-3.31-1.6-3.18-4.81-5.12-8.37-5.02-3.14.07-6.15,1.93-7.84,4.84l-2.74,4.72c-.06.1-.2.2-.32.22-.13.02-.27-.01-.38-.1-1.69-1.38-3.75-2.1-5.94-2.1-3.29,0-6.3,1.67-8.05,4.46l-.28.45c-.64,1.04-1.49,1.82-2.45,2.26-1.42.64-2.92.69-4.34.15-3.76-1.45-7.88-1.67-11.91-.62-2.69.7-5.31,2.13-7.58,4.14l-.08.08ZM87.56,39.87h0s0,0,0,0Z"/>
    </g>
    <path class="cls-1" d="M51.97,47.76c.99-.5,2.02-.89,3.05-1.15,1.54-.4,3.1-.6,4.63-.6.27,0,.53,0,.8.02"/>
    <path class="cls-1" d="M95.23,33.51c1.11-.69,2.37-1.09,3.65-1.12h.18c1.32,0,2.58.34,3.68.96"/>
    <path class="cls-1" d="M91.7,37.67l.74-1.27c.7-1.21,1.67-2.19,2.78-2.89"/>
    <path class="cls-1" d="M75,43.64c1.43-2.29,3.91-3.67,6.62-3.67,1.8,0,3.49.6,4.88,1.73"/>
    <path class="cls-1" d="M60.45,46.03c1.87.09,3.7.47,5.45,1.15.83.32,1.7.48,2.59.48.52,0,1.03-.06,1.54-.17"/>
    <rect class="cls-2" x="14.79" y="60.47" width="92.98" height="5.81"/>
    <path class="cls-4" d="M36.77,64.35c-2.39,0-3.6-.3-4.77-.58-1.18-.29-2.29-.56-4.58-.56s-3.41.27-4.58.56c-1.17.29-2.39.58-4.77.58s-3.6-.3-4.77-.58c-1.18-.29-2.29-.56-4.58-.56-.22,0-.4-.18-.4-.4s.18-.4.4-.4c2.39,0,3.6.3,4.77.58,1.18.29,2.29.56,4.58.56s3.41-.27,4.58-.56c1.17-.29,2.39-.58,4.77-.58s3.6.3,4.77.58c1.18.29,2.29.56,4.58.56.22,0,.4.18.4.4s-.18.4-.4.4Z"/>
    <path class="cls-4" d="M70.32,64.06c-1.13,0-1.71-.15-2.26-.3-.53-.14-1.03-.27-2.06-.27s-1.53.13-2.06.27c-.56.15-1.13.3-2.26.3s-1.71-.15-2.26-.3c-.53-.14-1.03-.27-2.06-.27-.22,0-.4-.18-.4-.4s.18-.4.4-.4c1.13,0,1.71.15,2.26.3.53.14,1.03.27,2.06.27s1.53-.13,2.06-.27c.56-.15,1.13-.3,2.26-.3s1.71.15,2.26.3c.53.14,1.03.27,2.06.27.22,0,.4.18.4.4s-.18.4-.4.4Z"/>
    <path class="cls-4" d="M106.37,64.06c-1.69,0-2.55-.15-3.38-.29-.83-.14-1.62-.28-3.24-.28s-2.41.14-3.25.28c-.83.14-1.69.29-3.38.29s-2.55-.15-3.38-.29c-.83-.14-1.62-.28-3.25-.28-.22,0-.4-.18-.4-.4s.18-.4.4-.4c1.69,0,2.55.15,3.38.29.83.14,1.62.28,3.25.28s2.41-.14,3.25-.28c.83-.14,1.69-.29,3.38-.29s2.55.15,3.38.29c.83.14,1.62.28,3.24.28.22,0,.4.18.4.4s-.18.4-.4.4Z"/>
  </g>
</svg>