<?xml version="1.0" encoding="UTF-8"?>
<svg id="effect_text" data-name="effect text" xmlns="http://www.w3.org/2000/svg" xmlns:xlink="http://www.w3.org/1999/xlink" viewBox="0 0 120 80">
  <defs>
    <style>
      .cls-1, .cls-2 {
        fill: #231f20;
      }

      .cls-3 {
        fill: #efefef;
      }

      .cls-4 {
        clip-path: url(#clippath-2);
      }

      .cls-5 {
        fill: #fff;
      }

      .cls-2 {
        clip-path: url(#clippath-1);
      }
    </style>
    <clipPath id="clippath-1">
      <path class="cls-3" d="M28.55,67.17l10.31-13.14,31.82-12.47c6.91-1.39,14.08-.62,20.53,2.21h0c7.92,3.47,14.24,9.8,17.69,17.73l2.46,5.66H28.55Z"/>
    </clipPath>
    <clipPath id="clippath-2">
      <path class="cls-2" d="M28.55,67.57c-.15,0-.29-.09-.36-.23-.07-.14-.05-.3.05-.42l10.31-13.14c.04-.06.1-.1.17-.13l31.82-12.47c7.09-1.43,14.27-.66,20.84,2.22,8.04,3.52,14.39,9.89,17.9,17.94l2.46,5.65c.05.12.04.27-.03.38-.07.11-.2.18-.33.18H28.55ZM39.1,54.37l-9.74,12.4h81.38s-2.22-5.1-2.22-5.1c-3.42-7.86-9.63-14.08-17.48-17.53-6.41-2.81-13.43-3.56-20.29-2.19l-31.65,12.41Z"/>
    </clipPath>
  </defs>
  <g id="greenland_effect" data-name="greenland effect">
    <g>
      <g>
        <g>
          <polygon class="cls-3" points="57.13 32.76 78.7 32.76 88.54 18.56 66.99 18.56 57.13 32.76"/>
          <path class="cls-1" d="M57.13,33.16c-.15,0-.29-.08-.35-.21-.07-.13-.06-.29.03-.41l9.87-14.2c.07-.11.2-.17.33-.17h21.55c.15,0,.29.08.35.21s.06.29-.03.41l-9.84,14.2c-.07.11-.2.17-.33.17h-21.57ZM67.2,18.96l-9.31,13.4h20.6s9.29-13.4,9.29-13.4h-20.57Z"/>
        </g>
        <path class="cls-1" d="M60.2,33.16c-.15,0-.29-.08-.35-.21-.07-.13-.06-.29.03-.41l9.87-14.2c.07-.11.2-.17.33-.17h18.47c.15,0,.29.08.35.21.07.13.06.29-.03.41l-9.84,14.2c-.07.11-.2.17-.33.17h-18.5ZM70.27,18.96l-9.31,13.4h17.52s9.29-13.4,9.29-13.4h-17.5Z"/>
        <g>
          <rect class="cls-3" x="80.2" y="33.18" width="16.67" height="13.77"/>
          <path class="cls-1" d="M80.2,47.35c-.11,0-.21-.04-.28-.12-.08-.07-.12-.18-.12-.28v-13.77c0-.22.18-.4.4-.4h16.67c.11,0,.21.04.28.12.08.07.12.18.12.28v13.77c0,.22-.18.4-.4.4h-16.67ZM80.6,33.58v12.97h15.87v-12.97h-15.87Z"/>
        </g>
        <g>
          <polygon class="cls-3" points="80.21 32.76 80.21 46.95 60.2 46.95 60.2 32.76 60.24 32.76 70.11 18.56 70.32 18.56 79.45 31.73 80.16 32.76 80.21 32.76"/>
          <path class="cls-1" d="M60.2,47.35c-.11,0-.21-.04-.28-.12-.08-.07-.12-.18-.12-.28v-14.2c0-.14.08-.27.19-.34l9.79-14.09c.07-.11.2-.17.33-.17h.21c.13,0,.25.06.33.17l9.79,14.12c.1.07.17.18.17.31v14.2c0,.22-.18.4-.4.4h-20.01ZM60.6,32.94v13.61h19.21v-13.61l-9.59-13.84-9.62,13.84Z"/>
        </g>
        <g>
          <rect class="cls-5" x="66.87" y="30.12" width="4.38" height="5.28"/>
          <path class="cls-1" d="M71.25,35.8h-4.38c-.22,0-.4-.18-.4-.4v-5.28c0-.22.18-.4.4-.4h4.38c.11,0,.21.04.28.12.07.07.12.18.12.28v5.28c0,.22-.18.4-.4.4ZM67.27,35h3.58v-4.48h-3.58v4.48Z"/>
        </g>
        <g>
          <polygon class="cls-3" points="98.62 32.76 78.16 32.76 68.32 18.56 88.76 18.56 98.62 32.76"/>
          <path class="cls-1" d="M78.16,33.16c-.13,0-.25-.06-.33-.17l-9.84-14.2c-.08-.12-.09-.28-.03-.41.07-.13.21-.21.35-.21h20.44c.13,0,.25.06.33.17l9.87,14.2c.08.12.09.28.03.41-.07.13-.21.21-.35.21h-20.46ZM69.08,18.96l9.29,13.4h19.49s-9.31-13.4-9.31-13.4h-19.47Z"/>
        </g>
      </g>
      <g>
        <path class="cls-3" d="M28.55,67.17l10.31-13.14,31.82-12.47c6.91-1.39,14.08-.62,20.53,2.21h0c7.92,3.47,14.24,9.8,17.69,17.73l2.46,5.66H28.55Z"/>
        <path class="cls-1" d="M28.55,67.57c-.15,0-.29-.09-.36-.23-.07-.14-.05-.3.05-.42l10.31-13.14c.04-.06.1-.1.17-.13l31.82-12.47c7.09-1.43,14.27-.66,20.84,2.22,8.04,3.52,14.39,9.89,17.9,17.94l2.46,5.65c.05.12.04.27-.03.38-.07.11-.2.18-.33.18H28.55ZM39.1,54.37l-9.74,12.4h81.38s-2.22-5.1-2.22-5.1c-3.42-7.86-9.63-14.08-17.48-17.53-6.41-2.81-13.43-3.56-20.29-2.19l-31.65,12.41Z"/>
        <g class="cls-4">
          <path class="cls-1" d="M78.1,67.06s-.05,0-.08,0c-.22-.04-.36-.25-.32-.47l4.9-25.35c.04-.22.25-.36.47-.32.22.04.36.25.32.47l-4.9,25.35c-.04.19-.2.32-.39.32Z"/>
          <path class="cls-1" d="M86.75,65.77s-.04,0-.05,0c-.22-.03-.37-.23-.34-.45l2.97-21.78c.03-.22.23-.37.45-.34.22.03.37.23.34.45l-2.97,21.78c-.03.2-.2.35-.4.35Z"/>
          <path class="cls-1" d="M89.45,67.98s-.04,0-.05,0c-.22-.03-.37-.23-.34-.45l3.09-23.18c.03-.22.23-.37.45-.34.22.03.37.23.34.45l-3.09,23.18c-.03.2-.2.35-.4.35Z"/>
        </g>
      </g>
      <g>
        <path class="cls-5" d="M101.05,67.17H8.84s8.86-28.63,21.69-34.11c.68-.29,1.36.42,1,1.08-1.04,1.89-2.71,5.2-4.18,9.28-.4,1.11,1.14,1.86,1.75.86,3.78-6.11,9.07-11.47,16.33-13.06.74-.16,1.24.73.73,1.29-2.24,2.42-6.31,7.29-8.98,13.29-.49,1.1,1.05,1.93,1.72.93,3.56-5.29,8.71-9.86,16.13-11.11.74-.12,1.21.77.69,1.31-3.34,3.41-10.47,11.98-9.78,22.37.06.95,1.28,1.28,1.8.49,1.91-2.89,4.75-5.84,8.85-7.21,0,0-.63,3.31-.53,6.97.03.95,1.24,1.32,1.79.54,2.02-2.9,4.91-5.71,8.72-6.33,0,0-2.06,3.17-3.14,6.61-.31,1,.93,1.74,1.65.98,3.07-3.29,7.3-6.87,11.67-7.59,0,0-1.89,4.78-2.62,8.97-.14.82.76,1.43,1.48,1l7.36-4.4c.36-.21.76.18.57.54l-.3.56c-1.16,2.2,1.1,4.64,3.38,3.63h.02s7.89-4.73,7.89-4.73c.35-.21.76.18.56.54l-.29.56c-1.17,2.21,1.12,4.65,3.39,3.62l2.84,3.13Z"/>
        <path class="cls-1" d="M8.84,67.57c-.13,0-.25-.06-.32-.16-.08-.1-.1-.23-.06-.36.02-.07,2.27-7.28,6.06-15.06,5.11-10.5,10.45-16.99,15.86-19.31.48-.2,1.01-.09,1.35.29.34.37.4.9.16,1.34-1.1,2.01-2.72,5.25-4.15,9.22-.13.37.08.62.3.73.08.04.48.21.74-.21,4.56-7.37,10.14-11.83,16.59-13.24.51-.11,1.01.11,1.27.56.26.46.2,1-.16,1.38-2.19,2.36-6.26,7.21-8.91,13.18-.2.46.17.69.25.73.22.12.55.14.78-.19,4.29-6.38,9.8-10.17,16.4-11.28.51-.08,1,.16,1.24.62.24.46.16.99-.2,1.36-3.14,3.2-10.36,11.77-9.66,22.06.02.32.24.49.44.54.09.02.41.08.63-.24,2.44-3.7,5.49-6.18,9.06-7.37.14-.04.28-.02.39.08.11.09.16.24.13.38,0,.03-.62,3.31-.52,6.88,0,.31.22.49.42.55.09.03.42.09.64-.23,2.63-3.77,5.65-5.96,8.99-6.5.16-.02.31.04.4.18.09.13.09.3,0,.44-.02.03-2.05,3.17-3.09,6.51-.1.33.07.58.27.69.19.11.48.14.71-.11,2.89-3.1,7.3-6.96,11.89-7.71.14-.03.29.03.38.14.09.11.11.26.06.4-.02.05-1.88,4.79-2.6,8.9-.04.22.05.44.24.57.2.13.43.14.64.02l7.36-4.4c.32-.19.71-.14.97.11.26.25.33.64.16.96l-.3.56c-.55,1.03-.18,2,.34,2.56.52.56,1.46.99,2.52.51l7.86-4.71c.32-.19.71-.14.97.11.26.25.32.64.15.96l-.29.55c-.55,1.04-.19,2,.34,2.57.53.56,1.47.99,2.54.51.16-.07.34-.03.46.1l2.84,3.13c.11.12.13.29.07.43-.06.14-.21.24-.37.24H8.84ZM30.85,33.39c-.05,0-.11.01-.16.03-11.57,4.94-20.02,29.46-21.3,33.35h90.76s-2.05-2.26-2.05-2.26c-1.12.38-2.34.09-3.17-.8-.9-.96-1.08-2.33-.46-3.49l.29-.55-7.89,4.71s-.07.03-.1.04c-1.15.51-2.5.24-3.39-.71-.89-.96-1.08-2.33-.47-3.48l.3-.56-7.37,4.39c-.47.28-1.05.26-1.5-.05-.45-.31-.67-.83-.58-1.36.57-3.25,1.84-6.89,2.39-8.37-4.12.97-8.09,4.47-10.74,7.33-.45.48-1.13.58-1.7.25-.57-.33-.83-.99-.63-1.62.77-2.45,2.01-4.74,2.69-5.91-2.77.73-5.31,2.73-7.57,5.98-.35.5-.95.71-1.53.53-.58-.17-.97-.68-.99-1.29-.08-2.72.24-5.21.42-6.37-3.13,1.21-5.82,3.5-8.01,6.83-.33.5-.92.73-1.5.58-.59-.15-.99-.65-1.03-1.26-.71-10.62,6.68-19.39,9.89-22.67.17-.18.09-.38.06-.43-.03-.06-.15-.24-.4-.2-6.37,1.07-11.71,4.75-15.87,10.94-.49.73-1.29.74-1.83.44-.65-.36-.89-1.08-.59-1.76,2.7-6.08,6.83-11.01,9.06-13.4.17-.19.08-.39.05-.44-.03-.06-.15-.23-.4-.18-6.23,1.37-11.64,5.7-16.08,12.88-.38.62-1.11.83-1.77.51-.66-.32-.95-1.03-.71-1.72,1.45-4.03,3.09-7.3,4.21-9.34.11-.21,0-.36-.05-.42-.06-.07-.16-.13-.28-.13Z"/>
      </g>
      <g>
        <path class="cls-5" d="M52.45,26.43c-.35.39-.64.82-.88,1.24-.72,1.28.87,2.7,2.06,1.83.39-.28.78-.62,1.13-1.01.32-.36.58-.73.81-1.11.82-1.39-.82-2.85-2.1-1.87-.35.27-.7.57-1.01.93Z"/>
        <path class="cls-1" d="M52.83,30.17c-.43,0-.86-.16-1.22-.48-.66-.58-.81-1.47-.39-2.22.27-.48.58-.92.93-1.31.31-.35.67-.68,1.07-.98.85-.64,1.79-.43,2.35.07.56.5.88,1.41.34,2.32-.25.43-.54.83-.85,1.18-.35.39-.75.75-1.19,1.07-.31.23-.67.34-1.03.34ZM54.36,25.59c-.21,0-.43.07-.65.23-.36.27-.68.56-.95.88h0c-.31.34-.59.74-.83,1.17-.28.5-.05.97.23,1.23.28.25.78.43,1.24.09.4-.29.76-.61,1.07-.96.28-.31.54-.67.76-1.05.33-.56.11-1.06-.18-1.32-.17-.15-.41-.26-.68-.26ZM52.45,26.43h.01-.01Z"/>
      </g>
      <g>
        <path class="cls-5" d="M47.06,17.51c-.35.39-.64.82-.88,1.24-.72,1.28.87,2.7,2.06,1.83.39-.28.78-.62,1.13-1.01.32-.36.58-.73.81-1.11.82-1.39-.82-2.85-2.1-1.87-.35.27-.7.57-1.01.93Z"/>
        <path class="cls-1" d="M47.44,21.25c-.43,0-.86-.16-1.22-.48-.66-.58-.81-1.47-.4-2.22.27-.48.59-.92.93-1.31.31-.35.67-.68,1.07-.98.85-.64,1.79-.43,2.35.07.56.5.88,1.41.34,2.32-.25.43-.54.83-.85,1.18-.35.39-.75.75-1.19,1.07-.31.23-.67.34-1.03.34ZM48.97,16.67c-.21,0-.43.07-.65.23-.36.27-.68.56-.95.88h0c-.31.34-.59.74-.83,1.17-.28.5-.05.97.23,1.23.28.25.78.43,1.24.09.4-.29.76-.61,1.07-.96.28-.31.54-.67.76-1.05.33-.56.11-1.06-.18-1.32-.17-.15-.41-.26-.68-.26ZM47.06,17.51h.01-.01Z"/>
      </g>
      <g>
        <path class="cls-5" d="M35.05,28.35c-.35.39-.64.82-.88,1.24-.72,1.28.87,2.7,2.06,1.83.39-.28.78-.62,1.13-1.01.32-.36.58-.73.81-1.11.82-1.39-.82-2.85-2.1-1.87-.35.27-.7.57-1.01.93Z"/>
        <path class="cls-1" d="M35.43,32.09c-.43,0-.86-.16-1.22-.48-.66-.58-.81-1.47-.4-2.22.27-.48.58-.92.93-1.31h0c.31-.35.67-.68,1.07-.98.85-.64,1.79-.43,2.35.07.56.5.88,1.41.34,2.32-.25.43-.54.83-.85,1.18-.34.39-.75.75-1.19,1.07-.31.23-.67.34-1.03.34ZM35.35,28.61c-.31.34-.59.74-.83,1.17-.28.5-.05.97.23,1.23.28.25.78.43,1.24.09.4-.29.76-.61,1.07-.96.28-.31.53-.67.76-1.05.33-.56.11-1.06-.18-1.32-.29-.26-.81-.42-1.33-.03-.35.27-.68.56-.95.88h0Z"/>
      </g>
      <g>
        <path class="cls-5" d="M58.73,38.48c-.35.39-.64.82-.88,1.24-.72,1.28.87,2.7,2.06,1.83.39-.28.78-.62,1.13-1.01.32-.36.58-.73.81-1.11.82-1.39-.82-2.85-2.1-1.87-.35.27-.7.57-1.01.93Z"/>
        <path class="cls-1" d="M59.11,42.21c-.43,0-.86-.16-1.22-.48-.65-.58-.81-1.47-.39-2.22.27-.48.58-.92.93-1.31.31-.35.67-.68,1.07-.98.85-.64,1.79-.43,2.35.07.56.5.88,1.41.34,2.32-.25.43-.54.82-.85,1.18-.34.39-.74.75-1.19,1.07-.31.23-.67.34-1.03.34ZM60.63,37.63c-.21,0-.43.07-.65.23-.36.27-.68.56-.95.88h0c-.31.34-.59.74-.83,1.17-.28.5-.05.97.23,1.23.28.25.78.43,1.24.09.4-.29.76-.61,1.07-.96.28-.31.54-.67.76-1.05.33-.56.11-1.06-.18-1.32-.17-.15-.41-.26-.68-.26ZM58.73,38.48h.01-.01Z"/>
      </g>
    </g>
  </g>
</svg>