<?xml version="1.0" encoding="UTF-8"?>
<svg id="effect_illustrations" data-name="effect illustrations" xmlns="http://www.w3.org/2000/svg" xmlns:xlink="http://www.w3.org/1999/xlink" viewBox="0 0 120 80">
  <defs>
    <style>
      .cls-1 {
        fill: none;
      }

      .cls-2 {
        fill: #231f20;
      }

      .cls-3 {
        fill: #efefef;
      }

      .cls-4 {
        clip-path: url(#clippath-1);
      }

      .cls-5 {
        fill: #fff;
      }

      .cls-6 {
        clip-path: url(#clippath);
      }
    </style>
    <clipPath id="clippath">
      <polyline class="cls-1" points="94.3 35.08 38.05 35.08 38.05 13.89 94.3 13.89"/>
    </clipPath>
    <clipPath id="clippath-1">
      <rect class="cls-1" x="17.71" y="32.12" width="58.83" height="23.88"/>
    </clipPath>
  </defs>
  <g id="flood_effect" data-name="flood effect">
    <g>
      <path class="cls-3" d="M109.51,36.36h-6.03c.7-.83,1.13-1.89,1.13-3.05,0-2.64-2.14-4.77-4.77-4.77H29.96c-2.64,0-4.77,2.14-4.77,4.77,0,1.17.44,2.22,1.13,3.05h-6.62c-3.66,0-6.63,2.97-6.63,6.63v.15c0,1.53.52,2.93,1.39,4.05h-2.96c-4.21,0-7.63,3.42-7.63,7.63v.71c0,4.21,3.42,7.63,7.63,7.63h91.67c4.21,0,7.63-3.42,7.63-7.63v-.71c0-1.94-.73-3.7-1.91-5.04h.63c3.66,0,6.63-2.97,6.63-6.63v-.15c0-3.66-2.97-6.63-6.63-6.63Z"/>
      <path class="cls-2" d="M103.16,63.56H11.49c-4.43,0-8.03-3.6-8.03-8.03v-.71c0-4.43,3.6-8.03,8.03-8.03h2.2c-.67-1.1-1.02-2.35-1.02-3.65v-.15c0-3.88,3.16-7.03,7.03-7.03h5.84c-.49-.81-.75-1.71-.75-2.65,0-2.85,2.32-5.17,5.17-5.17h69.88c2.85,0,5.17,2.32,5.17,5.17,0,.94-.26,1.85-.75,2.65h5.25c3.88,0,7.03,3.16,7.03,7.03v.15c0,3.81-3.05,6.93-6.84,7.03.97,1.35,1.49,2.98,1.49,4.65v.71c0,4.43-3.6,8.03-8.03,8.03ZM11.49,47.59c-3.99,0-7.23,3.24-7.23,7.23v.71c0,3.99,3.24,7.23,7.23,7.23h91.67c3.99,0,7.23-3.24,7.23-7.23v-.71c0-1.76-.64-3.45-1.81-4.78l-.59-.66h1.51c3.44,0,6.23-2.8,6.23-6.23v-.15c0-3.44-2.8-6.23-6.23-6.23h-6.89l.55-.66c.68-.81,1.04-1.78,1.04-2.8,0-2.41-1.96-4.37-4.37-4.37H29.96c-2.41,0-4.37,1.96-4.37,4.37,0,1.02.36,1.99,1.04,2.8l.55.66h-7.47c-3.44,0-6.23,2.8-6.23,6.23v.15c0,1.38.45,2.7,1.3,3.8l.5.64h-3.77Z"/>
    </g>
    <g>
      <line class="cls-3" x1="54.14" y1="39.58" x2="76.07" y2="39.58"/>
      <rect class="cls-2" x="54.14" y="39.18" width="21.93" height=".8"/>
    </g>
    <g>
      <line class="cls-3" x1="61.35" y1="47.38" x2="83.28" y2="47.38"/>
      <rect class="cls-2" x="61.35" y="46.98" width="21.93" height=".8"/>
    </g>
    <g>
      <line class="cls-3" x1="81.08" y1="40.55" x2="103.01" y2="40.55"/>
      <rect class="cls-2" x="81.08" y="40.15" width="21.93" height=".8"/>
    </g>
    <g>
      <line class="cls-3" x1="86.62" y1="43.07" x2="108.55" y2="43.07"/>
      <rect class="cls-2" x="86.62" y="42.67" width="21.93" height=".8"/>
    </g>
    <g>
      <line class="cls-3" x1="80.98" y1="58.42" x2="102.91" y2="58.42"/>
      <rect class="cls-2" x="80.98" y="58.02" width="21.93" height=".8"/>
    </g>
    <g>
      <g class="cls-6">
        <g>
          <g>
            <polygon class="cls-3" points="44.42 31.17 55 19.6 77.34 19.6 66.79 31.17 44.42 31.17"/>
            <path class="cls-2" d="M76.43,20l-9.82,10.77h-21.28l9.85-10.77h21.26M78.25,19.2h-23.43s-11.31,12.37-11.31,12.37h23.45l11.28-12.37h0Z"/>
          </g>
          <g>
            <polygon class="cls-3" points="48.42 31.17 59 19.6 79.09 19.6 68.54 31.17 48.42 31.17"/>
            <path class="cls-2" d="M78.18,20l-9.82,10.77h-19.03l9.85-10.77h19.01M80,19.2h0,0ZM80,19.2h-21.18l-11.31,12.37h21.2l11.28-12.37h0Z"/>
          </g>
          <g>
            <rect class="cls-3" x="70.44" y="31.58" width="19.11" height="12.36"/>
            <path class="cls-2" d="M89.95,44.34h-19.91v-13.16h19.91v13.16ZM70.84,43.54h18.31v-11.56h-18.31v11.56Z"/>
          </g>
          <g>
            <polygon class="cls-5" points="47.91 43.54 47.91 31.78 58.99 19.66 70.04 31.78 70.04 43.54 47.91 43.54"/>
            <path class="cls-2" d="M58.99,20.25l10.65,11.68v11.2s-21.33,0-21.33,0v-11.2l10.68-11.68M59.12,19.2h-.25l-11.31,12.37h-.05v12.37h22.93v-12.37h-.05l-11.28-12.37h0Z"/>
          </g>
          <g>
            <rect class="cls-5" x="54.9" y="26.96" width="5.02" height="4.6"/>
            <path class="cls-2" d="M59.93,31.96h-5.02c-.22,0-.4-.18-.4-.4v-4.6c0-.22.18-.4.4-.4h5.02c.22,0,.4.18.4.4v4.6c0,.22-.18.4-.4.4ZM55.3,31.16h4.22v-3.8h-4.22v3.8Z"/>
          </g>
          <g>
            <polygon class="cls-3" points="57.72 19.6 80.07 19.6 90.65 31.17 68.28 31.17 57.72 19.6"/>
            <path class="cls-2" d="M79.89,20l9.85,10.77h-21.28l-9.82-10.77h21.26M80.24,19.2h-23.43s11.28,12.37,11.28,12.37h23.45l-11.31-12.37h0Z"/>
          </g>
        </g>
        <g>
          <rect class="cls-3" x="62.86" y="15.07" width="2.69" height="4.13"/>
          <path class="cls-2" d="M65.95,19.6h-3.49v-4.93h3.49v4.93ZM63.26,18.8h1.89v-3.33h-1.89v3.33Z"/>
        </g>
      </g>
      <g class="cls-4">
        <g>
          <g>
            <rect class="cls-3" x="24.78" y="42.24" width="4.27" height="14.4" transform="translate(10.41 -4.38) rotate(11.52)"/>
            <path class="cls-2" d="M27.57,57.32s-.05,0-.08,0l-4.19-.85c-.1-.02-.2-.08-.25-.17-.06-.09-.08-.2-.06-.3l2.88-14.1c.04-.22.26-.35.47-.31l4.19.85c.1.02.2.08.25.17.06.09.08.2.06.3l-2.88,14.1c-.04.19-.21.32-.39.32ZM23.86,55.75l3.4.69,2.72-13.32-3.4-.69-2.72,13.32Z"/>
          </g>
          <g>
            <rect class="cls-3" x="54.59" y="45.54" width="3.45" height="8.31" transform="translate(11.06 -10.24) rotate(11.52)"/>
            <path class="cls-2" d="M57.17,54.51s-.05,0-.08,0l-3.38-.69c-.1-.02-.2-.08-.25-.17-.06-.09-.08-.2-.06-.3l1.66-8.14c.04-.22.26-.35.47-.31l3.38.69c.1.02.2.08.25.17.06.09.08.2.06.3l-1.66,8.14c-.04.19-.21.32-.39.32ZM54.27,53.11l2.59.53,1.5-7.36-2.59-.53-1.5,7.36Z"/>
          </g>
          <g>
            <path class="cls-3" d="M44.66,46.41c2.93.6,12.99,4.2,15.49,7.97l-1.64,8.05-30.77-6.27,4-19.65,14.35,2.92-1.42,6.97Z"/>
            <path class="cls-2" d="M58.5,62.83s-.05,0-.08,0l-30.77-6.27c-.1-.02-.2-.08-.25-.17-.06-.09-.08-.2-.06-.3l4-19.65c.04-.22.26-.35.47-.31l14.35,2.92c.1.02.2.08.25.17.06.09.08.2.06.3l-1.34,6.59c3.25.79,12.86,4.29,15.35,8.05.06.09.08.2.06.3l-1.64,8.05c-.04.19-.21.32-.39.32ZM28.2,55.84l29.99,6.11,1.53-7.49c-2.51-3.52-12.19-7.06-15.14-7.66-.1-.02-.2-.08-.25-.17-.06-.09-.08-.2-.06-.3l1.34-6.58-13.56-2.76-3.84,18.86Z"/>
          </g>
          <g>
            <path class="cls-5" d="M33.04,39.14l-.83,4.08.69.14c3.62.74,6.62,3.25,7.99,6.68l.8,2.01,2.18-10.71-10.83-2.21Z"/>
            <path class="cls-2" d="M41.69,52.46c-.16,0-.31-.1-.37-.25l-.8-2.01c-1.32-3.32-4.19-5.73-7.69-6.44l-.69-.14c-.22-.04-.36-.26-.31-.47l.83-4.08c.04-.22.26-.35.47-.31l10.83,2.21c.1.02.2.08.25.17.06.09.08.2.06.3l-2.18,10.71c-.04.17-.18.3-.36.32-.01,0-.02,0-.04,0ZM32.68,42.91l.3.06c3.77.77,6.86,3.36,8.28,6.93l.3.76,1.84-9-10.04-2.05-.67,3.3Z"/>
          </g>
          <g>
            <rect class="cls-3" x="31.19" y="36.17" width="15.45" height="2.27" transform="translate(8.23 -7.02) rotate(11.52)"/>
            <path class="cls-2" d="M46.26,40.35s-.05,0-.08,0l-15.14-3.08c-.1-.02-.2-.08-.25-.17-.06-.09-.08-.2-.06-.3l.45-2.22c.04-.22.26-.35.47-.31l15.14,3.08c.1.02.2.08.25.17.06.09.08.2.06.3l-.45,2.22c-.04.19-.21.32-.39.32ZM31.59,36.56l14.35,2.92.29-1.44-14.35-2.92-.29,1.44Z"/>
          </g>
          <g>
            <circle class="cls-2" cx="31.49" cy="53.58" r="8.15" transform="translate(-17.66 15.55) rotate(-21.82)"/>
            <path class="cls-2" d="M31.5,62.13c-.56,0-1.14-.06-1.71-.17-2.24-.46-4.16-1.76-5.42-3.66-1.26-1.91-1.7-4.19-1.25-6.42.94-4.62,5.47-7.61,10.09-6.67,2.24.46,4.16,1.76,5.42,3.66,1.26,1.91,1.7,4.19,1.25,6.42-.82,4.05-4.4,6.84-8.38,6.84ZM31.49,45.83c-3.61,0-6.85,2.54-7.59,6.2-.41,2.03-.01,4.1,1.13,5.82,1.14,1.73,2.89,2.91,4.92,3.32,4.19.85,8.29-1.86,9.14-6.05h0c.41-2.03.01-4.1-1.13-5.82s-2.89-2.91-4.92-3.32c-.52-.11-1.04-.16-1.55-.16Z"/>
          </g>
          <g>
            <circle class="cls-5" cx="31.49" cy="53.58" r="5.76" transform="translate(-17.73 15.63) rotate(-21.92)"/>
            <path class="cls-2" d="M31.5,59.74c-.41,0-.82-.04-1.23-.12-1.61-.33-3-1.26-3.91-2.64s-1.23-3.01-.9-4.62c.68-3.33,3.94-5.48,7.26-4.8,1.61.33,3,1.26,3.9,2.64.91,1.37,1.23,3.01.9,4.62h0c-.59,2.91-3.17,4.93-6.03,4.93ZM31.49,48.23c-2.49,0-4.73,1.75-5.25,4.29-.29,1.4,0,2.83.78,4.02.79,1.19,2,2.01,3.4,2.29,2.9.59,5.73-1.28,6.32-4.18.29-1.4,0-2.83-.78-4.02-.79-1.19-2-2.01-3.4-2.29-.36-.07-.72-.11-1.07-.11ZM37.13,54.73h.01-.01Z"/>
          </g>
          <g>
            <circle class="cls-2" cx="53.1" cy="59.91" r="5.8" transform="translate(-18.32 23.74) rotate(-21.59)"/>
            <path class="cls-2" d="M53.1,66.11c-.41,0-.82-.04-1.24-.12-3.35-.68-5.52-3.96-4.83-7.31.68-3.35,3.96-5.51,7.31-4.83,3.35.68,5.52,3.96,4.83,7.31h0c-.6,2.93-3.19,4.96-6.07,4.96ZM53.1,54.52c-2.51,0-4.77,1.77-5.29,4.32-.29,1.41,0,2.85.79,4.05.79,1.2,2.01,2.02,3.42,2.31,2.92.59,5.77-1.29,6.36-4.21h0c.29-1.41,0-2.85-.79-4.05-.79-1.2-2.01-2.02-3.42-2.31-.36-.07-.72-.11-1.08-.11ZM58.78,61.07h.01-.01Z"/>
          </g>
          <g>
            <circle class="cls-5" cx="53.1" cy="59.91" r="3.42" transform="translate(-18.19 23.49) rotate(-21.39)"/>
            <path class="cls-2" d="M53.1,63.73c-.25,0-.51-.02-.76-.08-2.06-.42-3.4-2.44-2.98-4.51.42-2.06,2.44-3.4,4.51-2.98,1,.2,1.86.79,2.42,1.64.56.85.76,1.87.56,2.87-.37,1.81-1.96,3.06-3.74,3.06ZM53.1,56.89c-1.41,0-2.67.99-2.96,2.42-.33,1.63.72,3.23,2.36,3.56,1.63.33,3.23-.73,3.56-2.36h0c.16-.79,0-1.6-.44-2.27-.44-.67-1.13-1.13-1.92-1.29-.2-.04-.4-.06-.6-.06Z"/>
          </g>
        </g>
      </g>
      <g>
        <line class="cls-3" x1="74.53" y1="56.01" x2="9.48" y2="56.01"/>
        <rect class="cls-2" x="9.48" y="55.61" width="65.05" height=".8"/>
      </g>
      <g>
        <line class="cls-3" x1="42" y1="35.1" x2="93.13" y2="35.1"/>
        <rect class="cls-2" x="42" y="34.7" width="51.12" height=".8"/>
      </g>
    </g>
  </g>
</svg>