<?xml version="1.0" encoding="UTF-8"?>
<svg id="region_illustration" data-name="region illustration" xmlns="http://www.w3.org/2000/svg" viewBox="0 0 120 80">
  <defs>
    <style>
      .cls-1, .cls-2 {
        fill: #231f20;
      }

      .cls-3 {
        fill: #f5f5f3;
      }

      .cls-3, .cls-2, .cls-4 {
        stroke: #231f20;
        stroke-linecap: round;
        stroke-linejoin: round;
        stroke-width: .8px;
      }

      .cls-4 {
        fill: #e0e0e0;
      }
    </style>
  </defs>
  <rect class="cls-1" x="10.37" y="58.23" width="92.88" height="15.31"/>
  <line class="cls-4" x1="92.62" y1="20.35" x2="71.55" y2="66.91"/>
  <line class="cls-4" x1="27.2" y1="25.01" x2="12.47" y2="60.52"/>
  <line class="cls-4" x1="80.42" y1="20.35" x2="59.35" y2="66.91"/>
  <line class="cls-4" x1="86.52" y1="20.35" x2="65.45" y2="66.91"/>
  <line class="cls-4" x1="68.74" y1="20.35" x2="47.67" y2="66.91"/>
  <line class="cls-4" x1="49.21" y1="20.35" x2="28.13" y2="66.91"/>
  <line class="cls-4" x1="33.92" y1="25.01" x2="14.95" y2="66.91"/>
  <line class="cls-4" x1="61.27" y1="25.01" x2="42.31" y2="66.91"/>
  <line class="cls-4" x1="40.13" y1="25.01" x2="21.16" y2="66.91"/>
  <line class="cls-4" x1="75.35" y1="20.35" x2="54.28" y2="66.91"/>
  <line class="cls-4" x1="56.51" y1="20.35" x2="35.44" y2="66.91"/>
  <polygon class="cls-4" points="10.71 58.23 71.55 58.23 82.67 69.96 10.71 69.96 10.71 58.23"/>
  <polygon class="cls-3" points="10.71 58.23 71.55 58.23 82.67 69.96 10.71 69.96 10.71 58.23"/>
  <path class="cls-4" d="M95.33,16.77v.05c-.01.7-.2,1.36-.52,1.93-.73,1.28-2.14,2.13-3.7,2.13h-40.88c-1.56,0-2.95-.85-3.68-2.13-.29-.5-.48-1.06-.53-1.67-.06-.65-.05-1.31.02-1.99.51-4.73,4.37-8.55,9.11-8.99,3.71-.35,7.06,1.3,9.1,4,.88-.43,1.87-.66,2.91-.66,1.23,0,2.38.33,3.37.91.99-.58,2.15-.91,3.38-.91,1.52,0,2.94.51,4.07,1.37,1.13-.86,2.54-1.37,4.07-1.37,2.01,0,3.8.87,5.04,2.26h3.18c1.4,0,2.66.57,3.58,1.49s1.48,2.18,1.48,3.58Z"/>
  <rect class="cls-4" x="49.61" y="41.3" width="3.07" height="7.4"/>
  <path class="cls-4" d="M55.32,48.4v7.32h-27.97v.69h-2.91v-12.82l2.91-2.06v-3.67h13.04v6.34c2.66,0,12.08,1.36,14.93,4.2Z"/>
  <path class="cls-1" d="M28.96,38.29v5.35s.63,0,.63,0c3.29,0,6.36,1.66,8.16,4.41l1.05,1.61v-11.38s-9.84,0-9.84,0Z"/>
  <rect class="cls-4" x="26.88" y="36.27" width="13.76" height="2.02"/>
  <circle class="cls-2" cx="30.18" cy="52.8" r="7.26" transform="translate(-5.07 3.24) rotate(-5.68)"/>
  <circle class="cls-3" cx="30.18" cy="52.8" r="5.13" transform="translate(-5.11 3.27) rotate(-5.72)"/>
  <circle class="cls-2" cx="48.93" cy="54.73" r="5.16" transform="translate(-5.09 5.02) rotate(-5.58)"/>
  <circle class="cls-3" cx="48.93" cy="54.73" r="3.05" transform="translate(-5.03 4.95) rotate(-5.51)"/>
  <line class="cls-4" x1="10.95" y1="60.56" x2="68.92" y2="60.56"/>
  <line class="cls-4" x1="10.95" y1="64.13" x2="68.92" y2="64.13"/>
  <line class="cls-4" x1="10.95" y1="67.71" x2="68.92" y2="67.71"/>
  <g>
    <rect class="cls-4" x="69.68" y="48.97" width="1.91" height="2.39"/>
    <polygon class="cls-4" points="67.63 53.83 61.43 62.27 58.2 62.27 66.06 51.36 67.63 53.83"/>
    <rect class="cls-4" x="77.03" y="62.78" width="13.29" height="10.4"/>
    <polygon class="cls-4" points="91.71 62.78 73.32 62.78 73 62.27 67.63 53.83 66.06 51.36 83.85 51.36 91.71 62.78"/>
    <polygon class="cls-3" points="77.03 62.78 77.03 73.18 61.08 73.18 61.08 62.27 61.28 62.48 61.43 62.27 67.63 53.83 73 62.27 73.32 62.78 77.03 62.78"/>
    <rect class="cls-3" x="65.82" y="60.75" width="3.49" height="4.06"/>
  </g>
  <path class="cls-1" d="M94.81,18.75c-.73,1.28-2.14,2.13-3.7,2.13h-40.88c-1.56,0-2.95-.85-3.68-2.13h48.26Z"/>
  <path class="cls-4" d="M64.43,20.9v.05c-.01.76-.23,1.47-.61,2.07-.75,1.2-2.11,1.99-3.61,1.99H19.33c-1.5,0-2.85-.79-3.61-1.99-.33-.53-.54-1.15-.6-1.81-.06-.65-.05-1.31.02-1.99.51-4.74,4.37-8.55,9.11-9,3.71-.34,7.06,1.31,9.1,4.01.88-.43,1.87-.66,2.91-.66,1.23,0,2.38.33,3.37.91.99-.58,2.15-.91,3.38-.91,1.52,0,2.94.51,4.07,1.37,1.13-.86,2.54-1.37,4.07-1.37,2.01,0,3.8.87,5.04,2.26h3.18c1.39,0,2.66.57,3.57,1.49.93.92,1.49,2.18,1.49,3.58Z"/>
  <path class="cls-1" d="M63.82,23.02c-.75,1.2-2.11,1.99-3.61,1.99H19.33c-1.5,0-2.85-.79-3.61-1.99h48.1Z"/>
</svg>