<?xml version="1.0" encoding="UTF-8"?>
<svg id="region_illustration" data-name="region illustration" xmlns="http://www.w3.org/2000/svg" xmlns:xlink="http://www.w3.org/1999/xlink" viewBox="0 0 120 80">
  <defs>
    <style>
      .cls-1, .cls-2 {
        fill: none;
      }

      .cls-3, .cls-4, .cls-5 {
        fill: #231f20;
      }

      .cls-6 {
        fill: #efefef;
      }

      .cls-2 {
        stroke: #231f20;
        stroke-width: .91px;
      }

      .cls-7 {
        clip-path: url(#clippath-10);
      }

      .cls-8 {
        clip-path: url(#clippath-1);
      }

      .cls-9 {
        clip-path: url(#clippath-3);
      }

      .cls-10 {
        clip-path: url(#clippath-4);
      }

      .cls-11 {
        clip-path: url(#clippath-2);
      }

      .cls-12 {
        clip-path: url(#clippath-6);
      }

      .cls-13 {
        clip-path: url(#clippath-8);
      }

      .cls-14 {
        clip-path: url(#clippath-5);
      }

      .cls-15 {
        fill: #fff;
      }

      .cls-4 {
        clip-path: url(#clippath-9);
      }

      .cls-5 {
        clip-path: url(#clippath-7);
      }

      .cls-16 {
        clip-path: url(#clippath);
      }
    </style>
    <clipPath id="clippath">
      <polygon class="cls-1" points="14.47 58.1 75.3 58.1 86.43 69.83 14.47 69.83 14.47 58.1"/>
    </clipPath>
    <clipPath id="clippath-1">
      <rect class="cls-1" x="67.41" y="35.97" width="32.62" height="32.62"/>
    </clipPath>
    <clipPath id="clippath-2">
      <rect class="cls-1" x="67.41" y="68.58" width="32.62" height="32.62"/>
    </clipPath>
    <clipPath id="clippath-3">
      <rect class="cls-1" x="34.8" y="35.97" width="32.62" height="32.62"/>
    </clipPath>
    <clipPath id="clippath-4">
      <rect class="cls-1" x="34.8" y="68.58" width="32.62" height="32.62"/>
    </clipPath>
    <clipPath id="clippath-5">
      <rect class="cls-1" x="2.18" y="35.97" width="32.62" height="32.62"/>
    </clipPath>
    <clipPath id="clippath-6">
      <rect class="cls-1" x="2.18" y="68.58" width="32.62" height="32.62"/>
    </clipPath>
    <clipPath id="clippath-7">
      <path class="cls-6" d="M49.79,14.96c-.07.68-.08,1.35-.02,2,.19,2.16,2.04,3.79,4.21,3.79h26.95s1.61,0,1.61,0h12.32c2.27,0,4.2-1.79,4.23-4.05,0-.02,0-.03,0-.05,0-1.4-.56-2.67-1.49-3.58-.91-.92-2.18-1.49-3.58-1.49h-3.18c-1.24-1.39-3.04-2.26-5.04-2.26-1.54,0-2.95.5-4.07,1.37-1.13-.86-2.54-1.37-4.07-1.37-1.23,0-2.39.33-3.38.9-.99-.58-2.14-.9-3.38-.9-1.04,0-2.02.23-2.9.66-2.04-2.7-5.39-4.35-9.1-4-4.74.45-8.6,4.26-9.11,8.99Z"/>
    </clipPath>
    <clipPath id="clippath-8">
      <path class="cls-5" d="M94.86,21.15h-40.88c-2.38,0-4.4-1.83-4.61-4.16-.06-.68-.05-1.38.02-2.07h0c.53-4.95,4.52-8.88,9.47-9.35,3.58-.33,7.02,1.12,9.26,3.91,1.94-.83,4.28-.72,6.16.29,1.03-.55,2.19-.85,3.38-.85,1.48,0,2.88.44,4.07,1.27,1.19-.83,2.59-1.27,4.07-1.27,1.98,0,3.87.82,5.22,2.26h3c1.46,0,2.83.57,3.86,1.61,1.03,1.03,1.6,2.4,1.6,3.86-.02,2.51-2.1,4.5-4.63,4.5ZM50.19,15h0c-.07.64-.08,1.29-.02,1.92.17,1.92,1.84,3.43,3.81,3.43h40.88c2.09,0,3.81-1.64,3.83-3.66,0-1.3-.49-2.47-1.37-3.35-.88-.89-2.05-1.37-3.29-1.37h-3.18c-.11,0-.22-.05-.3-.13-1.2-1.35-2.93-2.12-4.74-2.12-1.41,0-2.73.44-3.83,1.28-.14.11-.34.11-.49,0-1.1-.84-2.42-1.28-3.83-1.28-1.12,0-2.22.29-3.17.85-.12.07-.28.07-.4,0-1.77-1.03-4.07-1.12-5.9-.23-.17.08-.38.03-.49-.12-2.06-2.73-5.33-4.17-8.75-3.85-4.58.43-8.26,4.06-8.75,8.64Z"/>
    </clipPath>
    <clipPath id="clippath-9">
      <path class="cls-6" d="M19.39,19.09c-.07.68-.08,1.35-.02,2,.19,2.16,2.04,3.79,4.21,3.79h26.95s1.61,0,1.61,0h12.32c2.27,0,4.2-1.79,4.23-4.05,0-.02,0-.03,0-.05,0-1.4-.56-2.67-1.49-3.58-.91-.92-2.18-1.49-3.58-1.49h-3.18c-1.24-1.39-3.04-2.26-5.04-2.26-1.54,0-2.95.5-4.07,1.37-1.13-.86-2.54-1.37-4.07-1.37-1.23,0-2.39.33-3.38.9-.99-.58-2.14-.9-3.38-.9-1.04,0-2.02.23-2.9.66-2.04-2.7-5.39-4.35-9.1-4-4.74.45-8.6,4.26-9.11,8.99Z"/>
    </clipPath>
    <clipPath id="clippath-10">
      <path class="cls-4" d="M23.58,25.28c-2.38,0-4.4-1.83-4.61-4.16-.06-.68-.05-1.38.02-2.07h0c.53-4.95,4.52-8.88,9.47-9.35,3.59-.33,7.02,1.12,9.26,3.91,1.94-.83,4.29-.72,6.16.29,1.03-.55,2.19-.85,3.38-.85,1.48,0,2.88.44,4.07,1.27,1.19-.83,2.59-1.27,4.07-1.27h0c1.98,0,3.87.82,5.22,2.26h3c1.46,0,2.83.57,3.86,1.61,1.03,1.03,1.6,2.4,1.6,3.86-.02,2.51-2.1,4.5-4.63,4.5H23.58ZM29.48,10.45c-.31,0-.63.01-.94.04-4.58.43-8.26,4.06-8.75,8.64h0c-.07.64-.08,1.28-.02,1.92.17,1.92,1.84,3.43,3.81,3.43h40.88c2.09,0,3.81-1.64,3.83-3.66,0-1.3-.49-2.47-1.37-3.35-.88-.88-2.05-1.37-3.29-1.37h-3.18c-.11,0-.22-.05-.3-.13-1.2-1.35-2.93-2.12-4.74-2.12h0c-1.41,0-2.73.44-3.83,1.28-.14.11-.34.11-.49,0-1.1-.84-2.42-1.28-3.83-1.28-1.12,0-2.22.29-3.17.85-.12.07-.28.07-.4,0-1.77-1.03-4.07-1.12-5.9-.23-.17.08-.38.03-.49-.12-1.87-2.48-4.74-3.89-7.8-3.89ZM19.39,19.09h.01-.01Z"/>
    </clipPath>
  </defs>
  <g id="flood">
    <rect class="cls-3" x="13.56" y="60.69" width="92.88" height="9.82"/>
    <rect class="cls-3" x="13.56" y="64.62" width="92.88" height="7.66"/>
    <g>
      <g>
        <line class="cls-6" x1="96.38" y1="20.22" x2="75.31" y2="66.78"/>
        <path class="cls-3" d="M75.31,67.18c-.06,0-.11-.01-.16-.04-.2-.09-.29-.33-.2-.53l21.07-46.56c.09-.2.33-.29.53-.2.2.09.29.33.2.53l-21.07,46.56c-.07.15-.21.23-.36.23Z"/>
      </g>
      <g>
        <line class="cls-6" x1="30.95" y1="24.88" x2="16.23" y2="60.39"/>
        <path class="cls-3" d="M16.23,60.79c-.05,0-.1,0-.15-.03-.2-.08-.3-.32-.22-.52l14.72-35.51c.08-.2.32-.3.52-.22.2.08.3.32.22.52l-14.72,35.51c-.06.15-.21.25-.37.25Z"/>
      </g>
      <g>
        <line class="cls-6" x1="84.17" y1="20.22" x2="63.1" y2="66.78"/>
        <path class="cls-3" d="M63.1,67.18c-.06,0-.11-.01-.16-.04-.2-.09-.29-.33-.2-.53l21.07-46.56c.09-.2.33-.29.53-.2.2.09.29.33.2.53l-21.07,46.56c-.07.15-.21.23-.36.23Z"/>
      </g>
      <g>
        <line class="cls-6" x1="90.28" y1="20.22" x2="69.2" y2="66.78"/>
        <path class="cls-3" d="M69.2,67.18c-.06,0-.11-.01-.16-.04-.2-.09-.29-.33-.2-.53l21.07-46.56c.09-.2.33-.29.53-.2.2.09.29.33.2.53l-21.07,46.56c-.07.15-.21.23-.36.23Z"/>
      </g>
      <g>
        <line class="cls-6" x1="72.49" y1="20.22" x2="51.42" y2="66.78"/>
        <path class="cls-3" d="M51.42,67.18c-.06,0-.11-.01-.16-.04-.2-.09-.29-.33-.2-.53l21.07-46.56c.09-.2.33-.29.53-.2.2.09.29.33.2.53l-21.07,46.56c-.07.15-.21.23-.36.23Z"/>
      </g>
      <g>
        <line class="cls-6" x1="52.96" y1="20.22" x2="31.89" y2="66.78"/>
        <path class="cls-3" d="M31.89,67.18c-.06,0-.11-.01-.16-.04-.2-.09-.29-.33-.2-.53l21.07-46.56c.09-.2.33-.29.53-.2.2.09.29.33.2.53l-21.07,46.56c-.07.15-.21.23-.36.23Z"/>
      </g>
      <g>
        <line class="cls-6" x1="37.67" y1="24.88" x2="18.71" y2="66.78"/>
        <path class="cls-3" d="M18.71,67.18c-.06,0-.11-.01-.16-.04-.2-.09-.29-.33-.2-.53l18.96-41.9c.09-.2.33-.29.53-.2.2.09.29.33.2.53l-18.96,41.9c-.07.15-.21.23-.36.23Z"/>
      </g>
      <g>
        <line class="cls-6" x1="65.03" y1="24.88" x2="46.06" y2="66.78"/>
        <path class="cls-3" d="M46.06,67.18c-.06,0-.11-.01-.16-.04-.2-.09-.29-.33-.2-.53l18.96-41.9c.09-.2.33-.29.53-.2.2.09.29.33.2.53l-18.96,41.9c-.07.15-.21.23-.36.23Z"/>
      </g>
      <g>
        <line class="cls-6" x1="43.88" y1="24.88" x2="24.92" y2="66.78"/>
        <path class="cls-3" d="M24.92,67.18c-.06,0-.11-.01-.16-.04-.2-.09-.29-.33-.2-.53l18.96-41.9c.09-.2.33-.29.53-.2.2.09.29.33.2.53l-18.96,41.9c-.07.15-.21.23-.36.23Z"/>
      </g>
      <g>
        <line class="cls-6" x1="79.1" y1="20.22" x2="58.03" y2="66.78"/>
        <path class="cls-3" d="M58.03,67.18c-.06,0-.11-.01-.16-.04-.2-.09-.29-.33-.2-.53l21.07-46.56c.09-.2.33-.29.53-.2.2.09.29.33.2.53l-21.07,46.56c-.07.15-.21.23-.36.23Z"/>
      </g>
      <g>
        <line class="cls-6" x1="60.27" y1="20.22" x2="39.2" y2="66.78"/>
        <path class="cls-3" d="M39.2,67.18c-.06,0-.11-.01-.16-.04-.2-.09-.29-.33-.2-.53l21.07-46.56c.09-.2.33-.29.53-.2.2.09.29.33.2.53l-21.07,46.56c-.07.15-.21.23-.36.23Z"/>
      </g>
    </g>
    <g>
      <rect class="cls-6" x="72.93" y="49.87" width="1.92" height="2.94"/>
      <path class="cls-3" d="M74.85,53.21h-1.92c-.22,0-.4-.18-.4-.4v-2.94c0-.22.18-.4.4-.4h1.92c.22,0,.4.18.4.4v2.94c0,.22-.18.4-.4.4ZM73.33,52.41h1.12v-2.14h-1.12v2.14Z"/>
    </g>
    <g>
      <polygon class="cls-6" points="14.47 58.1 75.3 58.1 86.43 69.83 14.47 69.83 14.47 58.1"/>
      <path class="cls-3" d="M86.43,70.23H14.47c-.11,0-.21-.04-.28-.12-.07-.07-.12-.18-.12-.28v-11.73c0-.22.18-.4.4-.4h60.84c.11,0,.21.04.29.12l11.12,11.73c.11.12.14.29.08.43-.06.15-.21.24-.37.24ZM14.87,69.43h70.63l-10.36-10.93H14.87v10.93Z"/>
    </g>
    <g>
      <polygon class="cls-15" points="14.47 58.1 75.3 58.1 86.43 69.83 14.47 69.83 14.47 58.1"/>
      <path class="cls-3" d="M86.43,70.23H14.47c-.11,0-.21-.04-.28-.12-.07-.07-.12-.18-.12-.28v-11.73c0-.22.18-.4.4-.4h60.84c.11,0,.21.04.29.12l11.12,11.73c.11.12.14.29.08.43-.06.15-.21.24-.37.24ZM14.87,69.43h70.63l-10.36-10.93H14.87v10.93Z"/>
    </g>
    <g class="cls-16">
      <g class="cls-8">
        <g>
          <line class="cls-2" x1="99.92" y1="66.95" x2="132.76" y2="66.95"/>
          <line class="cls-2" x1="99.92" y1="60.43" x2="132.76" y2="60.43"/>
          <line class="cls-2" x1="99.92" y1="53.91" x2="132.76" y2="53.91"/>
          <line class="cls-2" x1="99.92" y1="47.38" x2="132.76" y2="47.38"/>
          <line class="cls-2" x1="99.92" y1="40.86" x2="132.76" y2="40.86"/>
          <line class="cls-2" x1="99.92" y1="63.69" x2="132.76" y2="63.69"/>
          <line class="cls-2" x1="99.92" y1="57.17" x2="132.76" y2="57.17"/>
          <line class="cls-2" x1="99.92" y1="50.64" x2="132.76" y2="50.64"/>
          <line class="cls-2" x1="99.92" y1="44.12" x2="132.76" y2="44.12"/>
          <line class="cls-2" x1="99.92" y1="37.6" x2="132.76" y2="37.6"/>
        </g>
        <g>
          <line class="cls-2" x1="67.3" y1="66.95" x2="100.14" y2="66.95"/>
          <line class="cls-2" x1="67.3" y1="60.43" x2="100.14" y2="60.43"/>
          <line class="cls-2" x1="67.3" y1="53.91" x2="100.14" y2="53.91"/>
          <line class="cls-2" x1="67.3" y1="47.38" x2="100.14" y2="47.38"/>
          <line class="cls-2" x1="67.3" y1="40.86" x2="100.14" y2="40.86"/>
          <line class="cls-2" x1="67.3" y1="63.69" x2="100.14" y2="63.69"/>
          <line class="cls-2" x1="67.3" y1="57.17" x2="100.14" y2="57.17"/>
          <line class="cls-2" x1="67.3" y1="50.64" x2="100.14" y2="50.64"/>
          <line class="cls-2" x1="67.3" y1="44.12" x2="100.14" y2="44.12"/>
          <line class="cls-2" x1="67.3" y1="37.6" x2="100.14" y2="37.6"/>
        </g>
        <g>
          <line class="cls-2" x1="34.68" y1="66.95" x2="67.53" y2="66.95"/>
          <line class="cls-2" x1="34.68" y1="60.43" x2="67.53" y2="60.43"/>
          <line class="cls-2" x1="34.68" y1="53.91" x2="67.53" y2="53.91"/>
          <line class="cls-2" x1="34.68" y1="47.38" x2="67.53" y2="47.38"/>
          <line class="cls-2" x1="34.68" y1="40.86" x2="67.53" y2="40.86"/>
          <line class="cls-2" x1="34.68" y1="63.69" x2="67.53" y2="63.69"/>
          <line class="cls-2" x1="34.68" y1="57.17" x2="67.53" y2="57.17"/>
          <line class="cls-2" x1="34.68" y1="50.64" x2="67.53" y2="50.64"/>
          <line class="cls-2" x1="34.68" y1="44.12" x2="67.53" y2="44.12"/>
          <line class="cls-2" x1="34.68" y1="37.6" x2="67.53" y2="37.6"/>
        </g>
      </g>
      <g class="cls-11">
        <g>
          <line class="cls-2" x1="99.92" y1="80" x2="132.76" y2="80"/>
          <line class="cls-2" x1="99.92" y1="73.48" x2="132.76" y2="73.48"/>
          <line class="cls-2" x1="99.92" y1="76.74" x2="132.76" y2="76.74"/>
          <line class="cls-2" x1="99.92" y1="70.21" x2="132.76" y2="70.21"/>
        </g>
        <g>
          <line class="cls-2" x1="67.3" y1="80" x2="100.14" y2="80"/>
          <line class="cls-2" x1="67.3" y1="73.48" x2="100.14" y2="73.48"/>
          <line class="cls-2" x1="67.3" y1="76.74" x2="100.14" y2="76.74"/>
          <line class="cls-2" x1="67.3" y1="70.21" x2="100.14" y2="70.21"/>
        </g>
        <g>
          <line class="cls-2" x1="34.68" y1="80" x2="67.53" y2="80"/>
          <line class="cls-2" x1="34.68" y1="73.48" x2="67.53" y2="73.48"/>
          <line class="cls-2" x1="34.68" y1="76.74" x2="67.53" y2="76.74"/>
          <line class="cls-2" x1="34.68" y1="70.21" x2="67.53" y2="70.21"/>
        </g>
      </g>
      <g class="cls-9">
        <g>
          <line class="cls-2" x1="67.3" y1="66.95" x2="100.14" y2="66.95"/>
          <line class="cls-2" x1="67.3" y1="60.43" x2="100.14" y2="60.43"/>
          <line class="cls-2" x1="67.3" y1="53.91" x2="100.14" y2="53.91"/>
          <line class="cls-2" x1="67.3" y1="47.38" x2="100.14" y2="47.38"/>
          <line class="cls-2" x1="67.3" y1="40.86" x2="100.14" y2="40.86"/>
          <line class="cls-2" x1="67.3" y1="63.69" x2="100.14" y2="63.69"/>
          <line class="cls-2" x1="67.3" y1="57.17" x2="100.14" y2="57.17"/>
          <line class="cls-2" x1="67.3" y1="50.64" x2="100.14" y2="50.64"/>
          <line class="cls-2" x1="67.3" y1="44.12" x2="100.14" y2="44.12"/>
          <line class="cls-2" x1="67.3" y1="37.6" x2="100.14" y2="37.6"/>
        </g>
        <g>
          <line class="cls-2" x1="34.68" y1="66.95" x2="67.53" y2="66.95"/>
          <line class="cls-2" x1="34.68" y1="60.43" x2="67.53" y2="60.43"/>
          <line class="cls-2" x1="34.68" y1="53.91" x2="67.53" y2="53.91"/>
          <line class="cls-2" x1="34.68" y1="47.38" x2="67.53" y2="47.38"/>
          <line class="cls-2" x1="34.68" y1="40.86" x2="67.53" y2="40.86"/>
          <line class="cls-2" x1="34.68" y1="63.69" x2="67.53" y2="63.69"/>
          <line class="cls-2" x1="34.68" y1="57.17" x2="67.53" y2="57.17"/>
          <line class="cls-2" x1="34.68" y1="50.64" x2="67.53" y2="50.64"/>
          <line class="cls-2" x1="34.68" y1="44.12" x2="67.53" y2="44.12"/>
          <line class="cls-2" x1="34.68" y1="37.6" x2="67.53" y2="37.6"/>
        </g>
        <g>
          <line class="cls-2" x1="2.07" y1="66.95" x2="34.91" y2="66.95"/>
          <line class="cls-2" x1="2.07" y1="60.43" x2="34.91" y2="60.43"/>
          <line class="cls-2" x1="2.07" y1="53.91" x2="34.91" y2="53.91"/>
          <line class="cls-2" x1="2.07" y1="47.38" x2="34.91" y2="47.38"/>
          <line class="cls-2" x1="2.07" y1="40.86" x2="34.91" y2="40.86"/>
          <line class="cls-2" x1="2.07" y1="63.69" x2="34.91" y2="63.69"/>
          <line class="cls-2" x1="2.07" y1="57.17" x2="34.91" y2="57.17"/>
          <line class="cls-2" x1="2.07" y1="50.64" x2="34.91" y2="50.64"/>
          <line class="cls-2" x1="2.07" y1="44.12" x2="34.91" y2="44.12"/>
          <line class="cls-2" x1="2.07" y1="37.6" x2="34.91" y2="37.6"/>
        </g>
      </g>
      <g class="cls-10">
        <g>
          <line class="cls-2" x1="67.3" y1="80" x2="100.14" y2="80"/>
          <line class="cls-2" x1="67.3" y1="73.48" x2="100.14" y2="73.48"/>
          <line class="cls-2" x1="67.3" y1="76.74" x2="100.14" y2="76.74"/>
          <line class="cls-2" x1="67.3" y1="70.21" x2="100.14" y2="70.21"/>
        </g>
        <g>
          <line class="cls-2" x1="34.68" y1="80" x2="67.53" y2="80"/>
          <line class="cls-2" x1="34.68" y1="73.48" x2="67.53" y2="73.48"/>
          <line class="cls-2" x1="34.68" y1="76.74" x2="67.53" y2="76.74"/>
          <line class="cls-2" x1="34.68" y1="70.21" x2="67.53" y2="70.21"/>
        </g>
        <g>
          <line class="cls-2" x1="2.07" y1="80" x2="34.91" y2="80"/>
          <line class="cls-2" x1="2.07" y1="73.48" x2="34.91" y2="73.48"/>
          <line class="cls-2" x1="2.07" y1="76.74" x2="34.91" y2="76.74"/>
          <line class="cls-2" x1="2.07" y1="70.21" x2="34.91" y2="70.21"/>
        </g>
      </g>
      <g class="cls-14">
        <g>
          <line class="cls-2" x1="34.68" y1="66.95" x2="67.53" y2="66.95"/>
          <line class="cls-2" x1="34.68" y1="60.43" x2="67.53" y2="60.43"/>
          <line class="cls-2" x1="34.68" y1="53.91" x2="67.53" y2="53.91"/>
          <line class="cls-2" x1="34.68" y1="47.38" x2="67.53" y2="47.38"/>
          <line class="cls-2" x1="34.68" y1="40.86" x2="67.53" y2="40.86"/>
          <line class="cls-2" x1="34.68" y1="63.69" x2="67.53" y2="63.69"/>
          <line class="cls-2" x1="34.68" y1="57.17" x2="67.53" y2="57.17"/>
          <line class="cls-2" x1="34.68" y1="50.64" x2="67.53" y2="50.64"/>
          <line class="cls-2" x1="34.68" y1="44.12" x2="67.53" y2="44.12"/>
          <line class="cls-2" x1="34.68" y1="37.6" x2="67.53" y2="37.6"/>
        </g>
        <g>
          <line class="cls-2" x1="2.07" y1="66.95" x2="34.91" y2="66.95"/>
          <line class="cls-2" x1="2.07" y1="60.43" x2="34.91" y2="60.43"/>
          <line class="cls-2" x1="2.07" y1="53.91" x2="34.91" y2="53.91"/>
          <line class="cls-2" x1="2.07" y1="47.38" x2="34.91" y2="47.38"/>
          <line class="cls-2" x1="2.07" y1="40.86" x2="34.91" y2="40.86"/>
          <line class="cls-2" x1="2.07" y1="63.69" x2="34.91" y2="63.69"/>
          <line class="cls-2" x1="2.07" y1="57.17" x2="34.91" y2="57.17"/>
          <line class="cls-2" x1="2.07" y1="50.64" x2="34.91" y2="50.64"/>
          <line class="cls-2" x1="2.07" y1="44.12" x2="34.91" y2="44.12"/>
          <line class="cls-2" x1="2.07" y1="37.6" x2="34.91" y2="37.6"/>
        </g>
        <g>
          <line class="cls-2" x1="-30.55" y1="66.95" x2="2.29" y2="66.95"/>
          <line class="cls-2" x1="-30.55" y1="60.43" x2="2.29" y2="60.43"/>
          <line class="cls-2" x1="-30.55" y1="53.91" x2="2.29" y2="53.91"/>
          <line class="cls-2" x1="-30.55" y1="47.38" x2="2.29" y2="47.38"/>
          <line class="cls-2" x1="-30.55" y1="40.86" x2="2.29" y2="40.86"/>
          <line class="cls-2" x1="-30.55" y1="63.69" x2="2.29" y2="63.69"/>
          <line class="cls-2" x1="-30.55" y1="57.17" x2="2.29" y2="57.17"/>
          <line class="cls-2" x1="-30.55" y1="50.64" x2="2.29" y2="50.64"/>
          <line class="cls-2" x1="-30.55" y1="44.12" x2="2.29" y2="44.12"/>
          <line class="cls-2" x1="-30.55" y1="37.6" x2="2.29" y2="37.6"/>
        </g>
      </g>
      <g class="cls-12">
        <g>
          <line class="cls-2" x1="34.68" y1="80" x2="67.53" y2="80"/>
          <line class="cls-2" x1="34.68" y1="73.48" x2="67.53" y2="73.48"/>
          <line class="cls-2" x1="34.68" y1="76.74" x2="67.53" y2="76.74"/>
          <line class="cls-2" x1="34.68" y1="70.21" x2="67.53" y2="70.21"/>
        </g>
        <g>
          <line class="cls-2" x1="2.07" y1="80" x2="34.91" y2="80"/>
          <line class="cls-2" x1="2.07" y1="73.48" x2="34.91" y2="73.48"/>
          <line class="cls-2" x1="2.07" y1="76.74" x2="34.91" y2="76.74"/>
          <line class="cls-2" x1="2.07" y1="70.21" x2="34.91" y2="70.21"/>
        </g>
        <g>
          <line class="cls-2" x1="-30.55" y1="80" x2="2.29" y2="80"/>
          <line class="cls-2" x1="-30.55" y1="73.48" x2="2.29" y2="73.48"/>
          <line class="cls-2" x1="-30.55" y1="76.74" x2="2.29" y2="76.74"/>
          <line class="cls-2" x1="-30.55" y1="70.21" x2="2.29" y2="70.21"/>
        </g>
      </g>
    </g>
    <g>
      <g>
        <polygon class="cls-6" points="61.45 63.17 79.08 63.17 86.93 52.26 69.32 52.26 61.45 63.17"/>
        <path class="cls-3" d="M61.45,63.57c-.15,0-.29-.08-.36-.22-.07-.13-.06-.29.03-.42l7.86-10.91c.08-.1.2-.17.32-.17h17.61c.15,0,.29.08.36.22.07.13.06.29-.03.42l-7.85,10.91c-.08.1-.2.17-.32.17h-17.63ZM69.52,52.66l-7.29,10.11h16.64s7.27-10.11,7.27-10.11h-16.62Z"/>
      </g>
      <g>
        <rect class="cls-6" x="80.28" y="63.5" width="13.29" height="10.58"/>
        <path class="cls-3" d="M93.57,74.48h-13.29c-.22,0-.4-.18-.4-.4v-10.58c0-.22.18-.4.4-.4h13.29c.22,0,.4.18.4.4v10.58c0,.22-.18.4-.4.4ZM80.68,73.68h12.49v-9.78h-12.49v9.78Z"/>
      </g>
      <g>
        <polygon class="cls-15" points="80.28 63.17 80.28 74.08 64.34 74.08 64.34 63.17 64.54 63.38 72.55 52.46 72.41 52.26 79.68 62.38 80.25 63.17 80.28 63.17"/>
        <path class="cls-3" d="M64.34,74.48c-.11,0-.21-.04-.28-.12-.07-.07-.12-.18-.12-.28v-10.91c0-.16.1-.31.25-.37.09-.04.19-.04.28,0l7.59-10.34c-.1-.18-.05-.4.11-.52.18-.13.43-.09.56.09h0s7.79,10.84,7.79,10.84c.09.07.16.18.16.3v10.91c0,.22-.18.4-.4.4h-15.95ZM64.74,63.73v9.95h15.15v-10.33l-7.33-10.2-7.69,10.48s-.07.08-.12.11Z"/>
      </g>
      <g>
        <rect class="cls-15" x="69.06" y="61.65" width="3.49" height="4.06"/>
        <path class="cls-3" d="M69.06,66.11c-.11,0-.21-.04-.28-.12-.08-.07-.12-.18-.12-.28v-4.06c0-.22.18-.4.4-.4h3.49c.22,0,.4.18.4.4v4.06c0,.22-.18.4-.4.4h-3.49ZM69.46,62.05v3.26h2.69v-3.26h-2.69Z"/>
      </g>
      <g>
        <polygon class="cls-6" points="94.96 63.17 76.57 63.68 69.32 52.26 87.1 52.26 94.96 63.17"/>
        <path class="cls-3" d="M76.57,64.08c-.14,0-.26-.07-.34-.19l-7.25-11.42c-.08-.12-.08-.28-.01-.41.07-.13.2-.21.35-.21h17.78c.13,0,.25.06.32.17l7.86,10.91c.09.12.1.28.03.41s-.2.22-.35.22l-18.39.51h-.01ZM70.04,52.66l6.74,10.61,17.41-.49-7.3-10.13h-16.85Z"/>
      </g>
    </g>
    <g>
      <path class="cls-6" d="M49.79,14.96c-.07.68-.08,1.35-.02,2,.19,2.16,2.04,3.79,4.21,3.79h26.95s1.61,0,1.61,0h12.32c2.27,0,4.2-1.79,4.23-4.05,0-.02,0-.03,0-.05,0-1.4-.56-2.67-1.49-3.58-.91-.92-2.18-1.49-3.58-1.49h-3.18c-1.24-1.39-3.04-2.26-5.04-2.26-1.54,0-2.95.5-4.07,1.37-1.13-.86-2.54-1.37-4.07-1.37-1.23,0-2.39.33-3.38.9-.99-.58-2.14-.9-3.38-.9-1.04,0-2.02.23-2.9.66-2.04-2.7-5.39-4.35-9.1-4-4.74.45-8.6,4.26-9.11,8.99Z"/>
      <path class="cls-3" d="M94.86,21.15h-40.88c-2.38,0-4.4-1.83-4.61-4.16-.06-.68-.05-1.38.02-2.07h0c.53-4.95,4.52-8.88,9.47-9.35,3.58-.33,7.02,1.12,9.26,3.91,1.94-.83,4.28-.72,6.16.29,1.03-.55,2.19-.85,3.38-.85,1.48,0,2.88.44,4.07,1.27,1.19-.83,2.59-1.27,4.07-1.27,1.98,0,3.87.82,5.22,2.26h3c1.46,0,2.83.57,3.86,1.61,1.03,1.03,1.6,2.4,1.6,3.86-.02,2.51-2.1,4.5-4.63,4.5ZM50.19,15h0c-.07.64-.08,1.29-.02,1.92.17,1.92,1.84,3.43,3.81,3.43h40.88c2.09,0,3.81-1.64,3.83-3.66,0-1.3-.49-2.47-1.37-3.35-.88-.89-2.05-1.37-3.29-1.37h-3.18c-.11,0-.22-.05-.3-.13-1.2-1.35-2.93-2.12-4.74-2.12-1.41,0-2.73.44-3.83,1.28-.14.11-.34.11-.49,0-1.1-.84-2.42-1.28-3.83-1.28-1.12,0-2.22.29-3.17.85-.12.07-.28.07-.4,0-1.77-1.03-4.07-1.12-5.9-.23-.17.08-.38.03-.49-.12-2.06-2.73-5.33-4.17-8.75-3.85-4.58.43-8.26,4.06-8.75,8.64Z"/>
      <g class="cls-13">
        <rect class="cls-3" x="42.42" y="18.63" width="59.49" height="5.43"/>
      </g>
    </g>
    <g>
      <path class="cls-6" d="M19.39,19.09c-.07.68-.08,1.35-.02,2,.19,2.16,2.04,3.79,4.21,3.79h26.95s1.61,0,1.61,0h12.32c2.27,0,4.2-1.79,4.23-4.05,0-.02,0-.03,0-.05,0-1.4-.56-2.67-1.49-3.58-.91-.92-2.18-1.49-3.58-1.49h-3.18c-1.24-1.39-3.04-2.26-5.04-2.26-1.54,0-2.95.5-4.07,1.37-1.13-.86-2.54-1.37-4.07-1.37-1.23,0-2.39.33-3.38.9-.99-.58-2.14-.9-3.38-.9-1.04,0-2.02.23-2.9.66-2.04-2.7-5.39-4.35-9.1-4-4.74.45-8.6,4.26-9.11,8.99Z"/>
      <path class="cls-3" d="M23.58,25.28c-2.38,0-4.4-1.83-4.61-4.16-.06-.68-.05-1.38.02-2.07h0c.53-4.95,4.52-8.88,9.47-9.35,3.59-.33,7.02,1.12,9.26,3.91,1.94-.83,4.29-.72,6.16.29,1.03-.55,2.19-.85,3.38-.85,1.48,0,2.88.44,4.07,1.27,1.19-.83,2.59-1.27,4.07-1.27h0c1.98,0,3.87.82,5.22,2.26h3c1.46,0,2.83.57,3.86,1.61,1.03,1.03,1.6,2.4,1.6,3.86-.02,2.51-2.1,4.5-4.63,4.5H23.58ZM29.48,10.45c-.31,0-.63.01-.94.04-4.58.43-8.26,4.06-8.75,8.64h0c-.07.64-.08,1.28-.02,1.92.17,1.92,1.84,3.43,3.81,3.43h40.88c2.09,0,3.81-1.64,3.83-3.66,0-1.3-.49-2.47-1.37-3.35-.88-.88-2.05-1.37-3.29-1.37h-3.18c-.11,0-.22-.05-.3-.13-1.2-1.35-2.93-2.12-4.74-2.12h0c-1.41,0-2.73.44-3.83,1.28-.14.11-.34.11-.49,0-1.1-.84-2.42-1.28-3.83-1.28-1.12,0-2.22.29-3.17.85-.12.07-.28.07-.4,0-1.77-1.03-4.07-1.12-5.9-.23-.17.08-.38.03-.49-.12-1.87-2.48-4.74-3.89-7.8-3.89ZM19.39,19.09h.01-.01Z"/>
      <g class="cls-7">
        <rect class="cls-3" x="14" y="22.89" width="71.85" height="6"/>
      </g>
    </g>
    <g>
      <g>
        <rect class="cls-6" x="53.36" y="41.17" width="3.07" height="7.4"/>
        <path class="cls-3" d="M56.43,48.97h-3.07c-.22,0-.4-.18-.4-.4v-7.4c0-.22.18-.4.4-.4h3.07c.22,0,.4.18.4.4v7.4c0,.22-.18.4-.4.4ZM53.76,48.17h2.27v-6.6h-2.27v6.6Z"/>
      </g>
      <g>
        <path class="cls-6" d="M44.14,44.08v-6.34h-13.04v3.67l-2.91,2.06v12.82h2.91v-.69h27.97v-7.32c-2.84-2.84-12.27-4.2-14.93-4.2Z"/>
        <path class="cls-3" d="M31.1,56.68h-2.91c-.22,0-.4-.18-.4-.4v-12.82c0-.13.06-.25.17-.33l2.75-1.94v-3.46c0-.22.18-.4.4-.4h13.04c.22,0,.4.18.4.4v5.95c3.03.12,11.98,1.48,14.81,4.31.07.07.12.18.12.28v7.32c0,.22-.18.4-.4.4h-27.57v.29c0,.22-.18.4-.4.4ZM28.59,55.88h2.11v-.29c0-.22.18-.4.4-.4h27.57v-6.75c-2.82-2.61-11.85-3.97-14.53-3.97-.22,0-.4-.18-.4-.4v-5.94h-12.24v3.27c0,.13-.06.25-.17.33l-2.75,1.94v12.21Z"/>
      </g>
      <path class="cls-3" d="M32.71,38.16v5.35s.63,0,.63,0c3.29,0,6.36,1.66,8.16,4.41l1.05,1.61v-11.38s-9.84,0-9.84,0Z"/>
      <g>
        <rect class="cls-6" x="30.63" y="36.14" width="13.76" height="2.02"/>
        <path class="cls-3" d="M44.39,38.56h-13.76c-.22,0-.4-.18-.4-.4v-2.02c0-.22.18-.4.4-.4h13.76c.22,0,.4.18.4.4v2.02c0,.22-.18.4-.4.4ZM31.03,37.76h12.96v-1.22h-12.96v1.22Z"/>
      </g>
      <g>
        <circle class="cls-3" cx="33.93" cy="52.68" r="7.26" transform="translate(-5.04 3.61) rotate(-5.68)"/>
        <path class="cls-3" d="M33.93,60.33c-4.22,0-7.66-3.44-7.66-7.66,0-2.05.8-3.97,2.24-5.42,1.45-1.45,3.37-2.24,5.41-2.24h0c4.22,0,7.66,3.44,7.66,7.66h0c0,4.22-3.44,7.66-7.66,7.66ZM33.93,45.82c-1.83,0-3.55.71-4.85,2.01-1.3,1.3-2.01,3.02-2.01,4.85,0,3.78,3.08,6.86,6.86,6.86,3.78,0,6.86-3.08,6.86-6.86,0-3.78-3.08-6.86-6.86-6.86h0ZM41.19,52.67h.01-.01Z"/>
      </g>
      <g>
        <circle class="cls-15" cx="33.93" cy="52.68" r="5.13" transform="translate(-5.08 3.64) rotate(-5.72)"/>
        <path class="cls-3" d="M33.93,58.2c-3.05,0-5.52-2.48-5.52-5.52,0-3.05,2.48-5.52,5.53-5.52s5.52,2.48,5.52,5.52h0c0,3.05-2.48,5.52-5.53,5.52ZM33.93,47.95c-2.61,0-4.73,2.12-4.73,4.73,0,2.61,2.12,4.73,4.73,4.73s4.73-2.12,4.73-4.73c0-2.61-2.12-4.73-4.73-4.73ZM39.06,52.67h.01-.01Z"/>
      </g>
      <g>
        <circle class="cls-3" cx="52.68" cy="54.6" r="5.16" transform="translate(-5.06 5.39) rotate(-5.58)"/>
        <path class="cls-3" d="M52.68,60.16c-1.49,0-2.88-.58-3.93-1.63-1.05-1.05-1.63-2.45-1.63-3.93,0-3.07,2.49-5.56,5.56-5.56,3.07,0,5.56,2.5,5.56,5.56h0c0,3.07-2.49,5.56-5.56,5.56ZM52.68,49.84c-2.62,0-4.76,2.14-4.76,4.76,0,1.27.5,2.47,1.39,3.37.9.9,2.09,1.39,3.37,1.39,2.62,0,4.76-2.14,4.76-4.76,0-2.62-2.14-4.76-4.76-4.76ZM57.84,54.6h.01-.01Z"/>
      </g>
      <g>
        <circle class="cls-15" cx="52.68" cy="54.6" r="3.05" transform="translate(-5 5.31) rotate(-5.51)"/>
        <path class="cls-3" d="M52.68,58.04c-1.9,0-3.45-1.55-3.45-3.45,0-1.9,1.55-3.44,3.45-3.44s3.45,1.55,3.45,3.44-1.55,3.45-3.45,3.45ZM52.68,51.95c-1.46,0-2.65,1.19-2.65,2.65,0,1.46,1.19,2.65,2.65,2.65s2.65-1.19,2.65-2.65-1.19-2.65-2.65-2.65Z"/>
      </g>
    </g>
  </g>
</svg>