<?xml version="1.0" encoding="UTF-8"?>
<svg id="arrows" xmlns="http://www.w3.org/2000/svg" viewBox="0 0 32.13 90.25">
  <defs>
    <style>
      .cls-1 {
        fill: #fff;
      }

      .cls-2 {
        fill: #ea4949;
      }
    </style>
  </defs>
  <g>
    <path class="cls-1" d="M31.73,74.2c0,8.63-7.02,15.65-15.68,15.65-8.63,0-15.65-7.02-15.65-15.65,0-6.23,3.65-11.62,8.91-14.14V7.2c0-1.86.75-3.56,1.98-4.82,1.23-1.23,2.93-1.98,4.79-1.98,3.75,0,6.8,3.05,6.8,6.8v52.9c5.23,2.55,8.85,7.9,8.85,14.11Z"/>
    <path class="cls-2" d="M16.05,90.25C7.2,90.25,0,83.05,0,74.2,0,68.14,3.49,62.52,8.91,59.82V7.2c0-1.9.74-3.71,2.1-5.1C12.37.75,14.17,0,16.08,0,20.05,0,23.28,3.23,23.28,7.2v52.65c5.46,2.77,8.85,8.25,8.85,14.35,0,8.85-7.21,16.05-16.08,16.05ZM16.08.8c-1.7,0-3.3.66-4.5,1.87-1.2,1.23-1.87,2.84-1.87,4.53v53.12l-.23.11c-5.28,2.53-8.68,7.93-8.68,13.78,0,8.41,6.84,15.25,15.25,15.25s15.28-6.84,15.28-15.25c0-5.88-3.3-11.15-8.62-13.75l-.22-.11V7.2c0-3.53-2.87-6.4-6.4-6.4Z"/>
  </g>
  <rect class="cls-2" x="15.66" y="15.47" width=".8" height="58.72"/>
  <circle class="cls-2" cx="16.06" cy="74.2" r="6.81"/>
</svg>