<?xml version="1.0" encoding="UTF-8"?>
<svg id="region_illustration" data-name="region illustration" xmlns="http://www.w3.org/2000/svg" viewBox="0 0 120 80">
  <defs>
    <style>
      .cls-1 {
        fill: #231f20;
      }

      .cls-2 {
        fill: #efefef;
      }

      .cls-3 {
        fill: #fff;
      }
    </style>
  </defs>
  <g id="east_antratica" data-name="east antratica">
    <rect class="cls-1" x="29.13" y="57.33" width="88.11" height="4.04"/>
    <rect class="cls-1" x="22.52" y="57.46" width="73.81" height="5.3"/>
    <rect class="cls-1" x="40.67" y="57.31" width="76.47" height="5.3"/>
    <g>
      <g>
        <line class="cls-2" x1="35.04" y1="53.41" x2="110.53" y2="53.41"/>
        <path class="cls-1" d="M110.53,53.81H35.04c-.22,0-.4-.18-.4-.4s.18-.4.4-.4h75.49c.22,0,.4.18.4.4s-.18.4-.4.4Z"/>
      </g>
      <g>
        <line class="cls-2" x1="12.63" y1="57.63" x2="103.77" y2="57.63"/>
        <path class="cls-1" d="M103.77,58.03H12.63c-.22,0-.4-.18-.4-.4s.18-.4.4-.4h91.15c.22,0,.4.18.4.4s-.18.4-.4.4Z"/>
      </g>
      <g>
        <g>
          <path class="cls-3" d="M105.06,44.83l-9.98-3.99-8.71-3.57c-3.65-1.5-7.7-1.71-11.49-.62l-4.91,1.42c-2.26.65-4.63.85-6.97.56l-1.61-.2c-2.86-.35-5.77.02-8.45,1.07l-7.78,3.03c-.61.24-1.2.51-1.78.81l-7.87,4.13-2.96,1.5-7.02,2.77v9.26s82.03,0,82.03,0l-2.5-16.18Z"/>
          <path class="cls-1" d="M107.55,61.41H25.53c-.22,0-.4-.18-.4-.4v-9.26c0-.16.1-.31.25-.37l7.02-2.77,2.93-1.49,7.86-4.13c.59-.31,1.2-.59,1.82-.83l7.78-3.03c2.74-1.07,5.73-1.44,8.65-1.09l1.61.2c2.3.28,4.59.09,6.81-.55l4.91-1.42c3.86-1.12,8.03-.89,11.75.63l8.71,3.57,9.98,3.99c.13.05.23.17.25.31l2.5,16.18c.02.12-.02.23-.09.32-.08.09-.19.14-.3.14ZM25.93,60.61h81.16l-2.39-15.49-9.77-3.91-8.71-3.57c-3.55-1.46-7.54-1.67-11.23-.6l-4.91,1.42c-2.33.67-4.72.87-7.13.57l-1.61-.2c-2.79-.34-5.64.02-8.26,1.04l-7.78,3.03c-.59.23-1.17.5-1.74.79l-10.84,5.63-6.8,2.69v8.59Z"/>
        </g>
        <g>
          <polygon class="cls-2" points="107.55 61.01 25.53 61.01 25.53 51.75 42.06 53.56 50.17 49.55 50.48 52.17 59.52 49.89 60.77 45.18 66.54 45.18 63.89 50.19 66.54 50.99 69.5 47.23 80.73 42.89 77.92 47.94 80.73 51.41 86.66 46.76 92.9 44.9 96.01 48.98 88.84 51.19 89.78 53.96 94.77 52.83 102.88 47.94 105.06 54.95 107.55 61.01"/>
          <path class="cls-1" d="M107.55,61.41H25.53c-.22,0-.4-.18-.4-.4v-9.26c0-.11.05-.22.13-.3.08-.08.2-.12.31-.1l16.41,1.8,8-3.96c.12-.06.25-.05.37,0s.19.18.21.3l.26,2.18,8.38-2.11,1.19-4.48c.05-.18.21-.3.39-.3h5.77c.14,0,.27.07.34.19.07.12.08.27.01.39l-2.42,4.58,1.92.58,2.79-3.55c.04-.06.1-.1.17-.13l11.23-4.33c.16-.06.34-.02.45.11.11.13.13.31.05.46l-2.68,4.82,2.39,2.95,5.62-4.41s.08-.05.13-.07l6.24-1.85c.16-.05.33,0,.43.14l3.12,4.07c.08.1.1.24.06.36s-.14.22-.26.26l-6.78,2.09.69,2.04,4.58-1.04,8.05-4.85c.11-.06.23-.07.35-.03.11.04.2.14.24.25l2.18,7.01,2.48,6.03c.05.12.04.26-.04.38-.07.11-.2.18-.33.18ZM25.93,60.61h81.03l-2.27-5.51-2.04-6.55-7.67,4.62s-.08.04-.12.05l-4.99,1.13c-.2.05-.4-.07-.47-.26l-.94-2.77c-.03-.1-.03-.21.02-.31.05-.1.14-.17.24-.2l6.62-2.04-2.6-3.4-5.9,1.75-5.87,4.6c-.17.14-.42.11-.56-.06l-2.81-3.46c-.1-.13-.12-.3-.04-.45l2.27-4.09-10.1,3.9-2.9,3.68c-.1.13-.27.18-.43.14l-2.65-.8c-.11-.03-.21-.12-.25-.23s-.04-.24.02-.34l2.34-4.42h-4.8l-1.17,4.41c-.04.14-.15.25-.29.29l-9.05,2.28c-.11.03-.23,0-.32-.06-.09-.07-.16-.17-.17-.28l-.25-2.06-7.6,3.76c-.07.03-.14.05-.22.04l-16.09-1.76v8.42Z"/>
        </g>
        <g>
          <line class="cls-2" x1="80.73" y1="51.41" x2="80.5" y2="61.01"/>
          <path class="cls-1" d="M80.5,61.41h-.01c-.22,0-.4-.19-.39-.41l.23-9.6c0-.22.19-.4.41-.39.22,0,.4.19.39.41l-.23,9.6c0,.22-.18.39-.4.39Z"/>
        </g>
        <g>
          <line class="cls-2" x1="89.78" y1="53.96" x2="89.85" y2="61.01"/>
          <path class="cls-1" d="M89.85,61.41c-.22,0-.4-.18-.4-.4l-.08-7.05c0-.22.17-.4.4-.4.2,0,.4.17.4.4l.08,7.05c0,.22-.17.4-.4.4h0Z"/>
        </g>
        <g>
          <line class="cls-2" x1="102.88" y1="47.94" x2="103.19" y2="61.01"/>
          <path class="cls-1" d="M103.19,61.41c-.22,0-.39-.17-.4-.39l-.31-13.07c0-.22.17-.4.39-.41.22.02.4.17.41.39l.31,13.07c0,.22-.17.4-.39.41h0Z"/>
        </g>
        <g>
          <line class="cls-2" x1="94.77" y1="52.83" x2="95.94" y2="61.01"/>
          <path class="cls-1" d="M95.94,61.41c-.2,0-.37-.14-.4-.34l-1.17-8.18c-.03-.22.12-.42.34-.45.22-.03.42.12.45.34l1.17,8.18c.03.22-.12.42-.34.45-.02,0-.04,0-.06,0Z"/>
        </g>
        <g>
          <line class="cls-2" x1="69.5" y1="47.23" x2="71.61" y2="61.01"/>
          <path class="cls-1" d="M71.61,61.41c-.19,0-.36-.14-.39-.34l-2.11-13.79c-.03-.22.12-.42.33-.46.22-.03.42.12.46.33l2.11,13.79c.03.22-.12.42-.33.46-.02,0-.04,0-.06,0Z"/>
        </g>
        <g>
          <line class="cls-2" x1="66.54" y1="50.99" x2="66.54" y2="61.01"/>
          <path class="cls-1" d="M66.54,61.41c-.22,0-.4-.18-.4-.4v-10.02c0-.22.18-.4.4-.4s.4.18.4.4v10.02c0,.22-.18.4-.4.4Z"/>
        </g>
        <g>
          <line class="cls-2" x1="63.89" y1="50.19" x2="64.12" y2="61.01"/>
          <path class="cls-1" d="M64.12,61.41c-.22,0-.4-.17-.4-.39l-.23-10.82c0-.22.17-.4.39-.41.22-.01.4.17.41.39l.23,10.82c0,.22-.17.4-.39.41h0Z"/>
        </g>
        <g>
          <line class="cls-2" x1="50.48" y1="52.17" x2="50.79" y2="61.01"/>
          <path class="cls-1" d="M50.79,61.41c-.21,0-.39-.17-.4-.39l-.31-8.84c0-.22.16-.41.39-.41.23,0,.41.17.41.39l.31,8.84c0,.22-.16.41-.39.41h-.01Z"/>
        </g>
        <g>
          <line class="cls-2" x1="42.06" y1="53.56" x2="41.9" y2="61.01"/>
          <path class="cls-1" d="M41.9,61.41h0c-.22,0-.4-.19-.39-.41l.16-7.45c0-.22.18-.37.41-.39.22,0,.4.19.39.41l-.16,7.45c0,.22-.18.39-.4.39Z"/>
        </g>
      </g>
    </g>
    <g>
      <line class="cls-2" x1="25.53" y1="61.01" x2="116.67" y2="61.01"/>
      <path class="cls-1" d="M116.67,61.41H25.53c-.22,0-.4-.18-.4-.4s.18-.4.4-.4h91.15c.22,0,.4.18.4.4s-.18.4-.4.4Z"/>
    </g>
    <g>
      <line class="cls-2" x1="4.29" y1="69" x2="95.44" y2="69"/>
      <path class="cls-1" d="M95.44,69.4H4.29c-.22,0-.4-.18-.4-.4s.18-.4.4-.4h91.15c.22,0,.4.18.4.4s-.18.4-.4.4Z"/>
    </g>
    <g>
      <line class="cls-2" x1="19.68" y1="65.23" x2="110.83" y2="65.23"/>
      <path class="cls-1" d="M110.83,65.63H19.68c-.22,0-.4-.18-.4-.4s.18-.4.4-.4h91.15c.22,0,.4.18.4.4s-.18.4-.4.4Z"/>
    </g>
    <g>
      <line class="cls-2" x1="16.72" y1="61.01" x2="75.91" y2="61.01"/>
      <path class="cls-1" d="M75.91,61.41H16.72c-.22,0-.4-.18-.4-.4s.18-.4.4-.4h59.2c.22,0,.4.18.4.4s-.18.4-.4.4Z"/>
    </g>
  </g>
</svg>