<?xml version="1.0" encoding="UTF-8"?>
<svg id="region_illustration" data-name="region illustration" xmlns="http://www.w3.org/2000/svg" viewBox="0 0 120 80">
  <defs>
    <style>
      .cls-1 {
        fill: #231f20;
      }

      .cls-2 {
        fill: #f5f5f3;
      }

      .cls-2, .cls-3, .cls-4 {
        stroke: #231f20;
        stroke-linecap: round;
        stroke-linejoin: round;
        stroke-width: .8px;
      }

      .cls-3 {
        fill: #e04c4c;
      }

      .cls-4 {
        fill: #e0e0e0;
      }
    </style>
  </defs>
  <rect class="cls-1" x="15.92" y="57.75" width="97.46" height="4.99"/>
  <line class="cls-4" x1="31.29" y1="53.54" x2="106.77" y2="53.54"/>
  <line class="cls-4" x1="8.87" y1="57.75" x2="100.02" y2="57.75"/>
  <path class="cls-2" d="M103.8,61.14l-2.5-6.06-2.18-7.01-8.11,4.88-4.99,1.14-.94-2.77,7.18-2.21-3.12-4.08-6.24,1.85-5.93,4.66-2.8-3.47,2.8-5.05-11.23,4.33-2.96,3.76-2.65-.79,2.65-5.01h-5.77l-1.25,4.71-9.04,2.28-.31-2.63-8.11,4.02-16.53-1.81,7.01-2.77,2.97-1.51,7.86-4.13c.58-.3,1.17-.57,1.78-.81l7.79-3.03c2.68-1.05,5.59-1.41,8.45-1.07l1.61.2c2.34.28,4.71.09,6.97-.56l4.91-1.42c3.79-1.1,7.84-.88,11.49.61l8.71,3.58,9.98,3.99,2.5,16.18Z"/>
  <polygon class="cls-4" points="103.8 61.14 99.43 61.14 99.12 48.07 101.3 55.08 103.8 61.14"/>
  <polygon class="cls-4" points="99.43 61.14 92.18 61.14 91.01 52.95 99.12 48.07 99.43 61.14"/>
  <polygon class="cls-4" points="92.18 61.14 86.1 61.14 86.02 54.09 91.01 52.95 92.18 61.14"/>
  <polygon class="cls-4" points="86.02 54.09 86.1 61.14 76.74 61.14 76.97 51.54 82.9 46.88 89.14 45.03 92.26 49.11 85.08 51.32 86.02 54.09"/>
  <polygon class="cls-4" points="74.17 48.07 76.97 51.54 76.74 61.14 67.85 61.14 65.74 47.35 76.97 43.02 74.17 48.07"/>
  <polygon class="cls-4" points="67.85 61.14 62.78 61.14 62.78 51.11 65.74 47.35 67.85 61.14"/>
  <polygon class="cls-4" points="62.78 51.11 62.78 61.14 60.36 61.14 60.13 50.32 62.78 51.11"/>
  <polygon class="cls-4" points="60.13 50.32 60.36 61.14 47.03 61.14 46.72 52.3 55.76 50.02 57.01 45.31 62.78 45.31 60.13 50.32"/>
  <polygon class="cls-4" points="47.03 61.14 38.14 61.14 38.3 53.69 46.41 49.67 46.72 52.3 47.03 61.14"/>
  <polygon class="cls-4" points="38.3 53.69 38.14 61.14 21.77 61.14 21.77 51.88 38.3 53.69"/>
  <line class="cls-3" x1=".54" y1="69.13" x2="91.68" y2="69.13"/>
  <line class="cls-4" x1="15.92" y1="65.36" x2="107.07" y2="65.36"/>
  <line class="cls-4" x1="12.96" y1="61.14" x2="72.16" y2="61.14"/>
</svg>